<svg width="50" height="60" viewBox="0 0 80 91" fill="none" xmlns="http://www.w3.org/2000/svg">
<path d="M72.6715 41L72.5663 39.0516C72.3807 35.6422 75.6513 32.7378 80 32.2961C79.3 30.2083 77.2721 28.4264 74.3932 27.6965C69.8942 26.5563 65.036 28.415 63.5422 31.8465L59.5569 41H53.4999L53.3947 39.0516C53.2099 35.6422 56.479 32.7378 60.8277 32.2961C60.1284 30.2083 58.1005 28.4264 55.2209 27.6965C50.7225 26.5563 45.8644 28.415 44.3706 31.8465L40.3846 41H34.3276L34.2217 39.0516C34.0376 35.6422 37.3074 32.7378 41.6554 32.2961C40.9554 30.2083 38.9282 28.4264 36.0486 27.6965C31.5502 26.5563 26.6914 28.415 25.1976 31.8465L21.213 41H15.1552L15.0494 39.0516C14.8652 35.6422 18.1344 32.7378 22.4831 32.2961C21.7831 30.2083 19.7559 28.4264 16.8762 27.6965C12.3779 26.5563 7.51976 28.415 6.02597 31.8465L2.04064 41H0.148195C0.0578761 42.0898 0 43.1902 0 44.3042C0 65.9004 17.3659 83.4079 38.7885 83.4079C60.211 83.4079 77.5776 65.9004 77.5776 44.3042C77.5776 43.1902 77.5205 42.0898 77.4294 41H72.6715Z" fill="#DB8CB6" fill-opacity="0.5"/>
<path d="M72.6715 48.5921L72.5663 46.6431C72.3807 43.2343 75.6513 40.3299 80 39.8875C79.3 37.7997 77.2721 36.0171 74.3932 35.288C69.8942 34.1477 65.036 36.0064 63.5422 39.4379L59.5569 48.5921H53.4999L53.3947 46.6431C53.2099 43.2343 56.479 40.3299 60.8277 39.8875C60.1284 37.7997 58.1005 36.0171 55.2209 35.288C50.7225 34.1477 45.8644 36.0064 44.3706 39.4379L40.3846 48.5921H34.3276L34.2217 46.6431C34.0376 43.2343 37.3074 40.3299 41.6554 39.8875C40.9554 37.7997 38.9282 36.0171 36.0486 35.288C31.5502 34.1477 26.6914 36.0064 25.1976 39.4379L21.213 48.5921H15.1552L15.0494 46.6431C14.8652 43.2343 18.1344 40.3299 22.4831 39.8875C21.7831 37.7997 19.7559 36.0171 16.8762 35.288C12.3779 34.1477 7.51976 36.0064 6.02597 39.4379L2.04064 48.5921H0.148195C0.0578761 49.6819 0 50.7823 0 51.8963C0 73.4925 17.3659 91 38.7885 91C60.211 91 77.5776 73.4933 77.5776 51.8963C77.5776 50.7823 77.5205 49.6819 77.4294 48.5921H72.6715Z" fill="#DB8CB6"/>
<path d="M30.6139 65.1997C30.6139 66.8764 29.2655 68.2365 27.6017 68.2365C25.9385 68.2365 24.5901 66.8771 24.5901 65.1997C24.5901 63.5231 25.9385 62.1638 27.6017 62.1638C29.2648 62.163 30.6139 63.5224 30.6139 65.1997Z" fill="#E3F1FF"/>
<path d="M52.9878 65.1997C52.9878 66.8764 51.6393 68.2365 49.9762 68.2365C48.313 68.2365 46.9646 66.8771 46.9646 65.1997C46.9646 63.5231 48.313 62.1638 49.9762 62.1638C51.6393 62.1638 52.9878 63.5224 52.9878 65.1997Z" fill="#E3F1FF"/>
<path d="M34.4265 64.2368C34.3887 60.24 31.144 57.0304 27.1793 57.068C23.2147 57.1055 20.0307 60.376 20.0686 64.3728L34.4265 64.2368Z" fill="#DB8CB6"/>
<path d="M57.4265 64.2368C57.3887 60.24 54.144 57.0304 50.1793 57.068C46.2147 57.1055 43.0307 60.376 43.0686 64.3728L57.4265 64.2368Z" fill="#DB8CB6"/>
<path d="M31.9101 20.0881C31.9101 21.2881 30.9455 22.2598 29.7558 22.2598C28.5661 22.2598 27.6016 21.2881 27.6016 20.0881C27.6016 18.8888 28.5661 17.9164 29.7558 17.9164C30.9455 17.9164 31.9101 18.8888 31.9101 20.0881Z" fill="#DB8CB6" stroke="#DB8CB6" stroke-width="1.8293" stroke-miterlimit="10"/>
<path d="M38.7879 10.8214C38.7879 12.6624 37.3075 14.1548 35.4821 14.1548C33.6559 14.1548 32.1755 12.6624 32.1755 10.8214C32.1755 8.98049 33.6559 7.4881 35.4821 7.4881C37.3075 7.48881 38.7879 8.98049 38.7879 10.8214Z" fill="#DB8CB6" stroke="#DB8CB6" stroke-width="1.8293" stroke-miterlimit="10"/>
<path d="M44.3811 21.0007C44.3811 22.2206 43.4003 23.2094 42.1909 23.2094C40.9808 23.2094 39.9993 22.2206 39.9993 21.0007C39.9993 19.7808 40.9808 18.792 42.1909 18.792C43.401 18.7913 44.3811 19.78 44.3811 21.0007Z" fill="#DB8CB6" stroke="#DB8CB6" stroke-width="1.8293" stroke-miterlimit="10"/>
<path d="M53.2819 12.4888C53.2819 13.4086 52.5417 14.1555 51.6286 14.1555C50.7155 14.1555 49.9753 13.4093 49.9753 12.4888C49.9753 11.5683 50.7155 10.8221 51.6286 10.8221C52.5417 10.8214 53.2819 11.5683 53.2819 12.4888Z" fill="#DB8CB6" stroke="#DB8CB6" stroke-width="1.8293" stroke-miterlimit="10"/>
<path d="M48.6268 4.24441C48.6268 6.03628 47.186 7.48883 45.4085 7.48883C43.6325 7.48883 42.1909 6.03628 42.1909 4.24441C42.1909 2.45255 43.6325 1 45.4085 1C47.1853 1 48.6268 2.45255 48.6268 4.24441Z" fill="#DB8CB6" stroke="#DB8CB6" stroke-width="1.8293" stroke-miterlimit="10"/>
<path d="M30.5 74.5L41.5 78.5" stroke="#E3F1FF"/>
</svg>
