<svg width="50" height="60" viewBox="0 0 80 91" fill="none" xmlns="http://www.w3.org/2000/svg">
<path d="M79.9169 39.9864C79.8951 39.125 79.8551 38.2674 79.786 37.4195H77.9748C76.8725 36.3636 75.6655 35.2822 75.3093 33.9769C74.8025 32.1212 75.1762 30.8228 76.8849 31.3229C77.4971 31.5017 76.994 32.9856 78.3347 32.0904C78.859 31.7405 78.9731 30.6816 78.9717 30.0996C78.9681 25.6266 74.2215 25.9758 71.9537 28.4744C70.2101 30.3947 68.5588 34.61 69.3172 37.4202H64.1613C63.0597 36.3643 61.852 35.2829 61.4957 33.9777C60.9896 32.122 61.3626 30.8235 63.0713 31.3237C63.6836 31.5024 63.1804 32.9864 64.5212 32.0912C65.0462 31.7412 65.1596 30.6823 65.1596 30.1003C65.1552 25.6274 60.4087 25.9766 58.1408 28.4751C56.398 30.3954 54.746 34.6108 55.5044 37.421H50.3492C49.2469 36.3651 48.0399 35.2837 47.6836 33.9784C47.1768 32.1227 47.5498 30.8242 49.2592 31.3244C49.8715 31.5031 49.3683 32.9871 50.7091 32.0919C51.2333 31.742 51.3475 30.6831 51.3468 30.101C51.3431 25.6281 46.5959 25.9773 44.328 28.4759C42.5844 30.3962 40.9331 34.6115 41.6915 37.4218H36.5356C35.4333 36.3659 34.2263 35.2844 33.87 33.9792C33.3632 32.1235 33.7363 30.825 35.4457 31.3252C36.0579 31.5039 35.5548 32.9879 36.8955 32.0927C37.4198 31.7427 37.5339 30.6838 37.5332 30.1018C37.5288 25.6289 32.7823 25.9781 30.5152 28.4766C28.7716 30.3969 27.1203 34.6123 27.878 37.4225H22.7221C21.6198 36.3666 20.4128 35.2852 20.0565 33.9799C19.5497 32.1242 19.9227 30.8258 21.6321 31.3259C22.2451 31.5047 21.7412 32.9886 23.082 32.0934C23.6062 31.7435 23.7204 30.6846 23.7197 30.1026C23.716 25.6296 18.9687 25.9788 16.7016 28.4774C14.958 30.3977 13.3068 34.613 14.0644 37.4232H8.9085C7.80621 36.3673 6.59922 35.2859 6.24366 33.9807C5.73687 32.125 6.10988 30.8265 7.8193 31.3267C8.43153 31.5054 7.92763 32.9894 9.26914 32.0942C9.79339 31.7442 9.90754 30.6853 9.90682 30.1033C9.90245 25.6304 5.15591 25.9796 2.88806 28.4781C1.14446 30.3984 -0.506792 34.6138 0.250852 37.424H0.151965C0.0588953 38.5745 0 39.7363 0 40.9131C0 63.7126 17.8948 82.1968 39.9697 82.1968C61.9821 82.1968 79.8348 63.8162 79.9351 41.1054C80.0289 40.7126 80.0194 40.3424 79.9169 39.9864Z" fill="#E88A68" fill-opacity="0.5"/>
<path d="M79.9169 48.7941C79.8951 47.9327 79.8551 47.0758 79.786 46.2279H77.9748C76.8725 45.1713 75.6655 44.0906 75.3093 42.7854C74.8025 40.9297 75.1762 39.6305 76.8849 40.1306C77.4971 40.3101 76.994 41.7933 78.3347 40.8981C78.859 40.5474 78.9731 39.4885 78.9717 38.9065C78.9681 34.4336 74.2215 34.7828 71.9537 37.2813C70.2101 39.2024 68.5588 43.417 69.3172 46.2279H64.1613C63.0597 45.1713 61.852 44.0906 61.4957 42.7854C60.9896 40.9297 61.3626 39.6305 63.0713 40.1306C63.6836 40.3101 63.1804 41.7933 64.5212 40.8981C65.0462 40.5474 65.1596 39.4885 65.1596 38.9065C65.1552 34.4336 60.4087 34.7828 58.1408 37.2813C56.398 39.2024 54.746 43.417 55.5044 46.2279H50.3492C49.2469 45.1713 48.0399 44.0906 47.6836 42.7854C47.1768 40.9297 47.5498 39.6305 49.2592 40.1306C49.8715 40.3101 49.3683 41.7933 50.7091 40.8981C51.2333 40.5474 51.3475 39.4885 51.3468 38.9065C51.3431 34.4336 46.5959 34.7828 44.328 37.2813C42.5844 39.2024 40.9331 43.417 41.6915 46.2279H36.5356C35.4333 45.1713 34.2263 44.0906 33.87 42.7854C33.3632 40.9297 33.7363 39.6305 35.4457 40.1306C36.0579 40.3101 35.5548 41.7933 36.8955 40.8981C37.4198 40.5474 37.5339 39.4885 37.5332 38.9065C37.5288 34.4336 32.7823 34.7828 30.5152 37.2813C28.7716 39.2024 27.1203 43.417 27.878 46.2279H22.7221C21.6198 45.1713 20.4128 44.0906 20.0565 42.7854C19.5497 40.9297 19.9227 39.6305 21.6321 40.1306C22.2451 40.3101 21.7412 41.7933 23.082 40.8981C23.6062 40.5474 23.7204 39.4885 23.7197 38.9065C23.716 34.4336 18.9687 34.7828 16.7016 37.2813C14.958 39.2024 13.3068 43.417 14.0644 46.2279H8.9085C7.80621 45.1713 6.59922 44.0906 6.24366 42.7854C5.73687 40.9297 6.10988 39.6305 7.8193 40.1306C8.43153 40.3101 7.92763 41.7933 9.26914 40.8981C9.79339 40.5474 9.90754 39.4885 9.90682 38.9065C9.90245 34.4336 5.15591 34.7828 2.88806 37.2813C1.14446 39.2024 -0.506792 43.417 0.250852 46.2279H0.151965C0.0588953 47.3777 0 48.5395 0 49.7163C0 72.5165 17.8948 91 39.9697 91C61.9821 91 79.8348 72.6202 79.9351 49.9086C80.0289 49.5203 80.0194 49.1501 79.9169 48.7941Z" fill="#E88A68"/>
<path d="M30.5447 63.5708C30.5447 66.4464 28.2592 68.777 25.4391 68.777C22.6202 68.777 20.3347 66.4477 20.3347 63.5708C20.3347 60.6975 22.6202 58.367 25.4391 58.367C28.2592 58.367 30.5447 60.6975 30.5447 63.5708Z" fill="#F9F9F9"/>
<path d="M58.6006 63.5708C58.6006 66.4464 56.3148 68.777 53.4956 68.777C50.6764 68.777 48.3906 66.4477 48.3906 63.5708C48.3906 60.6975 50.6764 58.367 53.4956 58.367C56.3148 58.367 58.6006 60.6975 58.6006 63.5708Z" fill="#F9F9F9"/>
<path d="M45.1038 60.0928L52.6665 53.9072" stroke="#F9F9F9" stroke-width="1.8293" stroke-miterlimit="10"/>
<path d="M25.0935 52.8891L32.4692 59.2965" stroke="#F9F9F9" stroke-width="1.8293" stroke-miterlimit="10"/>
<path d="M47.9182 79.547C48.0048 74.8375 44.288 70.9502 39.6163 70.8643C34.9447 70.7784 31.0867 74.5265 31.0001 79.236L47.9182 79.547Z" fill="#F9F9F9"/>
<path d="M44.3412 19.1808C44.3412 20.7872 43.0811 22.0879 41.5265 22.0879C39.972 22.0879 38.7119 20.7865 38.7119 19.1808C38.7119 17.5752 39.972 16.2745 41.5265 16.2745C43.0811 16.2745 44.3412 17.5752 44.3412 19.1808Z" fill="#E88A68" stroke="#E88A68" stroke-width="1.8293" stroke-miterlimit="10"/>
<path d="M48.3722 13.3636C49.2291 13.3636 49.9238 12.6461 49.9238 11.761C49.9238 10.8759 49.2291 10.1584 48.3722 10.1584C47.5152 10.1584 46.8206 10.8759 46.8206 11.761C46.8206 12.6461 47.5152 13.3636 48.3722 13.3636Z" fill="#E88A68" stroke="#E88A68" stroke-width="1.8293" stroke-miterlimit="10"/>
<path d="M41.5265 3.32057C41.5265 4.60252 40.5209 5.6419 39.2797 5.6419C38.0385 5.6419 37.0322 4.60252 37.0322 3.32057C37.0322 2.03862 38.0385 1 39.2797 1C40.5202 1 41.5265 2.03862 41.5265 3.32057Z" fill="#E88A68" stroke="#E88A68" stroke-width="1.8293" stroke-miterlimit="10"/>
<path d="M29.8369 17.8223C29.8369 19.5841 28.454 21.0118 26.7482 21.0118C25.0431 21.0118 23.6602 19.5841 23.6602 17.8223C23.6602 16.0604 25.0431 14.6328 26.7482 14.6328C28.454 14.6328 29.8369 16.0612 29.8369 17.8223Z" fill="#E88A68" stroke="#E88A68" stroke-width="1.8293" stroke-miterlimit="10"/>
<path d="M28.0284 6.61215C28.0284 7.25726 27.5223 7.78146 26.897 7.78146C26.2717 7.78146 25.7656 7.25801 25.7656 6.61215C25.7656 5.96705 26.2717 5.4436 26.897 5.4436C27.5223 5.4436 28.0284 5.9663 28.0284 6.61215Z" fill="#E88A68" stroke="#E88A68" stroke-width="1.8293" stroke-miterlimit="10"/>
</svg>
