<svg width="50" height="60" viewBox="0 0 80 91" fill="none" xmlns="http://www.w3.org/2000/svg">
<path d="M79.7978 44.6765C79.9309 43.3211 80 41.9463 80 40.5551C80 39.3894 79.9411 38.238 79.8472 37.0969H69.073C67.7097 35.3149 66.7626 33.2576 65.6408 31.2545C64.4405 29.1116 62.7638 26.8972 60.7705 25.7531C59.2996 24.909 55.3459 23.9079 54.6352 26.3694C58.8668 28.569 58.3081 35.5457 54.8295 37.0961H51.8076C50.4444 35.3142 49.498 33.2568 48.3755 31.2538C47.1752 29.1108 45.4992 26.8964 43.5052 25.7523C42.0343 24.9083 38.0806 23.9071 37.3699 26.3687C41.6015 28.5682 41.0428 35.5449 37.5641 37.0954H34.5423C33.1791 35.3134 32.2319 33.2561 31.1095 31.2531C29.9099 29.1101 28.2331 26.8957 26.2399 25.7516C24.769 24.9075 20.8146 23.9064 20.1046 26.3679C24.3362 28.5675 23.7775 35.5442 20.2995 37.0946H17.277C15.9145 35.3127 14.9666 33.2553 13.8441 31.2523C12.6446 29.1093 10.9678 26.8949 8.97456 25.7509C7.50366 24.9068 3.54996 23.9056 2.83924 26.3672C7.07083 28.5667 6.51214 35.5434 3.03347 37.0939H0.17386C0.171677 37.1162 0.17168 37.1393 0.169497 37.1631L0 37.1162C0.0574687 37.1371 0.112756 37.149 0.169497 37.1668C0.0792934 38.2834 0.0218226 39.4103 0.0218226 40.5514C0.0218226 63.1489 17.9251 81.4694 40.0113 81.4694C60.7087 81.4694 77.7318 65.3804 79.7912 44.7584L79.9251 44.7956C79.8836 44.7554 79.8392 44.7182 79.7978 44.6765Z" fill="#A4D65E" fill-opacity="0.5"/>
<path d="M79.7978 54.2079C79.9309 52.8524 80 51.4769 80 50.0857C80 48.9208 79.9411 47.7685 79.8472 46.6282H69.073C67.7097 44.8455 66.7626 42.7889 65.6408 40.7859C64.4405 38.6429 62.7638 36.4285 60.7705 35.2837C59.2996 34.4396 55.3459 33.4399 54.6352 35.9007C58.8668 38.0995 58.3081 45.077 54.8295 46.6275H51.8076C50.4444 44.8448 49.498 42.7882 48.3755 40.7851C47.1752 38.6422 45.4992 36.4278 43.5052 35.283C42.0343 34.4389 38.0806 33.4392 37.3699 35.9C41.6015 38.0988 41.0428 45.0763 37.5641 46.6267H34.5423C33.1791 44.844 32.2319 42.7874 31.1095 40.7844C29.9099 38.6414 28.2331 36.427 26.2399 35.2822C24.769 34.4381 20.8146 33.4385 20.1046 35.8993C24.3362 38.0981 23.7775 45.0755 20.2995 46.626H17.277C15.9145 44.8433 14.9666 42.7867 13.8441 40.7836C12.6446 38.6407 10.9678 36.4263 8.97456 35.2815C7.50366 34.4374 3.54996 33.4377 2.83924 35.8985C7.07083 38.0973 6.51214 45.0748 3.03347 46.6252H0.17386C0.171677 46.6476 0.17168 46.6714 0.169497 46.6945L0 46.6476C0.0574687 46.6677 0.112756 46.6803 0.169497 46.6974C0.0792934 47.814 0.0218226 48.9409 0.0218226 50.082C0.0218226 72.6802 17.9251 91 40.0113 91C60.7087 91 77.7318 74.911 79.7912 54.2897L79.9251 54.3262C79.8836 54.2875 79.8392 54.2495 79.7978 54.2079Z" fill="#A4D65E"/>
<path d="M57.7256 62.7363C57.7256 65.595 55.4404 67.9119 52.6206 67.9119C49.8021 67.9119 47.5156 65.5962 47.5156 62.7363C47.5156 59.8799 49.8009 57.5619 52.6206 57.5619C55.4404 57.5619 57.7256 59.8787 57.7256 62.7363Z" fill="#F9F9F9"/>
<path d="M45.5891 83.5714C45.5891 83.5714 47.3034 65.9824 24.6009 72.048" stroke="#F9F9F9" stroke-width="1.8293" stroke-miterlimit="10"/>
<path d="M22.9854 58.9478C22.9854 58.9478 25.3755 56.8026 32.5703 64.6774C32.5703 64.6774 35.3465 59.3311 27.0307 53.9474" stroke="#F9F9F9" stroke-width="1.8293" stroke-miterlimit="10"/>
<path d="M35.5782 15.77C35.5782 17.1597 34.4769 18.2859 33.1194 18.2859C31.7613 18.2859 30.6606 17.1597 30.6606 15.77C30.6606 14.3811 31.7613 13.2542 33.1194 13.2542C34.4769 13.2542 35.5782 14.3803 35.5782 15.77Z" fill="#A4D65E" stroke="#A4D65E" stroke-width="1.8293" stroke-miterlimit="10"/>
<path d="M45.5333 14.5121C45.5333 15.2073 44.9833 15.7693 44.3039 15.7693C43.6251 15.7693 43.0745 15.2066 43.0745 14.5121C43.0745 13.8176 43.6251 13.2542 44.3039 13.2542C44.9833 13.2542 45.5333 13.8176 45.5333 14.5121Z" fill="#A4D65E" stroke="#A4D65E" stroke-width="1.8293" stroke-miterlimit="10"/>
<path d="M44.3038 3.20177C44.3038 4.41877 43.34 5.40427 42.152 5.40427C40.9634 5.40427 39.9995 4.41877 39.9995 3.20177C39.9995 1.98552 40.9634 1 42.152 1C43.34 1 44.3038 1.98552 44.3038 3.20177Z" fill="#A4D65E" stroke="#A4D65E" stroke-width="1.8293" stroke-miterlimit="10"/>
<path d="M22.9854 16.1385C22.9854 17.7321 21.7233 19.0235 20.1665 19.0235C18.6098 19.0235 17.3477 17.7321 17.3477 16.1385C17.3477 14.5456 18.6098 13.2542 20.1665 13.2542C21.7233 13.2542 22.9854 14.5456 22.9854 16.1385Z" fill="#A4D65E" stroke="#A4D65E" stroke-width="1.8293" stroke-miterlimit="10"/>
<path d="M27.2904 3.20252C27.2904 4.41878 26.3265 5.40427 25.1379 5.40427C23.9492 5.40427 22.9854 4.41878 22.9854 3.20252C22.9854 1.98552 23.9492 1 25.1379 1C26.3265 1 27.2904 1.98552 27.2904 3.20252Z" fill="#A4D65E" stroke="#A4D65E" stroke-width="1.8293" stroke-miterlimit="10"/>
</svg>
