<svg width="50" height="60" viewBox="0 0 80 91" fill="none" xmlns="http://www.w3.org/2000/svg">
<path d="M79.8472 35.0825H78.5498C74.5462 34.3685 71.1815 30.21 69.6069 24.4594C68.0322 30.21 64.6676 34.3685 60.664 35.0825H59.2967C55.2932 34.3685 51.9277 30.21 50.3538 24.4594C48.7792 30.21 45.4145 34.3685 41.4109 35.0825H40.0437C36.0401 34.3685 32.6754 30.21 31.1008 24.4594C29.5268 30.21 26.1614 34.3685 22.1586 35.0825H20.7913C16.787 34.3685 13.4216 30.21 11.8484 24.4594C10.2738 30.21 6.9091 34.3685 2.90553 35.0825H0.152807C0.0596672 36.237 0 37.4012 0 38.5806C0 61.4435 17.9084 79.9785 40 79.9785C62.0916 79.9785 80 61.4435 80 38.5806C80 37.4012 79.9411 36.237 79.8472 35.0825Z" fill="currentColor" fill-opacity="0.5"/>
<path d="M79.8472 46.1032H78.5498C74.5462 45.3893 71.1815 41.2307 69.6069 35.4802C68.0322 41.2307 64.6676 45.3893 60.664 46.1032H59.2967C55.2932 45.3893 51.9277 41.2307 50.3538 35.4802C48.7792 41.2307 45.4145 45.3893 41.4109 46.1032H40.0437C36.0401 45.3893 32.6754 41.2307 31.1008 35.4802C29.5268 41.2307 26.1614 45.3893 22.1586 46.1032H20.7913C16.787 45.3893 13.4216 41.2307 11.8484 35.4802C10.2738 41.2307 6.9091 45.3893 2.90553 46.1032H0.152807C0.0596672 47.2577 0 48.422 0 49.6021C0 72.4658 17.9084 91 40 91C62.0916 91 80 72.4658 80 49.6021C80 48.422 79.9411 47.2577 79.8472 46.1032Z" fill="currentColor"/>
<path d="M31.4983 65.2425C31.4983 68.5556 28.8121 71.2432 25.4976 71.2432C22.1845 71.2432 19.4983 68.557 19.4983 65.2425C19.4983 61.9294 22.1845 59.2432 25.4976 59.2432C28.8121 59.2432 31.4983 61.9294 31.4983 65.2425Z" fill="#F9F9F9"/>
<path d="M59.5715 65.2425C59.5715 68.5556 56.885 71.2432 53.5715 71.2432C50.258 71.2432 47.5715 68.557 47.5715 65.2425C47.5715 61.9294 50.258 59.2432 53.5715 59.2432C56.8864 59.2432 59.5715 61.9294 59.5715 65.2425Z" fill="#F9F9F9"/>
<path d="M43.0217 76.6401C43.0217 78.099 41.6789 79.2795 40.021 79.2795C38.3645 79.2795 37.0217 78.0978 37.0217 76.6401C37.0217 75.1824 38.3645 73.9995 40.021 73.9995C41.6789 73.9995 43.0217 75.1824 43.0217 76.6401Z" fill="#F9F9F9"/>
<path d="M40.7088 22.5504C40.7088 23.6039 39.8836 24.4587 38.8656 24.4587C37.8476 24.4587 37.0217 23.6039 37.0217 22.5504C37.0217 21.4968 37.8469 20.642 38.8656 20.642C39.8836 20.6428 40.7088 21.4968 40.7088 22.5504Z" stroke="#E3F1FF" stroke-width="1.8293" stroke-miterlimit="10"/>
<path d="M29.7101 18.0604C29.7101 19.8746 28.2898 21.3446 26.5376 21.3446C24.7846 21.3446 23.3643 19.8746 23.3643 18.0604C23.3643 16.2462 24.7846 14.7762 26.5376 14.7762C28.2898 14.7769 29.7101 16.247 29.7101 18.0604Z" fill="currentColor" stroke="currentColor" stroke-width="1.8293" stroke-miterlimit="10"/>
<path d="M31.3975 5.37545C31.3975 6.52316 30.4981 7.45397 29.3892 7.45397C28.2802 7.45397 27.3809 6.52316 27.3809 5.37545C27.3809 4.22775 28.2802 3.29694 29.3892 3.29694C30.4981 3.29694 31.3975 4.22775 31.3975 5.37545Z" fill="currentColor" stroke="currentColor" stroke-width="1.8293" stroke-miterlimit="10"/>
<path d="M47.9023 12.9432C47.9023 14.2137 46.9076 15.2424 45.6815 15.2424C44.4539 15.2424 43.46 14.2137 43.46 12.9432C43.46 11.6735 44.4547 10.644 45.6815 10.644C46.9076 10.644 47.9023 11.6735 47.9023 12.9432Z" fill="currentColor" stroke="currentColor" stroke-width="1.8293" stroke-miterlimit="10"/>
<path d="M55.8824 3.52285C55.8824 4.91681 54.7909 6.04569 53.4447 6.04569C52.0986 6.04569 51.0071 4.91681 51.0071 3.52285C51.0071 2.12964 52.0986 1 53.4447 1C54.7916 1.00075 55.8824 2.13039 55.8824 3.52285Z" fill="currentColor" stroke="currentColor" stroke-width="1.8293" stroke-miterlimit="10"/>
<path d="M57.0081 19.8475C57.0081 20.6744 56.3598 21.3454 55.5608 21.3454C54.7619 21.3454 54.1135 20.6744 54.1135 19.8475C54.1135 19.0206 54.7619 18.3496 55.5608 18.3496C56.3605 18.3496 57.0081 19.0199 57.0081 19.8475Z" fill="currentColor" stroke="currentColor" stroke-opacity="0.5" stroke-width="1.8293" stroke-miterlimit="10"/>
</svg>
