<svg width="50" height="60" viewBox="0 0 80 91" fill="none" xmlns="http://www.w3.org/2000/svg">
<path d="M79.8472 35.0825H78.5498C74.5462 34.3685 71.1815 30.21 69.6069 24.4594C68.0322 30.21 64.6676 34.3685 60.664 35.0825H59.2967C55.2932 34.3685 51.9277 30.21 50.3538 24.4594C48.7792 30.21 45.4145 34.3685 41.4109 35.0825H40.0437C36.0401 34.3685 32.6754 30.21 31.1008 24.4594C29.5268 30.21 26.1614 34.3685 22.1586 35.0825H20.7913C16.787 34.3685 13.4216 30.21 11.8484 24.4594C10.2738 30.21 6.9091 34.3685 2.90553 35.0825H0.152807C0.0596672 36.237 0 37.4012 0 38.5806C0 61.4435 17.9084 79.9785 40 79.9785C62.0916 79.9785 80 61.4435 80 38.5806C80 37.4012 79.9411 36.237 79.8472 35.0825Z" fill="#A29BFE" fill-opacity="0.5"/>
<path d="M79.8472 46.1032H78.5498C74.5462 45.3893 71.1815 41.2307 69.6069 35.4802C68.0322 41.2307 64.6676 45.3893 60.664 46.1032H59.2967C55.2932 45.3893 51.9277 41.2307 50.3538 35.4802C48.7792 41.2307 45.4145 45.3893 41.4109 46.1032H40.0437C36.0401 45.3893 32.6754 41.2307 31.1008 35.4802C29.5268 41.2307 26.1614 45.3893 22.1586 46.1032H20.7913C16.787 45.3893 13.4216 41.2307 11.8484 35.4802C10.2738 41.2307 6.9091 45.3893 2.90553 46.1032H0.152807C0.0596672 47.2577 0 48.422 0 49.6021C0 72.4658 17.9084 91 40 91C62.0916 91 80 72.4658 80 49.6021C80 48.422 79.9411 47.2577 79.8472 46.1032Z" fill="#A29BFE"/>
<path d="M31.4983 64.2427C31.4983 66.4514 29.7075 68.2432 27.4978 68.2432C25.2891 68.2432 23.4983 66.4524 23.4983 64.2427C23.4983 62.034 25.2891 60.2432 27.4978 60.2432C29.7075 60.2432 31.4983 62.034 31.4983 64.2427Z" fill="#F9F9F9"/>
<path d="M54.5715 64.2427C54.5715 66.4514 52.7805 68.2432 50.5715 68.2432C48.3625 68.2432 46.5715 66.4524 46.5715 64.2427C46.5715 62.034 48.3625 60.2432 50.5715 60.2432C52.7815 60.2432 54.5715 62.034 54.5715 64.2427Z" fill="#F9F9F9"/>
<path d="M41.0217 72.642C41.0217 73.5495 40.1265 74.2837 39.0213 74.2837C37.9169 74.2837 37.0217 73.5487 37.0217 72.642C37.0217 71.7353 37.9169 70.9995 39.0213 70.9995C40.1265 70.9995 41.0217 71.7353 41.0217 72.642Z" fill="#F9F9F9"/>
<path d="M40.7088 22.5504C40.7088 23.6039 39.8836 24.4587 38.8656 24.4587C37.8476 24.4587 37.0217 23.6039 37.0217 22.5504C37.0217 21.4968 37.8469 20.642 38.8656 20.642C39.8836 20.6428 40.7088 21.4968 40.7088 22.5504Z" stroke="#E3F1FF" stroke-width="1.8293" stroke-miterlimit="10"/>
<path d="M29.7101 18.0604C29.7101 19.8746 28.2898 21.3446 26.5376 21.3446C24.7846 21.3446 23.3643 19.8746 23.3643 18.0604C23.3643 16.2462 24.7846 14.7762 26.5376 14.7762C28.2898 14.7769 29.7101 16.247 29.7101 18.0604Z" fill="#A29BFE" stroke="#A29BFE" stroke-width="1.8293" stroke-miterlimit="10"/>
<path d="M31.3975 5.37545C31.3975 6.52316 30.4981 7.45397 29.3892 7.45397C28.2802 7.45397 27.3809 6.52316 27.3809 5.37545C27.3809 4.22775 28.2802 3.29694 29.3892 3.29694C30.4981 3.29694 31.3975 4.22775 31.3975 5.37545Z" fill="#A29BFE" stroke="#A29BFE" stroke-width="1.8293" stroke-miterlimit="10"/>
<path d="M47.9023 12.9432C47.9023 14.2137 46.9076 15.2424 45.6815 15.2424C44.4539 15.2424 43.46 14.2137 43.46 12.9432C43.46 11.6735 44.4547 10.644 45.6815 10.644C46.9076 10.644 47.9023 11.6735 47.9023 12.9432Z" fill="#A29BFE" stroke="#A29BFE" stroke-width="1.8293" stroke-miterlimit="10"/>
<path d="M55.8824 3.52285C55.8824 4.91681 54.7909 6.04569 53.4447 6.04569C52.0986 6.04569 51.0071 4.91681 51.0071 3.52285C51.0071 2.12964 52.0986 1 53.4447 1C54.7916 1.00075 55.8824 2.13039 55.8824 3.52285Z" fill="#A29BFE" stroke="#A29BFE" stroke-width="1.8293" stroke-miterlimit="10"/>
<path d="M57.0081 19.8475C57.0081 20.6744 56.3598 21.3454 55.5608 21.3454C54.7619 21.3454 54.1135 20.6744 54.1135 19.8475C54.1135 19.0206 54.7619 18.3496 55.5608 18.3496C56.3605 18.3496 57.0081 19.0199 57.0081 19.8475Z" fill="#A29BFE" stroke="#A29BFE" stroke-opacity="0.5" stroke-width="1.8293" stroke-miterlimit="10"/>
</svg>
