<?xml version="1.0" encoding="UTF-8"?>
<svg id="Ebene_1" data-name="Ebene 1" xmlns="http://www.w3.org/2000/svg" viewBox="0 0 72.51 76.64">
  <defs>
    <style>
      .cls-1 {
        fill: #2c2d5c;
        stroke-width: 0px;
      }

      .cls-2 {
        fill: none;
        stroke: #2c2d5c;
        stroke-miterlimit: 10;
        stroke-width: .5px;
      }
    </style>
  </defs>
  <path class="cls-2" d="M32.16,7.41c2.58-.71,7.71-1.73,13.93-.38,2.84.62,7.07,1.49,10.92,4.89,5.63,4.98,6.51,11.83,6.78,13.93.9,7-1.49,12.29-3.76,17.32-2.2,4.86-6.04,13.36-15.44,18.82-6.17,3.59-12.12,4.34-15.44,4.52"/>
  <path class="cls-2" d="M32.54,6.28c3.15,2.81,8.15,8.09,11.29,16.19,1.34,3.45,3.73,9.82,2.64,18.07-1.06,7.97-4.8,13.39-6.78,16.19-3.4,4.8-7.17,7.93-9.79,9.79"/>
  <path class="cls-2" d="M25.01,17.2c8.38,1.9,14.8,4.59,19.2,6.78,3.16,1.57,5.83,3.03,8.36,4.57.19.11.4.24.66.41,4.09,2.56,7.24,4.85,13.57,9.71,4.76,3.65,5.47,4.26,5.46,5.33-.03,2.85-5.04,4.85-6.21,5.3"/>
  <circle class="cls-1" cx="33" cy="7.37" r="2.73"/>
  <circle class="cls-1" cx="25.01" cy="17.42" r="2.73"/>
  <circle class="cls-1" cx="45.5" cy="25.17" r="4.02"/>
  <path class="cls-2" d="M66.05,49.29c1.7.37,2.73,1.86,2.54,3.11-.22,1.43-1.98,2.18-2.04,2.2-.02.01-.04.01-.04.01-.13.04-.18.04-.19.05-.1.06,1.44,1.89,1.41,3.11-.03,1.4-2.16,2.46-3.67,3.11-4.6,1.96-8.64,3.68-13.55,2.54-3.4-.79-6.41-3.44-12.42-8.75-3.32-2.93-4.89-4.76-8.47-6.78-2.68-1.51-5.12-2.35-6.78-2.82"/>
  <path class="cls-2" d="M27.08,32.35c10.14.45,16.6,4.22,19.48,6.21,1.84,1.27,5.28,5.27,12.14,13.27,2.38,2.77,5.12,6.06,6.49,11.01,1.36,4.9.1,6.82-.28,7.34-1.07,1.44-2.7,1.87-4.24,2.26-4.78,1.2-7.02-.87-11.58-.28-1.54.2-3.82.76-6.49,2.54"/>
  <circle class="cls-1" cx="30.21" cy="65.46" r="2.79"/>
  <circle class="cls-1" cx="42.54" cy="74.31" r="2.33"/>
  <circle class="cls-1" cx="26.75" cy="32.68" r="2.4"/>
  <circle class="cls-1" cx="13.02" cy="60.54" r="2.73"/>
  <circle class="cls-1" cx="10.06" cy="44.3" r="2.5"/>
  <circle class="cls-1" cx="18.48" cy="26.89" r="2.73"/>
  <circle class="cls-1" cx="13.02" cy="14.47" r="2.73"/>
  <circle class="cls-1" cx="2.73" cy="23.13" r="2.73"/>
  <circle class="cls-1" cx="4.23" cy="54.42" r="1.82"/>
  <circle class="cls-1" cx="25.57" cy="56.24" r="1.82"/>
  <circle class="cls-1" cx="7.56" cy="32.35" r="1.82"/>
  <circle class="cls-1" cx="2.41" cy="9.1" r="1.82"/>
  <circle class="cls-1" cx="16.66" cy="1.82" r="1.82"/>
  <circle class="cls-1" cx="23.13" cy="45.06" r="2.73"/>
</svg>