<svg width="400" height="150" viewBox="0 0 400 150" fill="none" xmlns="http://www.w3.org/2000/svg">
<path d="M297.191 70.3796L296.884 70.4528C293.928 69.1557 267.983 57.7986 271.938 60.7321C274.266 62.4587 274.893 67.3579 274.99 71.3772C266.584 67.76 253.525 62.2806 256.414 64.4229C258.741 66.1495 259.368 71.0488 259.466 75.0686C251.06 71.4512 238 65.9715 240.889 68.1137C243.216 69.8404 243.844 74.7394 243.941 78.7588C235.535 75.1415 222.475 69.6623 225.364 71.8046C229.557 74.9136 227.3 86.9954 227.3 86.9954C227.439 87.9448 227.61 88.8964 227.836 89.8476C232.218 108.277 251.475 119.485 270.849 114.879C290.223 110.273 302.376 91.5983 297.995 73.1683C297.769 72.2169 297.495 71.2901 297.191 70.3796Z" fill="#E88A68" fill-opacity="0.5"/>
<path d="M298.769 77.0158L298.461 77.089C295.505 75.7919 269.561 64.4348 273.516 67.3683C275.844 69.0943 276.47 73.994 276.568 78.0134C268.161 74.3955 255.103 68.9162 257.991 71.0591C260.319 72.7851 260.945 77.685 261.043 81.7048C252.637 78.0868 239.577 72.6071 242.467 74.7499C244.794 76.476 245.421 81.3756 245.519 85.3949C237.112 81.7771 224.053 76.2979 226.941 78.4408C231.135 81.5498 228.877 93.6316 228.877 93.6316C229.017 94.5804 229.188 95.5326 229.414 96.4832C233.795 114.913 253.052 126.12 272.426 121.514C291.8 116.908 303.954 98.2345 299.573 79.8039C299.347 78.8531 299.072 77.9256 298.769 77.0158Z" fill="#E88A68"/>
<path d="M266.815 109.599C266.815 109.599 275.152 111.811 276.052 103.491" stroke="#F9F9F9" stroke-width="2.5" stroke-miterlimit="10"/>
<path d="M248.912 94.7324C249.432 94.5078 249.996 94.4069 250.563 94.4371C251.13 94.4672 251.685 94.6277 252.187 94.9067L252.214 94.9222L252.231 94.8983C252.54 94.4485 252.939 94.073 253.402 93.7968C253.866 93.5206 254.383 93.35 254.918 93.2963L255.075 93.2832C255.757 93.2442 256.439 93.3957 257.049 93.7217C257.659 94.0477 258.174 94.536 258.54 95.1349C258.906 95.7339 259.109 96.4211 259.127 97.124C259.146 97.8268 258.979 98.519 258.645 99.1273L258.562 99.2706L258.539 99.3036L255.078 105.061C254.998 105.194 254.874 105.292 254.728 105.336C254.582 105.381 254.424 105.37 254.285 105.305L254.215 105.266L248.5 101.662C247.897 101.288 247.403 100.752 247.074 100.113C246.745 99.4731 246.594 98.7548 246.637 98.0374C246.679 97.32 246.914 96.6315 247.316 96.0482C247.717 95.4648 248.27 95.0094 248.912 94.7324Z" fill="#F9F9F9"/>
<path d="M274.136 87.8092C274.656 87.5846 275.221 87.4837 275.787 87.5138C276.354 87.544 276.909 87.7045 277.411 87.9835L277.439 87.999L277.455 87.975C277.764 87.5253 278.163 87.1498 278.626 86.8736C279.09 86.5974 279.607 86.4267 280.142 86.3731L280.299 86.36C280.981 86.321 281.663 86.4725 282.273 86.7985C282.883 87.1244 283.398 87.6128 283.764 88.2117C284.13 88.8106 284.333 89.4979 284.351 90.2007C284.37 90.9036 284.203 91.5958 283.869 92.2041L283.786 92.3474L283.763 92.3804L280.302 98.1379C280.222 98.2707 280.098 98.3685 279.952 98.4133C279.806 98.458 279.649 98.4467 279.509 98.3813L279.439 98.3431L273.724 94.7383C273.121 94.3652 272.627 93.8292 272.298 93.1895C271.97 92.5499 271.818 91.8316 271.861 91.1142C271.903 90.3968 272.138 89.7083 272.54 89.125C272.941 88.5416 273.494 88.0862 274.136 87.8092Z" fill="#F9F9F9"/>
<path d="M241.05 55.8068C241.348 55.6816 241.671 55.6229 241.993 55.635C242.316 55.6471 242.631 55.7297 242.915 55.8767L242.93 55.8848L242.94 55.8718C243.119 55.6265 243.349 55.4207 243.616 55.2681C243.882 55.1154 244.177 55.0194 244.483 54.9864L244.572 54.9782C244.961 54.9521 245.348 55.0289 245.693 55.2004C246.038 55.372 246.328 55.632 246.532 55.9528C246.736 56.2737 246.847 56.6434 246.852 57.023C246.857 57.4025 246.757 57.7777 246.562 58.1088L246.514 58.1869L246.501 58.2049L244.486 61.3409C244.44 61.4132 244.368 61.467 244.285 61.4923C244.202 61.5175 244.112 61.5126 244.033 61.4783L243.993 61.4582L240.764 59.5531C240.423 59.3561 240.146 59.0701 239.964 58.727C239.781 58.3839 239.7 57.997 239.73 57.6091C239.759 57.2212 239.898 56.8476 240.131 56.5295C240.365 56.2113 240.683 55.9612 241.05 55.8068Z" fill="#E88A68"/>
<path d="M249.469 46.4018C249.841 46.2435 250.244 46.1707 250.648 46.1888C251.052 46.207 251.447 46.3155 251.803 46.5065L251.823 46.5171L251.835 46.5004C252.057 46.187 252.344 45.9246 252.676 45.7308C253.008 45.5369 253.377 45.4161 253.759 45.3762L253.871 45.3664C254.357 45.3359 254.843 45.4376 255.277 45.6607C255.71 45.8837 256.075 46.2198 256.333 46.6333C256.591 47.0469 256.732 47.5225 256.742 48.0098C256.752 48.4971 256.629 48.978 256.388 49.4015L256.328 49.5013L256.312 49.5243L253.815 53.5341C253.757 53.6266 253.668 53.695 253.564 53.7268C253.46 53.7586 253.347 53.7515 253.248 53.7069L253.198 53.6807L249.141 51.2091C248.713 50.9533 248.363 50.584 248.132 50.1421C247.901 49.7001 247.796 49.2027 247.83 48.705C247.864 48.2073 248.035 47.7287 248.324 47.3222C248.613 46.9157 249.01 46.5971 249.469 46.4018Z" fill="#E88A68"/>
<path d="M256.147 55.0061C256.519 54.8478 256.922 54.775 257.326 54.7931C257.73 54.8113 258.125 54.9198 258.482 55.1108L258.501 55.1214L258.513 55.1047C258.736 54.7913 259.022 54.529 259.354 54.3351C259.686 54.1412 260.055 54.0204 260.438 53.9805L260.549 53.9707C261.036 53.9402 261.521 54.0419 261.955 54.265C262.388 54.488 262.753 54.8241 263.011 55.2376C263.269 55.6512 263.411 56.1268 263.42 56.6141C263.43 57.1014 263.308 57.5823 263.066 58.0058L263.007 58.1056L262.99 58.1286L260.493 62.1384C260.436 62.2309 260.346 62.2994 260.242 62.3311C260.138 62.3629 260.026 62.3558 259.926 62.3112L259.877 62.285L255.819 59.8134C255.391 59.5576 255.042 59.1883 254.81 58.7464C254.579 58.3044 254.474 57.807 254.508 57.3093C254.542 56.8116 254.713 56.333 255.003 55.9265C255.292 55.52 255.688 55.2014 256.147 55.0061Z" fill="#E88A68"/>
<path d="M241.365 47.3841C241.589 47.2921 241.831 47.2475 242.072 47.2535C242.313 47.2596 242.548 47.3162 242.759 47.4192L242.771 47.4249L242.778 47.4155C242.914 47.2384 243.088 47.0892 243.289 46.9777C243.489 46.8662 243.711 46.7951 243.94 46.769L244.006 46.7624C244.298 46.7406 244.587 46.7924 244.844 46.9126C245.1 47.0327 245.315 47.2165 245.465 47.4447C245.615 47.6728 245.695 47.9368 245.696 48.2086C245.697 48.4803 245.619 48.7499 245.47 48.9886L245.434 49.0449L245.423 49.0578L243.891 51.32C243.856 51.3722 243.802 51.4113 243.739 51.4301C243.677 51.4488 243.61 51.446 243.551 51.4221L243.521 51.408L241.121 50.0696C240.868 49.9312 240.663 49.7286 240.529 49.4843C240.395 49.2401 240.338 48.9636 240.363 48.6856C240.388 48.4075 240.495 48.1388 240.672 47.9091C240.849 47.6794 241.089 47.4977 241.365 47.3841Z" fill="#E88A68"/>
<path d="M263.215 48.6799C263.476 48.5713 263.758 48.5196 264.04 48.5287C264.322 48.5378 264.597 48.6074 264.845 48.7324L264.858 48.7393L264.866 48.7281C265.024 48.5169 265.226 48.3394 265.459 48.2073C265.693 48.0752 265.951 47.9917 266.219 47.9622L266.297 47.9548C266.637 47.9308 266.975 47.9951 267.276 48.1409C267.577 48.2868 267.829 48.5087 268.006 48.7832C268.183 49.0577 268.278 49.3746 268.281 49.7002C268.284 50.0259 268.195 50.3482 268.024 50.6331L267.981 50.7003L267.97 50.7158L266.196 53.4149C266.155 53.4772 266.093 53.5236 266.02 53.5456C265.947 53.5676 265.868 53.5637 265.799 53.5346L265.765 53.5175L262.95 51.8958C262.653 51.7281 262.412 51.4838 262.254 51.1901C262.096 50.8964 262.026 50.5647 262.054 50.2318C262.081 49.8988 262.204 49.5776 262.409 49.3037C262.614 49.0298 262.893 48.8139 263.215 48.6799Z" fill="#E88A68"/>
<rect x="17" y="10" width="365" height="114" rx="30" fill="#E88A68"/>
<path d="M45.0254 28.5215V27.3398C45.0254 26.9427 45.0905 26.5293 45.2207 26.0996C45.3574 25.6634 45.5527 25.2467 45.8066 24.8496C46.0605 24.446 46.3665 24.0977 46.7246 23.8047L47.75 24.5176C47.4505 24.9473 47.2194 25.39 47.0566 25.8457C46.8939 26.2949 46.8125 26.7832 46.8125 27.3105V28.5215H45.0254ZM48.1016 28.5215V27.3398C48.1016 26.9427 48.1667 26.5293 48.2969 26.0996C48.4336 25.6634 48.6289 25.2467 48.8828 24.8496C49.1367 24.446 49.4427 24.0977 49.8008 23.8047L50.8262 24.5176C50.5267 24.9473 50.2956 25.39 50.1328 25.8457C49.9701 26.2949 49.8887 26.7832 49.8887 27.3105V28.5215H48.1016ZM56.5684 39H53.5996L53.6191 37.4668H56.5684C57.584 37.4668 58.4303 37.2552 59.1074 36.832C59.7845 36.4023 60.2923 35.8034 60.6309 35.0352C60.9759 34.2604 61.1484 33.3555 61.1484 32.3203V31.4512C61.1484 30.6374 61.0508 29.9147 60.8555 29.2832C60.6602 28.6452 60.3737 28.1081 59.9961 27.6719C59.6185 27.2292 59.1562 26.8939 58.6094 26.666C58.069 26.4382 57.4473 26.3242 56.7441 26.3242H53.541V24.7812H56.7441C57.6751 24.7812 58.5247 24.9375 59.293 25.25C60.0612 25.556 60.722 26.002 61.2754 26.5879C61.8353 27.1673 62.265 27.8704 62.5645 28.6973C62.8639 29.5176 63.0137 30.4421 63.0137 31.4707V32.3203C63.0137 33.349 62.8639 34.2767 62.5645 35.1035C62.265 35.9238 61.832 36.6237 61.2656 37.2031C60.7057 37.7826 60.0286 38.2285 59.2344 38.541C58.4466 38.847 57.5579 39 56.5684 39ZM54.6055 24.7812V39H52.7207V24.7812H54.6055ZM69.957 39.1953C69.2214 39.1953 68.554 39.0716 67.9551 38.8242C67.3626 38.5703 66.8516 38.2155 66.4219 37.7598C65.9987 37.304 65.6732 36.7637 65.4453 36.1387C65.2174 35.5137 65.1035 34.8301 65.1035 34.0879V33.6777C65.1035 32.8184 65.2305 32.0534 65.4844 31.3828C65.7383 30.7057 66.0833 30.1328 66.5195 29.6641C66.9557 29.1953 67.4505 28.8405 68.0039 28.5996C68.5573 28.3587 69.1302 28.2383 69.7227 28.2383C70.4779 28.2383 71.1289 28.3685 71.6758 28.6289C72.2292 28.8893 72.6816 29.2539 73.0332 29.7227C73.3848 30.1849 73.6452 30.7318 73.8145 31.3633C73.9837 31.9883 74.0684 32.6719 74.0684 33.4141V34.2246H66.1777V32.75H72.2617V32.6133C72.2357 32.1445 72.138 31.6888 71.9688 31.2461C71.806 30.8034 71.5456 30.4388 71.1875 30.1523C70.8294 29.8659 70.3411 29.7227 69.7227 29.7227C69.3125 29.7227 68.9349 29.8105 68.5898 29.9863C68.2448 30.1556 67.9486 30.4095 67.7012 30.748C67.4538 31.0866 67.2617 31.5 67.125 31.9883C66.9883 32.4766 66.9199 33.0397 66.9199 33.6777V34.0879C66.9199 34.5892 66.9883 35.0612 67.125 35.5039C67.2682 35.9401 67.4733 36.3242 67.7402 36.6562C68.0137 36.9883 68.3424 37.2487 68.7266 37.4375C69.1172 37.6263 69.5599 37.7207 70.0547 37.7207C70.6927 37.7207 71.2331 37.5905 71.6758 37.3301C72.1185 37.0697 72.5059 36.7214 72.8379 36.2852L73.9316 37.1543C73.7038 37.4993 73.4141 37.8281 73.0625 38.1406C72.7109 38.4531 72.278 38.707 71.7637 38.9023C71.2559 39.0977 70.6536 39.1953 69.957 39.1953ZM78.1406 28.4336V39H76.3242V28.4336H78.1406ZM76.1875 25.6309C76.1875 25.3379 76.2754 25.0905 76.4512 24.8887C76.6335 24.6868 76.9004 24.5859 77.252 24.5859C77.597 24.5859 77.8607 24.6868 78.043 24.8887C78.2318 25.0905 78.3262 25.3379 78.3262 25.6309C78.3262 25.9108 78.2318 26.1517 78.043 26.3535C77.8607 26.5488 77.597 26.6465 77.252 26.6465C76.9004 26.6465 76.6335 26.5488 76.4512 26.3535C76.2754 26.1517 76.1875 25.9108 76.1875 25.6309ZM82.8477 30.6895V39H81.041V28.4336H82.75L82.8477 30.6895ZM82.418 33.3164L81.666 33.2871C81.6725 32.5645 81.7799 31.8971 81.9883 31.2852C82.1966 30.6667 82.4896 30.1296 82.8672 29.6738C83.2448 29.2181 83.694 28.8665 84.2148 28.6191C84.7422 28.3652 85.3249 28.2383 85.9629 28.2383C86.4837 28.2383 86.9525 28.3099 87.3691 28.4531C87.7858 28.5898 88.1406 28.8112 88.4336 29.1172C88.7331 29.4232 88.9609 29.8203 89.1172 30.3086C89.2734 30.7904 89.3516 31.3796 89.3516 32.0762V39H87.5352V32.0566C87.5352 31.5033 87.4538 31.0605 87.291 30.7285C87.1283 30.39 86.8906 30.1458 86.5781 29.9961C86.2656 29.8398 85.8815 29.7617 85.4258 29.7617C84.9766 29.7617 84.5664 29.8561 84.1953 30.0449C83.8307 30.2337 83.515 30.4941 83.248 30.8262C82.9876 31.1582 82.7826 31.5391 82.6328 31.9688C82.4896 32.3919 82.418 32.8411 82.418 33.3164ZM106.617 30.8945V32.4277H98.9219V30.8945H106.617ZM99.2148 24.7812V39H97.3301V24.7812H99.2148ZM108.258 24.7812V39H106.383V24.7812H108.258ZM115.719 39.1953C114.983 39.1953 114.316 39.0716 113.717 38.8242C113.124 38.5703 112.613 38.2155 112.184 37.7598C111.76 37.304 111.435 36.7637 111.207 36.1387C110.979 35.5137 110.865 34.8301 110.865 34.0879V33.6777C110.865 32.8184 110.992 32.0534 111.246 31.3828C111.5 30.7057 111.845 30.1328 112.281 29.6641C112.717 29.1953 113.212 28.8405 113.766 28.5996C114.319 28.3587 114.892 28.2383 115.484 28.2383C116.24 28.2383 116.891 28.3685 117.438 28.6289C117.991 28.8893 118.443 29.2539 118.795 29.7227C119.146 30.1849 119.407 30.7318 119.576 31.3633C119.745 31.9883 119.83 32.6719 119.83 33.4141V34.2246H111.939V32.75H118.023V32.6133C117.997 32.1445 117.9 31.6888 117.73 31.2461C117.568 30.8034 117.307 30.4388 116.949 30.1523C116.591 29.8659 116.103 29.7227 115.484 29.7227C115.074 29.7227 114.697 29.8105 114.352 29.9863C114.007 30.1556 113.71 30.4095 113.463 30.748C113.215 31.0866 113.023 31.5 112.887 31.9883C112.75 32.4766 112.682 33.0397 112.682 33.6777V34.0879C112.682 34.5892 112.75 35.0612 112.887 35.5039C113.03 35.9401 113.235 36.3242 113.502 36.6562C113.775 36.9883 114.104 37.2487 114.488 37.4375C114.879 37.6263 115.322 37.7207 115.816 37.7207C116.454 37.7207 116.995 37.5905 117.438 37.3301C117.88 37.0697 118.268 36.7214 118.6 36.2852L119.693 37.1543C119.465 37.4993 119.176 37.8281 118.824 38.1406C118.473 38.4531 118.04 38.707 117.525 38.9023C117.018 39.0977 116.415 39.1953 115.719 39.1953ZM123.746 30.0938V39H121.939V28.4336H123.697L123.746 30.0938ZM127.047 28.375L127.037 30.0547C126.887 30.0221 126.744 30.0026 126.607 29.9961C126.477 29.9831 126.327 29.9766 126.158 29.9766C125.742 29.9766 125.374 30.0417 125.055 30.1719C124.736 30.3021 124.465 30.4844 124.244 30.7188C124.023 30.9531 123.847 31.2331 123.717 31.5586C123.593 31.8776 123.512 32.2292 123.473 32.6133L122.965 32.9062C122.965 32.2682 123.027 31.6693 123.15 31.1094C123.281 30.5495 123.479 30.0547 123.746 29.625C124.013 29.1888 124.352 28.8503 124.762 28.6094C125.178 28.362 125.673 28.2383 126.246 28.2383C126.376 28.2383 126.526 28.2546 126.695 28.2871C126.865 28.3132 126.982 28.3424 127.047 28.375ZM136.588 37.5156V39H128.902V37.5156H136.588ZM136.305 29.7129L129.312 39H128.209V37.6719L135.152 28.4336H136.305V29.7129ZM135.504 28.4336V29.9277H128.287V28.4336H135.504ZM144.791 36.1973C144.791 35.9368 144.732 35.696 144.615 35.4746C144.505 35.2467 144.273 35.0417 143.922 34.8594C143.577 34.6706 143.056 34.5078 142.359 34.3711C141.773 34.2474 141.243 34.1009 140.768 33.9316C140.299 33.7624 139.898 33.5573 139.566 33.3164C139.241 33.0755 138.99 32.7923 138.814 32.4668C138.639 32.1413 138.551 31.7604 138.551 31.3242C138.551 30.9076 138.642 30.5137 138.824 30.1426C139.013 29.7715 139.277 29.4427 139.615 29.1562C139.96 28.8698 140.374 28.6452 140.855 28.4824C141.337 28.3197 141.874 28.2383 142.467 28.2383C143.313 28.2383 144.036 28.388 144.635 28.6875C145.234 28.987 145.693 29.3874 146.012 29.8887C146.331 30.3835 146.49 30.9336 146.49 31.5391H144.684C144.684 31.2461 144.596 30.9629 144.42 30.6895C144.251 30.4095 144 30.1784 143.668 29.9961C143.342 29.8138 142.942 29.7227 142.467 29.7227C141.965 29.7227 141.559 29.8008 141.246 29.957C140.94 30.1068 140.715 30.2988 140.572 30.5332C140.436 30.7676 140.367 31.015 140.367 31.2754C140.367 31.4707 140.4 31.6465 140.465 31.8027C140.536 31.9525 140.66 32.0924 140.836 32.2227C141.012 32.3464 141.259 32.4635 141.578 32.5742C141.897 32.6849 142.304 32.7956 142.799 32.9062C143.665 33.1016 144.378 33.3359 144.938 33.6094C145.497 33.8828 145.914 34.2181 146.188 34.6152C146.461 35.0124 146.598 35.4941 146.598 36.0605C146.598 36.5228 146.5 36.946 146.305 37.3301C146.116 37.7142 145.839 38.0462 145.475 38.3262C145.117 38.5996 144.687 38.8145 144.186 38.9707C143.691 39.1204 143.134 39.1953 142.516 39.1953C141.585 39.1953 140.797 39.0293 140.152 38.6973C139.508 38.3652 139.02 37.9355 138.688 37.4082C138.355 36.8809 138.189 36.3242 138.189 35.7383H140.006C140.032 36.2331 140.175 36.627 140.436 36.9199C140.696 37.2064 141.015 37.4115 141.393 37.5352C141.77 37.6523 142.145 37.7109 142.516 37.7109C143.01 37.7109 143.424 37.6458 143.756 37.5156C144.094 37.3854 144.352 37.2064 144.527 36.9785C144.703 36.7507 144.791 36.4902 144.791 36.1973ZM153.199 37.7109C153.629 37.7109 154.026 37.623 154.391 37.4473C154.755 37.2715 155.055 37.0306 155.289 36.7246C155.523 36.4121 155.657 36.0573 155.689 35.6602H157.408C157.376 36.2852 157.164 36.8678 156.773 37.4082C156.389 37.9421 155.885 38.375 155.26 38.707C154.635 39.0326 153.948 39.1953 153.199 39.1953C152.405 39.1953 151.712 39.0553 151.119 38.7754C150.533 38.4954 150.045 38.1113 149.654 37.623C149.27 37.1348 148.98 36.5749 148.785 35.9434C148.596 35.3053 148.502 34.6315 148.502 33.9219V33.5117C148.502 32.8021 148.596 32.1315 148.785 31.5C148.98 30.862 149.27 30.2988 149.654 29.8105C150.045 29.3223 150.533 28.9382 151.119 28.6582C151.712 28.3783 152.405 28.2383 153.199 28.2383C154.026 28.2383 154.749 28.4076 155.367 28.7461C155.986 29.0781 156.471 29.5339 156.822 30.1133C157.18 30.6862 157.376 31.3372 157.408 32.0664H155.689C155.657 31.6302 155.533 31.2363 155.318 30.8848C155.11 30.5332 154.824 30.2533 154.459 30.0449C154.101 29.8301 153.681 29.7227 153.199 29.7227C152.646 29.7227 152.18 29.8333 151.803 30.0547C151.432 30.2695 151.135 30.5625 150.914 30.9336C150.699 31.2982 150.543 31.7051 150.445 32.1543C150.354 32.597 150.309 33.0495 150.309 33.5117V33.9219C150.309 34.3841 150.354 34.8398 150.445 35.2891C150.536 35.7383 150.689 36.1452 150.904 36.5098C151.126 36.8743 151.422 37.1673 151.793 37.3887C152.171 37.6035 152.639 37.7109 153.199 37.7109ZM161.246 24V39H159.439V24H161.246ZM160.816 33.3164L160.064 33.2871C160.071 32.5645 160.178 31.8971 160.387 31.2852C160.595 30.6667 160.888 30.1296 161.266 29.6738C161.643 29.2181 162.092 28.8665 162.613 28.6191C163.141 28.3652 163.723 28.2383 164.361 28.2383C164.882 28.2383 165.351 28.3099 165.768 28.4531C166.184 28.5898 166.539 28.8112 166.832 29.1172C167.132 29.4232 167.359 29.8203 167.516 30.3086C167.672 30.7904 167.75 31.3796 167.75 32.0762V39H165.934V32.0566C165.934 31.5033 165.852 31.0605 165.689 30.7285C165.527 30.39 165.289 30.1458 164.977 29.9961C164.664 29.8398 164.28 29.7617 163.824 29.7617C163.375 29.7617 162.965 29.8561 162.594 30.0449C162.229 30.2337 161.913 30.4941 161.646 30.8262C161.386 31.1582 161.181 31.5391 161.031 31.9688C160.888 32.3919 160.816 32.8411 160.816 33.3164ZM172.418 24V39H170.602V24H172.418ZM181.549 37.1934V31.7539C181.549 31.3372 181.464 30.9759 181.295 30.6699C181.132 30.3574 180.885 30.1165 180.553 29.9473C180.221 29.778 179.811 29.6934 179.322 29.6934C178.867 29.6934 178.466 29.7715 178.121 29.9277C177.783 30.084 177.516 30.2891 177.32 30.543C177.132 30.7969 177.037 31.0703 177.037 31.3633H175.23C175.23 30.9857 175.328 30.6113 175.523 30.2402C175.719 29.8691 175.999 29.5339 176.363 29.2344C176.734 28.9284 177.177 28.6875 177.691 28.5117C178.212 28.3294 178.792 28.2383 179.43 28.2383C180.198 28.2383 180.875 28.3685 181.461 28.6289C182.053 28.8893 182.516 29.2832 182.848 29.8105C183.186 30.3314 183.355 30.9857 183.355 31.7734V36.6953C183.355 37.0469 183.385 37.4212 183.443 37.8184C183.508 38.2155 183.603 38.5573 183.727 38.8438V39H181.842C181.751 38.7917 181.679 38.515 181.627 38.1699C181.575 37.8184 181.549 37.4928 181.549 37.1934ZM181.861 32.5938L181.881 33.8633H180.055C179.54 33.8633 179.081 33.9056 178.678 33.9902C178.274 34.0684 177.936 34.1888 177.662 34.3516C177.389 34.5143 177.18 34.7194 177.037 34.9668C176.894 35.2077 176.822 35.4909 176.822 35.8164C176.822 36.1484 176.897 36.4512 177.047 36.7246C177.197 36.998 177.421 37.2161 177.721 37.3789C178.027 37.5352 178.401 37.6133 178.844 37.6133C179.397 37.6133 179.885 37.4961 180.309 37.2617C180.732 37.0273 181.067 36.7409 181.314 36.4023C181.568 36.0638 181.705 35.735 181.725 35.416L182.496 36.2852C182.451 36.5586 182.327 36.8613 182.125 37.1934C181.923 37.5254 181.653 37.8444 181.314 38.1504C180.982 38.4499 180.585 38.7005 180.123 38.9023C179.667 39.0977 179.153 39.1953 178.58 39.1953C177.864 39.1953 177.236 39.0553 176.695 38.7754C176.161 38.4954 175.745 38.1211 175.445 37.6523C175.152 37.1771 175.006 36.6465 175.006 36.0605C175.006 35.4941 175.117 34.9961 175.338 34.5664C175.559 34.1302 175.878 33.7689 176.295 33.4824C176.712 33.1895 177.213 32.9681 177.799 32.8184C178.385 32.6686 179.039 32.5938 179.762 32.5938H181.861ZM193.043 28.4336H194.684V38.7754C194.684 39.7064 194.495 40.5007 194.117 41.1582C193.74 41.8158 193.212 42.3138 192.535 42.6523C191.865 42.9974 191.09 43.1699 190.211 43.1699C189.846 43.1699 189.417 43.1113 188.922 42.9941C188.434 42.8835 187.952 42.6914 187.477 42.418C187.008 42.151 186.614 41.7897 186.295 41.334L187.242 40.2598C187.685 40.7936 188.147 41.1647 188.629 41.373C189.117 41.5814 189.599 41.6855 190.074 41.6855C190.647 41.6855 191.142 41.5781 191.559 41.3633C191.975 41.1484 192.298 40.8294 192.525 40.4062C192.76 39.9896 192.877 39.4753 192.877 38.8633V30.7578L193.043 28.4336ZM185.768 33.834V33.6289C185.768 32.8216 185.862 32.0892 186.051 31.4316C186.246 30.7676 186.523 30.1979 186.881 29.7227C187.245 29.2474 187.685 28.8828 188.199 28.6289C188.714 28.3685 189.293 28.2383 189.938 28.2383C190.602 28.2383 191.181 28.3555 191.676 28.5898C192.177 28.8177 192.6 29.153 192.945 29.5957C193.297 30.0319 193.574 30.5592 193.775 31.1777C193.977 31.7962 194.117 32.4961 194.195 33.2773V34.1758C194.124 34.9505 193.984 35.6471 193.775 36.2656C193.574 36.8841 193.297 37.4115 192.945 37.8477C192.6 38.2839 192.177 38.6191 191.676 38.8535C191.174 39.0814 190.589 39.1953 189.918 39.1953C189.286 39.1953 188.714 39.0618 188.199 38.7949C187.691 38.528 187.255 38.1536 186.891 37.6719C186.526 37.1901 186.246 36.6237 186.051 35.9727C185.862 35.3151 185.768 34.6022 185.768 33.834ZM187.574 33.6289V33.834C187.574 34.3613 187.626 34.8561 187.73 35.3184C187.841 35.7806 188.007 36.1875 188.229 36.5391C188.456 36.8906 188.746 37.1673 189.098 37.3691C189.449 37.5645 189.869 37.6621 190.357 37.6621C190.956 37.6621 191.451 37.5352 191.842 37.2812C192.232 37.0273 192.542 36.6921 192.77 36.2754C193.004 35.8587 193.186 35.4062 193.316 34.918V32.5645C193.245 32.2064 193.134 31.8613 192.984 31.5293C192.841 31.1908 192.652 30.8913 192.418 30.6309C192.19 30.3639 191.907 30.1523 191.568 29.9961C191.23 29.8398 190.833 29.7617 190.377 29.7617C189.882 29.7617 189.456 29.8659 189.098 30.0742C188.746 30.276 188.456 30.556 188.229 30.9141C188.007 31.2656 187.841 31.6758 187.73 32.1445C187.626 32.6068 187.574 33.1016 187.574 33.6289ZM208.619 37.1934V31.7539C208.619 31.3372 208.535 30.9759 208.365 30.6699C208.202 30.3574 207.955 30.1165 207.623 29.9473C207.291 29.778 206.881 29.6934 206.393 29.6934C205.937 29.6934 205.536 29.7715 205.191 29.9277C204.853 30.084 204.586 30.2891 204.391 30.543C204.202 30.7969 204.107 31.0703 204.107 31.3633H202.301C202.301 30.9857 202.398 30.6113 202.594 30.2402C202.789 29.8691 203.069 29.5339 203.434 29.2344C203.805 28.9284 204.247 28.6875 204.762 28.5117C205.283 28.3294 205.862 28.2383 206.5 28.2383C207.268 28.2383 207.945 28.3685 208.531 28.6289C209.124 28.8893 209.586 29.2832 209.918 29.8105C210.257 30.3314 210.426 30.9857 210.426 31.7734V36.6953C210.426 37.0469 210.455 37.4212 210.514 37.8184C210.579 38.2155 210.673 38.5573 210.797 38.8438V39H208.912C208.821 38.7917 208.749 38.515 208.697 38.1699C208.645 37.8184 208.619 37.4928 208.619 37.1934ZM208.932 32.5938L208.951 33.8633H207.125C206.611 33.8633 206.152 33.9056 205.748 33.9902C205.344 34.0684 205.006 34.1888 204.732 34.3516C204.459 34.5143 204.251 34.7194 204.107 34.9668C203.964 35.2077 203.893 35.4909 203.893 35.8164C203.893 36.1484 203.967 36.4512 204.117 36.7246C204.267 36.998 204.492 37.2161 204.791 37.3789C205.097 37.5352 205.471 37.6133 205.914 37.6133C206.467 37.6133 206.956 37.4961 207.379 37.2617C207.802 37.0273 208.137 36.7409 208.385 36.4023C208.639 36.0638 208.775 35.735 208.795 35.416L209.566 36.2852C209.521 36.5586 209.397 36.8613 209.195 37.1934C208.993 37.5254 208.723 37.8444 208.385 38.1504C208.053 38.4499 207.656 38.7005 207.193 38.9023C206.738 39.0977 206.223 39.1953 205.65 39.1953C204.934 39.1953 204.306 39.0553 203.766 38.7754C203.232 38.4954 202.815 38.1211 202.516 37.6523C202.223 37.1771 202.076 36.6465 202.076 36.0605C202.076 35.4941 202.187 34.9961 202.408 34.5664C202.63 34.1302 202.949 33.7689 203.365 33.4824C203.782 33.1895 204.283 32.9681 204.869 32.8184C205.455 32.6686 206.109 32.5938 206.832 32.5938H208.932ZM203.551 25.6113C203.551 25.3184 203.642 25.071 203.824 24.8691C204.007 24.6673 204.27 24.5664 204.615 24.5664C204.967 24.5664 205.234 24.6673 205.416 24.8691C205.598 25.071 205.689 25.3184 205.689 25.6113C205.689 25.8913 205.598 26.1322 205.416 26.334C205.234 26.5293 204.967 26.627 204.615 26.627C204.27 26.627 204.007 26.5293 203.824 26.334C203.642 26.1322 203.551 25.8913 203.551 25.6113ZM207.76 25.6309C207.76 25.3379 207.848 25.0905 208.023 24.8887C208.206 24.6868 208.473 24.5859 208.824 24.5859C209.169 24.5859 209.433 24.6868 209.615 24.8887C209.804 25.0905 209.898 25.3379 209.898 25.6309C209.898 25.9108 209.804 26.1517 209.615 26.3535C209.433 26.5488 209.169 26.6465 208.824 26.6465C208.473 26.6465 208.206 26.5488 208.023 26.3535C207.848 26.1517 207.76 25.9108 207.76 25.6309ZM215.074 30.6895V39H213.268V28.4336H214.977L215.074 30.6895ZM214.645 33.3164L213.893 33.2871C213.899 32.5645 214.007 31.8971 214.215 31.2852C214.423 30.6667 214.716 30.1296 215.094 29.6738C215.471 29.2181 215.921 28.8665 216.441 28.6191C216.969 28.3652 217.551 28.2383 218.189 28.2383C218.71 28.2383 219.179 28.3099 219.596 28.4531C220.012 28.5898 220.367 28.8112 220.66 29.1172C220.96 29.4232 221.188 29.8203 221.344 30.3086C221.5 30.7904 221.578 31.3796 221.578 32.0762V39H219.762V32.0566C219.762 31.5033 219.68 31.0605 219.518 30.7285C219.355 30.39 219.117 30.1458 218.805 29.9961C218.492 29.8398 218.108 29.7617 217.652 29.7617C217.203 29.7617 216.793 29.8561 216.422 30.0449C216.057 30.2337 215.742 30.4941 215.475 30.8262C215.214 31.1582 215.009 31.5391 214.859 31.9688C214.716 32.3919 214.645 32.8411 214.645 33.3164ZM230.982 36.9492V24H232.799V39H231.139L230.982 36.9492ZM223.873 33.834V33.6289C223.873 32.8216 223.971 32.0892 224.166 31.4316C224.368 30.7676 224.651 30.1979 225.016 29.7227C225.387 29.2474 225.826 28.8828 226.334 28.6289C226.848 28.3685 227.421 28.2383 228.053 28.2383C228.717 28.2383 229.296 28.3555 229.791 28.5898C230.292 28.8177 230.715 29.153 231.061 29.5957C231.412 30.0319 231.689 30.5592 231.891 31.1777C232.092 31.7962 232.232 32.4961 232.311 33.2773V34.1758C232.239 34.9505 232.099 35.6471 231.891 36.2656C231.689 36.8841 231.412 37.4115 231.061 37.8477C230.715 38.2839 230.292 38.6191 229.791 38.8535C229.29 39.0814 228.704 39.1953 228.033 39.1953C227.415 39.1953 226.848 39.0618 226.334 38.7949C225.826 38.528 225.387 38.1536 225.016 37.6719C224.651 37.1901 224.368 36.6237 224.166 35.9727C223.971 35.3151 223.873 34.6022 223.873 33.834ZM225.689 33.6289V33.834C225.689 34.3613 225.742 34.8561 225.846 35.3184C225.956 35.7806 226.126 36.1875 226.354 36.5391C226.581 36.8906 226.871 37.1673 227.223 37.3691C227.574 37.5645 227.994 37.6621 228.482 37.6621C229.081 37.6621 229.573 37.5352 229.957 37.2812C230.348 37.0273 230.66 36.6921 230.895 36.2754C231.129 35.8587 231.311 35.4062 231.441 34.918V32.5645C231.363 32.2064 231.249 31.8613 231.1 31.5293C230.956 31.1908 230.768 30.8913 230.533 30.6309C230.305 30.3639 230.022 30.1523 229.684 29.9961C229.352 29.8398 228.958 29.7617 228.502 29.7617C228.007 29.7617 227.581 29.8659 227.223 30.0742C226.871 30.276 226.581 30.556 226.354 30.9141C226.126 31.2656 225.956 31.6758 225.846 32.1445C225.742 32.6068 225.689 33.1016 225.689 33.6289ZM239.996 39.1953C239.26 39.1953 238.593 39.0716 237.994 38.8242C237.402 38.5703 236.891 38.2155 236.461 37.7598C236.038 37.304 235.712 36.7637 235.484 36.1387C235.257 35.5137 235.143 34.8301 235.143 34.0879V33.6777C235.143 32.8184 235.27 32.0534 235.523 31.3828C235.777 30.7057 236.122 30.1328 236.559 29.6641C236.995 29.1953 237.49 28.8405 238.043 28.5996C238.596 28.3587 239.169 28.2383 239.762 28.2383C240.517 28.2383 241.168 28.3685 241.715 28.6289C242.268 28.8893 242.721 29.2539 243.072 29.7227C243.424 30.1849 243.684 30.7318 243.854 31.3633C244.023 31.9883 244.107 32.6719 244.107 33.4141V34.2246H236.217V32.75H242.301V32.6133C242.275 32.1445 242.177 31.6888 242.008 31.2461C241.845 30.8034 241.585 30.4388 241.227 30.1523C240.868 29.8659 240.38 29.7227 239.762 29.7227C239.352 29.7227 238.974 29.8105 238.629 29.9863C238.284 30.1556 237.988 30.4095 237.74 30.748C237.493 31.0866 237.301 31.5 237.164 31.9883C237.027 32.4766 236.959 33.0397 236.959 33.6777V34.0879C236.959 34.5892 237.027 35.0612 237.164 35.5039C237.307 35.9401 237.512 36.3242 237.779 36.6562C238.053 36.9883 238.382 37.2487 238.766 37.4375C239.156 37.6263 239.599 37.7207 240.094 37.7207C240.732 37.7207 241.272 37.5905 241.715 37.3301C242.158 37.0697 242.545 36.7214 242.877 36.2852L243.971 37.1543C243.743 37.4993 243.453 37.8281 243.102 38.1406C242.75 38.4531 242.317 38.707 241.803 38.9023C241.295 39.0977 240.693 39.1953 239.996 39.1953ZM248.023 30.0938V39H246.217V28.4336H247.975L248.023 30.0938ZM251.324 28.375L251.314 30.0547C251.165 30.0221 251.021 30.0026 250.885 29.9961C250.755 29.9831 250.605 29.9766 250.436 29.9766C250.019 29.9766 249.651 30.0417 249.332 30.1719C249.013 30.3021 248.743 30.4844 248.521 30.7188C248.3 30.9531 248.124 31.2331 247.994 31.5586C247.87 31.8776 247.789 32.2292 247.75 32.6133L247.242 32.9062C247.242 32.2682 247.304 31.6693 247.428 31.1094C247.558 30.5495 247.757 30.0547 248.023 29.625C248.29 29.1888 248.629 28.8503 249.039 28.6094C249.456 28.362 249.951 28.2383 250.523 28.2383C250.654 28.2383 250.803 28.2546 250.973 28.2871C251.142 28.3132 251.259 28.3424 251.324 28.375ZM257.906 28.4336V29.8203H252.193V28.4336H257.906ZM254.127 25.8652H255.934V36.3828C255.934 36.7409 255.989 37.0111 256.1 37.1934C256.21 37.3757 256.354 37.4961 256.529 37.5547C256.705 37.6133 256.894 37.6426 257.096 37.6426C257.245 37.6426 257.402 37.6296 257.564 37.6035C257.734 37.571 257.861 37.5449 257.945 37.5254L257.955 39C257.812 39.0456 257.623 39.0879 257.389 39.127C257.161 39.1725 256.884 39.1953 256.559 39.1953C256.116 39.1953 255.709 39.1074 255.338 38.9316C254.967 38.7559 254.671 38.4629 254.449 38.0527C254.234 37.6361 254.127 37.0762 254.127 36.373V25.8652ZM51.5293 59.1973C51.5293 58.9368 51.4707 58.696 51.3535 58.4746C51.2428 58.2467 51.0117 58.0417 50.6602 57.8594C50.3151 57.6706 49.7943 57.5078 49.0977 57.3711C48.5117 57.2474 47.9811 57.1009 47.5059 56.9316C47.0371 56.7624 46.6367 56.5573 46.3047 56.3164C45.9792 56.0755 45.7285 55.7923 45.5527 55.4668C45.377 55.1413 45.2891 54.7604 45.2891 54.3242C45.2891 53.9076 45.3802 53.5137 45.5625 53.1426C45.7513 52.7715 46.015 52.4427 46.3535 52.1562C46.6986 51.8698 47.112 51.6452 47.5938 51.4824C48.0755 51.3197 48.6126 51.2383 49.2051 51.2383C50.0514 51.2383 50.7741 51.388 51.373 51.6875C51.972 51.987 52.431 52.3874 52.75 52.8887C53.069 53.3835 53.2285 53.9336 53.2285 54.5391H51.4219C51.4219 54.2461 51.334 53.9629 51.1582 53.6895C50.9889 53.4095 50.7383 53.1784 50.4062 52.9961C50.0807 52.8138 49.6803 52.7227 49.2051 52.7227C48.7038 52.7227 48.2969 52.8008 47.9844 52.957C47.6784 53.1068 47.4538 53.2988 47.3105 53.5332C47.1738 53.7676 47.1055 54.015 47.1055 54.2754C47.1055 54.4707 47.138 54.6465 47.2031 54.8027C47.2747 54.9525 47.3984 55.0924 47.5742 55.2227C47.75 55.3464 47.9974 55.4635 48.3164 55.5742C48.6354 55.6849 49.0423 55.7956 49.5371 55.9062C50.403 56.1016 51.1159 56.3359 51.6758 56.6094C52.2357 56.8828 52.6523 57.2181 52.9258 57.6152C53.1992 58.0124 53.3359 58.4941 53.3359 59.0605C53.3359 59.5228 53.2383 59.946 53.043 60.3301C52.8542 60.7142 52.5775 61.0462 52.2129 61.3262C51.8548 61.5996 51.4251 61.8145 50.9238 61.9707C50.429 62.1204 49.8724 62.1953 49.2539 62.1953C48.3229 62.1953 47.5352 62.0293 46.8906 61.6973C46.2461 61.3652 45.7578 60.9355 45.4258 60.4082C45.0938 59.8809 44.9277 59.3242 44.9277 58.7383H46.7441C46.7702 59.2331 46.9134 59.627 47.1738 59.9199C47.4342 60.2064 47.7533 60.4115 48.1309 60.5352C48.5085 60.6523 48.8828 60.7109 49.2539 60.7109C49.7487 60.7109 50.1621 60.6458 50.4941 60.5156C50.8327 60.3854 51.0898 60.2064 51.2656 59.9785C51.4414 59.7507 51.5293 59.4902 51.5293 59.1973ZM57.6719 51.4336V62H55.8555V51.4336H57.6719ZM55.7188 48.6309C55.7188 48.3379 55.8066 48.0905 55.9824 47.8887C56.1647 47.6868 56.4316 47.5859 56.7832 47.5859C57.1283 47.5859 57.3919 47.6868 57.5742 47.8887C57.763 48.0905 57.8574 48.3379 57.8574 48.6309C57.8574 48.9108 57.763 49.1517 57.5742 49.3535C57.3919 49.5488 57.1283 49.6465 56.7832 49.6465C56.4316 49.6465 56.1647 49.5488 55.9824 49.3535C55.8066 49.1517 55.7188 48.9108 55.7188 48.6309ZM64.8008 60.7109C65.2305 60.7109 65.6276 60.623 65.9922 60.4473C66.3568 60.2715 66.6562 60.0306 66.8906 59.7246C67.125 59.4121 67.2585 59.0573 67.291 58.6602H69.0098C68.9772 59.2852 68.7656 59.8678 68.375 60.4082C67.9909 60.9421 67.4863 61.375 66.8613 61.707C66.2363 62.0326 65.5495 62.1953 64.8008 62.1953C64.0065 62.1953 63.3132 62.0553 62.7207 61.7754C62.1348 61.4954 61.6465 61.1113 61.2559 60.623C60.8717 60.1348 60.582 59.5749 60.3867 58.9434C60.1979 58.3053 60.1035 57.6315 60.1035 56.9219V56.5117C60.1035 55.8021 60.1979 55.1315 60.3867 54.5C60.582 53.862 60.8717 53.2988 61.2559 52.8105C61.6465 52.3223 62.1348 51.9382 62.7207 51.6582C63.3132 51.3783 64.0065 51.2383 64.8008 51.2383C65.6276 51.2383 66.3503 51.4076 66.9688 51.7461C67.5872 52.0781 68.0723 52.5339 68.4238 53.1133C68.7819 53.6862 68.9772 54.3372 69.0098 55.0664H67.291C67.2585 54.6302 67.1348 54.2363 66.9199 53.8848C66.7116 53.5332 66.4251 53.2533 66.0605 53.0449C65.7025 52.8301 65.2826 52.7227 64.8008 52.7227C64.2474 52.7227 63.7819 52.8333 63.4043 53.0547C63.0332 53.2695 62.737 53.5625 62.5156 53.9336C62.3008 54.2982 62.1445 54.7051 62.0469 55.1543C61.9557 55.597 61.9102 56.0495 61.9102 56.5117V56.9219C61.9102 57.3841 61.9557 57.8398 62.0469 58.2891C62.138 58.7383 62.291 59.1452 62.5059 59.5098C62.7272 59.8743 63.0234 60.1673 63.3945 60.3887C63.7721 60.6035 64.2409 60.7109 64.8008 60.7109ZM72.8477 47V62H71.041V47H72.8477ZM72.418 56.3164L71.666 56.2871C71.6725 55.5645 71.7799 54.8971 71.9883 54.2852C72.1966 53.6667 72.4896 53.1296 72.8672 52.6738C73.2448 52.2181 73.694 51.8665 74.2148 51.6191C74.7422 51.3652 75.3249 51.2383 75.9629 51.2383C76.4837 51.2383 76.9525 51.3099 77.3691 51.4531C77.7858 51.5898 78.1406 51.8112 78.4336 52.1172C78.7331 52.4232 78.9609 52.8203 79.1172 53.3086C79.2734 53.7904 79.3516 54.3796 79.3516 55.0762V62H77.5352V55.0566C77.5352 54.5033 77.4538 54.0605 77.291 53.7285C77.1283 53.39 76.8906 53.1458 76.5781 52.9961C76.2656 52.8398 75.8815 52.7617 75.4258 52.7617C74.9766 52.7617 74.5664 52.8561 74.1953 53.0449C73.8307 53.2337 73.515 53.4941 73.248 53.8262C72.9876 54.1582 72.7826 54.5391 72.6328 54.9688C72.4896 55.3919 72.418 55.8411 72.418 56.3164ZM87.0664 51.4336H88.8828V63.2598C88.8828 63.9043 88.7786 64.4512 88.5703 64.9004C88.3685 65.3496 88.0625 65.6882 87.6523 65.916C87.2487 66.1504 86.7376 66.2676 86.1191 66.2676C85.9564 66.2676 85.7676 66.2513 85.5527 66.2188C85.3314 66.1862 85.1458 66.1471 84.9961 66.1016L85.0059 64.6465C85.1296 64.6725 85.2695 64.6921 85.4258 64.7051C85.582 64.7246 85.7188 64.7344 85.8359 64.7344C86.1029 64.7344 86.3275 64.6855 86.5098 64.5879C86.6921 64.4902 86.8288 64.334 86.9199 64.1191C87.0176 63.9043 87.0664 63.6178 87.0664 63.2598V51.4336ZM86.8809 48.6309C86.8809 48.3379 86.972 48.0905 87.1543 47.8887C87.3366 47.6868 87.6003 47.5859 87.9453 47.5859C88.2969 47.5859 88.5638 47.6868 88.7461 47.8887C88.9284 48.0905 89.0195 48.3379 89.0195 48.6309C89.0195 48.9108 88.9284 49.1517 88.7461 49.3535C88.5638 49.5488 88.2969 49.6465 87.9453 49.6465C87.6003 49.6465 87.3366 49.5488 87.1543 49.3535C86.972 49.1517 86.8809 48.9108 86.8809 48.6309ZM96.1875 62.1953C95.4518 62.1953 94.7845 62.0716 94.1855 61.8242C93.5931 61.5703 93.082 61.2155 92.6523 60.7598C92.2292 60.304 91.9036 59.7637 91.6758 59.1387C91.4479 58.5137 91.334 57.8301 91.334 57.0879V56.6777C91.334 55.8184 91.4609 55.0534 91.7148 54.3828C91.9688 53.7057 92.3138 53.1328 92.75 52.6641C93.1862 52.1953 93.681 51.8405 94.2344 51.5996C94.7878 51.3587 95.3607 51.2383 95.9531 51.2383C96.7083 51.2383 97.3594 51.3685 97.9062 51.6289C98.4596 51.8893 98.9121 52.2539 99.2637 52.7227C99.6152 53.1849 99.8757 53.7318 100.045 54.3633C100.214 54.9883 100.299 55.6719 100.299 56.4141V57.2246H92.4082V55.75H98.4922V55.6133C98.4661 55.1445 98.3685 54.6888 98.1992 54.2461C98.0365 53.8034 97.776 53.4388 97.418 53.1523C97.0599 52.8659 96.5716 52.7227 95.9531 52.7227C95.543 52.7227 95.1654 52.8105 94.8203 52.9863C94.4753 53.1556 94.179 53.4095 93.9316 53.748C93.6842 54.0866 93.4922 54.5 93.3555 54.9883C93.2188 55.4766 93.1504 56.0397 93.1504 56.6777V57.0879C93.1504 57.5892 93.2188 58.0612 93.3555 58.5039C93.4987 58.9401 93.7038 59.3242 93.9707 59.6562C94.2441 59.9883 94.5729 60.2487 94.957 60.4375C95.3477 60.6263 95.7904 60.7207 96.2852 60.7207C96.9232 60.7207 97.4635 60.5905 97.9062 60.3301C98.349 60.0697 98.7363 59.7214 99.0684 59.2852L100.162 60.1543C99.9342 60.4993 99.6445 60.8281 99.293 61.1406C98.9414 61.4531 98.5085 61.707 97.9941 61.9023C97.4863 62.0977 96.8841 62.1953 96.1875 62.1953ZM109.176 53.6895V62H107.369V51.4336H109.078L109.176 53.6895ZM108.746 56.3164L107.994 56.2871C108.001 55.5645 108.108 54.8971 108.316 54.2852C108.525 53.6667 108.818 53.1296 109.195 52.6738C109.573 52.2181 110.022 51.8665 110.543 51.6191C111.07 51.3652 111.653 51.2383 112.291 51.2383C112.812 51.2383 113.281 51.3099 113.697 51.4531C114.114 51.5898 114.469 51.8112 114.762 52.1172C115.061 52.4232 115.289 52.8203 115.445 53.3086C115.602 53.7904 115.68 54.3796 115.68 55.0762V62H113.863V55.0566C113.863 54.5033 113.782 54.0605 113.619 53.7285C113.456 53.39 113.219 53.1458 112.906 52.9961C112.594 52.8398 112.21 52.7617 111.754 52.7617C111.305 52.7617 110.895 52.8561 110.523 53.0449C110.159 53.2337 109.843 53.4941 109.576 53.8262C109.316 54.1582 109.111 54.5391 108.961 54.9688C108.818 55.3919 108.746 55.8411 108.746 56.3164ZM124.654 60.1934V54.7539C124.654 54.3372 124.57 53.9759 124.4 53.6699C124.238 53.3574 123.99 53.1165 123.658 52.9473C123.326 52.778 122.916 52.6934 122.428 52.6934C121.972 52.6934 121.572 52.7715 121.227 52.9277C120.888 53.084 120.621 53.2891 120.426 53.543C120.237 53.7969 120.143 54.0703 120.143 54.3633H118.336C118.336 53.9857 118.434 53.6113 118.629 53.2402C118.824 52.8691 119.104 52.5339 119.469 52.2344C119.84 51.9284 120.283 51.6875 120.797 51.5117C121.318 51.3294 121.897 51.2383 122.535 51.2383C123.303 51.2383 123.98 51.3685 124.566 51.6289C125.159 51.8893 125.621 52.2832 125.953 52.8105C126.292 53.3314 126.461 53.9857 126.461 54.7734V59.6953C126.461 60.0469 126.49 60.4212 126.549 60.8184C126.614 61.2155 126.708 61.5573 126.832 61.8438V62H124.947C124.856 61.7917 124.785 61.515 124.732 61.1699C124.68 60.8184 124.654 60.4928 124.654 60.1934ZM124.967 55.5938L124.986 56.8633H123.16C122.646 56.8633 122.187 56.9056 121.783 56.9902C121.38 57.0684 121.041 57.1888 120.768 57.3516C120.494 57.5143 120.286 57.7194 120.143 57.9668C119.999 58.2077 119.928 58.4909 119.928 58.8164C119.928 59.1484 120.003 59.4512 120.152 59.7246C120.302 59.998 120.527 60.2161 120.826 60.3789C121.132 60.5352 121.507 60.6133 121.949 60.6133C122.503 60.6133 122.991 60.4961 123.414 60.2617C123.837 60.0273 124.173 59.7409 124.42 59.4023C124.674 59.0638 124.811 58.735 124.83 58.416L125.602 59.2852C125.556 59.5586 125.432 59.8613 125.23 60.1934C125.029 60.5254 124.758 60.8444 124.42 61.1504C124.088 61.4499 123.691 61.7005 123.229 61.9023C122.773 62.0977 122.258 62.1953 121.686 62.1953C120.969 62.1953 120.341 62.0553 119.801 61.7754C119.267 61.4954 118.85 61.1211 118.551 60.6523C118.258 60.1771 118.111 59.6465 118.111 59.0605C118.111 58.4941 118.222 57.9961 118.443 57.5664C118.665 57.1302 118.984 56.7689 119.4 56.4824C119.817 56.1895 120.318 55.9681 120.904 55.8184C121.49 55.6686 122.145 55.5938 122.867 55.5938H124.967ZM133.531 60.7109C133.961 60.7109 134.358 60.623 134.723 60.4473C135.087 60.2715 135.387 60.0306 135.621 59.7246C135.855 59.4121 135.989 59.0573 136.021 58.6602H137.74C137.708 59.2852 137.496 59.8678 137.105 60.4082C136.721 60.9421 136.217 61.375 135.592 61.707C134.967 62.0326 134.28 62.1953 133.531 62.1953C132.737 62.1953 132.044 62.0553 131.451 61.7754C130.865 61.4954 130.377 61.1113 129.986 60.623C129.602 60.1348 129.312 59.5749 129.117 58.9434C128.928 58.3053 128.834 57.6315 128.834 56.9219V56.5117C128.834 55.8021 128.928 55.1315 129.117 54.5C129.312 53.862 129.602 53.2988 129.986 52.8105C130.377 52.3223 130.865 51.9382 131.451 51.6582C132.044 51.3783 132.737 51.2383 133.531 51.2383C134.358 51.2383 135.081 51.4076 135.699 51.7461C136.318 52.0781 136.803 52.5339 137.154 53.1133C137.512 53.6862 137.708 54.3372 137.74 55.0664H136.021C135.989 54.6302 135.865 54.2363 135.65 53.8848C135.442 53.5332 135.156 53.2533 134.791 53.0449C134.433 52.8301 134.013 52.7227 133.531 52.7227C132.978 52.7227 132.512 52.8333 132.135 53.0547C131.764 53.2695 131.467 53.5625 131.246 53.9336C131.031 54.2982 130.875 54.7051 130.777 55.1543C130.686 55.597 130.641 56.0495 130.641 56.5117V56.9219C130.641 57.3841 130.686 57.8398 130.777 58.2891C130.868 58.7383 131.021 59.1452 131.236 59.5098C131.458 59.8743 131.754 60.1673 132.125 60.3887C132.503 60.6035 132.971 60.7109 133.531 60.7109ZM141.578 47V62H139.771V47H141.578ZM141.148 56.3164L140.396 56.2871C140.403 55.5645 140.51 54.8971 140.719 54.2852C140.927 53.6667 141.22 53.1296 141.598 52.6738C141.975 52.2181 142.424 51.8665 142.945 51.6191C143.473 51.3652 144.055 51.2383 144.693 51.2383C145.214 51.2383 145.683 51.3099 146.1 51.4531C146.516 51.5898 146.871 51.8112 147.164 52.1172C147.464 52.4232 147.691 52.8203 147.848 53.3086C148.004 53.7904 148.082 54.3796 148.082 55.0762V62H146.266V55.0566C146.266 54.5033 146.184 54.0605 146.021 53.7285C145.859 53.39 145.621 53.1458 145.309 52.9961C144.996 52.8398 144.612 52.7617 144.156 52.7617C143.707 52.7617 143.297 52.8561 142.926 53.0449C142.561 53.2337 142.245 53.4941 141.979 53.8262C141.718 54.1582 141.513 54.5391 141.363 54.9688C141.22 55.3919 141.148 55.8411 141.148 56.3164ZM165.055 60.4668V62H157.525V60.4668H165.055ZM157.906 47.7812V62H156.021V47.7812H157.906ZM164.059 53.8945V55.4277H157.525V53.8945H164.059ZM164.957 47.7812V49.3242H157.525V47.7812H164.957ZM168.912 53.5332V62H167.096V51.4336H168.814L168.912 53.5332ZM168.541 56.3164L167.701 56.2871C167.708 55.5645 167.802 54.8971 167.984 54.2852C168.167 53.6667 168.437 53.1296 168.795 52.6738C169.153 52.2181 169.599 51.8665 170.133 51.6191C170.667 51.3652 171.285 51.2383 171.988 51.2383C172.483 51.2383 172.939 51.3099 173.355 51.4531C173.772 51.5898 174.133 51.8079 174.439 52.1074C174.745 52.4069 174.983 52.791 175.152 53.2598C175.322 53.7285 175.406 54.2949 175.406 54.959V62H173.6V55.0469C173.6 54.4935 173.505 54.0508 173.316 53.7188C173.134 53.3867 172.874 53.1458 172.535 52.9961C172.197 52.8398 171.799 52.7617 171.344 52.7617C170.81 52.7617 170.364 52.8561 170.006 53.0449C169.648 53.2337 169.361 53.4941 169.146 53.8262C168.932 54.1582 168.775 54.5391 168.678 54.9688C168.587 55.3919 168.541 55.8411 168.541 56.3164ZM175.387 55.3203L174.176 55.6914C174.182 55.112 174.277 54.5553 174.459 54.0215C174.648 53.4876 174.918 53.0124 175.27 52.5957C175.628 52.179 176.067 51.8503 176.588 51.6094C177.109 51.362 177.704 51.2383 178.375 51.2383C178.941 51.2383 179.443 51.3132 179.879 51.4629C180.322 51.6126 180.693 51.8438 180.992 52.1562C181.298 52.4622 181.529 52.8561 181.686 53.3379C181.842 53.8197 181.92 54.3926 181.92 55.0566V62H180.104V55.0371C180.104 54.4447 180.009 53.9857 179.82 53.6602C179.638 53.3281 179.378 53.097 179.039 52.9668C178.707 52.8301 178.31 52.7617 177.848 52.7617C177.451 52.7617 177.099 52.8301 176.793 52.9668C176.487 53.1035 176.23 53.2923 176.021 53.5332C175.813 53.7676 175.654 54.0378 175.543 54.3438C175.439 54.6497 175.387 54.9753 175.387 55.3203ZM184.176 56.834V56.6094C184.176 55.8477 184.286 55.1413 184.508 54.4902C184.729 53.8327 185.048 53.263 185.465 52.7812C185.882 52.293 186.386 51.9154 186.979 51.6484C187.571 51.375 188.235 51.2383 188.971 51.2383C189.713 51.2383 190.38 51.375 190.973 51.6484C191.572 51.9154 192.079 52.293 192.496 52.7812C192.919 53.263 193.242 53.8327 193.463 54.4902C193.684 55.1413 193.795 55.8477 193.795 56.6094V56.834C193.795 57.5957 193.684 58.3021 193.463 58.9531C193.242 59.6042 192.919 60.1738 192.496 60.6621C192.079 61.1439 191.575 61.5215 190.982 61.7949C190.396 62.0618 189.732 62.1953 188.99 62.1953C188.248 62.1953 187.581 62.0618 186.988 61.7949C186.396 61.5215 185.888 61.1439 185.465 60.6621C185.048 60.1738 184.729 59.6042 184.508 58.9531C184.286 58.3021 184.176 57.5957 184.176 56.834ZM185.982 56.6094V56.834C185.982 57.3613 186.044 57.8594 186.168 58.3281C186.292 58.7904 186.477 59.2005 186.725 59.5586C186.979 59.9167 187.294 60.1999 187.672 60.4082C188.049 60.61 188.489 60.7109 188.99 60.7109C189.485 60.7109 189.918 60.61 190.289 60.4082C190.667 60.1999 190.979 59.9167 191.227 59.5586C191.474 59.2005 191.66 58.7904 191.783 58.3281C191.913 57.8594 191.979 57.3613 191.979 56.834V56.6094C191.979 56.0885 191.913 55.597 191.783 55.1348C191.66 54.666 191.471 54.2526 191.217 53.8945C190.969 53.5299 190.657 53.2435 190.279 53.0352C189.908 52.8268 189.472 52.7227 188.971 52.7227C188.476 52.7227 188.04 52.8268 187.662 53.0352C187.291 53.2435 186.979 53.5299 186.725 53.8945C186.477 54.2526 186.292 54.666 186.168 55.1348C186.044 55.597 185.982 56.0885 185.982 56.6094ZM200.484 51.4336V52.8203H194.771V51.4336H200.484ZM196.705 48.8652H198.512V59.3828C198.512 59.7409 198.567 60.0111 198.678 60.1934C198.788 60.3757 198.932 60.4961 199.107 60.5547C199.283 60.6133 199.472 60.6426 199.674 60.6426C199.824 60.6426 199.98 60.6296 200.143 60.6035C200.312 60.571 200.439 60.5449 200.523 60.5254L200.533 62C200.39 62.0456 200.201 62.0879 199.967 62.127C199.739 62.1725 199.462 62.1953 199.137 62.1953C198.694 62.1953 198.287 62.1074 197.916 61.9316C197.545 61.7559 197.249 61.4629 197.027 61.0527C196.812 60.6361 196.705 60.0762 196.705 59.373V48.8652ZM204.566 51.4336V62H202.75V51.4336H204.566ZM202.613 48.6309C202.613 48.3379 202.701 48.0905 202.877 47.8887C203.059 47.6868 203.326 47.5859 203.678 47.5859C204.023 47.5859 204.286 47.6868 204.469 47.8887C204.658 48.0905 204.752 48.3379 204.752 48.6309C204.752 48.9108 204.658 49.1517 204.469 49.3535C204.286 49.5488 204.023 49.6465 203.678 49.6465C203.326 49.6465 203.059 49.5488 202.877 49.3535C202.701 49.1517 202.613 48.9108 202.613 48.6309ZM206.988 56.834V56.6094C206.988 55.8477 207.099 55.1413 207.32 54.4902C207.542 53.8327 207.861 53.263 208.277 52.7812C208.694 52.293 209.199 51.9154 209.791 51.6484C210.383 51.375 211.048 51.2383 211.783 51.2383C212.525 51.2383 213.193 51.375 213.785 51.6484C214.384 51.9154 214.892 52.293 215.309 52.7812C215.732 53.263 216.054 53.8327 216.275 54.4902C216.497 55.1413 216.607 55.8477 216.607 56.6094V56.834C216.607 57.5957 216.497 58.3021 216.275 58.9531C216.054 59.6042 215.732 60.1738 215.309 60.6621C214.892 61.1439 214.387 61.5215 213.795 61.7949C213.209 62.0618 212.545 62.1953 211.803 62.1953C211.061 62.1953 210.393 62.0618 209.801 61.7949C209.208 61.5215 208.701 61.1439 208.277 60.6621C207.861 60.1738 207.542 59.6042 207.32 58.9531C207.099 58.3021 206.988 57.5957 206.988 56.834ZM208.795 56.6094V56.834C208.795 57.3613 208.857 57.8594 208.98 58.3281C209.104 58.7904 209.29 59.2005 209.537 59.5586C209.791 59.9167 210.107 60.1999 210.484 60.4082C210.862 60.61 211.301 60.7109 211.803 60.7109C212.298 60.7109 212.73 60.61 213.102 60.4082C213.479 60.1999 213.792 59.9167 214.039 59.5586C214.286 59.2005 214.472 58.7904 214.596 58.3281C214.726 57.8594 214.791 57.3613 214.791 56.834V56.6094C214.791 56.0885 214.726 55.597 214.596 55.1348C214.472 54.666 214.283 54.2526 214.029 53.8945C213.782 53.5299 213.469 53.2435 213.092 53.0352C212.721 52.8268 212.285 52.7227 211.783 52.7227C211.288 52.7227 210.852 52.8268 210.475 53.0352C210.104 53.2435 209.791 53.5299 209.537 53.8945C209.29 54.2526 209.104 54.666 208.98 55.1348C208.857 55.597 208.795 56.0885 208.795 56.6094ZM220.68 53.6895V62H218.873V51.4336H220.582L220.68 53.6895ZM220.25 56.3164L219.498 56.2871C219.505 55.5645 219.612 54.8971 219.82 54.2852C220.029 53.6667 220.322 53.1296 220.699 52.6738C221.077 52.2181 221.526 51.8665 222.047 51.6191C222.574 51.3652 223.157 51.2383 223.795 51.2383C224.316 51.2383 224.785 51.3099 225.201 51.4531C225.618 51.5898 225.973 51.8112 226.266 52.1172C226.565 52.4232 226.793 52.8203 226.949 53.3086C227.105 53.7904 227.184 54.3796 227.184 55.0762V62H225.367V55.0566C225.367 54.5033 225.286 54.0605 225.123 53.7285C224.96 53.39 224.723 53.1458 224.41 52.9961C224.098 52.8398 223.714 52.7617 223.258 52.7617C222.809 52.7617 222.398 52.8561 222.027 53.0449C221.663 53.2337 221.347 53.4941 221.08 53.8262C220.82 54.1582 220.615 54.5391 220.465 54.9688C220.322 55.3919 220.25 55.8411 220.25 56.3164ZM244.879 54.1582V55.6426H235.094V54.1582H244.879ZM257.359 62.1953C256.624 62.1953 255.956 62.0716 255.357 61.8242C254.765 61.5703 254.254 61.2155 253.824 60.7598C253.401 60.304 253.076 59.7637 252.848 59.1387C252.62 58.5137 252.506 57.8301 252.506 57.0879V56.6777C252.506 55.8184 252.633 55.0534 252.887 54.3828C253.141 53.7057 253.486 53.1328 253.922 52.6641C254.358 52.1953 254.853 51.8405 255.406 51.5996C255.96 51.3587 256.533 51.2383 257.125 51.2383C257.88 51.2383 258.531 51.3685 259.078 51.6289C259.632 51.8893 260.084 52.2539 260.436 52.7227C260.787 53.1849 261.048 53.7318 261.217 54.3633C261.386 54.9883 261.471 55.6719 261.471 56.4141V57.2246H253.58V55.75H259.664V55.6133C259.638 55.1445 259.54 54.6888 259.371 54.2461C259.208 53.8034 258.948 53.4388 258.59 53.1523C258.232 52.8659 257.743 52.7227 257.125 52.7227C256.715 52.7227 256.337 52.8105 255.992 52.9863C255.647 53.1556 255.351 53.4095 255.104 53.748C254.856 54.0866 254.664 54.5 254.527 54.9883C254.391 55.4766 254.322 56.0397 254.322 56.6777V57.0879C254.322 57.5892 254.391 58.0612 254.527 58.5039C254.671 58.9401 254.876 59.3242 255.143 59.6562C255.416 59.9883 255.745 60.2487 256.129 60.4375C256.52 60.6263 256.962 60.7207 257.457 60.7207C258.095 60.7207 258.635 60.5905 259.078 60.3301C259.521 60.0697 259.908 59.7214 260.24 59.2852L261.334 60.1543C261.106 60.4993 260.816 60.8281 260.465 61.1406C260.113 61.4531 259.68 61.707 259.166 61.9023C258.658 62.0977 258.056 62.1953 257.359 62.1953ZM265.387 53.0938V62H263.58V51.4336H265.338L265.387 53.0938ZM268.688 51.375L268.678 53.0547C268.528 53.0221 268.385 53.0026 268.248 52.9961C268.118 52.9831 267.968 52.9766 267.799 52.9766C267.382 52.9766 267.014 53.0417 266.695 53.1719C266.376 53.3021 266.106 53.4844 265.885 53.7188C265.663 53.9531 265.488 54.2331 265.357 54.5586C265.234 54.8776 265.152 55.2292 265.113 55.6133L264.605 55.9062C264.605 55.2682 264.667 54.6693 264.791 54.1094C264.921 53.5495 265.12 53.0547 265.387 52.625C265.654 52.1888 265.992 51.8503 266.402 51.6094C266.819 51.362 267.314 51.2383 267.887 51.2383C268.017 51.2383 268.167 51.2546 268.336 51.2871C268.505 51.3132 268.622 51.3424 268.688 51.375ZM48.0527 83.125L50.7676 74.4336H51.959L51.7246 76.1621L48.9609 85H47.7988L48.0527 83.125ZM46.2266 74.4336L48.541 83.2227L48.707 85H47.4863L44.4199 74.4336H46.2266ZM54.5566 83.1543L56.7637 74.4336H58.5605L55.4941 85H54.2832L54.5566 83.1543ZM52.2227 74.4336L54.8789 82.9785L55.1816 85H54.0293L51.1875 76.1426L50.9531 74.4336H52.2227ZM62.3789 74.4336V85H60.5625V74.4336H62.3789ZM60.4258 71.6309C60.4258 71.3379 60.5137 71.0905 60.6895 70.8887C60.8717 70.6868 61.1387 70.5859 61.4902 70.5859C61.8353 70.5859 62.099 70.6868 62.2812 70.8887C62.4701 71.0905 62.5645 71.3379 62.5645 71.6309C62.5645 71.9108 62.4701 72.1517 62.2812 72.3535C62.099 72.5488 61.8353 72.6465 61.4902 72.6465C61.1387 72.6465 60.8717 72.5488 60.6895 72.3535C60.5137 72.1517 60.4258 71.9108 60.4258 71.6309ZM67.0859 76.0938V85H65.2793V74.4336H67.0371L67.0859 76.0938ZM70.3867 74.375L70.377 76.0547C70.2272 76.0221 70.084 76.0026 69.9473 75.9961C69.8171 75.9831 69.6673 75.9766 69.498 75.9766C69.0814 75.9766 68.7135 76.0417 68.3945 76.1719C68.0755 76.3021 67.8053 76.4844 67.584 76.7188C67.3626 76.9531 67.1868 77.2331 67.0566 77.5586C66.9329 77.8776 66.8516 78.2292 66.8125 78.6133L66.3047 78.9062C66.3047 78.2682 66.3665 77.6693 66.4902 77.1094C66.6204 76.5495 66.819 76.0547 67.0859 75.625C67.3529 75.1888 67.6914 74.8503 68.1016 74.6094C68.5182 74.362 69.013 74.2383 69.5859 74.2383C69.7161 74.2383 69.8659 74.2546 70.0352 74.2871C70.2044 74.3132 70.3216 74.3424 70.3867 74.375ZM78.5215 82.9492V70H80.3379V85H78.6777L78.5215 82.9492ZM71.4121 79.834V79.6289C71.4121 78.8216 71.5098 78.0892 71.7051 77.4316C71.9069 76.7676 72.1901 76.1979 72.5547 75.7227C72.9258 75.2474 73.3652 74.8828 73.873 74.6289C74.3874 74.3685 74.9603 74.2383 75.5918 74.2383C76.2559 74.2383 76.8353 74.3555 77.3301 74.5898C77.8314 74.8177 78.2546 75.153 78.5996 75.5957C78.9512 76.0319 79.2279 76.5592 79.4297 77.1777C79.6315 77.7962 79.7715 78.4961 79.8496 79.2773V80.1758C79.778 80.9505 79.638 81.6471 79.4297 82.2656C79.2279 82.8841 78.9512 83.4115 78.5996 83.8477C78.2546 84.2839 77.8314 84.6191 77.3301 84.8535C76.8288 85.0814 76.2428 85.1953 75.5723 85.1953C74.9538 85.1953 74.3874 85.0618 73.873 84.7949C73.3652 84.528 72.9258 84.1536 72.5547 83.6719C72.1901 83.1901 71.9069 82.6237 71.7051 81.9727C71.5098 81.3151 71.4121 80.6022 71.4121 79.834ZM73.2285 79.6289V79.834C73.2285 80.3613 73.2806 80.8561 73.3848 81.3184C73.4954 81.7806 73.6647 82.1875 73.8926 82.5391C74.1204 82.8906 74.4102 83.1673 74.7617 83.3691C75.1133 83.5645 75.5332 83.6621 76.0215 83.6621C76.6204 83.6621 77.112 83.5352 77.4961 83.2812C77.8867 83.0273 78.1992 82.6921 78.4336 82.2754C78.668 81.8587 78.8503 81.4062 78.9805 80.918V78.5645C78.9023 78.2064 78.7884 77.8613 78.6387 77.5293C78.4954 77.1908 78.3066 76.8913 78.0723 76.6309C77.8444 76.3639 77.5612 76.1523 77.2227 75.9961C76.8906 75.8398 76.4967 75.7617 76.041 75.7617C75.5462 75.7617 75.1198 75.8659 74.7617 76.0742C74.4102 76.276 74.1204 76.556 73.8926 76.9141C73.6647 77.2656 73.4954 77.6758 73.3848 78.1445C73.2806 78.6068 73.2285 79.1016 73.2285 79.6289ZM94.2637 82.1973C94.2637 81.9368 94.2051 81.696 94.0879 81.4746C93.9772 81.2467 93.7461 81.0417 93.3945 80.8594C93.0495 80.6706 92.5286 80.5078 91.832 80.3711C91.2461 80.2474 90.7155 80.1009 90.2402 79.9316C89.7715 79.7624 89.3711 79.5573 89.0391 79.3164C88.7135 79.0755 88.4629 78.7923 88.2871 78.4668C88.1113 78.1413 88.0234 77.7604 88.0234 77.3242C88.0234 76.9076 88.1146 76.5137 88.2969 76.1426C88.4857 75.7715 88.7493 75.4427 89.0879 75.1562C89.4329 74.8698 89.8464 74.6452 90.3281 74.4824C90.8099 74.3197 91.347 74.2383 91.9395 74.2383C92.7858 74.2383 93.5085 74.388 94.1074 74.6875C94.7064 74.987 95.1654 75.3874 95.4844 75.8887C95.8034 76.3835 95.9629 76.9336 95.9629 77.5391H94.1562C94.1562 77.2461 94.0684 76.9629 93.8926 76.6895C93.7233 76.4095 93.4727 76.1784 93.1406 75.9961C92.8151 75.8138 92.4147 75.7227 91.9395 75.7227C91.4382 75.7227 91.0312 75.8008 90.7188 75.957C90.4128 76.1068 90.1882 76.2988 90.0449 76.5332C89.9082 76.7676 89.8398 77.015 89.8398 77.2754C89.8398 77.4707 89.8724 77.6465 89.9375 77.8027C90.0091 77.9525 90.1328 78.0924 90.3086 78.2227C90.4844 78.3464 90.7318 78.4635 91.0508 78.5742C91.3698 78.6849 91.7767 78.7956 92.2715 78.9062C93.1374 79.1016 93.8503 79.3359 94.4102 79.6094C94.9701 79.8828 95.3867 80.2181 95.6602 80.6152C95.9336 81.0124 96.0703 81.4941 96.0703 82.0605C96.0703 82.5228 95.9727 82.946 95.7773 83.3301C95.5885 83.7142 95.3118 84.0462 94.9473 84.3262C94.5892 84.5996 94.1595 84.8145 93.6582 84.9707C93.1634 85.1204 92.6068 85.1953 91.9883 85.1953C91.0573 85.1953 90.2695 85.0293 89.625 84.6973C88.9805 84.3652 88.4922 83.9355 88.1602 83.4082C87.8281 82.8809 87.6621 82.3242 87.6621 81.7383H89.4785C89.5046 82.2331 89.6478 82.627 89.9082 82.9199C90.1686 83.2064 90.4876 83.4115 90.8652 83.5352C91.2428 83.6523 91.6172 83.7109 91.9883 83.7109C92.4831 83.7109 92.8965 83.6458 93.2285 83.5156C93.5671 83.3854 93.8242 83.2064 94 82.9785C94.1758 82.7507 94.2637 82.4902 94.2637 82.1973ZM102.672 83.7109C103.102 83.7109 103.499 83.623 103.863 83.4473C104.228 83.2715 104.527 83.0306 104.762 82.7246C104.996 82.4121 105.13 82.0573 105.162 81.6602H106.881C106.848 82.2852 106.637 82.8678 106.246 83.4082C105.862 83.9421 105.357 84.375 104.732 84.707C104.107 85.0326 103.421 85.1953 102.672 85.1953C101.878 85.1953 101.184 85.0553 100.592 84.7754C100.006 84.4954 99.5176 84.1113 99.127 83.623C98.7428 83.1348 98.4531 82.5749 98.2578 81.9434C98.069 81.3053 97.9746 80.6315 97.9746 79.9219V79.5117C97.9746 78.8021 98.069 78.1315 98.2578 77.5C98.4531 76.862 98.7428 76.2988 99.127 75.8105C99.5176 75.3223 100.006 74.9382 100.592 74.6582C101.184 74.3783 101.878 74.2383 102.672 74.2383C103.499 74.2383 104.221 74.4076 104.84 74.7461C105.458 75.0781 105.943 75.5339 106.295 76.1133C106.653 76.6862 106.848 77.3372 106.881 78.0664H105.162C105.13 77.6302 105.006 77.2363 104.791 76.8848C104.583 76.5332 104.296 76.2533 103.932 76.0449C103.574 75.8301 103.154 75.7227 102.672 75.7227C102.118 75.7227 101.653 75.8333 101.275 76.0547C100.904 76.2695 100.608 76.5625 100.387 76.9336C100.172 77.2982 100.016 77.7051 99.918 78.1543C99.8268 78.597 99.7812 79.0495 99.7812 79.5117V79.9219C99.7812 80.3841 99.8268 80.8398 99.918 81.2891C100.009 81.7383 100.162 82.1452 100.377 82.5098C100.598 82.8743 100.895 83.1673 101.266 83.3887C101.643 83.6035 102.112 83.7109 102.672 83.7109ZM110.719 70V85H108.912V70H110.719ZM110.289 79.3164L109.537 79.2871C109.544 78.5645 109.651 77.8971 109.859 77.2852C110.068 76.6667 110.361 76.1296 110.738 75.6738C111.116 75.2181 111.565 74.8665 112.086 74.6191C112.613 74.3652 113.196 74.2383 113.834 74.2383C114.355 74.2383 114.824 74.3099 115.24 74.4531C115.657 74.5898 116.012 74.8112 116.305 75.1172C116.604 75.4232 116.832 75.8203 116.988 76.3086C117.145 76.7904 117.223 77.3796 117.223 78.0762V85H115.406V78.0566C115.406 77.5033 115.325 77.0605 115.162 76.7285C114.999 76.39 114.762 76.1458 114.449 75.9961C114.137 75.8398 113.753 75.7617 113.297 75.7617C112.848 75.7617 112.438 75.8561 112.066 76.0449C111.702 76.2337 111.386 76.4941 111.119 76.8262C110.859 77.1582 110.654 77.5391 110.504 77.9688C110.361 78.3919 110.289 78.8411 110.289 79.3164ZM121.734 76.6895V85H119.928V74.4336H121.637L121.734 76.6895ZM121.305 79.3164L120.553 79.2871C120.559 78.5645 120.667 77.8971 120.875 77.2852C121.083 76.6667 121.376 76.1296 121.754 75.6738C122.132 75.2181 122.581 74.8665 123.102 74.6191C123.629 74.3652 124.212 74.2383 124.85 74.2383C125.37 74.2383 125.839 74.3099 126.256 74.4531C126.673 74.5898 127.027 74.8112 127.32 75.1172C127.62 75.4232 127.848 75.8203 128.004 76.3086C128.16 76.7904 128.238 77.3796 128.238 78.0762V85H126.422V78.0566C126.422 77.5033 126.34 77.0605 126.178 76.7285C126.015 76.39 125.777 76.1458 125.465 75.9961C125.152 75.8398 124.768 75.7617 124.312 75.7617C123.863 75.7617 123.453 75.8561 123.082 76.0449C122.717 76.2337 122.402 76.4941 122.135 76.8262C121.874 77.1582 121.669 77.5391 121.52 77.9688C121.376 78.3919 121.305 78.8411 121.305 79.3164ZM135.367 85.1953C134.632 85.1953 133.964 85.0716 133.365 84.8242C132.773 84.5703 132.262 84.2155 131.832 83.7598C131.409 83.304 131.083 82.7637 130.855 82.1387C130.628 81.5137 130.514 80.8301 130.514 80.0879V79.6777C130.514 78.8184 130.641 78.0534 130.895 77.3828C131.148 76.7057 131.493 76.1328 131.93 75.6641C132.366 75.1953 132.861 74.8405 133.414 74.5996C133.967 74.3587 134.54 74.2383 135.133 74.2383C135.888 74.2383 136.539 74.3685 137.086 74.6289C137.639 74.8893 138.092 75.2539 138.443 75.7227C138.795 76.1849 139.055 76.7318 139.225 77.3633C139.394 77.9883 139.479 78.6719 139.479 79.4141V80.2246H131.588V78.75H137.672V78.6133C137.646 78.1445 137.548 77.6888 137.379 77.2461C137.216 76.8034 136.956 76.4388 136.598 76.1523C136.24 75.8659 135.751 75.7227 135.133 75.7227C134.723 75.7227 134.345 75.8105 134 75.9863C133.655 76.1556 133.359 76.4095 133.111 76.748C132.864 77.0866 132.672 77.5 132.535 77.9883C132.398 78.4766 132.33 79.0397 132.33 79.6777V80.0879C132.33 80.5892 132.398 81.0612 132.535 81.5039C132.678 81.9401 132.883 82.3242 133.15 82.6562C133.424 82.9883 133.753 83.2487 134.137 83.4375C134.527 83.6263 134.97 83.7207 135.465 83.7207C136.103 83.7207 136.643 83.5905 137.086 83.3301C137.529 83.0697 137.916 82.7214 138.248 82.2852L139.342 83.1543C139.114 83.4993 138.824 83.8281 138.473 84.1406C138.121 84.4531 137.688 84.707 137.174 84.9023C136.666 85.0977 136.064 85.1953 135.367 85.1953ZM143.551 70V85H141.734V70H143.551ZM148.414 70V85H146.598V70H148.414ZM155.699 85.1953C154.964 85.1953 154.296 85.0716 153.697 84.8242C153.105 84.5703 152.594 84.2155 152.164 83.7598C151.741 83.304 151.415 82.7637 151.188 82.1387C150.96 81.5137 150.846 80.8301 150.846 80.0879V79.6777C150.846 78.8184 150.973 78.0534 151.227 77.3828C151.48 76.7057 151.826 76.1328 152.262 75.6641C152.698 75.1953 153.193 74.8405 153.746 74.5996C154.299 74.3587 154.872 74.2383 155.465 74.2383C156.22 74.2383 156.871 74.3685 157.418 74.6289C157.971 74.8893 158.424 75.2539 158.775 75.7227C159.127 76.1849 159.387 76.7318 159.557 77.3633C159.726 77.9883 159.811 78.6719 159.811 79.4141V80.2246H151.92V78.75H158.004V78.6133C157.978 78.1445 157.88 77.6888 157.711 77.2461C157.548 76.8034 157.288 76.4388 156.93 76.1523C156.572 75.8659 156.083 75.7227 155.465 75.7227C155.055 75.7227 154.677 75.8105 154.332 75.9863C153.987 76.1556 153.691 76.4095 153.443 76.748C153.196 77.0866 153.004 77.5 152.867 77.9883C152.73 78.4766 152.662 79.0397 152.662 79.6777V80.0879C152.662 80.5892 152.73 81.0612 152.867 81.5039C153.01 81.9401 153.215 82.3242 153.482 82.6562C153.756 82.9883 154.085 83.2487 154.469 83.4375C154.859 83.6263 155.302 83.7207 155.797 83.7207C156.435 83.7207 156.975 83.5905 157.418 83.3301C157.861 83.0697 158.248 82.7214 158.58 82.2852L159.674 83.1543C159.446 83.4993 159.156 83.8281 158.805 84.1406C158.453 84.4531 158.02 84.707 157.506 84.9023C156.998 85.0977 156.396 85.1953 155.699 85.1953ZM163.727 76.0938V85H161.92V74.4336H163.678L163.727 76.0938ZM167.027 74.375L167.018 76.0547C166.868 76.0221 166.725 76.0026 166.588 75.9961C166.458 75.9831 166.308 75.9766 166.139 75.9766C165.722 75.9766 165.354 76.0417 165.035 76.1719C164.716 76.3021 164.446 76.4844 164.225 76.7188C164.003 76.9531 163.827 77.2331 163.697 77.5586C163.574 77.8776 163.492 78.2292 163.453 78.6133L162.945 78.9062C162.945 78.2682 163.007 77.6693 163.131 77.1094C163.261 76.5495 163.46 76.0547 163.727 75.625C163.993 75.1888 164.332 74.8503 164.742 74.6094C165.159 74.362 165.654 74.2383 166.227 74.2383C166.357 74.2383 166.507 74.2546 166.676 74.2871C166.845 74.3132 166.962 74.3424 167.027 74.375ZM173.648 70H175.465V82.9492L175.309 85H173.648V70ZM182.604 79.6289V79.834C182.604 80.6022 182.512 81.3151 182.33 81.9727C182.148 82.6237 181.881 83.1901 181.529 83.6719C181.178 84.1536 180.748 84.528 180.24 84.7949C179.732 85.0618 179.15 85.1953 178.492 85.1953C177.822 85.1953 177.232 85.0814 176.725 84.8535C176.223 84.6191 175.8 84.2839 175.455 83.8477C175.11 83.4115 174.833 82.8841 174.625 82.2656C174.423 81.6471 174.283 80.9505 174.205 80.1758V79.2773C174.283 78.4961 174.423 77.7962 174.625 77.1777C174.833 76.5592 175.11 76.0319 175.455 75.5957C175.8 75.153 176.223 74.8177 176.725 74.5898C177.226 74.3555 177.809 74.2383 178.473 74.2383C179.137 74.2383 179.726 74.3685 180.24 74.6289C180.755 74.8828 181.184 75.2474 181.529 75.7227C181.881 76.1979 182.148 76.7676 182.33 77.4316C182.512 78.0892 182.604 78.8216 182.604 79.6289ZM180.787 79.834V79.6289C180.787 79.1016 180.738 78.6068 180.641 78.1445C180.543 77.6758 180.387 77.2656 180.172 76.9141C179.957 76.556 179.674 76.276 179.322 76.0742C178.971 75.8659 178.538 75.7617 178.023 75.7617C177.568 75.7617 177.171 75.8398 176.832 75.9961C176.5 76.1523 176.217 76.3639 175.982 76.6309C175.748 76.8913 175.556 77.1908 175.406 77.5293C175.263 77.8613 175.156 78.2064 175.084 78.5645V80.918C175.188 81.3737 175.357 81.8132 175.592 82.2363C175.833 82.653 176.152 82.9948 176.549 83.2617C176.952 83.5286 177.451 83.6621 178.043 83.6621C178.531 83.6621 178.948 83.5645 179.293 83.3691C179.645 83.1673 179.928 82.8906 180.143 82.5391C180.364 82.1875 180.527 81.7806 180.631 81.3184C180.735 80.8561 180.787 80.3613 180.787 79.834ZM189.273 85.1953C188.538 85.1953 187.87 85.0716 187.271 84.8242C186.679 84.5703 186.168 84.2155 185.738 83.7598C185.315 83.304 184.99 82.7637 184.762 82.1387C184.534 81.5137 184.42 80.8301 184.42 80.0879V79.6777C184.42 78.8184 184.547 78.0534 184.801 77.3828C185.055 76.7057 185.4 76.1328 185.836 75.6641C186.272 75.1953 186.767 74.8405 187.32 74.5996C187.874 74.3587 188.447 74.2383 189.039 74.2383C189.794 74.2383 190.445 74.3685 190.992 74.6289C191.546 74.8893 191.998 75.2539 192.35 75.7227C192.701 76.1849 192.962 76.7318 193.131 77.3633C193.3 77.9883 193.385 78.6719 193.385 79.4141V80.2246H185.494V78.75H191.578V78.6133C191.552 78.1445 191.454 77.6888 191.285 77.2461C191.122 76.8034 190.862 76.4388 190.504 76.1523C190.146 75.8659 189.658 75.7227 189.039 75.7227C188.629 75.7227 188.251 75.8105 187.906 75.9863C187.561 76.1556 187.265 76.4095 187.018 76.748C186.77 77.0866 186.578 77.5 186.441 77.9883C186.305 78.4766 186.236 79.0397 186.236 79.6777V80.0879C186.236 80.5892 186.305 81.0612 186.441 81.5039C186.585 81.9401 186.79 82.3242 187.057 82.6562C187.33 82.9883 187.659 83.2487 188.043 83.4375C188.434 83.6263 188.876 83.7207 189.371 83.7207C190.009 83.7207 190.549 83.5905 190.992 83.3301C191.435 83.0697 191.822 82.7214 192.154 82.2852L193.248 83.1543C193.02 83.4993 192.73 83.8281 192.379 84.1406C192.027 84.4531 191.594 84.707 191.08 84.9023C190.572 85.0977 189.97 85.1953 189.273 85.1953ZM197.457 74.4336V85H195.641V74.4336H197.457ZM195.504 71.6309C195.504 71.3379 195.592 71.0905 195.768 70.8887C195.95 70.6868 196.217 70.5859 196.568 70.5859C196.913 70.5859 197.177 70.6868 197.359 70.8887C197.548 71.0905 197.643 71.3379 197.643 71.6309C197.643 71.9108 197.548 72.1517 197.359 72.3535C197.177 72.5488 196.913 72.6465 196.568 72.6465C196.217 72.6465 195.95 72.5488 195.768 72.3535C195.592 72.1517 195.504 71.9108 195.504 71.6309ZM210.855 72.041L206.148 85H204.225L209.645 70.7812H210.885L210.855 72.041ZM214.801 85L210.084 72.041L210.055 70.7812H211.295L216.734 85H214.801ZM214.557 79.7363V81.2793H206.568V79.7363H214.557ZM220.172 76.6895V85H218.365V74.4336H220.074L220.172 76.6895ZM219.742 79.3164L218.99 79.2871C218.997 78.5645 219.104 77.8971 219.312 77.2852C219.521 76.6667 219.814 76.1296 220.191 75.6738C220.569 75.2181 221.018 74.8665 221.539 74.6191C222.066 74.3652 222.649 74.2383 223.287 74.2383C223.808 74.2383 224.277 74.3099 224.693 74.4531C225.11 74.5898 225.465 74.8112 225.758 75.1172C226.057 75.4232 226.285 75.8203 226.441 76.3086C226.598 76.7904 226.676 77.3796 226.676 78.0762V85H224.859V78.0566C224.859 77.5033 224.778 77.0605 224.615 76.7285C224.452 76.39 224.215 76.1458 223.902 75.9961C223.59 75.8398 223.206 75.7617 222.75 75.7617C222.301 75.7617 221.891 75.8561 221.52 76.0449C221.155 76.2337 220.839 76.4941 220.572 76.8262C220.312 77.1582 220.107 77.5391 219.957 77.9688C219.814 78.3919 219.742 78.8411 219.742 79.3164ZM236.266 74.4336H237.906V84.7754C237.906 85.7064 237.717 86.5007 237.34 87.1582C236.962 87.8158 236.435 88.3138 235.758 88.6523C235.087 88.9974 234.312 89.1699 233.434 89.1699C233.069 89.1699 232.639 89.1113 232.145 88.9941C231.656 88.8835 231.174 88.6914 230.699 88.418C230.23 88.151 229.837 87.7897 229.518 87.334L230.465 86.2598C230.908 86.7936 231.37 87.1647 231.852 87.373C232.34 87.5814 232.822 87.6855 233.297 87.6855C233.87 87.6855 234.365 87.5781 234.781 87.3633C235.198 87.1484 235.52 86.8294 235.748 86.4062C235.982 85.9896 236.1 85.4753 236.1 84.8633V76.7578L236.266 74.4336ZM228.99 79.834V79.6289C228.99 78.8216 229.085 78.0892 229.273 77.4316C229.469 76.7676 229.745 76.1979 230.104 75.7227C230.468 75.2474 230.908 74.8828 231.422 74.6289C231.936 74.3685 232.516 74.2383 233.16 74.2383C233.824 74.2383 234.404 74.3555 234.898 74.5898C235.4 74.8177 235.823 75.153 236.168 75.5957C236.52 76.0319 236.796 76.5592 236.998 77.1777C237.2 77.7962 237.34 78.4961 237.418 79.2773V80.1758C237.346 80.9505 237.206 81.6471 236.998 82.2656C236.796 82.8841 236.52 83.4115 236.168 83.8477C235.823 84.2839 235.4 84.6191 234.898 84.8535C234.397 85.0814 233.811 85.1953 233.141 85.1953C232.509 85.1953 231.936 85.0618 231.422 84.7949C230.914 84.528 230.478 84.1536 230.113 83.6719C229.749 83.1901 229.469 82.6237 229.273 81.9727C229.085 81.3151 228.99 80.6022 228.99 79.834ZM230.797 79.6289V79.834C230.797 80.3613 230.849 80.8561 230.953 81.3184C231.064 81.7806 231.23 82.1875 231.451 82.5391C231.679 82.8906 231.969 83.1673 232.32 83.3691C232.672 83.5645 233.092 83.6621 233.58 83.6621C234.179 83.6621 234.674 83.5352 235.064 83.2812C235.455 83.0273 235.764 82.6921 235.992 82.2754C236.227 81.8587 236.409 81.4062 236.539 80.918V78.5645C236.467 78.2064 236.357 77.8613 236.207 77.5293C236.064 77.1908 235.875 76.8913 235.641 76.6309C235.413 76.3639 235.13 76.1523 234.791 75.9961C234.452 75.8398 234.055 75.7617 233.6 75.7617C233.105 75.7617 232.678 75.8659 232.32 76.0742C231.969 76.276 231.679 76.556 231.451 76.9141C231.23 77.2656 231.064 77.6758 230.953 78.1445C230.849 78.6068 230.797 79.1016 230.797 79.6289ZM246.803 82.1973C246.803 81.9368 246.744 81.696 246.627 81.4746C246.516 81.2467 246.285 81.0417 245.934 80.8594C245.589 80.6706 245.068 80.5078 244.371 80.3711C243.785 80.2474 243.255 80.1009 242.779 79.9316C242.311 79.7624 241.91 79.5573 241.578 79.3164C241.253 79.0755 241.002 78.7923 240.826 78.4668C240.65 78.1413 240.562 77.7604 240.562 77.3242C240.562 76.9076 240.654 76.5137 240.836 76.1426C241.025 75.7715 241.288 75.4427 241.627 75.1562C241.972 74.8698 242.385 74.6452 242.867 74.4824C243.349 74.3197 243.886 74.2383 244.479 74.2383C245.325 74.2383 246.048 74.388 246.646 74.6875C247.245 74.987 247.704 75.3874 248.023 75.8887C248.342 76.3835 248.502 76.9336 248.502 77.5391H246.695C246.695 77.2461 246.607 76.9629 246.432 76.6895C246.262 76.4095 246.012 76.1784 245.68 75.9961C245.354 75.8138 244.954 75.7227 244.479 75.7227C243.977 75.7227 243.57 75.8008 243.258 75.957C242.952 76.1068 242.727 76.2988 242.584 76.5332C242.447 76.7676 242.379 77.015 242.379 77.2754C242.379 77.4707 242.411 77.6465 242.477 77.8027C242.548 77.9525 242.672 78.0924 242.848 78.2227C243.023 78.3464 243.271 78.4635 243.59 78.5742C243.909 78.6849 244.316 78.7956 244.811 78.9062C245.676 79.1016 246.389 79.3359 246.949 79.6094C247.509 79.8828 247.926 80.2181 248.199 80.6152C248.473 81.0124 248.609 81.4941 248.609 82.0605C248.609 82.5228 248.512 82.946 248.316 83.3301C248.128 83.7142 247.851 84.0462 247.486 84.3262C247.128 84.5996 246.699 84.8145 246.197 84.9707C245.702 85.1204 245.146 85.1953 244.527 85.1953C243.596 85.1953 242.809 85.0293 242.164 84.6973C241.52 84.3652 241.031 83.9355 240.699 83.4082C240.367 82.8809 240.201 82.3242 240.201 81.7383H242.018C242.044 82.2331 242.187 82.627 242.447 82.9199C242.708 83.2064 243.027 83.4115 243.404 83.5352C243.782 83.6523 244.156 83.7109 244.527 83.7109C245.022 83.7109 245.436 83.6458 245.768 83.5156C246.106 83.3854 246.363 83.2064 246.539 82.9785C246.715 82.7507 246.803 82.4902 246.803 82.1973ZM255.406 74.4336V75.8203H249.693V74.4336H255.406ZM251.627 71.8652H253.434V82.3828C253.434 82.7409 253.489 83.0111 253.6 83.1934C253.71 83.3757 253.854 83.4961 254.029 83.5547C254.205 83.6133 254.394 83.6426 254.596 83.6426C254.745 83.6426 254.902 83.6296 255.064 83.6035C255.234 83.571 255.361 83.5449 255.445 83.5254L255.455 85C255.312 85.0456 255.123 85.0879 254.889 85.127C254.661 85.1725 254.384 85.1953 254.059 85.1953C253.616 85.1953 253.209 85.1074 252.838 84.9316C252.467 84.7559 252.171 84.4629 251.949 84.0527C251.734 83.6361 251.627 83.0762 251.627 82.373V71.8652ZM44.8984 102.834V102.609C44.8984 101.848 45.0091 101.141 45.2305 100.49C45.4518 99.8327 45.7708 99.263 46.1875 98.7812C46.6042 98.293 47.1087 97.9154 47.7012 97.6484C48.2936 97.375 48.9577 97.2383 49.6934 97.2383C50.4355 97.2383 51.1029 97.375 51.6953 97.6484C52.2943 97.9154 52.8021 98.293 53.2188 98.7812C53.6419 99.263 53.9642 99.8327 54.1855 100.49C54.4069 101.141 54.5176 101.848 54.5176 102.609V102.834C54.5176 103.596 54.4069 104.302 54.1855 104.953C53.9642 105.604 53.6419 106.174 53.2188 106.662C52.8021 107.144 52.2975 107.521 51.7051 107.795C51.1191 108.062 50.4551 108.195 49.7129 108.195C48.9707 108.195 48.3034 108.062 47.7109 107.795C47.1185 107.521 46.6107 107.144 46.1875 106.662C45.7708 106.174 45.4518 105.604 45.2305 104.953C45.0091 104.302 44.8984 103.596 44.8984 102.834ZM46.7051 102.609V102.834C46.7051 103.361 46.7669 103.859 46.8906 104.328C47.0143 104.79 47.1999 105.201 47.4473 105.559C47.7012 105.917 48.0169 106.2 48.3945 106.408C48.7721 106.61 49.2116 106.711 49.7129 106.711C50.2077 106.711 50.6406 106.61 51.0117 106.408C51.3893 106.2 51.7018 105.917 51.9492 105.559C52.1966 105.201 52.3822 104.79 52.5059 104.328C52.6361 103.859 52.7012 103.361 52.7012 102.834V102.609C52.7012 102.089 52.6361 101.597 52.5059 101.135C52.3822 100.666 52.1934 100.253 51.9395 99.8945C51.6921 99.5299 51.3796 99.2435 51.002 99.0352C50.6309 98.8268 50.1947 98.7227 49.6934 98.7227C49.1986 98.7227 48.7624 98.8268 48.3848 99.0352C48.0137 99.2435 47.7012 99.5299 47.4473 99.8945C47.1999 100.253 47.0143 100.666 46.8906 101.135C46.7669 101.597 46.7051 102.089 46.7051 102.609ZM63.4434 105.949V93H65.2598V108H63.5996L63.4434 105.949ZM56.334 102.834V102.629C56.334 101.822 56.4316 101.089 56.627 100.432C56.8288 99.7676 57.112 99.1979 57.4766 98.7227C57.8477 98.2474 58.2871 97.8828 58.7949 97.6289C59.3092 97.3685 59.8822 97.2383 60.5137 97.2383C61.1777 97.2383 61.7572 97.3555 62.252 97.5898C62.7533 97.8177 63.1764 98.153 63.5215 98.5957C63.873 99.0319 64.1497 99.5592 64.3516 100.178C64.5534 100.796 64.6934 101.496 64.7715 102.277V103.176C64.6999 103.951 64.5599 104.647 64.3516 105.266C64.1497 105.884 63.873 106.411 63.5215 106.848C63.1764 107.284 62.7533 107.619 62.252 107.854C61.7507 108.081 61.1647 108.195 60.4941 108.195C59.8757 108.195 59.3092 108.062 58.7949 107.795C58.2871 107.528 57.8477 107.154 57.4766 106.672C57.112 106.19 56.8288 105.624 56.627 104.973C56.4316 104.315 56.334 103.602 56.334 102.834ZM58.1504 102.629V102.834C58.1504 103.361 58.2025 103.856 58.3066 104.318C58.4173 104.781 58.5866 105.188 58.8145 105.539C59.0423 105.891 59.332 106.167 59.6836 106.369C60.0352 106.564 60.4551 106.662 60.9434 106.662C61.5423 106.662 62.0339 106.535 62.418 106.281C62.8086 106.027 63.1211 105.692 63.3555 105.275C63.5898 104.859 63.7721 104.406 63.9023 103.918V101.564C63.8242 101.206 63.7103 100.861 63.5605 100.529C63.4173 100.191 63.2285 99.8913 62.9941 99.6309C62.7663 99.3639 62.4831 99.1523 62.1445 98.9961C61.8125 98.8398 61.4186 98.7617 60.9629 98.7617C60.4681 98.7617 60.0417 98.8659 59.6836 99.0742C59.332 99.276 59.0423 99.556 58.8145 99.9141C58.5866 100.266 58.4173 100.676 58.3066 101.145C58.2025 101.607 58.1504 102.102 58.1504 102.629ZM72.457 108.195C71.7214 108.195 71.054 108.072 70.4551 107.824C69.8626 107.57 69.3516 107.215 68.9219 106.76C68.4987 106.304 68.1732 105.764 67.9453 105.139C67.7174 104.514 67.6035 103.83 67.6035 103.088V102.678C67.6035 101.818 67.7305 101.053 67.9844 100.383C68.2383 99.7057 68.5833 99.1328 69.0195 98.6641C69.4557 98.1953 69.9505 97.8405 70.5039 97.5996C71.0573 97.3587 71.6302 97.2383 72.2227 97.2383C72.9779 97.2383 73.6289 97.3685 74.1758 97.6289C74.7292 97.8893 75.1816 98.2539 75.5332 98.7227C75.8848 99.1849 76.1452 99.7318 76.3145 100.363C76.4837 100.988 76.5684 101.672 76.5684 102.414V103.225H68.6777V101.75H74.7617V101.613C74.7357 101.145 74.638 100.689 74.4688 100.246C74.306 99.8034 74.0456 99.4388 73.6875 99.1523C73.3294 98.8659 72.8411 98.7227 72.2227 98.7227C71.8125 98.7227 71.4349 98.8105 71.0898 98.9863C70.7448 99.1556 70.4486 99.4095 70.2012 99.748C69.9538 100.087 69.7617 100.5 69.625 100.988C69.4883 101.477 69.4199 102.04 69.4199 102.678V103.088C69.4199 103.589 69.4883 104.061 69.625 104.504C69.7682 104.94 69.9733 105.324 70.2402 105.656C70.5137 105.988 70.8424 106.249 71.2266 106.438C71.6172 106.626 72.0599 106.721 72.5547 106.721C73.1927 106.721 73.7331 106.59 74.1758 106.33C74.6185 106.07 75.0059 105.721 75.3379 105.285L76.4316 106.154C76.2038 106.499 75.9141 106.828 75.5625 107.141C75.2109 107.453 74.778 107.707 74.2637 107.902C73.7559 108.098 73.1536 108.195 72.457 108.195ZM80.4844 99.0938V108H78.6777V97.4336H80.4355L80.4844 99.0938ZM83.7852 97.375L83.7754 99.0547C83.6257 99.0221 83.4824 99.0026 83.3457 98.9961C83.2155 98.9831 83.0658 98.9766 82.8965 98.9766C82.4798 98.9766 82.112 99.0417 81.793 99.1719C81.474 99.3021 81.2038 99.4844 80.9824 99.7188C80.7611 99.9531 80.5853 100.233 80.4551 100.559C80.3314 100.878 80.25 101.229 80.2109 101.613L79.7031 101.906C79.7031 101.268 79.765 100.669 79.8887 100.109C80.0189 99.5495 80.2174 99.0547 80.4844 98.625C80.7513 98.1888 81.0898 97.8503 81.5 97.6094C81.9167 97.362 82.4115 97.2383 82.9844 97.2383C83.1146 97.2383 83.2643 97.2546 83.4336 97.2871C83.6029 97.3132 83.7201 97.3424 83.7852 97.375ZM94.4297 103.703L97.252 93.7812H98.6191L97.8281 97.6387L94.791 108H93.4336L94.4297 103.703ZM91.5098 93.7812L93.7559 103.508L94.4297 108H93.082L89.6348 93.7812H91.5098ZM102.271 103.498L104.469 93.7812H106.354L102.916 108H101.568L102.271 103.498ZM98.8242 93.7812L101.568 103.703L102.564 108H101.207L98.2773 97.6387L97.4766 93.7812H98.8242ZM114.439 105.559V97.4336H116.256V108H114.527L114.439 105.559ZM114.781 103.332L115.533 103.312C115.533 104.016 115.458 104.667 115.309 105.266C115.165 105.858 114.931 106.372 114.605 106.809C114.28 107.245 113.854 107.587 113.326 107.834C112.799 108.075 112.158 108.195 111.402 108.195C110.888 108.195 110.416 108.12 109.986 107.971C109.563 107.821 109.199 107.59 108.893 107.277C108.587 106.965 108.349 106.558 108.18 106.057C108.017 105.555 107.936 104.953 107.936 104.25V97.4336H109.742V104.27C109.742 104.745 109.794 105.139 109.898 105.451C110.009 105.757 110.156 106.001 110.338 106.184C110.527 106.359 110.735 106.483 110.963 106.555C111.197 106.626 111.438 106.662 111.686 106.662C112.454 106.662 113.062 106.516 113.512 106.223C113.961 105.923 114.283 105.523 114.479 105.021C114.68 104.514 114.781 103.951 114.781 103.332ZM123.434 97.4336V98.8203H117.721V97.4336H123.434ZM119.654 94.8652H121.461V105.383C121.461 105.741 121.516 106.011 121.627 106.193C121.738 106.376 121.881 106.496 122.057 106.555C122.232 106.613 122.421 106.643 122.623 106.643C122.773 106.643 122.929 106.63 123.092 106.604C123.261 106.571 123.388 106.545 123.473 106.525L123.482 108C123.339 108.046 123.15 108.088 122.916 108.127C122.688 108.173 122.411 108.195 122.086 108.195C121.643 108.195 121.236 108.107 120.865 107.932C120.494 107.756 120.198 107.463 119.977 107.053C119.762 106.636 119.654 106.076 119.654 105.373V94.8652ZM125.582 107.043C125.582 106.737 125.676 106.48 125.865 106.271C126.061 106.057 126.34 105.949 126.705 105.949C127.07 105.949 127.346 106.057 127.535 106.271C127.73 106.48 127.828 106.737 127.828 107.043C127.828 107.342 127.73 107.596 127.535 107.805C127.346 108.013 127.07 108.117 126.705 108.117C126.34 108.117 126.061 108.013 125.865 107.805C125.676 107.596 125.582 107.342 125.582 107.043ZM137.73 93V94.25C137.73 94.6406 137.662 95.054 137.525 95.4902C137.395 95.9199 137.203 96.3366 136.949 96.7402C136.695 97.1374 136.389 97.4857 136.031 97.7852L134.996 97.0723C135.302 96.6426 135.533 96.2031 135.689 95.7539C135.852 95.2982 135.934 94.8066 135.934 94.2793V93H137.73ZM140.729 93V94.25C140.729 94.6406 140.66 95.054 140.523 95.4902C140.393 95.9199 140.201 96.3366 139.947 96.7402C139.693 97.1374 139.387 97.4857 139.029 97.7852L137.994 97.0723C138.3 96.6426 138.531 96.2031 138.688 95.7539C138.85 95.2982 138.932 94.8066 138.932 94.2793V93H140.729Z" fill="#F9F9F9"/>
<path d="M364 119H321C321 119 332.04 124.008 334.912 130.455C337.538 136.351 334.912 147 334.912 147L364 119Z" fill="#E88A68" stroke="#E88A68"/>
<path d="M360.836 71.0858C360.976 70.4079 361.101 69.7296 361.202 69.0536L359.784 68.7231C359.115 67.6958 358.368 66.6295 358.327 65.5433C358.269 63.9989 358.799 63.0512 360.044 63.7543C360.491 64.0059 359.826 65.0751 361.038 64.6194C361.512 64.4412 361.795 63.6336 361.9 63.1779C362.713 59.6777 358.936 59.0848 356.706 60.6258C354.991 61.81 352.93 64.8068 353.011 67.1439L348.977 66.203C348.307 65.1759 347.56 64.1094 347.519 63.0232C347.462 61.4789 347.991 60.5311 349.236 61.2342C349.683 61.4858 349.018 62.555 350.231 62.0993C350.705 61.9213 350.987 61.1135 351.093 60.6581C351.906 57.1577 348.129 56.5648 345.899 58.1058C344.185 59.2902 342.123 62.2868 342.203 64.6239L338.17 63.6832C337.5 62.6559 336.753 61.5896 336.713 60.5034C336.655 58.959 337.184 58.0111 338.43 58.7144C338.876 58.966 338.212 60.0352 339.424 59.5795C339.898 59.4013 340.181 58.5937 340.286 58.1382C341.1 54.6379 337.322 54.0449 335.091 55.5859C333.377 56.7701 331.316 59.7669 331.396 62.104L327.362 61.1631C326.692 60.1359 325.945 59.0695 325.905 57.9833C325.847 56.4389 326.376 55.4911 327.622 56.1943C328.068 56.4459 327.404 57.5151 328.616 57.0594C329.09 56.8812 329.373 56.0736 329.478 55.6181C330.291 52.1177 326.514 51.5248 324.284 53.0659C322.57 54.2502 320.508 57.2469 320.588 59.5839L316.554 58.6431C315.885 57.6158 315.138 56.5494 315.097 55.4632C315.039 53.9188 315.568 52.971 316.814 53.6742C317.261 53.9259 316.596 54.995 317.808 54.5393C318.282 54.3612 318.565 53.5535 318.671 53.098C319.484 49.5978 315.706 49.0047 313.476 50.5459C311.762 51.7301 309.701 54.7269 309.781 57.0638L305.747 56.123C305.077 55.0957 304.33 54.0294 304.29 52.9433C304.232 51.3989 304.761 50.451 306.007 51.1543C306.453 51.4058 305.788 52.4749 307.001 52.0194C307.475 51.8412 307.758 51.0336 307.863 50.5781C308.676 47.0777 304.899 46.4847 302.669 48.0258C300.954 49.21 298.893 52.2068 298.973 54.5437L298.895 54.5257C298.613 55.4089 298.355 56.3071 298.14 57.2278C293.979 75.066 304.607 92.7934 321.879 96.8216C339.101 100.838 356.423 89.7152 360.646 71.9646C360.791 71.6745 360.851 71.383 360.836 71.0858Z" fill="#F9F9F9" fill-opacity="0.5"/>
<path d="M359.228 77.9769C359.368 77.2989 359.493 76.6212 359.594 75.9452L358.177 75.6147C357.507 74.5869 356.76 73.5211 356.72 72.4349C356.662 70.8905 357.191 69.9422 358.437 70.6453C358.883 70.8975 358.219 71.9661 359.431 71.5104C359.905 71.3317 360.188 70.524 360.293 70.0684C361.106 66.5681 357.329 65.9752 355.099 67.5162C353.384 68.7011 351.323 71.6972 351.403 74.0349L347.369 73.0941C346.7 72.0663 345.953 71.0004 345.912 69.9142C345.855 68.37 346.384 67.4215 347.629 68.1247C348.075 68.3768 347.411 69.4455 348.623 68.9897C349.098 68.8111 349.38 68.0033 349.486 67.548C350.299 64.0476 346.522 63.4547 344.292 64.9957C342.577 66.1807 340.516 69.1767 340.596 71.5144L336.563 70.5737C335.893 69.5458 335.146 68.48 335.105 67.3938C335.048 65.8494 335.576 64.901 336.823 65.6043C337.269 65.8564 336.605 66.9251 337.817 66.4693C338.291 66.2906 338.574 65.4829 338.679 65.0274C339.493 61.5272 335.715 60.9341 333.484 62.4752C331.77 63.66 329.709 66.6562 329.789 68.9938L325.755 68.053C325.086 67.0251 324.338 65.9594 324.298 64.8732C324.24 63.3288 324.769 62.3803 326.015 63.0836C326.461 63.3357 325.797 64.4044 327.009 63.9487C327.483 63.7699 327.766 62.9623 327.872 62.5068C328.684 59.0064 324.907 58.4135 322.677 59.9546C320.963 61.1395 318.902 64.1356 318.981 66.4732L314.947 65.5323C314.278 64.5045 313.531 63.4387 313.49 62.3525C313.432 60.8081 313.961 59.8597 315.207 60.5629C315.654 60.8152 314.989 61.8837 316.202 61.428C316.676 61.2493 316.958 60.4416 317.064 59.9861C317.877 56.4859 314.099 55.8928 311.87 57.434C310.155 58.6188 308.094 61.615 308.174 63.9525L304.14 63.0117C303.47 61.9838 302.723 60.918 302.683 59.832C302.625 58.2876 303.154 57.3391 304.4 58.0424C304.847 58.2945 304.182 59.3631 305.395 58.9075C305.869 58.7287 306.151 57.9211 306.257 57.4656C307.07 53.9652 303.292 53.3723 301.062 54.9133C299.347 56.0981 297.286 59.0943 297.366 61.4318L297.289 61.4138C297.006 62.2964 296.748 63.1946 296.533 64.1153C292.373 81.9541 303.001 99.6809 320.272 103.709C337.494 107.726 354.816 96.6033 359.039 78.8521C359.183 78.5655 359.243 78.2741 359.228 77.9769Z" fill="#F9F9F9"/>
<path d="M317.903 80.5287C317.379 82.7786 315.165 84.185 312.959 83.6703C310.753 83.156 309.39 80.9164 309.915 78.6656C310.439 76.4176 312.653 75.0112 314.858 75.5256C317.065 76.0402 318.428 78.2807 317.903 80.5287Z" fill="#E88A68"/>
<path d="M339.854 85.6484C339.329 87.8983 337.116 89.3046 334.91 88.7901C332.704 88.2757 331.341 86.0361 331.866 83.7853C332.39 81.5373 334.604 80.131 336.809 80.6454C339.015 81.1599 340.378 83.4004 339.854 85.6484Z" fill="#E88A68"/>
<path d="M329.929 80.4643L336.975 77.0048" stroke="#E88A68" stroke-width="1.8293" stroke-miterlimit="10"/>
<path d="M315.587 71.1768L320.189 77.5358" stroke="#E88A68" stroke-width="1.8293" stroke-miterlimit="10"/>
<path d="M328.581 96.1987C329.508 92.5298 327.309 88.8102 323.67 87.8905C320.031 86.9709 316.328 89.1993 315.401 92.8682L328.581 96.1987Z" fill="#E88A68"/>
<path d="M336.798 48.3159C336.505 49.5727 335.281 50.3604 334.065 50.0767C332.849 49.7931 332.1 48.5449 332.393 47.2886C332.686 46.0324 333.91 45.2446 335.126 45.5283C336.342 45.812 337.091 47.0596 336.798 48.3159Z" fill="#F9F9F9" stroke="#F9F9F9" stroke-width="1.8293" stroke-miterlimit="10"/>
<path d="M341.013 44.5001C341.683 44.6565 342.358 44.2219 342.519 43.5294C342.681 42.8369 342.268 42.1487 341.598 41.9924C340.927 41.836 340.253 42.2706 340.091 42.9631C339.93 43.6556 340.343 44.3438 341.013 44.5001Z" fill="#F9F9F9" stroke="#F9F9F9" stroke-width="1.8293" stroke-miterlimit="10"/>
<path d="M337.49 35.3933C337.256 36.3963 336.279 37.026 335.308 36.7995C334.337 36.573 333.739 35.5762 333.973 34.5732C334.207 33.5702 335.184 32.9412 336.155 33.1677C337.126 33.394 337.723 34.3903 337.49 35.3933Z" fill="#F9F9F9" stroke="#F9F9F9" stroke-width="1.8293" stroke-miterlimit="10"/>
<path d="M325.697 44.6062C325.376 45.9847 324.033 46.8493 322.699 46.538C321.365 46.2269 320.543 44.8576 320.865 43.4791C321.186 42.1007 322.529 41.2361 323.863 41.5472C325.197 41.8585 326.019 43.2284 325.697 44.6062Z" fill="#F9F9F9" stroke="#F9F9F9" stroke-width="1.8293" stroke-miterlimit="10"/>
<path d="M326.328 35.5055C326.21 36.0102 325.719 36.328 325.23 36.2139C324.74 36.0998 324.44 35.5979 324.558 35.0926C324.675 34.5879 325.167 34.2707 325.656 34.3848C326.145 34.4989 326.446 35.0002 326.328 35.5055Z" fill="#F9F9F9" stroke="#F9F9F9" stroke-width="1.8293" stroke-miterlimit="10"/>
</svg>
