<svg width="400" height="150" viewBox="0 0 400 150" fill="none" xmlns="http://www.w3.org/2000/svg">
<path d="M297.191 70.3796L296.884 70.4528C293.928 69.1557 267.983 57.7986 271.938 60.7321C274.266 62.4587 274.893 67.3579 274.99 71.3772C266.584 67.76 253.525 62.2806 256.414 64.4229C258.741 66.1495 259.368 71.0488 259.466 75.0686C251.06 71.4512 238 65.9715 240.889 68.1137C243.216 69.8404 243.844 74.7394 243.941 78.7588C235.535 75.1415 222.475 69.6623 225.364 71.8046C229.557 74.9136 227.3 86.9954 227.3 86.9954C227.439 87.9448 227.61 88.8964 227.836 89.8476C232.218 108.277 251.475 119.485 270.849 114.879C290.223 110.273 302.376 91.5983 297.995 73.1683C297.769 72.2169 297.495 71.2901 297.191 70.3796Z" fill="#D35D6E" fill-opacity="0.5"/>
<path d="M298.769 77.0158L298.461 77.089C295.505 75.7919 269.561 64.4348 273.516 67.3683C275.844 69.0943 276.47 73.994 276.568 78.0134C268.161 74.3955 255.103 68.9162 257.991 71.0591C260.319 72.7851 260.945 77.685 261.043 81.7048C252.637 78.0868 239.577 72.6071 242.467 74.7499C244.794 76.476 245.421 81.3756 245.519 85.3949C237.112 81.7771 224.053 76.2979 226.941 78.4408C231.135 81.5498 228.877 93.6316 228.877 93.6316C229.017 94.5804 229.188 95.5326 229.414 96.4832C233.795 114.913 253.052 126.12 272.426 121.514C291.8 116.908 303.954 98.2345 299.573 79.8039C299.347 78.8531 299.072 77.9256 298.769 77.0158Z" fill="#D35D6E"/>
<path d="M266.815 109.599C266.815 109.599 275.152 111.811 276.052 103.491" stroke="#F9F9F9" stroke-width="2.5" stroke-miterlimit="10"/>
<path d="M248.912 94.7324C249.432 94.5078 249.996 94.4069 250.563 94.4371C251.13 94.4672 251.685 94.6277 252.187 94.9067L252.214 94.9222L252.231 94.8983C252.54 94.4485 252.939 94.073 253.402 93.7968C253.866 93.5206 254.383 93.35 254.918 93.2963L255.075 93.2832C255.757 93.2442 256.439 93.3957 257.049 93.7217C257.659 94.0477 258.174 94.536 258.54 95.1349C258.906 95.7339 259.109 96.4211 259.127 97.124C259.146 97.8268 258.979 98.519 258.645 99.1273L258.562 99.2706L258.539 99.3036L255.078 105.061C254.998 105.194 254.874 105.292 254.728 105.336C254.582 105.381 254.424 105.37 254.285 105.305L254.215 105.266L248.5 101.662C247.897 101.288 247.403 100.752 247.074 100.113C246.745 99.4731 246.594 98.7548 246.637 98.0374C246.679 97.32 246.914 96.6315 247.316 96.0482C247.717 95.4648 248.27 95.0094 248.912 94.7324Z" fill="#F9F9F9"/>
<path d="M274.136 87.8092C274.656 87.5846 275.221 87.4837 275.787 87.5138C276.354 87.544 276.909 87.7045 277.411 87.9835L277.439 87.999L277.455 87.975C277.764 87.5253 278.163 87.1498 278.626 86.8736C279.09 86.5974 279.607 86.4267 280.142 86.3731L280.299 86.36C280.981 86.321 281.663 86.4725 282.273 86.7985C282.883 87.1244 283.398 87.6128 283.764 88.2117C284.13 88.8106 284.333 89.4979 284.351 90.2007C284.37 90.9036 284.203 91.5958 283.869 92.2041L283.786 92.3474L283.763 92.3804L280.302 98.1379C280.222 98.2707 280.098 98.3685 279.952 98.4133C279.806 98.458 279.649 98.4467 279.509 98.3813L279.439 98.3431L273.724 94.7383C273.121 94.3652 272.627 93.8292 272.298 93.1895C271.97 92.5499 271.818 91.8316 271.861 91.1142C271.903 90.3968 272.138 89.7083 272.54 89.125C272.941 88.5416 273.494 88.0862 274.136 87.8092Z" fill="#F9F9F9"/>
<path d="M241.05 55.8068C241.348 55.6816 241.671 55.6229 241.993 55.635C242.316 55.6471 242.631 55.7297 242.915 55.8767L242.93 55.8848L242.94 55.8718C243.119 55.6265 243.349 55.4207 243.616 55.2681C243.882 55.1154 244.177 55.0194 244.483 54.9864L244.572 54.9782C244.961 54.9521 245.348 55.0289 245.693 55.2004C246.038 55.372 246.328 55.632 246.532 55.9528C246.736 56.2737 246.847 56.6434 246.852 57.023C246.857 57.4025 246.757 57.7777 246.562 58.1088L246.514 58.1869L246.501 58.2049L244.486 61.3409C244.44 61.4132 244.368 61.467 244.285 61.4923C244.202 61.5175 244.112 61.5126 244.033 61.4783L243.993 61.4582L240.764 59.5531C240.423 59.3561 240.146 59.0701 239.964 58.727C239.781 58.3839 239.7 57.997 239.73 57.6091C239.759 57.2212 239.898 56.8476 240.131 56.5295C240.365 56.2113 240.683 55.9612 241.05 55.8068Z" fill="#D35D6E"/>
<path d="M249.469 46.4018C249.841 46.2435 250.244 46.1707 250.648 46.1888C251.052 46.207 251.447 46.3155 251.803 46.5065L251.823 46.5171L251.835 46.5004C252.057 46.187 252.344 45.9246 252.676 45.7308C253.008 45.5369 253.377 45.4161 253.759 45.3762L253.871 45.3664C254.357 45.3359 254.843 45.4376 255.277 45.6607C255.71 45.8837 256.075 46.2198 256.333 46.6333C256.591 47.0469 256.732 47.5225 256.742 48.0098C256.752 48.4971 256.629 48.978 256.388 49.4015L256.328 49.5013L256.312 49.5243L253.815 53.5341C253.757 53.6266 253.668 53.695 253.564 53.7268C253.46 53.7586 253.347 53.7515 253.248 53.7069L253.198 53.6807L249.141 51.2091C248.713 50.9533 248.363 50.584 248.132 50.1421C247.901 49.7001 247.796 49.2027 247.83 48.705C247.864 48.2073 248.035 47.7287 248.324 47.3222C248.613 46.9157 249.01 46.5971 249.469 46.4018Z" fill="#D35D6E"/>
<path d="M256.147 55.0061C256.519 54.8478 256.922 54.775 257.326 54.7931C257.73 54.8113 258.125 54.9198 258.482 55.1108L258.501 55.1214L258.513 55.1047C258.736 54.7913 259.022 54.529 259.354 54.3351C259.686 54.1412 260.055 54.0204 260.438 53.9805L260.549 53.9707C261.036 53.9402 261.521 54.0419 261.955 54.265C262.388 54.488 262.753 54.8241 263.011 55.2376C263.269 55.6512 263.411 56.1268 263.42 56.6141C263.43 57.1014 263.308 57.5823 263.066 58.0058L263.007 58.1056L262.99 58.1286L260.493 62.1384C260.436 62.2309 260.346 62.2994 260.242 62.3311C260.138 62.3629 260.026 62.3558 259.926 62.3112L259.877 62.285L255.819 59.8134C255.391 59.5576 255.042 59.1883 254.81 58.7464C254.579 58.3044 254.474 57.807 254.508 57.3093C254.542 56.8116 254.713 56.333 255.003 55.9265C255.292 55.52 255.688 55.2014 256.147 55.0061Z" fill="#D35D6E"/>
<path d="M241.365 47.3841C241.589 47.2921 241.831 47.2475 242.072 47.2535C242.313 47.2596 242.548 47.3162 242.759 47.4192L242.771 47.4249L242.778 47.4155C242.914 47.2384 243.088 47.0892 243.289 46.9777C243.489 46.8662 243.711 46.7951 243.94 46.769L244.006 46.7624C244.298 46.7406 244.587 46.7924 244.844 46.9126C245.1 47.0327 245.315 47.2165 245.465 47.4447C245.615 47.6728 245.695 47.9368 245.696 48.2086C245.697 48.4803 245.619 48.7499 245.47 48.9886L245.434 49.0449L245.423 49.0578L243.891 51.32C243.856 51.3722 243.802 51.4113 243.739 51.4301C243.677 51.4488 243.61 51.446 243.551 51.4221L243.521 51.408L241.121 50.0696C240.868 49.9312 240.663 49.7286 240.529 49.4843C240.395 49.2401 240.338 48.9636 240.363 48.6856C240.388 48.4075 240.495 48.1388 240.672 47.9091C240.849 47.6794 241.089 47.4977 241.365 47.3841Z" fill="#D35D6E"/>
<path d="M263.215 48.6799C263.476 48.5713 263.758 48.5196 264.04 48.5287C264.322 48.5378 264.597 48.6074 264.845 48.7324L264.858 48.7393L264.866 48.7281C265.024 48.5169 265.226 48.3394 265.459 48.2073C265.693 48.0752 265.951 47.9917 266.219 47.9622L266.297 47.9548C266.637 47.9308 266.975 47.9951 267.276 48.1409C267.577 48.2868 267.829 48.5087 268.006 48.7832C268.183 49.0577 268.278 49.3746 268.281 49.7002C268.284 50.0259 268.195 50.3482 268.024 50.6331L267.981 50.7003L267.97 50.7158L266.196 53.4149C266.155 53.4772 266.093 53.5236 266.02 53.5456C265.947 53.5676 265.868 53.5637 265.799 53.5346L265.765 53.5175L262.95 51.8958C262.653 51.7281 262.412 51.4838 262.254 51.1901C262.096 50.8964 262.026 50.5647 262.054 50.2318C262.081 49.8988 262.204 49.5776 262.409 49.3037C262.614 49.0298 262.893 48.8139 263.215 48.6799Z" fill="#D35D6E"/>
<rect x="17" y="10" width="365" height="114" rx="30" fill="#D35D6E"/>
<path d="M45.0254 37.5215V36.3398C45.0254 35.9427 45.0905 35.5293 45.2207 35.0996C45.3574 34.6634 45.5527 34.2467 45.8066 33.8496C46.0605 33.446 46.3665 33.0977 46.7246 32.8047L47.75 33.5176C47.4505 33.9473 47.2194 34.39 47.0566 34.8457C46.8939 35.2949 46.8125 35.7832 46.8125 36.3105V37.5215H45.0254ZM48.1016 37.5215V36.3398C48.1016 35.9427 48.1667 35.5293 48.2969 35.0996C48.4336 34.6634 48.6289 34.2467 48.8828 33.8496C49.1367 33.446 49.4427 33.0977 49.8008 32.8047L50.8262 33.5176C50.5267 33.9473 50.2956 34.39 50.1328 34.8457C49.9701 35.2949 49.8887 35.7832 49.8887 36.3105V37.5215H48.1016ZM54.6055 33.7812V48H52.7207V33.7812H54.6055ZM60.5625 40.1777V41.7207H54.1953V40.1777H60.5625ZM61.5293 33.7812V35.3242H54.1953V33.7812H61.5293ZM69.4004 46.1934V40.7539C69.4004 40.3372 69.3158 39.9759 69.1465 39.6699C68.9837 39.3574 68.7363 39.1165 68.4043 38.9473C68.0723 38.778 67.6621 38.6934 67.1738 38.6934C66.7181 38.6934 66.3177 38.7715 65.9727 38.9277C65.6341 39.084 65.3672 39.2891 65.1719 39.543C64.9831 39.7969 64.8887 40.0703 64.8887 40.3633H63.082C63.082 39.9857 63.1797 39.6113 63.375 39.2402C63.5703 38.8691 63.8503 38.5339 64.2148 38.2344C64.5859 37.9284 65.0286 37.6875 65.543 37.5117C66.0638 37.3294 66.6432 37.2383 67.2812 37.2383C68.0495 37.2383 68.7266 37.3685 69.3125 37.6289C69.9049 37.8893 70.3672 38.2832 70.6992 38.8105C71.0378 39.3314 71.207 39.9857 71.207 40.7734V45.6953C71.207 46.0469 71.2363 46.4212 71.2949 46.8184C71.36 47.2155 71.4544 47.5573 71.5781 47.8438V48H69.6934C69.6022 47.7917 69.5306 47.515 69.4785 47.1699C69.4264 46.8184 69.4004 46.4928 69.4004 46.1934ZM69.7129 41.5938L69.7324 42.8633H67.9062C67.3919 42.8633 66.9329 42.9056 66.5293 42.9902C66.1257 43.0684 65.7871 43.1888 65.5137 43.3516C65.2402 43.5143 65.0319 43.7194 64.8887 43.9668C64.7454 44.2077 64.6738 44.4909 64.6738 44.8164C64.6738 45.1484 64.7487 45.4512 64.8984 45.7246C65.0482 45.998 65.2728 46.2161 65.5723 46.3789C65.8783 46.5352 66.2526 46.6133 66.6953 46.6133C67.2487 46.6133 67.737 46.4961 68.1602 46.2617C68.5833 46.0273 68.9186 45.7409 69.166 45.4023C69.4199 45.0638 69.5566 44.735 69.5762 44.416L70.3477 45.2852C70.3021 45.5586 70.1784 45.8613 69.9766 46.1934C69.7747 46.5254 69.5046 46.8444 69.166 47.1504C68.834 47.4499 68.4368 47.7005 67.9746 47.9023C67.5189 48.0977 67.0046 48.1953 66.4316 48.1953C65.7155 48.1953 65.0872 48.0553 64.5469 47.7754C64.013 47.4954 63.5964 47.1211 63.2969 46.6523C63.0039 46.1771 62.8574 45.6465 62.8574 45.0605C62.8574 44.4941 62.9681 43.9961 63.1895 43.5664C63.4108 43.1302 63.7298 42.7689 64.1465 42.4824C64.5632 42.1895 65.0645 41.9681 65.6504 41.8184C66.2363 41.6686 66.8906 41.5938 67.6133 41.5938H69.7129ZM75.8555 39.0938V48H74.0488V37.4336H75.8066L75.8555 39.0938ZM79.1562 37.375L79.1465 39.0547C78.9967 39.0221 78.8535 39.0026 78.7168 38.9961C78.5866 38.9831 78.4368 38.9766 78.2676 38.9766C77.8509 38.9766 77.4831 39.0417 77.1641 39.1719C76.8451 39.3021 76.5749 39.4844 76.3535 39.7188C76.1322 39.9531 75.9564 40.2331 75.8262 40.5586C75.7025 40.8776 75.6211 41.2292 75.582 41.6133L75.0742 41.9062C75.0742 41.2682 75.1361 40.6693 75.2598 40.1094C75.39 39.5495 75.5885 39.0547 75.8555 38.625C76.1224 38.1888 76.4609 37.8503 76.8711 37.6094C77.2878 37.362 77.7826 37.2383 78.3555 37.2383C78.4857 37.2383 78.6354 37.2546 78.8047 37.2871C78.974 37.3132 79.0911 37.3424 79.1562 37.375ZM80.8164 33H82.6328V45.9492L82.4766 48H80.8164V33ZM89.7715 42.6289V42.834C89.7715 43.6022 89.6803 44.3151 89.498 44.9727C89.3158 45.6237 89.0488 46.1901 88.6973 46.6719C88.3457 47.1536 87.916 47.528 87.4082 47.7949C86.9004 48.0618 86.3177 48.1953 85.6602 48.1953C84.9896 48.1953 84.4004 48.0814 83.8926 47.8535C83.3913 47.6191 82.9681 47.2839 82.623 46.8477C82.278 46.4115 82.0013 45.8841 81.793 45.2656C81.5911 44.6471 81.4512 43.9505 81.373 43.1758V42.2773C81.4512 41.4961 81.5911 40.7962 81.793 40.1777C82.0013 39.5592 82.278 39.0319 82.623 38.5957C82.9681 38.153 83.3913 37.8177 83.8926 37.5898C84.3939 37.3555 84.9766 37.2383 85.6406 37.2383C86.3047 37.2383 86.8939 37.3685 87.4082 37.6289C87.9225 37.8828 88.3522 38.2474 88.6973 38.7227C89.0488 39.1979 89.3158 39.7676 89.498 40.4316C89.6803 41.0892 89.7715 41.8216 89.7715 42.6289ZM87.9551 42.834V42.6289C87.9551 42.1016 87.9062 41.6068 87.8086 41.1445C87.7109 40.6758 87.5547 40.2656 87.3398 39.9141C87.125 39.556 86.8418 39.276 86.4902 39.0742C86.1387 38.8659 85.7057 38.7617 85.1914 38.7617C84.7357 38.7617 84.3385 38.8398 84 38.9961C83.668 39.1523 83.3848 39.3639 83.1504 39.6309C82.916 39.8913 82.724 40.1908 82.5742 40.5293C82.431 40.8613 82.3236 41.2064 82.252 41.5645V43.918C82.3561 44.3737 82.5254 44.8132 82.7598 45.2363C83.0007 45.653 83.3197 45.9948 83.7168 46.2617C84.1204 46.5286 84.6185 46.6621 85.2109 46.6621C85.6992 46.6621 86.1159 46.5645 86.4609 46.3691C86.8125 46.1673 87.0957 45.8906 87.3105 45.5391C87.5319 45.1875 87.6947 44.7806 87.7988 44.3184C87.903 43.8561 87.9551 43.3613 87.9551 42.834ZM96.4414 48.1953C95.7057 48.1953 95.0384 48.0716 94.4395 47.8242C93.847 47.5703 93.3359 47.2155 92.9062 46.7598C92.4831 46.304 92.1576 45.7637 91.9297 45.1387C91.7018 44.5137 91.5879 43.8301 91.5879 43.0879V42.6777C91.5879 41.8184 91.7148 41.0534 91.9688 40.3828C92.2227 39.7057 92.5677 39.1328 93.0039 38.6641C93.4401 38.1953 93.9349 37.8405 94.4883 37.5996C95.0417 37.3587 95.6146 37.2383 96.207 37.2383C96.9622 37.2383 97.6133 37.3685 98.1602 37.6289C98.7135 37.8893 99.166 38.2539 99.5176 38.7227C99.8691 39.1849 100.13 39.7318 100.299 40.3633C100.468 40.9883 100.553 41.6719 100.553 42.4141V43.2246H92.6621V41.75H98.7461V41.6133C98.7201 41.1445 98.6224 40.6888 98.4531 40.2461C98.2904 39.8034 98.0299 39.4388 97.6719 39.1523C97.3138 38.8659 96.8255 38.7227 96.207 38.7227C95.7969 38.7227 95.4193 38.8105 95.0742 38.9863C94.7292 39.1556 94.4329 39.4095 94.1855 39.748C93.9382 40.0866 93.7461 40.5 93.6094 40.9883C93.4727 41.4766 93.4043 42.0397 93.4043 42.6777V43.0879C93.4043 43.5892 93.4727 44.0612 93.6094 44.5039C93.7526 44.9401 93.9577 45.3242 94.2246 45.6562C94.498 45.9883 94.8268 46.2487 95.2109 46.4375C95.6016 46.6263 96.0443 46.7207 96.5391 46.7207C97.1771 46.7207 97.7174 46.5905 98.1602 46.3301C98.6029 46.0697 98.9902 45.7214 99.3223 45.2852L100.416 46.1543C100.188 46.4993 99.8984 46.8281 99.5469 47.1406C99.1953 47.4531 98.7624 47.707 98.248 47.9023C97.7402 48.0977 97.138 48.1953 96.4414 48.1953ZM104.469 39.6895V48H102.662V37.4336H104.371L104.469 39.6895ZM104.039 42.3164L103.287 42.2871C103.294 41.5645 103.401 40.8971 103.609 40.2852C103.818 39.6667 104.111 39.1296 104.488 38.6738C104.866 38.2181 105.315 37.8665 105.836 37.6191C106.363 37.3652 106.946 37.2383 107.584 37.2383C108.105 37.2383 108.574 37.3099 108.99 37.4531C109.407 37.5898 109.762 37.8112 110.055 38.1172C110.354 38.4232 110.582 38.8203 110.738 39.3086C110.895 39.7904 110.973 40.3796 110.973 41.0762V48H109.156V41.0566C109.156 40.5033 109.075 40.0605 108.912 39.7285C108.749 39.39 108.512 39.1458 108.199 38.9961C107.887 38.8398 107.503 38.7617 107.047 38.7617C106.598 38.7617 106.188 38.8561 105.816 39.0449C105.452 39.2337 105.136 39.4941 104.869 39.8262C104.609 40.1582 104.404 40.5391 104.254 40.9688C104.111 41.3919 104.039 41.8411 104.039 42.3164ZM121.354 46.125L124.068 37.4336H125.26L125.025 39.1621L122.262 48H121.1L121.354 46.125ZM119.527 37.4336L121.842 46.2227L122.008 48H120.787L117.721 37.4336H119.527ZM127.857 46.1543L130.064 37.4336H131.861L128.795 48H127.584L127.857 46.1543ZM125.523 37.4336L128.18 45.9785L128.482 48H127.33L124.488 39.1426L124.254 37.4336H125.523ZM135.68 37.4336V48H133.863V37.4336H135.68ZM133.727 34.6309C133.727 34.3379 133.814 34.0905 133.99 33.8887C134.173 33.6868 134.439 33.5859 134.791 33.5859C135.136 33.5859 135.4 33.6868 135.582 33.8887C135.771 34.0905 135.865 34.3379 135.865 34.6309C135.865 34.9108 135.771 35.1517 135.582 35.3535C135.4 35.5488 135.136 35.6465 134.791 35.6465C134.439 35.6465 134.173 35.5488 133.99 35.3535C133.814 35.1517 133.727 34.9108 133.727 34.6309ZM142.965 48.1953C142.229 48.1953 141.562 48.0716 140.963 47.8242C140.37 47.5703 139.859 47.2155 139.43 46.7598C139.007 46.304 138.681 45.7637 138.453 45.1387C138.225 44.5137 138.111 43.8301 138.111 43.0879V42.6777C138.111 41.8184 138.238 41.0534 138.492 40.3828C138.746 39.7057 139.091 39.1328 139.527 38.6641C139.964 38.1953 140.458 37.8405 141.012 37.5996C141.565 37.3587 142.138 37.2383 142.73 37.2383C143.486 37.2383 144.137 37.3685 144.684 37.6289C145.237 37.8893 145.689 38.2539 146.041 38.7227C146.393 39.1849 146.653 39.7318 146.822 40.3633C146.992 40.9883 147.076 41.6719 147.076 42.4141V43.2246H139.186V41.75H145.27V41.6133C145.243 41.1445 145.146 40.6888 144.977 40.2461C144.814 39.8034 144.553 39.4388 144.195 39.1523C143.837 38.8659 143.349 38.7227 142.73 38.7227C142.32 38.7227 141.943 38.8105 141.598 38.9863C141.253 39.1556 140.956 39.4095 140.709 39.748C140.462 40.0866 140.27 40.5 140.133 40.9883C139.996 41.4766 139.928 42.0397 139.928 42.6777V43.0879C139.928 43.5892 139.996 44.0612 140.133 44.5039C140.276 44.9401 140.481 45.3242 140.748 45.6562C141.021 45.9883 141.35 46.2487 141.734 46.4375C142.125 46.6263 142.568 46.7207 143.062 46.7207C143.701 46.7207 144.241 46.5905 144.684 46.3301C145.126 46.0697 145.514 45.7214 145.846 45.2852L146.939 46.1543C146.712 46.4993 146.422 46.8281 146.07 47.1406C145.719 47.4531 145.286 47.707 144.771 47.9023C144.264 48.0977 143.661 48.1953 142.965 48.1953ZM159.488 41.3496H155.885L155.865 39.8359H159.137C159.677 39.8359 160.149 39.7448 160.553 39.5625C160.956 39.3802 161.269 39.1198 161.49 38.7812C161.718 38.4362 161.832 38.026 161.832 37.5508C161.832 37.0299 161.731 36.6068 161.529 36.2812C161.334 35.9492 161.031 35.7083 160.621 35.5586C160.217 35.4023 159.703 35.3242 159.078 35.3242H156.305V48H154.42V33.7812H159.078C159.807 33.7812 160.458 33.8561 161.031 34.0059C161.604 34.1491 162.089 34.377 162.486 34.6895C162.89 34.9954 163.196 35.3861 163.404 35.8613C163.613 36.3366 163.717 36.9062 163.717 37.5703C163.717 38.1562 163.567 38.6868 163.268 39.1621C162.968 39.6309 162.551 40.015 162.018 40.3145C161.49 40.6139 160.872 40.806 160.162 40.8906L159.488 41.3496ZM159.4 48H155.143L156.207 46.4668H159.4C159.999 46.4668 160.507 46.3626 160.924 46.1543C161.347 45.946 161.669 45.653 161.891 45.2754C162.112 44.8913 162.223 44.4388 162.223 43.918C162.223 43.3906 162.128 42.9349 161.939 42.5508C161.751 42.1667 161.454 41.8704 161.051 41.6621C160.647 41.4538 160.126 41.3496 159.488 41.3496H156.803L156.822 39.8359H160.494L160.895 40.3828C161.578 40.4414 162.158 40.6367 162.633 40.9688C163.108 41.2943 163.469 41.7109 163.717 42.2188C163.971 42.7266 164.098 43.2865 164.098 43.8984C164.098 44.7839 163.902 45.5326 163.512 46.1445C163.128 46.75 162.584 47.2122 161.881 47.5312C161.178 47.8438 160.351 48 159.4 48ZM168.57 33V48H166.754V33H168.57ZM177.701 46.1934V40.7539C177.701 40.3372 177.617 39.9759 177.447 39.6699C177.285 39.3574 177.037 39.1165 176.705 38.9473C176.373 38.778 175.963 38.6934 175.475 38.6934C175.019 38.6934 174.618 38.7715 174.273 38.9277C173.935 39.084 173.668 39.2891 173.473 39.543C173.284 39.7969 173.189 40.0703 173.189 40.3633H171.383C171.383 39.9857 171.48 39.6113 171.676 39.2402C171.871 38.8691 172.151 38.5339 172.516 38.2344C172.887 37.9284 173.329 37.6875 173.844 37.5117C174.365 37.3294 174.944 37.2383 175.582 37.2383C176.35 37.2383 177.027 37.3685 177.613 37.6289C178.206 37.8893 178.668 38.2832 179 38.8105C179.339 39.3314 179.508 39.9857 179.508 40.7734V45.6953C179.508 46.0469 179.537 46.4212 179.596 46.8184C179.661 47.2155 179.755 47.5573 179.879 47.8438V48H177.994C177.903 47.7917 177.831 47.515 177.779 47.1699C177.727 46.8184 177.701 46.4928 177.701 46.1934ZM178.014 41.5938L178.033 42.8633H176.207C175.693 42.8633 175.234 42.9056 174.83 42.9902C174.426 43.0684 174.088 43.1888 173.814 43.3516C173.541 43.5143 173.333 43.7194 173.189 43.9668C173.046 44.2077 172.975 44.4909 172.975 44.8164C172.975 45.1484 173.049 45.4512 173.199 45.7246C173.349 45.998 173.574 46.2161 173.873 46.3789C174.179 46.5352 174.553 46.6133 174.996 46.6133C175.549 46.6133 176.038 46.4961 176.461 46.2617C176.884 46.0273 177.219 45.7409 177.467 45.4023C177.721 45.0638 177.857 44.735 177.877 44.416L178.648 45.2852C178.603 45.5586 178.479 45.8613 178.277 46.1934C178.076 46.5254 177.805 46.8444 177.467 47.1504C177.135 47.4499 176.738 47.7005 176.275 47.9023C175.82 48.0977 175.305 48.1953 174.732 48.1953C174.016 48.1953 173.388 48.0553 172.848 47.7754C172.314 47.4954 171.897 47.1211 171.598 46.6523C171.305 46.1771 171.158 45.6465 171.158 45.0605C171.158 44.4941 171.269 43.9961 171.49 43.5664C171.712 43.1302 172.031 42.7689 172.447 42.4824C172.864 42.1895 173.365 41.9681 173.951 41.8184C174.537 41.6686 175.191 41.5938 175.914 41.5938H178.014ZM188.814 45.5586V37.4336H190.631V48H188.902L188.814 45.5586ZM189.156 43.332L189.908 43.3125C189.908 44.0156 189.833 44.6667 189.684 45.2656C189.54 45.8581 189.306 46.3724 188.98 46.8086C188.655 47.2448 188.229 47.5866 187.701 47.834C187.174 48.0749 186.533 48.1953 185.777 48.1953C185.263 48.1953 184.791 48.1204 184.361 47.9707C183.938 47.821 183.574 47.5898 183.268 47.2773C182.962 46.9648 182.724 46.5579 182.555 46.0566C182.392 45.5553 182.311 44.9531 182.311 44.25V37.4336H184.117V44.2695C184.117 44.7448 184.169 45.1387 184.273 45.4512C184.384 45.7572 184.531 46.0013 184.713 46.1836C184.902 46.3594 185.11 46.4831 185.338 46.5547C185.572 46.6263 185.813 46.6621 186.061 46.6621C186.829 46.6621 187.438 46.5156 187.887 46.2227C188.336 45.9232 188.658 45.5228 188.854 45.0215C189.055 44.5137 189.156 43.9505 189.156 43.332ZM198.336 33H200.152V45.9492L199.996 48H198.336V33ZM207.291 42.6289V42.834C207.291 43.6022 207.2 44.3151 207.018 44.9727C206.835 45.6237 206.568 46.1901 206.217 46.6719C205.865 47.1536 205.436 47.528 204.928 47.7949C204.42 48.0618 203.837 48.1953 203.18 48.1953C202.509 48.1953 201.92 48.0814 201.412 47.8535C200.911 47.6191 200.488 47.2839 200.143 46.8477C199.798 46.4115 199.521 45.8841 199.312 45.2656C199.111 44.6471 198.971 43.9505 198.893 43.1758V42.2773C198.971 41.4961 199.111 40.7962 199.312 40.1777C199.521 39.5592 199.798 39.0319 200.143 38.5957C200.488 38.153 200.911 37.8177 201.412 37.5898C201.913 37.3555 202.496 37.2383 203.16 37.2383C203.824 37.2383 204.413 37.3685 204.928 37.6289C205.442 37.8828 205.872 38.2474 206.217 38.7227C206.568 39.1979 206.835 39.7676 207.018 40.4316C207.2 41.0892 207.291 41.8216 207.291 42.6289ZM205.475 42.834V42.6289C205.475 42.1016 205.426 41.6068 205.328 41.1445C205.23 40.6758 205.074 40.2656 204.859 39.9141C204.645 39.556 204.361 39.276 204.01 39.0742C203.658 38.8659 203.225 38.7617 202.711 38.7617C202.255 38.7617 201.858 38.8398 201.52 38.9961C201.188 39.1523 200.904 39.3639 200.67 39.6309C200.436 39.8913 200.243 40.1908 200.094 40.5293C199.951 40.8613 199.843 41.2064 199.771 41.5645V43.918C199.876 44.3737 200.045 44.8132 200.279 45.2363C200.52 45.653 200.839 45.9948 201.236 46.2617C201.64 46.5286 202.138 46.6621 202.73 46.6621C203.219 46.6621 203.635 46.5645 203.98 46.3691C204.332 46.1673 204.615 45.8906 204.83 45.5391C205.051 45.1875 205.214 44.7806 205.318 44.3184C205.423 43.8561 205.475 43.3613 205.475 42.834ZM213.961 48.1953C213.225 48.1953 212.558 48.0716 211.959 47.8242C211.367 47.5703 210.855 47.2155 210.426 46.7598C210.003 46.304 209.677 45.7637 209.449 45.1387C209.221 44.5137 209.107 43.8301 209.107 43.0879V42.6777C209.107 41.8184 209.234 41.0534 209.488 40.3828C209.742 39.7057 210.087 39.1328 210.523 38.6641C210.96 38.1953 211.454 37.8405 212.008 37.5996C212.561 37.3587 213.134 37.2383 213.727 37.2383C214.482 37.2383 215.133 37.3685 215.68 37.6289C216.233 37.8893 216.686 38.2539 217.037 38.7227C217.389 39.1849 217.649 39.7318 217.818 40.3633C217.988 40.9883 218.072 41.6719 218.072 42.4141V43.2246H210.182V41.75H216.266V41.6133C216.24 41.1445 216.142 40.6888 215.973 40.2461C215.81 39.8034 215.549 39.4388 215.191 39.1523C214.833 38.8659 214.345 38.7227 213.727 38.7227C213.316 38.7227 212.939 38.8105 212.594 38.9863C212.249 39.1556 211.952 39.4095 211.705 39.748C211.458 40.0866 211.266 40.5 211.129 40.9883C210.992 41.4766 210.924 42.0397 210.924 42.6777V43.0879C210.924 43.5892 210.992 44.0612 211.129 44.5039C211.272 44.9401 211.477 45.3242 211.744 45.6562C212.018 45.9883 212.346 46.2487 212.73 46.4375C213.121 46.6263 213.564 46.7207 214.059 46.7207C214.697 46.7207 215.237 46.5905 215.68 46.3301C216.122 46.0697 216.51 45.7214 216.842 45.2852L217.936 46.1543C217.708 46.4993 217.418 46.8281 217.066 47.1406C216.715 47.4531 216.282 47.707 215.768 47.9023C215.26 48.0977 214.658 48.1953 213.961 48.1953ZM221.988 39.0938V48H220.182V37.4336H221.939L221.988 39.0938ZM225.289 37.375L225.279 39.0547C225.13 39.0221 224.986 39.0026 224.85 38.9961C224.719 38.9831 224.57 38.9766 224.4 38.9766C223.984 38.9766 223.616 39.0417 223.297 39.1719C222.978 39.3021 222.708 39.4844 222.486 39.7188C222.265 39.9531 222.089 40.2331 221.959 40.5586C221.835 40.8776 221.754 41.2292 221.715 41.6133L221.207 41.9062C221.207 41.2682 221.269 40.6693 221.393 40.1094C221.523 39.5495 221.721 39.0547 221.988 38.625C222.255 38.1888 222.594 37.8503 223.004 37.6094C223.421 37.362 223.915 37.2383 224.488 37.2383C224.618 37.2383 224.768 37.2546 224.938 37.2871C225.107 37.3132 225.224 37.3424 225.289 37.375ZM233.424 45.5586V37.4336H235.24V48H233.512L233.424 45.5586ZM233.766 43.332L234.518 43.3125C234.518 44.0156 234.443 44.6667 234.293 45.2656C234.15 45.8581 233.915 46.3724 233.59 46.8086C233.264 47.2448 232.838 47.5866 232.311 47.834C231.783 48.0749 231.142 48.1953 230.387 48.1953C229.872 48.1953 229.4 48.1204 228.971 47.9707C228.548 47.821 228.183 47.5898 227.877 47.2773C227.571 46.9648 227.333 46.5579 227.164 46.0566C227.001 45.5553 226.92 44.9531 226.92 44.25V37.4336H228.727V44.2695C228.727 44.7448 228.779 45.1387 228.883 45.4512C228.993 45.7572 229.14 46.0013 229.322 46.1836C229.511 46.3594 229.719 46.4831 229.947 46.5547C230.182 46.6263 230.423 46.6621 230.67 46.6621C231.438 46.6621 232.047 46.5156 232.496 46.2227C232.945 45.9232 233.268 45.5228 233.463 45.0215C233.665 44.5137 233.766 43.9505 233.766 43.332ZM239.801 33V48H237.994V33H239.801ZM239.371 42.3164L238.619 42.2871C238.626 41.5645 238.733 40.8971 238.941 40.2852C239.15 39.6667 239.443 39.1296 239.82 38.6738C240.198 38.2181 240.647 37.8665 241.168 37.6191C241.695 37.3652 242.278 37.2383 242.916 37.2383C243.437 37.2383 243.906 37.3099 244.322 37.4531C244.739 37.5898 245.094 37.8112 245.387 38.1172C245.686 38.4232 245.914 38.8203 246.07 39.3086C246.227 39.7904 246.305 40.3796 246.305 41.0762V48H244.488V41.0566C244.488 40.5033 244.407 40.0605 244.244 39.7285C244.081 39.39 243.844 39.1458 243.531 38.9961C243.219 38.8398 242.835 38.7617 242.379 38.7617C241.93 38.7617 241.52 38.8561 241.148 39.0449C240.784 39.2337 240.468 39.4941 240.201 39.8262C239.941 40.1582 239.736 40.5391 239.586 40.9688C239.443 41.3919 239.371 41.8411 239.371 42.3164ZM250.973 37.4336V48H249.156V37.4336H250.973ZM249.02 34.6309C249.02 34.3379 249.107 34.0905 249.283 33.8887C249.465 33.6868 249.732 33.5859 250.084 33.5859C250.429 33.5859 250.693 33.6868 250.875 33.8887C251.064 34.0905 251.158 34.3379 251.158 34.6309C251.158 34.9108 251.064 35.1517 250.875 35.3535C250.693 35.5488 250.429 35.6465 250.084 35.6465C249.732 35.6465 249.465 35.5488 249.283 35.3535C249.107 35.1517 249.02 34.9108 249.02 34.6309ZM260.719 37.4336H262.359V47.7754C262.359 48.7064 262.171 49.5007 261.793 50.1582C261.415 50.8158 260.888 51.3138 260.211 51.6523C259.54 51.9974 258.766 52.1699 257.887 52.1699C257.522 52.1699 257.092 52.1113 256.598 51.9941C256.109 51.8835 255.628 51.6914 255.152 51.418C254.684 51.151 254.29 50.7897 253.971 50.334L254.918 49.2598C255.361 49.7936 255.823 50.1647 256.305 50.373C256.793 50.5814 257.275 50.6855 257.75 50.6855C258.323 50.6855 258.818 50.5781 259.234 50.3633C259.651 50.1484 259.973 49.8294 260.201 49.4062C260.436 48.9896 260.553 48.4753 260.553 47.8633V39.7578L260.719 37.4336ZM253.443 42.834V42.6289C253.443 41.8216 253.538 41.0892 253.727 40.4316C253.922 39.7676 254.199 39.1979 254.557 38.7227C254.921 38.2474 255.361 37.8828 255.875 37.6289C256.389 37.3685 256.969 37.2383 257.613 37.2383C258.277 37.2383 258.857 37.3555 259.352 37.5898C259.853 37.8177 260.276 38.153 260.621 38.5957C260.973 39.0319 261.249 39.5592 261.451 40.1777C261.653 40.7962 261.793 41.4961 261.871 42.2773V43.1758C261.799 43.9505 261.66 44.6471 261.451 45.2656C261.249 45.8841 260.973 46.4115 260.621 46.8477C260.276 47.2839 259.853 47.6191 259.352 47.8535C258.85 48.0814 258.264 48.1953 257.594 48.1953C256.962 48.1953 256.389 48.0618 255.875 47.7949C255.367 47.528 254.931 47.1536 254.566 46.6719C254.202 46.1901 253.922 45.6237 253.727 44.9727C253.538 44.3151 253.443 43.6022 253.443 42.834ZM255.25 42.6289V42.834C255.25 43.3613 255.302 43.8561 255.406 44.3184C255.517 44.7806 255.683 45.1875 255.904 45.5391C256.132 45.8906 256.422 46.1673 256.773 46.3691C257.125 46.5645 257.545 46.6621 258.033 46.6621C258.632 46.6621 259.127 46.5352 259.518 46.2812C259.908 46.0273 260.217 45.6921 260.445 45.2754C260.68 44.8587 260.862 44.4062 260.992 43.918V41.5645C260.921 41.2064 260.81 40.8613 260.66 40.5293C260.517 40.1908 260.328 39.8913 260.094 39.6309C259.866 39.3639 259.583 39.1523 259.244 38.9961C258.906 38.8398 258.508 38.7617 258.053 38.7617C257.558 38.7617 257.132 38.8659 256.773 39.0742C256.422 39.276 256.132 39.556 255.904 39.9141C255.683 40.2656 255.517 40.6758 255.406 41.1445C255.302 41.6068 255.25 42.1016 255.25 42.6289ZM269.488 48.1953C268.753 48.1953 268.085 48.0716 267.486 47.8242C266.894 47.5703 266.383 47.2155 265.953 46.7598C265.53 46.304 265.204 45.7637 264.977 45.1387C264.749 44.5137 264.635 43.8301 264.635 43.0879V42.6777C264.635 41.8184 264.762 41.0534 265.016 40.3828C265.27 39.7057 265.615 39.1328 266.051 38.6641C266.487 38.1953 266.982 37.8405 267.535 37.5996C268.089 37.3587 268.661 37.2383 269.254 37.2383C270.009 37.2383 270.66 37.3685 271.207 37.6289C271.76 37.8893 272.213 38.2539 272.564 38.7227C272.916 39.1849 273.176 39.7318 273.346 40.3633C273.515 40.9883 273.6 41.6719 273.6 42.4141V43.2246H265.709V41.75H271.793V41.6133C271.767 41.1445 271.669 40.6888 271.5 40.2461C271.337 39.8034 271.077 39.4388 270.719 39.1523C270.361 38.8659 269.872 38.7227 269.254 38.7227C268.844 38.7227 268.466 38.8105 268.121 38.9863C267.776 39.1556 267.48 39.4095 267.232 39.748C266.985 40.0866 266.793 40.5 266.656 40.9883C266.52 41.4766 266.451 42.0397 266.451 42.6777V43.0879C266.451 43.5892 266.52 44.0612 266.656 44.5039C266.799 44.9401 267.005 45.3242 267.271 45.6562C267.545 45.9883 267.874 46.2487 268.258 46.4375C268.648 46.6263 269.091 46.7207 269.586 46.7207C270.224 46.7207 270.764 46.5905 271.207 46.3301C271.65 46.0697 272.037 45.7214 272.369 45.2852L273.463 46.1543C273.235 46.4993 272.945 46.8281 272.594 47.1406C272.242 47.4531 271.809 47.707 271.295 47.9023C270.787 48.0977 270.185 48.1953 269.488 48.1953ZM277.516 39.6895V48H275.709V37.4336H277.418L277.516 39.6895ZM277.086 42.3164L276.334 42.2871C276.34 41.5645 276.448 40.8971 276.656 40.2852C276.865 39.6667 277.158 39.1296 277.535 38.6738C277.913 38.2181 278.362 37.8665 278.883 37.6191C279.41 37.3652 279.993 37.2383 280.631 37.2383C281.152 37.2383 281.62 37.3099 282.037 37.4531C282.454 37.5898 282.809 37.8112 283.102 38.1172C283.401 38.4232 283.629 38.8203 283.785 39.3086C283.941 39.7904 284.02 40.3796 284.02 41.0762V48H282.203V41.0566C282.203 40.5033 282.122 40.0605 281.959 39.7285C281.796 39.39 281.559 39.1458 281.246 38.9961C280.934 38.8398 280.549 38.7617 280.094 38.7617C279.645 38.7617 279.234 38.8561 278.863 39.0449C278.499 39.2337 278.183 39.4941 277.916 39.8262C277.656 40.1582 277.451 40.5391 277.301 40.9688C277.158 41.3919 277.086 41.8411 277.086 42.3164ZM288.404 45.8516V47.3066C288.404 47.8991 288.255 48.5241 287.955 49.1816C287.656 49.8457 287.236 50.3991 286.695 50.8418L285.67 50.1289C285.878 49.8424 286.054 49.5495 286.197 49.25C286.34 48.957 286.448 48.651 286.52 48.332C286.598 48.0195 286.637 47.6875 286.637 47.3359V45.8516H288.404ZM48.0527 69.125L50.7676 60.4336H51.959L51.7246 62.1621L48.9609 71H47.7988L48.0527 69.125ZM46.2266 60.4336L48.541 69.2227L48.707 71H47.4863L44.4199 60.4336H46.2266ZM54.5566 69.1543L56.7637 60.4336H58.5605L55.4941 71H54.2832L54.5566 69.1543ZM52.2227 60.4336L54.8789 68.9785L55.1816 71H54.0293L51.1875 62.1426L50.9531 60.4336H52.2227ZM66.6465 69.1934V63.7539C66.6465 63.3372 66.5618 62.9759 66.3926 62.6699C66.2298 62.3574 65.9824 62.1165 65.6504 61.9473C65.3184 61.778 64.9082 61.6934 64.4199 61.6934C63.9642 61.6934 63.5638 61.7715 63.2188 61.9277C62.8802 62.084 62.6133 62.2891 62.418 62.543C62.2292 62.7969 62.1348 63.0703 62.1348 63.3633H60.3281C60.3281 62.9857 60.4258 62.6113 60.6211 62.2402C60.8164 61.8691 61.0964 61.5339 61.4609 61.2344C61.832 60.9284 62.2747 60.6875 62.7891 60.5117C63.3099 60.3294 63.8893 60.2383 64.5273 60.2383C65.2956 60.2383 65.9727 60.3685 66.5586 60.6289C67.151 60.8893 67.6133 61.2832 67.9453 61.8105C68.2839 62.3314 68.4531 62.9857 68.4531 63.7734V68.6953C68.4531 69.0469 68.4824 69.4212 68.541 69.8184C68.6061 70.2155 68.7005 70.5573 68.8242 70.8438V71H66.9395C66.8483 70.7917 66.7767 70.515 66.7246 70.1699C66.6725 69.8184 66.6465 69.4928 66.6465 69.1934ZM66.959 64.5938L66.9785 65.8633H65.1523C64.638 65.8633 64.179 65.9056 63.7754 65.9902C63.3717 66.0684 63.0332 66.1888 62.7598 66.3516C62.4863 66.5143 62.278 66.7194 62.1348 66.9668C61.9915 67.2077 61.9199 67.4909 61.9199 67.8164C61.9199 68.1484 61.9948 68.4512 62.1445 68.7246C62.2943 68.998 62.5189 69.2161 62.8184 69.3789C63.1243 69.5352 63.4987 69.6133 63.9414 69.6133C64.4948 69.6133 64.9831 69.4961 65.4062 69.2617C65.8294 69.0273 66.1647 68.7409 66.4121 68.4023C66.666 68.0638 66.8027 67.735 66.8223 67.416L67.5938 68.2852C67.5482 68.5586 67.4245 68.8613 67.2227 69.1934C67.0208 69.5254 66.7507 69.8444 66.4121 70.1504C66.0801 70.4499 65.6829 70.7005 65.2207 70.9023C64.765 71.0977 64.2507 71.1953 63.6777 71.1953C62.9616 71.1953 62.3333 71.0553 61.793 70.7754C61.2591 70.4954 60.8424 70.1211 60.543 69.6523C60.25 69.1771 60.1035 68.6465 60.1035 68.0605C60.1035 67.4941 60.2142 66.9961 60.4355 66.5664C60.6569 66.1302 60.9759 65.7689 61.3926 65.4824C61.8092 65.1895 62.3105 64.9681 62.8965 64.8184C63.4824 64.6686 64.1367 64.5938 64.8594 64.5938H66.959ZM61.5781 57.6113C61.5781 57.3184 61.6693 57.071 61.8516 56.8691C62.0339 56.6673 62.2975 56.5664 62.6426 56.5664C62.9941 56.5664 63.2611 56.6673 63.4434 56.8691C63.6257 57.071 63.7168 57.3184 63.7168 57.6113C63.7168 57.8913 63.6257 58.1322 63.4434 58.334C63.2611 58.5293 62.9941 58.627 62.6426 58.627C62.2975 58.627 62.0339 58.5293 61.8516 58.334C61.6693 58.1322 61.5781 57.8913 61.5781 57.6113ZM65.7871 57.6309C65.7871 57.3379 65.875 57.0905 66.0508 56.8887C66.2331 56.6868 66.5 56.5859 66.8516 56.5859C67.1966 56.5859 67.4603 56.6868 67.6426 56.8887C67.8314 57.0905 67.9258 57.3379 67.9258 57.6309C67.9258 57.9108 67.8314 58.1517 67.6426 58.3535C67.4603 58.5488 67.1966 58.6465 66.8516 58.6465C66.5 58.6465 66.2331 58.5488 66.0508 58.3535C65.875 58.1517 65.7871 57.9108 65.7871 57.6309ZM73.1016 56V71H71.2949V56H73.1016ZM72.6719 65.3164L71.9199 65.2871C71.9264 64.5645 72.0339 63.8971 72.2422 63.2852C72.4505 62.6667 72.7435 62.1296 73.1211 61.6738C73.4987 61.2181 73.9479 60.8665 74.4688 60.6191C74.9961 60.3652 75.5788 60.2383 76.2168 60.2383C76.7376 60.2383 77.2064 60.3099 77.623 60.4531C78.0397 60.5898 78.3945 60.8112 78.6875 61.1172C78.987 61.4232 79.2148 61.8203 79.3711 62.3086C79.5273 62.7904 79.6055 63.3796 79.6055 64.0762V71H77.7891V64.0566C77.7891 63.5033 77.7077 63.0605 77.5449 62.7285C77.3822 62.39 77.1445 62.1458 76.832 61.9961C76.5195 61.8398 76.1354 61.7617 75.6797 61.7617C75.2305 61.7617 74.8203 61.8561 74.4492 62.0449C74.0846 62.2337 73.7689 62.4941 73.502 62.8262C73.2415 63.1582 73.0365 63.5391 72.8867 63.9688C72.7435 64.3919 72.6719 64.8411 72.6719 65.3164ZM84.1172 62.0938V71H82.3105V60.4336H84.0684L84.1172 62.0938ZM87.418 60.375L87.4082 62.0547C87.2585 62.0221 87.1152 62.0026 86.9785 61.9961C86.8483 61.9831 86.6986 61.9766 86.5293 61.9766C86.1126 61.9766 85.7448 62.0417 85.4258 62.1719C85.1068 62.3021 84.8366 62.4844 84.6152 62.7188C84.3939 62.9531 84.2181 63.2331 84.0879 63.5586C83.9642 63.8776 83.8828 64.2292 83.8438 64.6133L83.3359 64.9062C83.3359 64.2682 83.3978 63.6693 83.5215 63.1094C83.6517 62.5495 83.8503 62.0547 84.1172 61.625C84.3841 61.1888 84.7227 60.8503 85.1328 60.6094C85.5495 60.362 86.0443 60.2383 86.6172 60.2383C86.7474 60.2383 86.8971 60.2546 87.0664 60.2871C87.2357 60.3132 87.3529 60.3424 87.418 60.375ZM93.2773 71.1953C92.5417 71.1953 91.8743 71.0716 91.2754 70.8242C90.6829 70.5703 90.1719 70.2155 89.7422 69.7598C89.319 69.304 88.9935 68.7637 88.7656 68.1387C88.5378 67.5137 88.4238 66.8301 88.4238 66.0879V65.6777C88.4238 64.8184 88.5508 64.0534 88.8047 63.3828C89.0586 62.7057 89.4036 62.1328 89.8398 61.6641C90.276 61.1953 90.7708 60.8405 91.3242 60.5996C91.8776 60.3587 92.4505 60.2383 93.043 60.2383C93.7982 60.2383 94.4492 60.3685 94.9961 60.6289C95.5495 60.8893 96.002 61.2539 96.3535 61.7227C96.7051 62.1849 96.9655 62.7318 97.1348 63.3633C97.304 63.9883 97.3887 64.6719 97.3887 65.4141V66.2246H89.498V64.75H95.582V64.6133C95.556 64.1445 95.4583 63.6888 95.2891 63.2461C95.1263 62.8034 94.8659 62.4388 94.5078 62.1523C94.1497 61.8659 93.6615 61.7227 93.043 61.7227C92.6328 61.7227 92.2552 61.8105 91.9102 61.9863C91.5651 62.1556 91.2689 62.4095 91.0215 62.748C90.7741 63.0866 90.582 63.5 90.4453 63.9883C90.3086 64.4766 90.2402 65.0397 90.2402 65.6777V66.0879C90.2402 66.5892 90.3086 67.0612 90.4453 67.5039C90.5885 67.9401 90.7936 68.3242 91.0605 68.6562C91.334 68.9883 91.6628 69.2487 92.0469 69.4375C92.4375 69.6263 92.8802 69.7207 93.375 69.7207C94.013 69.7207 94.5534 69.5905 94.9961 69.3301C95.4388 69.0697 95.8262 68.7214 96.1582 68.2852L97.252 69.1543C97.0241 69.4993 96.7344 69.8281 96.3828 70.1406C96.0312 70.4531 95.5983 70.707 95.084 70.9023C94.5762 71.0977 93.974 71.1953 93.2773 71.1953ZM101.305 62.6895V71H99.498V60.4336H101.207L101.305 62.6895ZM100.875 65.3164L100.123 65.2871C100.13 64.5645 100.237 63.8971 100.445 63.2852C100.654 62.6667 100.947 62.1296 101.324 61.6738C101.702 61.2181 102.151 60.8665 102.672 60.6191C103.199 60.3652 103.782 60.2383 104.42 60.2383C104.941 60.2383 105.41 60.3099 105.826 60.4531C106.243 60.5898 106.598 60.8112 106.891 61.1172C107.19 61.4232 107.418 61.8203 107.574 62.3086C107.73 62.7904 107.809 63.3796 107.809 64.0762V71H105.992V64.0566C105.992 63.5033 105.911 63.0605 105.748 62.7285C105.585 62.39 105.348 62.1458 105.035 61.9961C104.723 61.8398 104.339 61.7617 103.883 61.7617C103.434 61.7617 103.023 61.8561 102.652 62.0449C102.288 62.2337 101.972 62.4941 101.705 62.8262C101.445 63.1582 101.24 63.5391 101.09 63.9688C100.947 64.3919 100.875 64.8411 100.875 65.3164ZM117.213 68.9492V56H119.029V71H117.369L117.213 68.9492ZM110.104 65.834V65.6289C110.104 64.8216 110.201 64.0892 110.396 63.4316C110.598 62.7676 110.882 62.1979 111.246 61.7227C111.617 61.2474 112.057 60.8828 112.564 60.6289C113.079 60.3685 113.652 60.2383 114.283 60.2383C114.947 60.2383 115.527 60.3555 116.021 60.5898C116.523 60.8177 116.946 61.153 117.291 61.5957C117.643 62.0319 117.919 62.5592 118.121 63.1777C118.323 63.7962 118.463 64.4961 118.541 65.2773V66.1758C118.469 66.9505 118.329 67.6471 118.121 68.2656C117.919 68.8841 117.643 69.4115 117.291 69.8477C116.946 70.2839 116.523 70.6191 116.021 70.8535C115.52 71.0814 114.934 71.1953 114.264 71.1953C113.645 71.1953 113.079 71.0618 112.564 70.7949C112.057 70.528 111.617 70.1536 111.246 69.6719C110.882 69.1901 110.598 68.6237 110.396 67.9727C110.201 67.3151 110.104 66.6022 110.104 65.834ZM111.92 65.6289V65.834C111.92 66.3613 111.972 66.8561 112.076 67.3184C112.187 67.7806 112.356 68.1875 112.584 68.5391C112.812 68.8906 113.102 69.1673 113.453 69.3691C113.805 69.5645 114.225 69.6621 114.713 69.6621C115.312 69.6621 115.803 69.5352 116.188 69.2812C116.578 69.0273 116.891 68.6921 117.125 68.2754C117.359 67.8587 117.542 67.4062 117.672 66.918V64.5645C117.594 64.2064 117.48 63.8613 117.33 63.5293C117.187 63.1908 116.998 62.8913 116.764 62.6309C116.536 62.3639 116.253 62.1523 115.914 61.9961C115.582 61.8398 115.188 61.7617 114.732 61.7617C114.238 61.7617 113.811 61.8659 113.453 62.0742C113.102 62.276 112.812 62.556 112.584 62.9141C112.356 63.2656 112.187 63.6758 112.076 64.1445C111.972 64.6068 111.92 65.1016 111.92 65.6289ZM127.076 56.7812H131.783C132.851 56.7812 133.753 56.944 134.488 57.2695C135.23 57.5951 135.794 58.0768 136.178 58.7148C136.568 59.3464 136.764 60.1243 136.764 61.0488C136.764 61.6999 136.63 62.2956 136.363 62.8359C136.103 63.3698 135.725 63.8255 135.23 64.2031C134.742 64.5742 134.156 64.8509 133.473 65.0332L132.945 65.2383H128.521L128.502 63.7051H131.842C132.519 63.7051 133.082 63.5879 133.531 63.3535C133.98 63.1126 134.319 62.7904 134.547 62.3867C134.775 61.9831 134.889 61.5371 134.889 61.0488C134.889 60.502 134.781 60.0234 134.566 59.6133C134.352 59.2031 134.013 58.8874 133.551 58.666C133.095 58.4382 132.506 58.3242 131.783 58.3242H128.961V71H127.076V56.7812ZM135.387 71L131.93 64.5547L133.893 64.5449L137.398 70.8828V71H135.387ZM138.648 65.834V65.6094C138.648 64.8477 138.759 64.1413 138.98 63.4902C139.202 62.8327 139.521 62.263 139.938 61.7812C140.354 61.293 140.859 60.9154 141.451 60.6484C142.044 60.375 142.708 60.2383 143.443 60.2383C144.186 60.2383 144.853 60.375 145.445 60.6484C146.044 60.9154 146.552 61.293 146.969 61.7812C147.392 62.263 147.714 62.8327 147.936 63.4902C148.157 64.1413 148.268 64.8477 148.268 65.6094V65.834C148.268 66.5957 148.157 67.3021 147.936 67.9531C147.714 68.6042 147.392 69.1738 146.969 69.6621C146.552 70.1439 146.048 70.5215 145.455 70.7949C144.869 71.0618 144.205 71.1953 143.463 71.1953C142.721 71.1953 142.053 71.0618 141.461 70.7949C140.868 70.5215 140.361 70.1439 139.938 69.6621C139.521 69.1738 139.202 68.6042 138.98 67.9531C138.759 67.3021 138.648 66.5957 138.648 65.834ZM140.455 65.6094V65.834C140.455 66.3613 140.517 66.8594 140.641 67.3281C140.764 67.7904 140.95 68.2005 141.197 68.5586C141.451 68.9167 141.767 69.1999 142.145 69.4082C142.522 69.61 142.962 69.7109 143.463 69.7109C143.958 69.7109 144.391 69.61 144.762 69.4082C145.139 69.1999 145.452 68.9167 145.699 68.5586C145.947 68.2005 146.132 67.7904 146.256 67.3281C146.386 66.8594 146.451 66.3613 146.451 65.834V65.6094C146.451 65.0885 146.386 64.597 146.256 64.1348C146.132 63.666 145.943 63.2526 145.689 62.8945C145.442 62.5299 145.13 62.2435 144.752 62.0352C144.381 61.8268 143.945 61.7227 143.443 61.7227C142.949 61.7227 142.512 61.8268 142.135 62.0352C141.764 62.2435 141.451 62.5299 141.197 62.8945C140.95 63.2526 140.764 63.666 140.641 64.1348C140.517 64.597 140.455 65.0885 140.455 65.6094ZM154.957 60.4336V61.8203H149.244V60.4336H154.957ZM151.178 57.8652H152.984V68.3828C152.984 68.7409 153.04 69.0111 153.15 69.1934C153.261 69.3757 153.404 69.4961 153.58 69.5547C153.756 69.6133 153.945 69.6426 154.146 69.6426C154.296 69.6426 154.452 69.6296 154.615 69.6035C154.785 69.571 154.911 69.5449 154.996 69.5254L155.006 71C154.863 71.0456 154.674 71.0879 154.439 71.127C154.212 71.1725 153.935 71.1953 153.609 71.1953C153.167 71.1953 152.76 71.1074 152.389 70.9316C152.018 70.7559 151.721 70.4629 151.5 70.0527C151.285 69.6361 151.178 69.0762 151.178 68.373V57.8652ZM168.697 68.9492V56H170.514V71H168.854L168.697 68.9492ZM161.588 65.834V65.6289C161.588 64.8216 161.686 64.0892 161.881 63.4316C162.083 62.7676 162.366 62.1979 162.73 61.7227C163.102 61.2474 163.541 60.8828 164.049 60.6289C164.563 60.3685 165.136 60.2383 165.768 60.2383C166.432 60.2383 167.011 60.3555 167.506 60.5898C168.007 60.8177 168.43 61.153 168.775 61.5957C169.127 62.0319 169.404 62.5592 169.605 63.1777C169.807 63.7962 169.947 64.4961 170.025 65.2773V66.1758C169.954 66.9505 169.814 67.6471 169.605 68.2656C169.404 68.8841 169.127 69.4115 168.775 69.8477C168.43 70.2839 168.007 70.6191 167.506 70.8535C167.005 71.0814 166.419 71.1953 165.748 71.1953C165.13 71.1953 164.563 71.0618 164.049 70.7949C163.541 70.528 163.102 70.1536 162.73 69.6719C162.366 69.1901 162.083 68.6237 161.881 67.9727C161.686 67.3151 161.588 66.6022 161.588 65.834ZM163.404 65.6289V65.834C163.404 66.3613 163.456 66.8561 163.561 67.3184C163.671 67.7806 163.84 68.1875 164.068 68.5391C164.296 68.8906 164.586 69.1673 164.938 69.3691C165.289 69.5645 165.709 69.6621 166.197 69.6621C166.796 69.6621 167.288 69.5352 167.672 69.2812C168.062 69.0273 168.375 68.6921 168.609 68.2754C168.844 67.8587 169.026 67.4062 169.156 66.918V64.5645C169.078 64.2064 168.964 63.8613 168.814 63.5293C168.671 63.1908 168.482 62.8913 168.248 62.6309C168.02 62.3639 167.737 62.1523 167.398 61.9961C167.066 61.8398 166.673 61.7617 166.217 61.7617C165.722 61.7617 165.296 61.8659 164.938 62.0742C164.586 62.276 164.296 62.556 164.068 62.9141C163.84 63.2656 163.671 63.6758 163.561 64.1445C163.456 64.6068 163.404 65.1016 163.404 65.6289ZM175.289 60.4336V71H173.473V60.4336H175.289ZM173.336 57.6309C173.336 57.3379 173.424 57.0905 173.6 56.8887C173.782 56.6868 174.049 56.5859 174.4 56.5859C174.745 56.5859 175.009 56.6868 175.191 56.8887C175.38 57.0905 175.475 57.3379 175.475 57.6309C175.475 57.9108 175.38 58.1517 175.191 58.3535C175.009 58.5488 174.745 58.6465 174.4 58.6465C174.049 58.6465 173.782 58.5488 173.6 58.3535C173.424 58.1517 173.336 57.9108 173.336 57.6309ZM182.574 71.1953C181.839 71.1953 181.171 71.0716 180.572 70.8242C179.98 70.5703 179.469 70.2155 179.039 69.7598C178.616 69.304 178.29 68.7637 178.062 68.1387C177.835 67.5137 177.721 66.8301 177.721 66.0879V65.6777C177.721 64.8184 177.848 64.0534 178.102 63.3828C178.355 62.7057 178.701 62.1328 179.137 61.6641C179.573 61.1953 180.068 60.8405 180.621 60.5996C181.174 60.3587 181.747 60.2383 182.34 60.2383C183.095 60.2383 183.746 60.3685 184.293 60.6289C184.846 60.8893 185.299 61.2539 185.65 61.7227C186.002 62.1849 186.262 62.7318 186.432 63.3633C186.601 63.9883 186.686 64.6719 186.686 65.4141V66.2246H178.795V64.75H184.879V64.6133C184.853 64.1445 184.755 63.6888 184.586 63.2461C184.423 62.8034 184.163 62.4388 183.805 62.1523C183.447 61.8659 182.958 61.7227 182.34 61.7227C181.93 61.7227 181.552 61.8105 181.207 61.9863C180.862 62.1556 180.566 62.4095 180.318 62.748C180.071 63.0866 179.879 63.5 179.742 63.9883C179.605 64.4766 179.537 65.0397 179.537 65.6777V66.0879C179.537 66.5892 179.605 67.0612 179.742 67.5039C179.885 67.9401 180.09 68.3242 180.357 68.6562C180.631 68.9883 180.96 69.2487 181.344 69.4375C181.734 69.6263 182.177 69.7207 182.672 69.7207C183.31 69.7207 183.85 69.5905 184.293 69.3301C184.736 69.0697 185.123 68.7214 185.455 68.2852L186.549 69.1543C186.321 69.4993 186.031 69.8281 185.68 70.1406C185.328 70.4531 184.895 70.707 184.381 70.9023C183.873 71.0977 183.271 71.1953 182.574 71.1953ZM50.9141 81.041L46.207 94H44.2832L49.7031 79.7812H50.9434L50.9141 81.041ZM54.8594 94L50.1426 81.041L50.1133 79.7812H51.3535L56.793 94H54.8594ZM54.6152 88.7363V90.2793H46.627V88.7363H54.6152ZM64.7715 91.5586V83.4336H66.5879V94H64.8594L64.7715 91.5586ZM65.1133 89.332L65.8652 89.3125C65.8652 90.0156 65.7904 90.6667 65.6406 91.2656C65.4974 91.8581 65.263 92.3724 64.9375 92.8086C64.612 93.2448 64.1855 93.5866 63.6582 93.834C63.1309 94.0749 62.4896 94.1953 61.7344 94.1953C61.2201 94.1953 60.748 94.1204 60.3184 93.9707C59.8952 93.821 59.5306 93.5898 59.2246 93.2773C58.9186 92.9648 58.681 92.5579 58.5117 92.0566C58.349 91.5553 58.2676 90.9531 58.2676 90.25V83.4336H60.0742V90.2695C60.0742 90.7448 60.1263 91.1387 60.2305 91.4512C60.3411 91.7572 60.4876 92.0013 60.6699 92.1836C60.8587 92.3594 61.0671 92.4831 61.2949 92.5547C61.5293 92.6263 61.7702 92.6621 62.0176 92.6621C62.7858 92.6621 63.3945 92.5156 63.8438 92.2227C64.293 91.9232 64.6152 91.5228 64.8105 91.0215C65.0124 90.5137 65.1133 89.9505 65.1133 89.332ZM72.0371 94H70.2305V82.3203C70.2305 81.5586 70.3672 80.9173 70.6406 80.3965C70.9206 79.8691 71.321 79.472 71.8418 79.2051C72.3626 78.9316 72.9811 78.7949 73.6973 78.7949C73.9056 78.7949 74.1139 78.8079 74.3223 78.834C74.5371 78.86 74.7454 78.8991 74.9473 78.9512L74.8496 80.4258C74.7129 80.3932 74.5566 80.3704 74.3809 80.3574C74.2116 80.3444 74.0423 80.3379 73.873 80.3379C73.4889 80.3379 73.1569 80.416 72.877 80.5723C72.6035 80.722 72.3952 80.9434 72.252 81.2363C72.1087 81.5293 72.0371 81.8906 72.0371 82.3203V94ZM74.2832 83.4336V84.8203H68.5605V83.4336H74.2832ZM78.0918 85.5332V94H76.2754V83.4336H77.9941L78.0918 85.5332ZM77.7207 88.3164L76.8809 88.2871C76.8874 87.5645 76.9818 86.8971 77.1641 86.2852C77.3464 85.6667 77.6165 85.1296 77.9746 84.6738C78.3327 84.2181 78.7786 83.8665 79.3125 83.6191C79.8464 83.3652 80.4648 83.2383 81.168 83.2383C81.6628 83.2383 82.1185 83.3099 82.5352 83.4531C82.9518 83.5898 83.3132 83.8079 83.6191 84.1074C83.9251 84.4069 84.1628 84.791 84.332 85.2598C84.5013 85.7285 84.5859 86.2949 84.5859 86.959V94H82.7793V87.0469C82.7793 86.4935 82.6849 86.0508 82.4961 85.7188C82.3138 85.3867 82.0534 85.1458 81.7148 84.9961C81.3763 84.8398 80.9792 84.7617 80.5234 84.7617C79.9896 84.7617 79.5436 84.8561 79.1855 85.0449C78.8275 85.2337 78.541 85.4941 78.3262 85.8262C78.1113 86.1582 77.9551 86.5391 77.8574 86.9688C77.7663 87.3919 77.7207 87.8411 77.7207 88.3164ZM84.5664 87.3203L83.3555 87.6914C83.362 87.112 83.4564 86.5553 83.6387 86.0215C83.8275 85.4876 84.0977 85.0124 84.4492 84.5957C84.8073 84.179 85.2467 83.8503 85.7676 83.6094C86.2884 83.362 86.8841 83.2383 87.5547 83.2383C88.1211 83.2383 88.6224 83.3132 89.0586 83.4629C89.5013 83.6126 89.8724 83.8438 90.1719 84.1562C90.4779 84.4622 90.709 84.8561 90.8652 85.3379C91.0215 85.8197 91.0996 86.3926 91.0996 87.0566V94H89.2832V87.0371C89.2832 86.4447 89.1888 85.9857 89 85.6602C88.8177 85.3281 88.5573 85.097 88.2188 84.9668C87.8867 84.8301 87.4896 84.7617 87.0273 84.7617C86.6302 84.7617 86.2786 84.8301 85.9727 84.9668C85.6667 85.1035 85.4095 85.2923 85.2012 85.5332C84.9928 85.7676 84.8333 86.0378 84.7227 86.3438C84.6185 86.6497 84.5664 86.9753 84.5664 87.3203ZM98.2188 94.1953C97.4831 94.1953 96.8158 94.0716 96.2168 93.8242C95.6243 93.5703 95.1133 93.2155 94.6836 92.7598C94.2604 92.304 93.9349 91.7637 93.707 91.1387C93.4792 90.5137 93.3652 89.8301 93.3652 89.0879V88.6777C93.3652 87.8184 93.4922 87.0534 93.7461 86.3828C94 85.7057 94.3451 85.1328 94.7812 84.6641C95.2174 84.1953 95.7122 83.8405 96.2656 83.5996C96.819 83.3587 97.3919 83.2383 97.9844 83.2383C98.7396 83.2383 99.3906 83.3685 99.9375 83.6289C100.491 83.8893 100.943 84.2539 101.295 84.7227C101.646 85.1849 101.907 85.7318 102.076 86.3633C102.245 86.9883 102.33 87.6719 102.33 88.4141V89.2246H94.4395V87.75H100.523V87.6133C100.497 87.1445 100.4 86.6888 100.23 86.2461C100.068 85.8034 99.8073 85.4388 99.4492 85.1523C99.0911 84.8659 98.6029 84.7227 97.9844 84.7227C97.5742 84.7227 97.1966 84.8105 96.8516 84.9863C96.5065 85.1556 96.2103 85.4095 95.9629 85.748C95.7155 86.0866 95.5234 86.5 95.3867 86.9883C95.25 87.4766 95.1816 88.0397 95.1816 88.6777V89.0879C95.1816 89.5892 95.25 90.0612 95.3867 90.5039C95.5299 90.9401 95.735 91.3242 96.002 91.6562C96.2754 91.9883 96.6042 92.2487 96.9883 92.4375C97.3789 92.6263 97.8216 92.7207 98.3164 92.7207C98.9544 92.7207 99.4948 92.5905 99.9375 92.3301C100.38 92.0697 100.768 91.7214 101.1 91.2852L102.193 92.1543C101.965 92.4993 101.676 92.8281 101.324 93.1406C100.973 93.4531 100.54 93.707 100.025 93.9023C99.5176 94.0977 98.9154 94.1953 98.2188 94.1953ZM106.246 85.0938V94H104.439V83.4336H106.197L106.246 85.0938ZM109.547 83.375L109.537 85.0547C109.387 85.0221 109.244 85.0026 109.107 84.9961C108.977 84.9831 108.827 84.9766 108.658 84.9766C108.242 84.9766 107.874 85.0417 107.555 85.1719C107.236 85.3021 106.965 85.4844 106.744 85.7188C106.523 85.9531 106.347 86.2331 106.217 86.5586C106.093 86.8776 106.012 87.2292 105.973 87.6133L105.465 87.9062C105.465 87.2682 105.527 86.6693 105.65 86.1094C105.781 85.5495 105.979 85.0547 106.246 84.625C106.513 84.1888 106.852 83.8503 107.262 83.6094C107.678 83.362 108.173 83.2383 108.746 83.2383C108.876 83.2383 109.026 83.2546 109.195 83.2871C109.365 83.3132 109.482 83.3424 109.547 83.375ZM113.033 79V94H111.217V79H113.033ZM119.488 83.4336L114.879 88.3652L112.301 91.041L112.154 89.1172L114 86.9102L117.281 83.4336H119.488ZM117.838 94L114.068 88.9609L115.006 87.3496L119.967 94H117.838ZM127.506 91.1973C127.506 90.9368 127.447 90.696 127.33 90.4746C127.219 90.2467 126.988 90.0417 126.637 89.8594C126.292 89.6706 125.771 89.5078 125.074 89.3711C124.488 89.2474 123.958 89.1009 123.482 88.9316C123.014 88.7624 122.613 88.5573 122.281 88.3164C121.956 88.0755 121.705 87.7923 121.529 87.4668C121.354 87.1413 121.266 86.7604 121.266 86.3242C121.266 85.9076 121.357 85.5137 121.539 85.1426C121.728 84.7715 121.992 84.4427 122.33 84.1562C122.675 83.8698 123.089 83.6452 123.57 83.4824C124.052 83.3197 124.589 83.2383 125.182 83.2383C126.028 83.2383 126.751 83.388 127.35 83.6875C127.949 83.987 128.408 84.3874 128.727 84.8887C129.046 85.3835 129.205 85.9336 129.205 86.5391H127.398C127.398 86.2461 127.311 85.9629 127.135 85.6895C126.965 85.4095 126.715 85.1784 126.383 84.9961C126.057 84.8138 125.657 84.7227 125.182 84.7227C124.68 84.7227 124.273 84.8008 123.961 84.957C123.655 85.1068 123.43 85.2988 123.287 85.5332C123.15 85.7676 123.082 86.015 123.082 86.2754C123.082 86.4707 123.115 86.6465 123.18 86.8027C123.251 86.9525 123.375 87.0924 123.551 87.2227C123.727 87.3464 123.974 87.4635 124.293 87.5742C124.612 87.6849 125.019 87.7956 125.514 87.9062C126.38 88.1016 127.092 88.3359 127.652 88.6094C128.212 88.8828 128.629 89.2181 128.902 89.6152C129.176 90.0124 129.312 90.4941 129.312 91.0605C129.312 91.5228 129.215 91.946 129.02 92.3301C128.831 92.7142 128.554 93.0462 128.189 93.3262C127.831 93.5996 127.402 93.8145 126.9 93.9707C126.406 94.1204 125.849 94.1953 125.23 94.1953C124.299 94.1953 123.512 94.0293 122.867 93.6973C122.223 93.3652 121.734 92.9355 121.402 92.4082C121.07 91.8809 120.904 91.3242 120.904 90.7383H122.721C122.747 91.2331 122.89 91.627 123.15 91.9199C123.411 92.2064 123.73 92.4115 124.107 92.5352C124.485 92.6523 124.859 92.7109 125.23 92.7109C125.725 92.7109 126.139 92.6458 126.471 92.5156C126.809 92.3854 127.066 92.2064 127.242 91.9785C127.418 91.7507 127.506 91.4902 127.506 91.1973ZM137.916 92.1934V86.7539C137.916 86.3372 137.831 85.9759 137.662 85.6699C137.499 85.3574 137.252 85.1165 136.92 84.9473C136.588 84.778 136.178 84.6934 135.689 84.6934C135.234 84.6934 134.833 84.7715 134.488 84.9277C134.15 85.084 133.883 85.2891 133.688 85.543C133.499 85.7969 133.404 86.0703 133.404 86.3633H131.598C131.598 85.9857 131.695 85.6113 131.891 85.2402C132.086 84.8691 132.366 84.5339 132.73 84.2344C133.102 83.9284 133.544 83.6875 134.059 83.5117C134.579 83.3294 135.159 83.2383 135.797 83.2383C136.565 83.2383 137.242 83.3685 137.828 83.6289C138.421 83.8893 138.883 84.2832 139.215 84.8105C139.553 85.3314 139.723 85.9857 139.723 86.7734V91.6953C139.723 92.0469 139.752 92.4212 139.811 92.8184C139.876 93.2155 139.97 93.5573 140.094 93.8438V94H138.209C138.118 93.7917 138.046 93.515 137.994 93.1699C137.942 92.8184 137.916 92.4928 137.916 92.1934ZM138.229 87.5938L138.248 88.8633H136.422C135.908 88.8633 135.449 88.9056 135.045 88.9902C134.641 89.0684 134.303 89.1888 134.029 89.3516C133.756 89.5143 133.548 89.7194 133.404 89.9668C133.261 90.2077 133.189 90.4909 133.189 90.8164C133.189 91.1484 133.264 91.4512 133.414 91.7246C133.564 91.998 133.788 92.2161 134.088 92.3789C134.394 92.5352 134.768 92.6133 135.211 92.6133C135.764 92.6133 136.253 92.4961 136.676 92.2617C137.099 92.0273 137.434 91.7409 137.682 91.4023C137.936 91.0638 138.072 90.735 138.092 90.416L138.863 91.2852C138.818 91.5586 138.694 91.8613 138.492 92.1934C138.29 92.5254 138.02 92.8444 137.682 93.1504C137.35 93.4499 136.952 93.7005 136.49 93.9023C136.035 94.0977 135.52 94.1953 134.947 94.1953C134.231 94.1953 133.603 94.0553 133.062 93.7754C132.529 93.4954 132.112 93.1211 131.812 92.6523C131.52 92.1771 131.373 91.6465 131.373 91.0605C131.373 90.4941 131.484 89.9961 131.705 89.5664C131.926 89.1302 132.245 88.7689 132.662 88.4824C133.079 88.1895 133.58 87.9681 134.166 87.8184C134.752 87.6686 135.406 87.5938 136.129 87.5938H138.229ZM144.361 85.5332V94H142.545V83.4336H144.264L144.361 85.5332ZM143.99 88.3164L143.15 88.2871C143.157 87.5645 143.251 86.8971 143.434 86.2852C143.616 85.6667 143.886 85.1296 144.244 84.6738C144.602 84.2181 145.048 83.8665 145.582 83.6191C146.116 83.3652 146.734 83.2383 147.438 83.2383C147.932 83.2383 148.388 83.3099 148.805 83.4531C149.221 83.5898 149.583 83.8079 149.889 84.1074C150.195 84.4069 150.432 84.791 150.602 85.2598C150.771 85.7285 150.855 86.2949 150.855 86.959V94H149.049V87.0469C149.049 86.4935 148.954 86.0508 148.766 85.7188C148.583 85.3867 148.323 85.1458 147.984 84.9961C147.646 84.8398 147.249 84.7617 146.793 84.7617C146.259 84.7617 145.813 84.8561 145.455 85.0449C145.097 85.2337 144.811 85.4941 144.596 85.8262C144.381 86.1582 144.225 86.5391 144.127 86.9688C144.036 87.3919 143.99 87.8411 143.99 88.3164ZM150.836 87.3203L149.625 87.6914C149.632 87.112 149.726 86.5553 149.908 86.0215C150.097 85.4876 150.367 85.0124 150.719 84.5957C151.077 84.179 151.516 83.8503 152.037 83.6094C152.558 83.362 153.154 83.2383 153.824 83.2383C154.391 83.2383 154.892 83.3132 155.328 83.4629C155.771 83.6126 156.142 83.8438 156.441 84.1562C156.747 84.4622 156.979 84.8561 157.135 85.3379C157.291 85.8197 157.369 86.3926 157.369 87.0566V94H155.553V87.0371C155.553 86.4447 155.458 85.9857 155.27 85.6602C155.087 85.3281 154.827 85.097 154.488 84.9668C154.156 84.8301 153.759 84.7617 153.297 84.7617C152.9 84.7617 152.548 84.8301 152.242 84.9668C151.936 85.1035 151.679 85.2923 151.471 85.5332C151.262 85.7676 151.103 86.0378 150.992 86.3438C150.888 86.6497 150.836 86.9753 150.836 87.3203ZM161.92 79V94H160.104V79H161.92ZM168.375 83.4336L163.766 88.3652L161.188 91.041L161.041 89.1172L162.887 86.9102L166.168 83.4336H168.375ZM166.725 94L162.955 88.9609L163.893 87.3496L168.854 94H166.725ZM174.43 94.1953C173.694 94.1953 173.027 94.0716 172.428 93.8242C171.835 93.5703 171.324 93.2155 170.895 92.7598C170.471 92.304 170.146 91.7637 169.918 91.1387C169.69 90.5137 169.576 89.8301 169.576 89.0879V88.6777C169.576 87.8184 169.703 87.0534 169.957 86.3828C170.211 85.7057 170.556 85.1328 170.992 84.6641C171.428 84.1953 171.923 83.8405 172.477 83.5996C173.03 83.3587 173.603 83.2383 174.195 83.2383C174.951 83.2383 175.602 83.3685 176.148 83.6289C176.702 83.8893 177.154 84.2539 177.506 84.7227C177.857 85.1849 178.118 85.7318 178.287 86.3633C178.456 86.9883 178.541 87.6719 178.541 88.4141V89.2246H170.65V87.75H176.734V87.6133C176.708 87.1445 176.611 86.6888 176.441 86.2461C176.279 85.8034 176.018 85.4388 175.66 85.1523C175.302 84.8659 174.814 84.7227 174.195 84.7227C173.785 84.7227 173.408 84.8105 173.062 84.9863C172.717 85.1556 172.421 85.4095 172.174 85.748C171.926 86.0866 171.734 86.5 171.598 86.9883C171.461 87.4766 171.393 88.0397 171.393 88.6777V89.0879C171.393 89.5892 171.461 90.0612 171.598 90.5039C171.741 90.9401 171.946 91.3242 172.213 91.6562C172.486 91.9883 172.815 92.2487 173.199 92.4375C173.59 92.6263 174.033 92.7207 174.527 92.7207C175.165 92.7207 175.706 92.5905 176.148 92.3301C176.591 92.0697 176.979 91.7214 177.311 91.2852L178.404 92.1543C178.176 92.4993 177.887 92.8281 177.535 93.1406C177.184 93.4531 176.751 93.707 176.236 93.9023C175.729 94.0977 175.126 94.1953 174.43 94.1953ZM182.613 83.4336V94H180.797V83.4336H182.613ZM180.66 80.6309C180.66 80.3379 180.748 80.0905 180.924 79.8887C181.106 79.6868 181.373 79.5859 181.725 79.5859C182.07 79.5859 182.333 79.6868 182.516 79.8887C182.704 80.0905 182.799 80.3379 182.799 80.6309C182.799 80.9108 182.704 81.1517 182.516 81.3535C182.333 81.5488 182.07 81.6465 181.725 81.6465C181.373 81.6465 181.106 81.5488 180.924 81.3535C180.748 81.1517 180.66 80.9108 180.66 80.6309ZM189.938 83.4336V84.8203H184.225V83.4336H189.938ZM186.158 80.8652H187.965V91.3828C187.965 91.7409 188.02 92.0111 188.131 92.1934C188.242 92.3757 188.385 92.4961 188.561 92.5547C188.736 92.6133 188.925 92.6426 189.127 92.6426C189.277 92.6426 189.433 92.6296 189.596 92.6035C189.765 92.571 189.892 92.5449 189.977 92.5254L189.986 94C189.843 94.0456 189.654 94.0879 189.42 94.127C189.192 94.1725 188.915 94.1953 188.59 94.1953C188.147 94.1953 187.74 94.1074 187.369 93.9316C186.998 93.7559 186.702 93.4629 186.48 93.0527C186.266 92.6361 186.158 92.0762 186.158 91.373V80.8652ZM203.17 91.1973C203.17 90.9368 203.111 90.696 202.994 90.4746C202.883 90.2467 202.652 90.0417 202.301 89.8594C201.956 89.6706 201.435 89.5078 200.738 89.3711C200.152 89.2474 199.622 89.1009 199.146 88.9316C198.678 88.7624 198.277 88.5573 197.945 88.3164C197.62 88.0755 197.369 87.7923 197.193 87.4668C197.018 87.1413 196.93 86.7604 196.93 86.3242C196.93 85.9076 197.021 85.5137 197.203 85.1426C197.392 84.7715 197.656 84.4427 197.994 84.1562C198.339 83.8698 198.753 83.6452 199.234 83.4824C199.716 83.3197 200.253 83.2383 200.846 83.2383C201.692 83.2383 202.415 83.388 203.014 83.6875C203.613 83.987 204.072 84.3874 204.391 84.8887C204.71 85.3835 204.869 85.9336 204.869 86.5391H203.062C203.062 86.2461 202.975 85.9629 202.799 85.6895C202.63 85.4095 202.379 85.1784 202.047 84.9961C201.721 84.8138 201.321 84.7227 200.846 84.7227C200.344 84.7227 199.938 84.8008 199.625 84.957C199.319 85.1068 199.094 85.2988 198.951 85.5332C198.814 85.7676 198.746 86.015 198.746 86.2754C198.746 86.4707 198.779 86.6465 198.844 86.8027C198.915 86.9525 199.039 87.0924 199.215 87.2227C199.391 87.3464 199.638 87.4635 199.957 87.5742C200.276 87.6849 200.683 87.7956 201.178 87.9062C202.044 88.1016 202.757 88.3359 203.316 88.6094C203.876 88.8828 204.293 89.2181 204.566 89.6152C204.84 90.0124 204.977 90.4941 204.977 91.0605C204.977 91.5228 204.879 91.946 204.684 92.3301C204.495 92.7142 204.218 93.0462 203.854 93.3262C203.495 93.5996 203.066 93.8145 202.564 93.9707C202.07 94.1204 201.513 94.1953 200.895 94.1953C199.964 94.1953 199.176 94.0293 198.531 93.6973C197.887 93.3652 197.398 92.9355 197.066 92.4082C196.734 91.8809 196.568 91.3242 196.568 90.7383H198.385C198.411 91.2331 198.554 91.627 198.814 91.9199C199.075 92.2064 199.394 92.4115 199.771 92.5352C200.149 92.6523 200.523 92.7109 200.895 92.7109C201.389 92.7109 201.803 92.6458 202.135 92.5156C202.473 92.3854 202.73 92.2064 202.906 91.9785C203.082 91.7507 203.17 91.4902 203.17 91.1973ZM211.773 83.4336V84.8203H206.061V83.4336H211.773ZM207.994 80.8652H209.801V91.3828C209.801 91.7409 209.856 92.0111 209.967 92.1934C210.077 92.3757 210.221 92.4961 210.396 92.5547C210.572 92.6133 210.761 92.6426 210.963 92.6426C211.113 92.6426 211.269 92.6296 211.432 92.6035C211.601 92.571 211.728 92.5449 211.812 92.5254L211.822 94C211.679 94.0456 211.49 94.0879 211.256 94.127C211.028 94.1725 210.751 94.1953 210.426 94.1953C209.983 94.1953 209.576 94.1074 209.205 93.9316C208.834 93.7559 208.538 93.4629 208.316 93.0527C208.102 92.6361 207.994 92.0762 207.994 91.373V80.8652ZM218.277 94.1953C217.542 94.1953 216.874 94.0716 216.275 93.8242C215.683 93.5703 215.172 93.2155 214.742 92.7598C214.319 92.304 213.993 91.7637 213.766 91.1387C213.538 90.5137 213.424 89.8301 213.424 89.0879V88.6777C213.424 87.8184 213.551 87.0534 213.805 86.3828C214.059 85.7057 214.404 85.1328 214.84 84.6641C215.276 84.1953 215.771 83.8405 216.324 83.5996C216.878 83.3587 217.451 83.2383 218.043 83.2383C218.798 83.2383 219.449 83.3685 219.996 83.6289C220.549 83.8893 221.002 84.2539 221.354 84.7227C221.705 85.1849 221.965 85.7318 222.135 86.3633C222.304 86.9883 222.389 87.6719 222.389 88.4141V89.2246H214.498V87.75H220.582V87.6133C220.556 87.1445 220.458 86.6888 220.289 86.2461C220.126 85.8034 219.866 85.4388 219.508 85.1523C219.15 84.8659 218.661 84.7227 218.043 84.7227C217.633 84.7227 217.255 84.8105 216.91 84.9863C216.565 85.1556 216.269 85.4095 216.021 85.748C215.774 86.0866 215.582 86.5 215.445 86.9883C215.309 87.4766 215.24 88.0397 215.24 88.6777V89.0879C215.24 89.5892 215.309 90.0612 215.445 90.5039C215.589 90.9401 215.794 91.3242 216.061 91.6562C216.334 91.9883 216.663 92.2487 217.047 92.4375C217.438 92.6263 217.88 92.7207 218.375 92.7207C219.013 92.7207 219.553 92.5905 219.996 92.3301C220.439 92.0697 220.826 91.7214 221.158 91.2852L222.252 92.1543C222.024 92.4993 221.734 92.8281 221.383 93.1406C221.031 93.4531 220.598 93.707 220.084 93.9023C219.576 94.0977 218.974 94.1953 218.277 94.1953ZM226.461 83.4336V94H224.645V83.4336H226.461ZM224.508 80.6309C224.508 80.3379 224.596 80.0905 224.771 79.8887C224.954 79.6868 225.221 79.5859 225.572 79.5859C225.917 79.5859 226.181 79.6868 226.363 79.8887C226.552 80.0905 226.646 80.3379 226.646 80.6309C226.646 80.9108 226.552 81.1517 226.363 81.3535C226.181 81.5488 225.917 81.6465 225.572 81.6465C225.221 81.6465 224.954 81.5488 224.771 81.3535C224.596 81.1517 224.508 80.9108 224.508 80.6309ZM236.207 83.4336H237.848V93.7754C237.848 94.7064 237.659 95.5007 237.281 96.1582C236.904 96.8158 236.376 97.3138 235.699 97.6523C235.029 97.9974 234.254 98.1699 233.375 98.1699C233.01 98.1699 232.581 98.1113 232.086 97.9941C231.598 97.8835 231.116 97.6914 230.641 97.418C230.172 97.151 229.778 96.7897 229.459 96.334L230.406 95.2598C230.849 95.7936 231.311 96.1647 231.793 96.373C232.281 96.5814 232.763 96.6855 233.238 96.6855C233.811 96.6855 234.306 96.5781 234.723 96.3633C235.139 96.1484 235.462 95.8294 235.689 95.4062C235.924 94.9896 236.041 94.4753 236.041 93.8633V85.7578L236.207 83.4336ZM228.932 88.834V88.6289C228.932 87.8216 229.026 87.0892 229.215 86.4316C229.41 85.7676 229.687 85.1979 230.045 84.7227C230.41 84.2474 230.849 83.8828 231.363 83.6289C231.878 83.3685 232.457 83.2383 233.102 83.2383C233.766 83.2383 234.345 83.3555 234.84 83.5898C235.341 83.8177 235.764 84.153 236.109 84.5957C236.461 85.0319 236.738 85.5592 236.939 86.1777C237.141 86.7962 237.281 87.4961 237.359 88.2773V89.1758C237.288 89.9505 237.148 90.6471 236.939 91.2656C236.738 91.8841 236.461 92.4115 236.109 92.8477C235.764 93.2839 235.341 93.6191 234.84 93.8535C234.339 94.0814 233.753 94.1953 233.082 94.1953C232.451 94.1953 231.878 94.0618 231.363 93.7949C230.855 93.528 230.419 93.1536 230.055 92.6719C229.69 92.1901 229.41 91.6237 229.215 90.9727C229.026 90.3151 228.932 89.6022 228.932 88.834ZM230.738 88.6289V88.834C230.738 89.3613 230.79 89.8561 230.895 90.3184C231.005 90.7806 231.171 91.1875 231.393 91.5391C231.62 91.8906 231.91 92.1673 232.262 92.3691C232.613 92.5645 233.033 92.6621 233.521 92.6621C234.12 92.6621 234.615 92.5352 235.006 92.2812C235.396 92.0273 235.706 91.6921 235.934 91.2754C236.168 90.8587 236.35 90.4062 236.48 89.918V87.5645C236.409 87.2064 236.298 86.8613 236.148 86.5293C236.005 86.1908 235.816 85.8913 235.582 85.6309C235.354 85.3639 235.071 85.1523 234.732 84.9961C234.394 84.8398 233.997 84.7617 233.541 84.7617C233.046 84.7617 232.62 84.8659 232.262 85.0742C231.91 85.276 231.62 85.556 231.393 85.9141C231.171 86.2656 231.005 86.6758 230.895 87.1445C230.79 87.6068 230.738 88.1016 230.738 88.6289ZM244.977 94.1953C244.241 94.1953 243.574 94.0716 242.975 93.8242C242.382 93.5703 241.871 93.2155 241.441 92.7598C241.018 92.304 240.693 91.7637 240.465 91.1387C240.237 90.5137 240.123 89.8301 240.123 89.0879V88.6777C240.123 87.8184 240.25 87.0534 240.504 86.3828C240.758 85.7057 241.103 85.1328 241.539 84.6641C241.975 84.1953 242.47 83.8405 243.023 83.5996C243.577 83.3587 244.15 83.2383 244.742 83.2383C245.497 83.2383 246.148 83.3685 246.695 83.6289C247.249 83.8893 247.701 84.2539 248.053 84.7227C248.404 85.1849 248.665 85.7318 248.834 86.3633C249.003 86.9883 249.088 87.6719 249.088 88.4141V89.2246H241.197V87.75H247.281V87.6133C247.255 87.1445 247.158 86.6888 246.988 86.2461C246.826 85.8034 246.565 85.4388 246.207 85.1523C245.849 84.8659 245.361 84.7227 244.742 84.7227C244.332 84.7227 243.954 84.8105 243.609 84.9863C243.264 85.1556 242.968 85.4095 242.721 85.748C242.473 86.0866 242.281 86.5 242.145 86.9883C242.008 87.4766 241.939 88.0397 241.939 88.6777V89.0879C241.939 89.5892 242.008 90.0612 242.145 90.5039C242.288 90.9401 242.493 91.3242 242.76 91.6562C243.033 91.9883 243.362 92.2487 243.746 92.4375C244.137 92.6263 244.579 92.7207 245.074 92.7207C245.712 92.7207 246.253 92.5905 246.695 92.3301C247.138 92.0697 247.525 91.7214 247.857 91.2852L248.951 92.1543C248.723 92.4993 248.434 92.8281 248.082 93.1406C247.73 93.4531 247.298 93.707 246.783 93.9023C246.275 94.0977 245.673 94.1953 244.977 94.1953ZM253.004 85.0938V94H251.197V83.4336H252.955L253.004 85.0938ZM256.305 83.375L256.295 85.0547C256.145 85.0221 256.002 85.0026 255.865 84.9961C255.735 84.9831 255.585 84.9766 255.416 84.9766C254.999 84.9766 254.632 85.0417 254.312 85.1719C253.993 85.3021 253.723 85.4844 253.502 85.7188C253.281 85.9531 253.105 86.2331 252.975 86.5586C252.851 86.8776 252.77 87.2292 252.73 87.6133L252.223 87.9062C252.223 87.2682 252.285 86.6693 252.408 86.1094C252.538 85.5495 252.737 85.0547 253.004 84.625C253.271 84.1888 253.609 83.8503 254.02 83.6094C254.436 83.362 254.931 83.2383 255.504 83.2383C255.634 83.2383 255.784 83.2546 255.953 83.2871C256.122 83.3132 256.24 83.3424 256.305 83.375ZM262.887 83.4336V84.8203H257.174V83.4336H262.887ZM259.107 80.8652H260.914V91.3828C260.914 91.7409 260.969 92.0111 261.08 92.1934C261.191 92.3757 261.334 92.4961 261.51 92.5547C261.686 92.6133 261.874 92.6426 262.076 92.6426C262.226 92.6426 262.382 92.6296 262.545 92.6035C262.714 92.571 262.841 92.5449 262.926 92.5254L262.936 94C262.792 94.0456 262.604 94.0879 262.369 94.127C262.141 94.1725 261.865 94.1953 261.539 94.1953C261.096 94.1953 260.689 94.1074 260.318 93.9316C259.947 93.7559 259.651 93.4629 259.43 93.0527C259.215 92.6361 259.107 92.0762 259.107 91.373V80.8652ZM265.035 93.043C265.035 92.737 265.13 92.4798 265.318 92.2715C265.514 92.0566 265.794 91.9492 266.158 91.9492C266.523 91.9492 266.799 92.0566 266.988 92.2715C267.184 92.4798 267.281 92.737 267.281 93.043C267.281 93.3424 267.184 93.5964 266.988 93.8047C266.799 94.013 266.523 94.1172 266.158 94.1172C265.794 94.1172 265.514 94.013 265.318 93.8047C265.13 93.5964 265.035 93.3424 265.035 93.043ZM270.562 79V80.25C270.562 80.6406 270.494 81.054 270.357 81.4902C270.227 81.9199 270.035 82.3366 269.781 82.7402C269.527 83.1374 269.221 83.4857 268.863 83.7852L267.828 83.0723C268.134 82.6426 268.365 82.2031 268.521 81.7539C268.684 81.2982 268.766 80.8066 268.766 80.2793V79H270.562ZM273.561 79V80.25C273.561 80.6406 273.492 81.054 273.355 81.4902C273.225 81.9199 273.033 82.3366 272.779 82.7402C272.525 83.1374 272.219 83.4857 271.861 83.7852L270.826 83.0723C271.132 82.6426 271.363 82.2031 271.52 81.7539C271.682 81.2982 271.764 80.8066 271.764 80.2793V79H273.561Z" fill="#F9F9F9"/>
<path d="M364 119H321C321 119 332.04 124.008 334.912 130.455C337.538 136.351 334.912 147 334.912 147L364 119Z" fill="#D35D6E" stroke="#D35D6E"/>
<path d="M358.121 73.347L357.853 73.2751C356.108 71.0374 340.788 51.418 342.621 55.3386C343.7 57.6462 342.139 61.6967 340.535 64.8456C335.545 58.5371 327.735 48.8453 329.074 51.7086C330.153 54.0161 328.591 58.0665 326.988 61.2161C321.998 54.9078 314.187 45.2152 315.526 48.0785C316.605 50.386 315.044 54.4366 313.44 57.5856C308.45 51.2771 300.639 41.5851 301.979 44.4484C303.923 48.6043 297.131 57.0048 297.131 57.0048C296.842 57.7972 296.577 58.6045 296.354 59.4346C292.045 75.5169 302.257 92.2275 319.163 96.7576C336.07 101.288 353.269 91.9222 357.578 75.8394C357.801 75.0094 357.975 74.1778 358.121 73.347Z" fill="#F9F9F9" fill-opacity="0.5"/>
<path d="M356.569 79.138L356.301 79.0661C354.557 76.8284 339.236 57.209 341.07 61.1296C342.149 63.4366 340.587 67.4877 338.984 70.6366C333.994 64.3276 326.183 54.6358 327.522 57.4996C328.601 59.8066 327.039 63.8575 325.436 67.0071C320.446 60.6983 312.635 51.0056 313.975 53.8696C315.053 56.1764 313.492 60.2276 311.889 63.3766C306.899 57.0676 299.088 47.3756 300.427 50.2394C302.371 54.3953 295.579 62.7958 295.579 62.7958C295.29 63.5877 295.025 64.3955 294.803 65.2251C290.493 81.3079 300.705 98.018 317.611 102.548C334.518 107.078 351.717 97.7132 356.026 81.6298C356.249 80.8004 356.424 79.9683 356.569 79.138Z" fill="#F9F9F9"/>
<path d="M318.248 90.9899C318.248 90.9899 323.772 96.1821 327.943 90.1237" stroke="#D35D6E" stroke-width="2.5" stroke-miterlimit="10"/>
<path d="M310.613 72.0149C311.109 72.0586 311.588 72.2163 312.013 72.4764C312.439 72.7365 312.801 73.0923 313.073 73.5177L313.088 73.5412L313.11 73.5295C313.537 73.3107 314.003 73.1871 314.476 73.1671C314.95 73.147 315.421 73.2309 315.858 73.4132L315.984 73.4684C316.528 73.7231 316.992 74.1251 317.328 74.632C317.663 75.1389 317.858 75.7318 317.891 76.3478C317.924 76.9638 317.793 77.5801 317.514 78.1313C317.235 78.6825 316.817 79.1482 316.304 79.479L316.18 79.5554L316.149 79.5712L311.067 82.5781C310.95 82.6474 310.813 82.6711 310.682 82.6448C310.55 82.6185 310.433 82.544 310.352 82.435L310.314 82.3762L307.4 77.2015C307.089 76.661 306.932 76.0404 306.945 75.4084C306.957 74.7763 307.14 74.1575 307.473 73.6206C307.805 73.0836 308.275 72.6493 308.829 72.3659C309.383 72.0825 310.001 71.961 310.613 72.0149Z" fill="#D35D6E"/>
<path d="M333.011 77.1963C333.508 77.24 333.986 77.3977 334.412 77.6578C334.838 77.9179 335.2 78.2738 335.471 78.6991L335.486 78.7227L335.509 78.711C335.935 78.4921 336.401 78.3686 336.875 78.3485C337.349 78.3285 337.82 78.4124 338.256 78.5946L338.383 78.6498C338.926 78.9045 339.391 79.3066 339.726 79.8135C340.062 80.3204 340.257 80.9132 340.289 81.5293C340.322 82.1453 340.192 82.7615 339.913 83.3128C339.633 83.864 339.215 84.3297 338.703 84.6605L338.579 84.7369L338.547 84.7526L333.466 87.7596C333.349 87.8289 333.212 87.8526 333.08 87.8263C332.949 87.8 332.832 87.7254 332.751 87.6165L332.713 87.5577L329.799 82.383C329.488 81.8425 329.33 81.2219 329.343 80.5898C329.356 79.9578 329.539 79.339 329.871 78.802C330.204 78.265 330.673 77.8308 331.228 77.5474C331.782 77.264 332.399 77.1425 333.011 77.1963Z" fill="#D35D6E"/>
<path d="M320.791 38.6285C321.074 38.6562 321.348 38.7454 321.593 38.8895C321.837 39.0336 322.046 39.229 322.204 39.4612L322.213 39.4741L322.226 39.468C322.467 39.3532 322.731 39.2902 323 39.2833C323.27 39.2763 323.539 39.3256 323.789 39.4277L323.861 39.4586C324.173 39.6008 324.44 39.822 324.635 40.0988C324.831 40.3757 324.946 40.6978 324.97 41.0311C324.994 41.3645 324.925 41.6966 324.77 41.9923C324.616 42.288 324.382 42.5364 324.093 42.711L324.023 42.7513L324.005 42.7595L321.137 44.3434C321.071 44.3799 320.993 44.3916 320.918 44.3763C320.843 44.361 320.776 44.3197 320.729 44.2602L320.707 44.2281L319.006 41.4063C318.824 41.1115 318.729 40.7746 318.731 40.433C318.734 40.0914 318.833 39.7583 319.017 39.4707C319.202 39.1831 319.466 38.9522 319.779 38.8036C320.092 38.6549 320.443 38.5943 320.791 38.6285Z" fill="#F9F9F9"/>
<path d="M331.23 34.8714C331.584 34.9044 331.926 35.0165 332.231 35.1992C332.536 35.382 332.796 35.6309 332.992 35.9275L333.003 35.9439L333.019 35.9359C333.322 35.7865 333.653 35.7033 333.991 35.692C334.328 35.6807 334.664 35.7415 334.977 35.8703L335.067 35.9093C335.456 36.089 335.789 36.3705 336.031 36.724C336.273 37.0775 336.415 37.4899 336.442 37.9175C336.469 38.345 336.379 38.7719 336.183 39.1527C335.987 39.5336 335.692 39.8544 335.328 40.0811L335.24 40.1334L335.218 40.1442L331.612 42.2024C331.529 42.2499 331.431 42.2656 331.338 42.2466C331.244 42.2276 331.16 42.1753 331.102 42.0992L331.074 42.0582L328.969 38.4521C328.744 38.0754 328.628 37.644 328.634 37.2056C328.64 36.7671 328.767 36.3388 329.001 35.9681C329.235 35.5974 329.567 35.2987 329.961 35.1051C330.354 34.9116 330.793 34.8307 331.23 34.8714Z" fill="#F9F9F9"/>
<path d="M332.801 44.3149C333.155 44.3479 333.497 44.4599 333.802 44.6427C334.107 44.8255 334.367 45.0744 334.563 45.371L334.574 45.3874L334.59 45.3794C334.893 45.2299 335.224 45.1468 335.561 45.1355C335.899 45.1242 336.235 45.185 336.547 45.3138L336.638 45.3528C337.027 45.5325 337.36 45.814 337.602 46.1675C337.844 46.521 337.986 46.9334 338.013 47.3609C338.039 47.7885 337.95 48.2153 337.754 48.5962C337.558 48.9771 337.263 49.2979 336.899 49.5246L336.811 49.5769L336.789 49.5877L333.183 51.6459C333.1 51.6934 333.002 51.7091 332.909 51.6901C332.815 51.6711 332.731 51.6188 332.673 51.5427L332.645 51.5017L330.54 47.8956C330.315 47.5189 330.199 47.0875 330.205 46.649C330.211 46.2106 330.338 45.7823 330.572 45.4116C330.806 45.0409 331.138 44.7422 331.532 44.5486C331.925 44.355 332.364 44.2741 332.801 44.3149Z" fill="#F9F9F9"/>
<path d="M324.553 32.2464C324.765 32.2688 324.97 32.3352 325.154 32.4407C325.338 32.5462 325.496 32.6881 325.617 32.8559L325.623 32.8652L325.633 32.8609C325.812 32.7808 326.009 32.738 326.21 32.7354C326.412 32.7329 326.613 32.7706 326.801 32.846L326.855 32.8688C327.089 32.9735 327.291 33.1344 327.44 33.3345C327.588 33.5347 327.678 33.7666 327.698 34.0057C327.719 34.2448 327.671 34.4822 327.558 34.6928C327.445 34.9033 327.272 35.0792 327.058 35.2018L327.006 35.23L326.992 35.2358L324.863 36.3453C324.814 36.3709 324.755 36.3786 324.699 36.3669C324.643 36.3553 324.592 36.3251 324.557 36.282L324.54 36.2588L323.243 34.2213C323.105 34.0084 323.031 33.7661 323.029 33.5213C323.028 33.2765 323.099 33.0387 323.234 32.8342C323.37 32.6298 323.565 32.4666 323.798 32.3629C324.03 32.2592 324.292 32.2188 324.553 32.2464Z" fill="#F9F9F9"/>
<path d="M340.909 42.3747C341.157 42.3998 341.396 42.4776 341.611 42.6024C341.825 42.7272 342.008 42.8958 342.147 43.0958L342.155 43.1069L342.166 43.1017C342.376 43.0042 342.607 42.9514 342.842 42.9466C343.078 42.9419 343.313 42.9853 343.532 43.0741L343.595 43.1009C343.868 43.2244 344.103 43.4155 344.275 43.6539C344.447 43.8924 344.549 44.1694 344.571 44.4557C344.594 44.7419 344.535 45.0266 344.401 45.2798C344.267 45.5329 344.064 45.745 343.812 45.8937L343.751 45.9279L343.736 45.9349L341.237 47.2816C341.179 47.3127 341.112 47.3224 341.046 47.3089C340.98 47.2954 340.921 47.2597 340.88 47.2083L340.86 47.1807L339.361 44.751C339.202 44.4972 339.117 44.2076 339.117 43.9144C339.118 43.6212 339.203 43.3358 339.363 43.0897C339.523 42.8437 339.753 42.6467 340.026 42.5205C340.298 42.3943 340.604 42.3438 340.909 42.3747Z" fill="#F9F9F9"/>
</svg>
