<svg width="400" height="150" viewBox="0 0 400 150" fill="none" xmlns="http://www.w3.org/2000/svg">
<rect x="17" y="10" width="365" height="114" rx="30" fill="#A29BFE"/>
<path d="M45.0254 37.5215V36.3398C45.0254 35.9427 45.0905 35.5293 45.2207 35.0996C45.3574 34.6634 45.5527 34.2467 45.8066 33.8496C46.0605 33.446 46.3665 33.0977 46.7246 32.8047L47.75 33.5176C47.4505 33.9473 47.2194 34.39 47.0566 34.8457C46.8939 35.2949 46.8125 35.7832 46.8125 36.3105V37.5215H45.0254ZM48.1016 37.5215V36.3398C48.1016 35.9427 48.1667 35.5293 48.2969 35.0996C48.4336 34.6634 48.6289 34.2467 48.8828 33.8496C49.1367 33.446 49.4427 33.0977 49.8008 32.8047L50.8262 33.5176C50.5267 33.9473 50.2956 34.39 50.1328 34.8457C49.9701 35.2949 49.8887 35.7832 49.8887 36.3105V37.5215H48.1016ZM53.3164 33.7812H55.1426L59.8008 45.373L64.4492 33.7812H66.2852L60.5039 48H59.0781L53.3164 33.7812ZM52.7207 33.7812H54.332L54.5957 42.4531V48H52.7207V33.7812ZM65.2598 33.7812H66.8711V48H64.9961V42.4531L65.2598 33.7812ZM74.293 48.1953C73.5573 48.1953 72.89 48.0716 72.291 47.8242C71.6986 47.5703 71.1875 47.2155 70.7578 46.7598C70.3346 46.304 70.0091 45.7637 69.7812 45.1387C69.5534 44.5137 69.4395 43.8301 69.4395 43.0879V42.6777C69.4395 41.8184 69.5664 41.0534 69.8203 40.3828C70.0742 39.7057 70.4193 39.1328 70.8555 38.6641C71.2917 38.1953 71.7865 37.8405 72.3398 37.5996C72.8932 37.3587 73.4661 37.2383 74.0586 37.2383C74.8138 37.2383 75.4648 37.3685 76.0117 37.6289C76.5651 37.8893 77.0176 38.2539 77.3691 38.7227C77.7207 39.1849 77.9811 39.7318 78.1504 40.3633C78.3197 40.9883 78.4043 41.6719 78.4043 42.4141V43.2246H70.5137V41.75H76.5977V41.6133C76.5716 41.1445 76.474 40.6888 76.3047 40.2461C76.1419 39.8034 75.8815 39.4388 75.5234 39.1523C75.1654 38.8659 74.6771 38.7227 74.0586 38.7227C73.6484 38.7227 73.2708 38.8105 72.9258 38.9863C72.5807 39.1556 72.2845 39.4095 72.0371 39.748C71.7897 40.0866 71.5977 40.5 71.4609 40.9883C71.3242 41.4766 71.2559 42.0397 71.2559 42.6777V43.0879C71.2559 43.5892 71.3242 44.0612 71.4609 44.5039C71.6042 44.9401 71.8092 45.3242 72.0762 45.6562C72.3496 45.9883 72.6784 46.2487 73.0625 46.4375C73.4531 46.6263 73.8958 46.7207 74.3906 46.7207C75.0286 46.7207 75.569 46.5905 76.0117 46.3301C76.4544 46.0697 76.8418 45.7214 77.1738 45.2852L78.2676 46.1543C78.0397 46.4993 77.75 46.8281 77.3984 47.1406C77.0469 47.4531 76.6139 47.707 76.0996 47.9023C75.5918 48.0977 74.9896 48.1953 74.293 48.1953ZM82.3203 39.6895V48H80.5137V37.4336H82.2227L82.3203 39.6895ZM81.8906 42.3164L81.1387 42.2871C81.1452 41.5645 81.2526 40.8971 81.4609 40.2852C81.6693 39.6667 81.9622 39.1296 82.3398 38.6738C82.7174 38.2181 83.1667 37.8665 83.6875 37.6191C84.2148 37.3652 84.7975 37.2383 85.4355 37.2383C85.9564 37.2383 86.4251 37.3099 86.8418 37.4531C87.2585 37.5898 87.6133 37.8112 87.9062 38.1172C88.2057 38.4232 88.4336 38.8203 88.5898 39.3086C88.7461 39.7904 88.8242 40.3796 88.8242 41.0762V48H87.0078V41.0566C87.0078 40.5033 86.9264 40.0605 86.7637 39.7285C86.6009 39.39 86.3633 39.1458 86.0508 38.9961C85.7383 38.8398 85.3542 38.7617 84.8984 38.7617C84.4492 38.7617 84.0391 38.8561 83.668 39.0449C83.3034 39.2337 82.9876 39.4941 82.7207 39.8262C82.4603 40.1582 82.2552 40.5391 82.1055 40.9688C81.9622 41.3919 81.8906 41.8411 81.8906 42.3164ZM97.7207 45.1973C97.7207 44.9368 97.6621 44.696 97.5449 44.4746C97.4342 44.2467 97.2031 44.0417 96.8516 43.8594C96.5065 43.6706 95.9857 43.5078 95.2891 43.3711C94.7031 43.2474 94.1725 43.1009 93.6973 42.9316C93.2285 42.7624 92.8281 42.5573 92.4961 42.3164C92.1706 42.0755 91.9199 41.7923 91.7441 41.4668C91.5684 41.1413 91.4805 40.7604 91.4805 40.3242C91.4805 39.9076 91.5716 39.5137 91.7539 39.1426C91.9427 38.7715 92.2064 38.4427 92.5449 38.1562C92.89 37.8698 93.3034 37.6452 93.7852 37.4824C94.2669 37.3197 94.804 37.2383 95.3965 37.2383C96.2428 37.2383 96.9655 37.388 97.5645 37.6875C98.1634 37.987 98.6224 38.3874 98.9414 38.8887C99.2604 39.3835 99.4199 39.9336 99.4199 40.5391H97.6133C97.6133 40.2461 97.5254 39.9629 97.3496 39.6895C97.1803 39.4095 96.9297 39.1784 96.5977 38.9961C96.2721 38.8138 95.8717 38.7227 95.3965 38.7227C94.8952 38.7227 94.4883 38.8008 94.1758 38.957C93.8698 39.1068 93.6452 39.2988 93.502 39.5332C93.3652 39.7676 93.2969 40.015 93.2969 40.2754C93.2969 40.4707 93.3294 40.6465 93.3945 40.8027C93.4661 40.9525 93.5898 41.0924 93.7656 41.2227C93.9414 41.3464 94.1888 41.4635 94.5078 41.5742C94.8268 41.6849 95.2337 41.7956 95.7285 41.9062C96.5944 42.1016 97.3073 42.3359 97.8672 42.6094C98.4271 42.8828 98.8438 43.2181 99.1172 43.6152C99.3906 44.0124 99.5273 44.4941 99.5273 45.0605C99.5273 45.5228 99.4297 45.946 99.2344 46.3301C99.0456 46.7142 98.7689 47.0462 98.4043 47.3262C98.0462 47.5996 97.6165 47.8145 97.1152 47.9707C96.6204 48.1204 96.0638 48.1953 95.4453 48.1953C94.5143 48.1953 93.7266 48.0293 93.082 47.6973C92.4375 47.3652 91.9492 46.9355 91.6172 46.4082C91.2852 45.8809 91.1191 45.3242 91.1191 44.7383H92.9355C92.9616 45.2331 93.1048 45.627 93.3652 45.9199C93.6257 46.2064 93.9447 46.4115 94.3223 46.5352C94.6999 46.6523 95.0742 46.7109 95.4453 46.7109C95.9401 46.7109 96.3535 46.6458 96.6855 46.5156C97.0241 46.3854 97.2812 46.2064 97.457 45.9785C97.6328 45.7507 97.7207 45.4902 97.7207 45.1973ZM106.129 46.7109C106.559 46.7109 106.956 46.623 107.32 46.4473C107.685 46.2715 107.984 46.0306 108.219 45.7246C108.453 45.4121 108.587 45.0573 108.619 44.6602H110.338C110.305 45.2852 110.094 45.8678 109.703 46.4082C109.319 46.9421 108.814 47.375 108.189 47.707C107.564 48.0326 106.878 48.1953 106.129 48.1953C105.335 48.1953 104.641 48.0553 104.049 47.7754C103.463 47.4954 102.975 47.1113 102.584 46.623C102.2 46.1348 101.91 45.5749 101.715 44.9434C101.526 44.3053 101.432 43.6315 101.432 42.9219V42.5117C101.432 41.8021 101.526 41.1315 101.715 40.5C101.91 39.862 102.2 39.2988 102.584 38.8105C102.975 38.3223 103.463 37.9382 104.049 37.6582C104.641 37.3783 105.335 37.2383 106.129 37.2383C106.956 37.2383 107.678 37.4076 108.297 37.7461C108.915 38.0781 109.4 38.5339 109.752 39.1133C110.11 39.6862 110.305 40.3372 110.338 41.0664H108.619C108.587 40.6302 108.463 40.2363 108.248 39.8848C108.04 39.5332 107.753 39.2533 107.389 39.0449C107.031 38.8301 106.611 38.7227 106.129 38.7227C105.576 38.7227 105.11 38.8333 104.732 39.0547C104.361 39.2695 104.065 39.5625 103.844 39.9336C103.629 40.2982 103.473 40.7051 103.375 41.1543C103.284 41.597 103.238 42.0495 103.238 42.5117V42.9219C103.238 43.3841 103.284 43.8398 103.375 44.2891C103.466 44.7383 103.619 45.1452 103.834 45.5098C104.055 45.8743 104.352 46.1673 104.723 46.3887C105.1 46.6035 105.569 46.7109 106.129 46.7109ZM114.176 33V48H112.369V33H114.176ZM113.746 42.3164L112.994 42.2871C113.001 41.5645 113.108 40.8971 113.316 40.2852C113.525 39.6667 113.818 39.1296 114.195 38.6738C114.573 38.2181 115.022 37.8665 115.543 37.6191C116.07 37.3652 116.653 37.2383 117.291 37.2383C117.812 37.2383 118.281 37.3099 118.697 37.4531C119.114 37.5898 119.469 37.8112 119.762 38.1172C120.061 38.4232 120.289 38.8203 120.445 39.3086C120.602 39.7904 120.68 40.3796 120.68 41.0762V48H118.863V41.0566C118.863 40.5033 118.782 40.0605 118.619 39.7285C118.456 39.39 118.219 39.1458 117.906 38.9961C117.594 38.8398 117.21 38.7617 116.754 38.7617C116.305 38.7617 115.895 38.8561 115.523 39.0449C115.159 39.2337 114.843 39.4941 114.576 39.8262C114.316 40.1582 114.111 40.5391 113.961 40.9688C113.818 41.3919 113.746 41.8411 113.746 42.3164ZM127.77 48.1953C127.034 48.1953 126.367 48.0716 125.768 47.8242C125.175 47.5703 124.664 47.2155 124.234 46.7598C123.811 46.304 123.486 45.7637 123.258 45.1387C123.03 44.5137 122.916 43.8301 122.916 43.0879V42.6777C122.916 41.8184 123.043 41.0534 123.297 40.3828C123.551 39.7057 123.896 39.1328 124.332 38.6641C124.768 38.1953 125.263 37.8405 125.816 37.5996C126.37 37.3587 126.943 37.2383 127.535 37.2383C128.29 37.2383 128.941 37.3685 129.488 37.6289C130.042 37.8893 130.494 38.2539 130.846 38.7227C131.197 39.1849 131.458 39.7318 131.627 40.3633C131.796 40.9883 131.881 41.6719 131.881 42.4141V43.2246H123.99V41.75H130.074V41.6133C130.048 41.1445 129.951 40.6888 129.781 40.2461C129.618 39.8034 129.358 39.4388 129 39.1523C128.642 38.8659 128.154 38.7227 127.535 38.7227C127.125 38.7227 126.747 38.8105 126.402 38.9863C126.057 39.1556 125.761 39.4095 125.514 39.748C125.266 40.0866 125.074 40.5 124.938 40.9883C124.801 41.4766 124.732 42.0397 124.732 42.6777V43.0879C124.732 43.5892 124.801 44.0612 124.938 44.5039C125.081 44.9401 125.286 45.3242 125.553 45.6562C125.826 45.9883 126.155 46.2487 126.539 46.4375C126.93 46.6263 127.372 46.7207 127.867 46.7207C128.505 46.7207 129.046 46.5905 129.488 46.3301C129.931 46.0697 130.318 45.7214 130.65 45.2852L131.744 46.1543C131.516 46.4993 131.227 46.8281 130.875 47.1406C130.523 47.4531 130.09 47.707 129.576 47.9023C129.068 48.0977 128.466 48.1953 127.77 48.1953ZM135.797 39.6895V48H133.99V37.4336H135.699L135.797 39.6895ZM135.367 42.3164L134.615 42.2871C134.622 41.5645 134.729 40.8971 134.938 40.2852C135.146 39.6667 135.439 39.1296 135.816 38.6738C136.194 38.2181 136.643 37.8665 137.164 37.6191C137.691 37.3652 138.274 37.2383 138.912 37.2383C139.433 37.2383 139.902 37.3099 140.318 37.4531C140.735 37.5898 141.09 37.8112 141.383 38.1172C141.682 38.4232 141.91 38.8203 142.066 39.3086C142.223 39.7904 142.301 40.3796 142.301 41.0762V48H140.484V41.0566C140.484 40.5033 140.403 40.0605 140.24 39.7285C140.077 39.39 139.84 39.1458 139.527 38.9961C139.215 38.8398 138.831 38.7617 138.375 38.7617C137.926 38.7617 137.516 38.8561 137.145 39.0449C136.78 39.2337 136.464 39.4941 136.197 39.8262C135.937 40.1582 135.732 40.5391 135.582 40.9688C135.439 41.3919 135.367 41.8411 135.367 42.3164ZM151.822 33V48H150.006V33H151.822ZM158.277 37.4336L153.668 42.3652L151.09 45.041L150.943 43.1172L152.789 40.9102L156.07 37.4336H158.277ZM156.627 48L152.857 42.9609L153.795 41.3496L158.756 48H156.627ZM159.664 42.834V42.6094C159.664 41.8477 159.775 41.1413 159.996 40.4902C160.217 39.8327 160.536 39.263 160.953 38.7812C161.37 38.293 161.874 37.9154 162.467 37.6484C163.059 37.375 163.723 37.2383 164.459 37.2383C165.201 37.2383 165.868 37.375 166.461 37.6484C167.06 37.9154 167.568 38.293 167.984 38.7812C168.408 39.263 168.73 39.8327 168.951 40.4902C169.173 41.1413 169.283 41.8477 169.283 42.6094V42.834C169.283 43.5957 169.173 44.3021 168.951 44.9531C168.73 45.6042 168.408 46.1738 167.984 46.6621C167.568 47.1439 167.063 47.5215 166.471 47.7949C165.885 48.0618 165.221 48.1953 164.479 48.1953C163.736 48.1953 163.069 48.0618 162.477 47.7949C161.884 47.5215 161.376 47.1439 160.953 46.6621C160.536 46.1738 160.217 45.6042 159.996 44.9531C159.775 44.3021 159.664 43.5957 159.664 42.834ZM161.471 42.6094V42.834C161.471 43.3613 161.533 43.8594 161.656 44.3281C161.78 44.7904 161.965 45.2005 162.213 45.5586C162.467 45.9167 162.783 46.1999 163.16 46.4082C163.538 46.61 163.977 46.7109 164.479 46.7109C164.973 46.7109 165.406 46.61 165.777 46.4082C166.155 46.1999 166.467 45.9167 166.715 45.5586C166.962 45.2005 167.148 44.7904 167.271 44.3281C167.402 43.8594 167.467 43.3613 167.467 42.834V42.6094C167.467 42.0885 167.402 41.597 167.271 41.1348C167.148 40.666 166.959 40.2526 166.705 39.8945C166.458 39.5299 166.145 39.2435 165.768 39.0352C165.396 38.8268 164.96 38.7227 164.459 38.7227C163.964 38.7227 163.528 38.8268 163.15 39.0352C162.779 39.2435 162.467 39.5299 162.213 39.8945C161.965 40.2526 161.78 40.666 161.656 41.1348C161.533 41.597 161.471 42.0885 161.471 42.6094ZM161.236 34.6113C161.236 34.3184 161.327 34.071 161.51 33.8691C161.692 33.6673 161.956 33.5664 162.301 33.5664C162.652 33.5664 162.919 33.6673 163.102 33.8691C163.284 34.071 163.375 34.3184 163.375 34.6113C163.375 34.8913 163.284 35.1322 163.102 35.334C162.919 35.5293 162.652 35.627 162.301 35.627C161.956 35.627 161.692 35.5293 161.51 35.334C161.327 35.1322 161.236 34.8913 161.236 34.6113ZM165.445 34.6309C165.445 34.3379 165.533 34.0905 165.709 33.8887C165.891 33.6868 166.158 33.5859 166.51 33.5859C166.855 33.5859 167.118 33.6868 167.301 33.8887C167.49 34.0905 167.584 34.3379 167.584 34.6309C167.584 34.9108 167.49 35.1517 167.301 35.3535C167.118 35.5488 166.855 35.6465 166.51 35.6465C166.158 35.6465 165.891 35.5488 165.709 35.3535C165.533 35.1517 165.445 34.9108 165.445 34.6309ZM173.355 39.6895V48H171.549V37.4336H173.258L173.355 39.6895ZM172.926 42.3164L172.174 42.2871C172.18 41.5645 172.288 40.8971 172.496 40.2852C172.704 39.6667 172.997 39.1296 173.375 38.6738C173.753 38.2181 174.202 37.8665 174.723 37.6191C175.25 37.3652 175.833 37.2383 176.471 37.2383C176.992 37.2383 177.46 37.3099 177.877 37.4531C178.294 37.5898 178.648 37.8112 178.941 38.1172C179.241 38.4232 179.469 38.8203 179.625 39.3086C179.781 39.7904 179.859 40.3796 179.859 41.0762V48H178.043V41.0566C178.043 40.5033 177.962 40.0605 177.799 39.7285C177.636 39.39 177.398 39.1458 177.086 38.9961C176.773 38.8398 176.389 38.7617 175.934 38.7617C175.484 38.7617 175.074 38.8561 174.703 39.0449C174.339 39.2337 174.023 39.4941 173.756 39.8262C173.495 40.1582 173.29 40.5391 173.141 40.9688C172.997 41.3919 172.926 41.8411 172.926 42.3164ZM184.41 39.6895V48H182.604V37.4336H184.312L184.41 39.6895ZM183.98 42.3164L183.229 42.2871C183.235 41.5645 183.342 40.8971 183.551 40.2852C183.759 39.6667 184.052 39.1296 184.43 38.6738C184.807 38.2181 185.257 37.8665 185.777 37.6191C186.305 37.3652 186.887 37.2383 187.525 37.2383C188.046 37.2383 188.515 37.3099 188.932 37.4531C189.348 37.5898 189.703 37.8112 189.996 38.1172C190.296 38.4232 190.523 38.8203 190.68 39.3086C190.836 39.7904 190.914 40.3796 190.914 41.0762V48H189.098V41.0566C189.098 40.5033 189.016 40.0605 188.854 39.7285C188.691 39.39 188.453 39.1458 188.141 38.9961C187.828 38.8398 187.444 38.7617 186.988 38.7617C186.539 38.7617 186.129 38.8561 185.758 39.0449C185.393 39.2337 185.077 39.4941 184.811 39.8262C184.55 40.1582 184.345 40.5391 184.195 40.9688C184.052 41.3919 183.98 41.8411 183.98 42.3164ZM198.043 48.1953C197.307 48.1953 196.64 48.0716 196.041 47.8242C195.449 47.5703 194.938 47.2155 194.508 46.7598C194.085 46.304 193.759 45.7637 193.531 45.1387C193.303 44.5137 193.189 43.8301 193.189 43.0879V42.6777C193.189 41.8184 193.316 41.0534 193.57 40.3828C193.824 39.7057 194.169 39.1328 194.605 38.6641C195.042 38.1953 195.536 37.8405 196.09 37.5996C196.643 37.3587 197.216 37.2383 197.809 37.2383C198.564 37.2383 199.215 37.3685 199.762 37.6289C200.315 37.8893 200.768 38.2539 201.119 38.7227C201.471 39.1849 201.731 39.7318 201.9 40.3633C202.07 40.9883 202.154 41.6719 202.154 42.4141V43.2246H194.264V41.75H200.348V41.6133C200.322 41.1445 200.224 40.6888 200.055 40.2461C199.892 39.8034 199.632 39.4388 199.273 39.1523C198.915 38.8659 198.427 38.7227 197.809 38.7227C197.398 38.7227 197.021 38.8105 196.676 38.9863C196.331 39.1556 196.035 39.4095 195.787 39.748C195.54 40.0866 195.348 40.5 195.211 40.9883C195.074 41.4766 195.006 42.0397 195.006 42.6777V43.0879C195.006 43.5892 195.074 44.0612 195.211 44.5039C195.354 44.9401 195.559 45.3242 195.826 45.6562C196.1 45.9883 196.428 46.2487 196.812 46.4375C197.203 46.6263 197.646 46.7207 198.141 46.7207C198.779 46.7207 199.319 46.5905 199.762 46.3301C200.204 46.0697 200.592 45.7214 200.924 45.2852L202.018 46.1543C201.79 46.4993 201.5 46.8281 201.148 47.1406C200.797 47.4531 200.364 47.707 199.85 47.9023C199.342 48.0977 198.74 48.1953 198.043 48.1953ZM206.07 39.6895V48H204.264V37.4336H205.973L206.07 39.6895ZM205.641 42.3164L204.889 42.2871C204.895 41.5645 205.003 40.8971 205.211 40.2852C205.419 39.6667 205.712 39.1296 206.09 38.6738C206.467 38.2181 206.917 37.8665 207.438 37.6191C207.965 37.3652 208.548 37.2383 209.186 37.2383C209.706 37.2383 210.175 37.3099 210.592 37.4531C211.008 37.5898 211.363 37.8112 211.656 38.1172C211.956 38.4232 212.184 38.8203 212.34 39.3086C212.496 39.7904 212.574 40.3796 212.574 41.0762V48H210.758V41.0566C210.758 40.5033 210.676 40.0605 210.514 39.7285C210.351 39.39 210.113 39.1458 209.801 38.9961C209.488 38.8398 209.104 38.7617 208.648 38.7617C208.199 38.7617 207.789 38.8561 207.418 39.0449C207.053 39.2337 206.738 39.4941 206.471 39.8262C206.21 40.1582 206.005 40.5391 205.855 40.9688C205.712 41.3919 205.641 41.8411 205.641 42.3164ZM226.939 45.9492V33H228.756V48H227.096L226.939 45.9492ZM219.83 42.834V42.6289C219.83 41.8216 219.928 41.0892 220.123 40.4316C220.325 39.7676 220.608 39.1979 220.973 38.7227C221.344 38.2474 221.783 37.8828 222.291 37.6289C222.805 37.3685 223.378 37.2383 224.01 37.2383C224.674 37.2383 225.253 37.3555 225.748 37.5898C226.249 37.8177 226.673 38.153 227.018 38.5957C227.369 39.0319 227.646 39.5592 227.848 40.1777C228.049 40.7962 228.189 41.4961 228.268 42.2773V43.1758C228.196 43.9505 228.056 44.6471 227.848 45.2656C227.646 45.8841 227.369 46.4115 227.018 46.8477C226.673 47.2839 226.249 47.6191 225.748 47.8535C225.247 48.0814 224.661 48.1953 223.99 48.1953C223.372 48.1953 222.805 48.0618 222.291 47.7949C221.783 47.528 221.344 47.1536 220.973 46.6719C220.608 46.1901 220.325 45.6237 220.123 44.9727C219.928 44.3151 219.83 43.6022 219.83 42.834ZM221.646 42.6289V42.834C221.646 43.3613 221.699 43.8561 221.803 44.3184C221.913 44.7806 222.083 45.1875 222.311 45.5391C222.538 45.8906 222.828 46.1673 223.18 46.3691C223.531 46.5645 223.951 46.6621 224.439 46.6621C225.038 46.6621 225.53 46.5352 225.914 46.2812C226.305 46.0273 226.617 45.6921 226.852 45.2754C227.086 44.8587 227.268 44.4062 227.398 43.918V41.5645C227.32 41.2064 227.206 40.8613 227.057 40.5293C226.913 40.1908 226.725 39.8913 226.49 39.6309C226.262 39.3639 225.979 39.1523 225.641 38.9961C225.309 38.8398 224.915 38.7617 224.459 38.7617C223.964 38.7617 223.538 38.8659 223.18 39.0742C222.828 39.276 222.538 39.556 222.311 39.9141C222.083 40.2656 221.913 40.6758 221.803 41.1445C221.699 41.6068 221.646 42.1016 221.646 42.6289ZM233.531 37.4336V48H231.715V37.4336H233.531ZM231.578 34.6309C231.578 34.3379 231.666 34.0905 231.842 33.8887C232.024 33.6868 232.291 33.5859 232.643 33.5859C232.988 33.5859 233.251 33.6868 233.434 33.8887C233.622 34.0905 233.717 34.3379 233.717 34.6309C233.717 34.9108 233.622 35.1517 233.434 35.3535C233.251 35.5488 232.988 35.6465 232.643 35.6465C232.291 35.6465 232.024 35.5488 231.842 35.3535C231.666 35.1517 231.578 34.9108 231.578 34.6309ZM240.816 48.1953C240.081 48.1953 239.413 48.0716 238.814 47.8242C238.222 47.5703 237.711 47.2155 237.281 46.7598C236.858 46.304 236.533 45.7637 236.305 45.1387C236.077 44.5137 235.963 43.8301 235.963 43.0879V42.6777C235.963 41.8184 236.09 41.0534 236.344 40.3828C236.598 39.7057 236.943 39.1328 237.379 38.6641C237.815 38.1953 238.31 37.8405 238.863 37.5996C239.417 37.3587 239.99 37.2383 240.582 37.2383C241.337 37.2383 241.988 37.3685 242.535 37.6289C243.089 37.8893 243.541 38.2539 243.893 38.7227C244.244 39.1849 244.505 39.7318 244.674 40.3633C244.843 40.9883 244.928 41.6719 244.928 42.4141V43.2246H237.037V41.75H243.121V41.6133C243.095 41.1445 242.997 40.6888 242.828 40.2461C242.665 39.8034 242.405 39.4388 242.047 39.1523C241.689 38.8659 241.201 38.7227 240.582 38.7227C240.172 38.7227 239.794 38.8105 239.449 38.9863C239.104 39.1556 238.808 39.4095 238.561 39.748C238.313 40.0866 238.121 40.5 237.984 40.9883C237.848 41.4766 237.779 42.0397 237.779 42.6777V43.0879C237.779 43.5892 237.848 44.0612 237.984 44.5039C238.128 44.9401 238.333 45.3242 238.6 45.6562C238.873 45.9883 239.202 46.2487 239.586 46.4375C239.977 46.6263 240.419 46.7207 240.914 46.7207C241.552 46.7207 242.092 46.5905 242.535 46.3301C242.978 46.0697 243.365 45.7214 243.697 45.2852L244.791 46.1543C244.563 46.4993 244.273 46.8281 243.922 47.1406C243.57 47.4531 243.137 47.707 242.623 47.9023C242.115 48.0977 241.513 48.1953 240.816 48.1953ZM54.6836 69.4668V71H47.1543V69.4668H54.6836ZM47.5352 56.7812V71H45.6504V56.7812H47.5352ZM53.6875 62.8945V64.4277H47.1543V62.8945H53.6875ZM54.5859 56.7812V58.3242H47.1543V56.7812H54.5859ZM58.541 62.5332V71H56.7246V60.4336H58.4434L58.541 62.5332ZM58.1699 65.3164L57.3301 65.2871C57.3366 64.5645 57.431 63.8971 57.6133 63.2852C57.7956 62.6667 58.0658 62.1296 58.4238 61.6738C58.7819 61.2181 59.2279 60.8665 59.7617 60.6191C60.2956 60.3652 60.9141 60.2383 61.6172 60.2383C62.112 60.2383 62.5677 60.3099 62.9844 60.4531C63.401 60.5898 63.7624 60.8079 64.0684 61.1074C64.3743 61.4069 64.612 61.791 64.7812 62.2598C64.9505 62.7285 65.0352 63.2949 65.0352 63.959V71H63.2285V64.0469C63.2285 63.4935 63.1341 63.0508 62.9453 62.7188C62.763 62.3867 62.5026 62.1458 62.1641 61.9961C61.8255 61.8398 61.4284 61.7617 60.9727 61.7617C60.4388 61.7617 59.9928 61.8561 59.6348 62.0449C59.2767 62.2337 58.9902 62.4941 58.7754 62.8262C58.5605 63.1582 58.4043 63.5391 58.3066 63.9688C58.2155 64.3919 58.1699 64.8411 58.1699 65.3164ZM65.0156 64.3203L63.8047 64.6914C63.8112 64.112 63.9056 63.5553 64.0879 63.0215C64.2767 62.4876 64.5469 62.0124 64.8984 61.5957C65.2565 61.179 65.696 60.8503 66.2168 60.6094C66.7376 60.362 67.3333 60.2383 68.0039 60.2383C68.5703 60.2383 69.0716 60.3132 69.5078 60.4629C69.9505 60.6126 70.3216 60.8438 70.6211 61.1562C70.9271 61.4622 71.1582 61.8561 71.3145 62.3379C71.4707 62.8197 71.5488 63.3926 71.5488 64.0566V71H69.7324V64.0371C69.7324 63.4447 69.638 62.9857 69.4492 62.6602C69.2669 62.3281 69.0065 62.097 68.668 61.9668C68.3359 61.8301 67.9388 61.7617 67.4766 61.7617C67.0794 61.7617 66.7279 61.8301 66.4219 61.9668C66.1159 62.1035 65.8587 62.2923 65.6504 62.5332C65.4421 62.7676 65.2826 63.0378 65.1719 63.3438C65.0677 63.6497 65.0156 63.9753 65.0156 64.3203ZM73.8047 65.834V65.6094C73.8047 64.8477 73.9154 64.1413 74.1367 63.4902C74.3581 62.8327 74.6771 62.263 75.0938 61.7812C75.5104 61.293 76.015 60.9154 76.6074 60.6484C77.1999 60.375 77.8639 60.2383 78.5996 60.2383C79.3418 60.2383 80.0091 60.375 80.6016 60.6484C81.2005 60.9154 81.7083 61.293 82.125 61.7812C82.5482 62.263 82.8704 62.8327 83.0918 63.4902C83.3132 64.1413 83.4238 64.8477 83.4238 65.6094V65.834C83.4238 66.5957 83.3132 67.3021 83.0918 67.9531C82.8704 68.6042 82.5482 69.1738 82.125 69.6621C81.7083 70.1439 81.2038 70.5215 80.6113 70.7949C80.0254 71.0618 79.3613 71.1953 78.6191 71.1953C77.877 71.1953 77.2096 71.0618 76.6172 70.7949C76.0247 70.5215 75.5169 70.1439 75.0938 69.6621C74.6771 69.1738 74.3581 68.6042 74.1367 67.9531C73.9154 67.3021 73.8047 66.5957 73.8047 65.834ZM75.6113 65.6094V65.834C75.6113 66.3613 75.6732 66.8594 75.7969 67.3281C75.9206 67.7904 76.1061 68.2005 76.3535 68.5586C76.6074 68.9167 76.9232 69.1999 77.3008 69.4082C77.6784 69.61 78.1178 69.7109 78.6191 69.7109C79.1139 69.7109 79.5469 69.61 79.918 69.4082C80.2956 69.1999 80.6081 68.9167 80.8555 68.5586C81.1029 68.2005 81.2884 67.7904 81.4121 67.3281C81.5423 66.8594 81.6074 66.3613 81.6074 65.834V65.6094C81.6074 65.0885 81.5423 64.597 81.4121 64.1348C81.2884 63.666 81.0996 63.2526 80.8457 62.8945C80.5983 62.5299 80.2858 62.2435 79.9082 62.0352C79.5371 61.8268 79.1009 61.7227 78.5996 61.7227C78.1048 61.7227 77.6686 61.8268 77.291 62.0352C76.9199 62.2435 76.6074 62.5299 76.3535 62.8945C76.1061 63.2526 75.9206 63.666 75.7969 64.1348C75.6732 64.597 75.6113 65.0885 75.6113 65.6094ZM90.1133 60.4336V61.8203H84.4004V60.4336H90.1133ZM86.334 57.8652H88.1406V68.3828C88.1406 68.7409 88.196 69.0111 88.3066 69.1934C88.4173 69.3757 88.5605 69.4961 88.7363 69.5547C88.9121 69.6133 89.1009 69.6426 89.3027 69.6426C89.4525 69.6426 89.6087 69.6296 89.7715 69.6035C89.9408 69.571 90.0677 69.5449 90.1523 69.5254L90.1621 71C90.0189 71.0456 89.8301 71.0879 89.5957 71.127C89.3678 71.1725 89.0911 71.1953 88.7656 71.1953C88.3229 71.1953 87.916 71.1074 87.5449 70.9316C87.1738 70.7559 86.8776 70.4629 86.6562 70.0527C86.4414 69.6361 86.334 69.0762 86.334 68.373V57.8652ZM94.1953 60.4336V71H92.3789V60.4336H94.1953ZM92.2422 57.6309C92.2422 57.3379 92.3301 57.0905 92.5059 56.8887C92.6882 56.6868 92.9551 56.5859 93.3066 56.5859C93.6517 56.5859 93.9154 56.6868 94.0977 56.8887C94.2865 57.0905 94.3809 57.3379 94.3809 57.6309C94.3809 57.9108 94.2865 58.1517 94.0977 58.3535C93.9154 58.5488 93.6517 58.6465 93.3066 58.6465C92.9551 58.6465 92.6882 58.5488 92.5059 58.3535C92.3301 58.1517 92.2422 57.9108 92.2422 57.6309ZM96.6172 65.834V65.6094C96.6172 64.8477 96.7279 64.1413 96.9492 63.4902C97.1706 62.8327 97.4896 62.263 97.9062 61.7812C98.3229 61.293 98.8275 60.9154 99.4199 60.6484C100.012 60.375 100.676 60.2383 101.412 60.2383C102.154 60.2383 102.822 60.375 103.414 60.6484C104.013 60.9154 104.521 61.293 104.938 61.7812C105.361 62.263 105.683 62.8327 105.904 63.4902C106.126 64.1413 106.236 64.8477 106.236 65.6094V65.834C106.236 66.5957 106.126 67.3021 105.904 67.9531C105.683 68.6042 105.361 69.1738 104.938 69.6621C104.521 70.1439 104.016 70.5215 103.424 70.7949C102.838 71.0618 102.174 71.1953 101.432 71.1953C100.689 71.1953 100.022 71.0618 99.4297 70.7949C98.8372 70.5215 98.3294 70.1439 97.9062 69.6621C97.4896 69.1738 97.1706 68.6042 96.9492 67.9531C96.7279 67.3021 96.6172 66.5957 96.6172 65.834ZM98.4238 65.6094V65.834C98.4238 66.3613 98.4857 66.8594 98.6094 67.3281C98.7331 67.7904 98.9186 68.2005 99.166 68.5586C99.4199 68.9167 99.7357 69.1999 100.113 69.4082C100.491 69.61 100.93 69.7109 101.432 69.7109C101.926 69.7109 102.359 69.61 102.73 69.4082C103.108 69.1999 103.421 68.9167 103.668 68.5586C103.915 68.2005 104.101 67.7904 104.225 67.3281C104.355 66.8594 104.42 66.3613 104.42 65.834V65.6094C104.42 65.0885 104.355 64.597 104.225 64.1348C104.101 63.666 103.912 63.2526 103.658 62.8945C103.411 62.5299 103.098 62.2435 102.721 62.0352C102.35 61.8268 101.913 61.7227 101.412 61.7227C100.917 61.7227 100.481 61.8268 100.104 62.0352C99.7324 62.2435 99.4199 62.5299 99.166 62.8945C98.9186 63.2526 98.7331 63.666 98.6094 64.1348C98.4857 64.597 98.4238 65.0885 98.4238 65.6094ZM110.309 62.6895V71H108.502V60.4336H110.211L110.309 62.6895ZM109.879 65.3164L109.127 65.2871C109.133 64.5645 109.241 63.8971 109.449 63.2852C109.658 62.6667 109.951 62.1296 110.328 61.6738C110.706 61.2181 111.155 60.8665 111.676 60.6191C112.203 60.3652 112.786 60.2383 113.424 60.2383C113.945 60.2383 114.413 60.3099 114.83 60.4531C115.247 60.5898 115.602 60.8112 115.895 61.1172C116.194 61.4232 116.422 61.8203 116.578 62.3086C116.734 62.7904 116.812 63.3796 116.812 64.0762V71H114.996V64.0566C114.996 63.5033 114.915 63.0605 114.752 62.7285C114.589 62.39 114.352 62.1458 114.039 61.9961C113.727 61.8398 113.342 61.7617 112.887 61.7617C112.438 61.7617 112.027 61.8561 111.656 62.0449C111.292 62.2337 110.976 62.4941 110.709 62.8262C110.449 63.1582 110.243 63.5391 110.094 63.9688C109.951 64.3919 109.879 64.8411 109.879 65.3164ZM123.941 71.1953C123.206 71.1953 122.538 71.0716 121.939 70.8242C121.347 70.5703 120.836 70.2155 120.406 69.7598C119.983 69.304 119.658 68.7637 119.43 68.1387C119.202 67.5137 119.088 66.8301 119.088 66.0879V65.6777C119.088 64.8184 119.215 64.0534 119.469 63.3828C119.723 62.7057 120.068 62.1328 120.504 61.6641C120.94 61.1953 121.435 60.8405 121.988 60.5996C122.542 60.3587 123.115 60.2383 123.707 60.2383C124.462 60.2383 125.113 60.3685 125.66 60.6289C126.214 60.8893 126.666 61.2539 127.018 61.7227C127.369 62.1849 127.63 62.7318 127.799 63.3633C127.968 63.9883 128.053 64.6719 128.053 65.4141V66.2246H120.162V64.75H126.246V64.6133C126.22 64.1445 126.122 63.6888 125.953 63.2461C125.79 62.8034 125.53 62.4388 125.172 62.1523C124.814 61.8659 124.326 61.7227 123.707 61.7227C123.297 61.7227 122.919 61.8105 122.574 61.9863C122.229 62.1556 121.933 62.4095 121.686 62.748C121.438 63.0866 121.246 63.5 121.109 63.9883C120.973 64.4766 120.904 65.0397 120.904 65.6777V66.0879C120.904 66.5892 120.973 67.0612 121.109 67.5039C121.253 67.9401 121.458 68.3242 121.725 68.6562C121.998 68.9883 122.327 69.2487 122.711 69.4375C123.102 69.6263 123.544 69.7207 124.039 69.7207C124.677 69.7207 125.217 69.5905 125.66 69.3301C126.103 69.0697 126.49 68.7214 126.822 68.2852L127.916 69.1543C127.688 69.4993 127.398 69.8281 127.047 70.1406C126.695 70.4531 126.262 70.707 125.748 70.9023C125.24 71.0977 124.638 71.1953 123.941 71.1953ZM131.969 62.6895V71H130.162V60.4336H131.871L131.969 62.6895ZM131.539 65.3164L130.787 65.2871C130.794 64.5645 130.901 63.8971 131.109 63.2852C131.318 62.6667 131.611 62.1296 131.988 61.6738C132.366 61.2181 132.815 60.8665 133.336 60.6191C133.863 60.3652 134.446 60.2383 135.084 60.2383C135.605 60.2383 136.074 60.3099 136.49 60.4531C136.907 60.5898 137.262 60.8112 137.555 61.1172C137.854 61.4232 138.082 61.8203 138.238 62.3086C138.395 62.7904 138.473 63.3796 138.473 64.0762V71H136.656V64.0566C136.656 63.5033 136.575 63.0605 136.412 62.7285C136.249 62.39 136.012 62.1458 135.699 61.9961C135.387 61.8398 135.003 61.7617 134.547 61.7617C134.098 61.7617 133.688 61.8561 133.316 62.0449C132.952 62.2337 132.636 62.4941 132.369 62.8262C132.109 63.1582 131.904 63.5391 131.754 63.9688C131.611 64.3919 131.539 64.8411 131.539 65.3164ZM152.408 69.1934V63.7539C152.408 63.3372 152.324 62.9759 152.154 62.6699C151.992 62.3574 151.744 62.1165 151.412 61.9473C151.08 61.778 150.67 61.6934 150.182 61.6934C149.726 61.6934 149.326 61.7715 148.98 61.9277C148.642 62.084 148.375 62.2891 148.18 62.543C147.991 62.7969 147.896 63.0703 147.896 63.3633H146.09C146.09 62.9857 146.188 62.6113 146.383 62.2402C146.578 61.8691 146.858 61.5339 147.223 61.2344C147.594 60.9284 148.036 60.6875 148.551 60.5117C149.072 60.3294 149.651 60.2383 150.289 60.2383C151.057 60.2383 151.734 60.3685 152.32 60.6289C152.913 60.8893 153.375 61.2832 153.707 61.8105C154.046 62.3314 154.215 62.9857 154.215 63.7734V68.6953C154.215 69.0469 154.244 69.4212 154.303 69.8184C154.368 70.2155 154.462 70.5573 154.586 70.8438V71H152.701C152.61 70.7917 152.538 70.515 152.486 70.1699C152.434 69.8184 152.408 69.4928 152.408 69.1934ZM152.721 64.5938L152.74 65.8633H150.914C150.4 65.8633 149.941 65.9056 149.537 65.9902C149.133 66.0684 148.795 66.1888 148.521 66.3516C148.248 66.5143 148.04 66.7194 147.896 66.9668C147.753 67.2077 147.682 67.4909 147.682 67.8164C147.682 68.1484 147.757 68.4512 147.906 68.7246C148.056 68.998 148.281 69.2161 148.58 69.3789C148.886 69.5352 149.26 69.6133 149.703 69.6133C150.257 69.6133 150.745 69.4961 151.168 69.2617C151.591 69.0273 151.926 68.7409 152.174 68.4023C152.428 68.0638 152.564 67.735 152.584 67.416L153.355 68.2852C153.31 68.5586 153.186 68.8613 152.984 69.1934C152.783 69.5254 152.512 69.8444 152.174 70.1504C151.842 70.4499 151.445 70.7005 150.982 70.9023C150.527 71.0977 150.012 71.1953 149.439 71.1953C148.723 71.1953 148.095 71.0553 147.555 70.7754C147.021 70.4954 146.604 70.1211 146.305 69.6523C146.012 69.1771 145.865 68.6465 145.865 68.0605C145.865 67.4941 145.976 66.9961 146.197 66.5664C146.419 66.1302 146.738 65.7689 147.154 65.4824C147.571 65.1895 148.072 64.9681 148.658 64.8184C149.244 64.6686 149.898 64.5938 150.621 64.5938H152.721ZM158.863 62.6895V71H157.057V60.4336H158.766L158.863 62.6895ZM158.434 65.3164L157.682 65.2871C157.688 64.5645 157.796 63.8971 158.004 63.2852C158.212 62.6667 158.505 62.1296 158.883 61.6738C159.26 61.2181 159.71 60.8665 160.23 60.6191C160.758 60.3652 161.34 60.2383 161.979 60.2383C162.499 60.2383 162.968 60.3099 163.385 60.4531C163.801 60.5898 164.156 60.8112 164.449 61.1172C164.749 61.4232 164.977 61.8203 165.133 62.3086C165.289 62.7904 165.367 63.3796 165.367 64.0762V71H163.551V64.0566C163.551 63.5033 163.469 63.0605 163.307 62.7285C163.144 62.39 162.906 62.1458 162.594 61.9961C162.281 61.8398 161.897 61.7617 161.441 61.7617C160.992 61.7617 160.582 61.8561 160.211 62.0449C159.846 62.2337 159.531 62.4941 159.264 62.8262C159.003 63.1582 158.798 63.5391 158.648 63.9688C158.505 64.3919 158.434 64.8411 158.434 65.3164ZM174.771 68.9492V56H176.588V71H174.928L174.771 68.9492ZM167.662 65.834V65.6289C167.662 64.8216 167.76 64.0892 167.955 63.4316C168.157 62.7676 168.44 62.1979 168.805 61.7227C169.176 61.2474 169.615 60.8828 170.123 60.6289C170.637 60.3685 171.21 60.2383 171.842 60.2383C172.506 60.2383 173.085 60.3555 173.58 60.5898C174.081 60.8177 174.505 61.153 174.85 61.5957C175.201 62.0319 175.478 62.5592 175.68 63.1777C175.882 63.7962 176.021 64.4961 176.1 65.2773V66.1758C176.028 66.9505 175.888 67.6471 175.68 68.2656C175.478 68.8841 175.201 69.4115 174.85 69.8477C174.505 70.2839 174.081 70.6191 173.58 70.8535C173.079 71.0814 172.493 71.1953 171.822 71.1953C171.204 71.1953 170.637 71.0618 170.123 70.7949C169.615 70.528 169.176 70.1536 168.805 69.6719C168.44 69.1901 168.157 68.6237 167.955 67.9727C167.76 67.3151 167.662 66.6022 167.662 65.834ZM169.479 65.6289V65.834C169.479 66.3613 169.531 66.8561 169.635 67.3184C169.745 67.7806 169.915 68.1875 170.143 68.5391C170.37 68.8906 170.66 69.1673 171.012 69.3691C171.363 69.5645 171.783 69.6621 172.271 69.6621C172.87 69.6621 173.362 69.5352 173.746 69.2812C174.137 69.0273 174.449 68.6921 174.684 68.2754C174.918 67.8587 175.1 67.4062 175.23 66.918V64.5645C175.152 64.2064 175.038 63.8613 174.889 63.5293C174.745 63.1908 174.557 62.8913 174.322 62.6309C174.094 62.3639 173.811 62.1523 173.473 61.9961C173.141 61.8398 172.747 61.7617 172.291 61.7617C171.796 61.7617 171.37 61.8659 171.012 62.0742C170.66 62.276 170.37 62.556 170.143 62.9141C169.915 63.2656 169.745 63.6758 169.635 64.1445C169.531 64.6068 169.479 65.1016 169.479 65.6289ZM183.785 71.1953C183.049 71.1953 182.382 71.0716 181.783 70.8242C181.191 70.5703 180.68 70.2155 180.25 69.7598C179.827 69.304 179.501 68.7637 179.273 68.1387C179.046 67.5137 178.932 66.8301 178.932 66.0879V65.6777C178.932 64.8184 179.059 64.0534 179.312 63.3828C179.566 62.7057 179.911 62.1328 180.348 61.6641C180.784 61.1953 181.279 60.8405 181.832 60.5996C182.385 60.3587 182.958 60.2383 183.551 60.2383C184.306 60.2383 184.957 60.3685 185.504 60.6289C186.057 60.8893 186.51 61.2539 186.861 61.7227C187.213 62.1849 187.473 62.7318 187.643 63.3633C187.812 63.9883 187.896 64.6719 187.896 65.4141V66.2246H180.006V64.75H186.09V64.6133C186.064 64.1445 185.966 63.6888 185.797 63.2461C185.634 62.8034 185.374 62.4388 185.016 62.1523C184.658 61.8659 184.169 61.7227 183.551 61.7227C183.141 61.7227 182.763 61.8105 182.418 61.9863C182.073 62.1556 181.777 62.4095 181.529 62.748C181.282 63.0866 181.09 63.5 180.953 63.9883C180.816 64.4766 180.748 65.0397 180.748 65.6777V66.0879C180.748 66.5892 180.816 67.0612 180.953 67.5039C181.096 67.9401 181.301 68.3242 181.568 68.6562C181.842 68.9883 182.171 69.2487 182.555 69.4375C182.945 69.6263 183.388 69.7207 183.883 69.7207C184.521 69.7207 185.061 69.5905 185.504 69.3301C185.947 69.0697 186.334 68.7214 186.666 68.2852L187.76 69.1543C187.532 69.4993 187.242 69.8281 186.891 70.1406C186.539 70.4531 186.106 70.707 185.592 70.9023C185.084 71.0977 184.482 71.1953 183.785 71.1953ZM191.812 62.0938V71H190.006V60.4336H191.764L191.812 62.0938ZM195.113 60.375L195.104 62.0547C194.954 62.0221 194.811 62.0026 194.674 61.9961C194.544 61.9831 194.394 61.9766 194.225 61.9766C193.808 61.9766 193.44 62.0417 193.121 62.1719C192.802 62.3021 192.532 62.4844 192.311 62.7188C192.089 62.9531 191.913 63.2331 191.783 63.5586C191.66 63.8776 191.578 64.2292 191.539 64.6133L191.031 64.9062C191.031 64.2682 191.093 63.6693 191.217 63.1094C191.347 62.5495 191.546 62.0547 191.812 61.625C192.079 61.1888 192.418 60.8503 192.828 60.6094C193.245 60.362 193.74 60.2383 194.312 60.2383C194.443 60.2383 194.592 60.2546 194.762 60.2871C194.931 60.3132 195.048 60.3424 195.113 60.375ZM200.973 71.1953C200.237 71.1953 199.57 71.0716 198.971 70.8242C198.378 70.5703 197.867 70.2155 197.438 69.7598C197.014 69.304 196.689 68.7637 196.461 68.1387C196.233 67.5137 196.119 66.8301 196.119 66.0879V65.6777C196.119 64.8184 196.246 64.0534 196.5 63.3828C196.754 62.7057 197.099 62.1328 197.535 61.6641C197.971 61.1953 198.466 60.8405 199.02 60.5996C199.573 60.3587 200.146 60.2383 200.738 60.2383C201.493 60.2383 202.145 60.3685 202.691 60.6289C203.245 60.8893 203.697 61.2539 204.049 61.7227C204.4 62.1849 204.661 62.7318 204.83 63.3633C204.999 63.9883 205.084 64.6719 205.084 65.4141V66.2246H197.193V64.75H203.277V64.6133C203.251 64.1445 203.154 63.6888 202.984 63.2461C202.822 62.8034 202.561 62.4388 202.203 62.1523C201.845 61.8659 201.357 61.7227 200.738 61.7227C200.328 61.7227 199.951 61.8105 199.605 61.9863C199.26 62.1556 198.964 62.4095 198.717 62.748C198.469 63.0866 198.277 63.5 198.141 63.9883C198.004 64.4766 197.936 65.0397 197.936 65.6777V66.0879C197.936 66.5892 198.004 67.0612 198.141 67.5039C198.284 67.9401 198.489 68.3242 198.756 68.6562C199.029 68.9883 199.358 69.2487 199.742 69.4375C200.133 69.6263 200.576 69.7207 201.07 69.7207C201.708 69.7207 202.249 69.5905 202.691 69.3301C203.134 69.0697 203.521 68.7214 203.854 68.2852L204.947 69.1543C204.719 69.4993 204.43 69.8281 204.078 70.1406C203.727 70.4531 203.294 70.707 202.779 70.9023C202.271 71.0977 201.669 71.1953 200.973 71.1953ZM209 62.0938V71H207.193V60.4336H208.951L209 62.0938ZM212.301 60.375L212.291 62.0547C212.141 62.0221 211.998 62.0026 211.861 61.9961C211.731 61.9831 211.581 61.9766 211.412 61.9766C210.995 61.9766 210.628 62.0417 210.309 62.1719C209.99 62.3021 209.719 62.4844 209.498 62.7188C209.277 62.9531 209.101 63.2331 208.971 63.5586C208.847 63.8776 208.766 64.2292 208.727 64.6133L208.219 64.9062C208.219 64.2682 208.281 63.6693 208.404 63.1094C208.535 62.5495 208.733 62.0547 209 61.625C209.267 61.1888 209.605 60.8503 210.016 60.6094C210.432 60.362 210.927 60.2383 211.5 60.2383C211.63 60.2383 211.78 60.2546 211.949 60.2871C212.118 60.3132 212.236 60.3424 212.301 60.375ZM225.084 68.1973C225.084 67.9368 225.025 67.696 224.908 67.4746C224.798 67.2467 224.566 67.0417 224.215 66.8594C223.87 66.6706 223.349 66.5078 222.652 66.3711C222.066 66.2474 221.536 66.1009 221.061 65.9316C220.592 65.7624 220.191 65.5573 219.859 65.3164C219.534 65.0755 219.283 64.7923 219.107 64.4668C218.932 64.1413 218.844 63.7604 218.844 63.3242C218.844 62.9076 218.935 62.5137 219.117 62.1426C219.306 61.7715 219.57 61.4427 219.908 61.1562C220.253 60.8698 220.667 60.6452 221.148 60.4824C221.63 60.3197 222.167 60.2383 222.76 60.2383C223.606 60.2383 224.329 60.388 224.928 60.6875C225.527 60.987 225.986 61.3874 226.305 61.8887C226.624 62.3835 226.783 62.9336 226.783 63.5391H224.977C224.977 63.2461 224.889 62.9629 224.713 62.6895C224.544 62.4095 224.293 62.1784 223.961 61.9961C223.635 61.8138 223.235 61.7227 222.76 61.7227C222.258 61.7227 221.852 61.8008 221.539 61.957C221.233 62.1068 221.008 62.2988 220.865 62.5332C220.729 62.7676 220.66 63.015 220.66 63.2754C220.66 63.4707 220.693 63.6465 220.758 63.8027C220.829 63.9525 220.953 64.0924 221.129 64.2227C221.305 64.3464 221.552 64.4635 221.871 64.5742C222.19 64.6849 222.597 64.7956 223.092 64.9062C223.958 65.1016 224.671 65.3359 225.23 65.6094C225.79 65.8828 226.207 66.2181 226.48 66.6152C226.754 67.0124 226.891 67.4941 226.891 68.0605C226.891 68.5228 226.793 68.946 226.598 69.3301C226.409 69.7142 226.132 70.0462 225.768 70.3262C225.41 70.5996 224.98 70.8145 224.479 70.9707C223.984 71.1204 223.427 71.1953 222.809 71.1953C221.878 71.1953 221.09 71.0293 220.445 70.6973C219.801 70.3652 219.312 69.9355 218.98 69.4082C218.648 68.8809 218.482 68.3242 218.482 67.7383H220.299C220.325 68.2331 220.468 68.627 220.729 68.9199C220.989 69.2064 221.308 69.4115 221.686 69.5352C222.063 69.6523 222.438 69.7109 222.809 69.7109C223.303 69.7109 223.717 69.6458 224.049 69.5156C224.387 69.3854 224.645 69.2064 224.82 68.9785C224.996 68.7507 225.084 68.4902 225.084 68.1973ZM231.07 62.4648V75.0625H229.254V60.4336H230.914L231.07 62.4648ZM238.189 65.6289V65.834C238.189 66.6022 238.098 67.3151 237.916 67.9727C237.734 68.6237 237.467 69.1901 237.115 69.6719C236.77 70.1536 236.344 70.528 235.836 70.7949C235.328 71.0618 234.745 71.1953 234.088 71.1953C233.417 71.1953 232.825 71.0846 232.311 70.8633C231.796 70.6419 231.36 70.3197 231.002 69.8965C230.644 69.4733 230.357 68.9655 230.143 68.373C229.934 67.7806 229.791 67.1133 229.713 66.3711V65.2773C229.791 64.4961 229.938 63.7962 230.152 63.1777C230.367 62.5592 230.65 62.0319 231.002 61.5957C231.36 61.153 231.793 60.8177 232.301 60.5898C232.809 60.3555 233.395 60.2383 234.059 60.2383C234.723 60.2383 235.312 60.3685 235.826 60.6289C236.34 60.8828 236.773 61.2474 237.125 61.7227C237.477 62.1979 237.74 62.7676 237.916 63.4316C238.098 64.0892 238.189 64.8216 238.189 65.6289ZM236.373 65.834V65.6289C236.373 65.1016 236.318 64.6068 236.207 64.1445C236.096 63.6758 235.924 63.2656 235.689 62.9141C235.462 62.556 235.169 62.276 234.811 62.0742C234.452 61.8659 234.026 61.7617 233.531 61.7617C233.076 61.7617 232.678 61.8398 232.34 61.9961C232.008 62.1523 231.725 62.3639 231.49 62.6309C231.256 62.8913 231.064 63.1908 230.914 63.5293C230.771 63.8613 230.663 64.2064 230.592 64.5645V67.0938C230.722 67.5495 230.904 67.9792 231.139 68.3828C231.373 68.7799 231.686 69.1022 232.076 69.3496C232.467 69.5905 232.958 69.7109 233.551 69.7109C234.039 69.7109 234.459 69.61 234.811 69.4082C235.169 69.1999 235.462 68.9167 235.689 68.5586C235.924 68.2005 236.096 67.7904 236.207 67.3281C236.318 66.8594 236.373 66.3613 236.373 65.834ZM246.959 68.5586V60.4336H248.775V71H247.047L246.959 68.5586ZM247.301 66.332L248.053 66.3125C248.053 67.0156 247.978 67.6667 247.828 68.2656C247.685 68.8581 247.451 69.3724 247.125 69.8086C246.799 70.2448 246.373 70.5866 245.846 70.834C245.318 71.0749 244.677 71.1953 243.922 71.1953C243.408 71.1953 242.936 71.1204 242.506 70.9707C242.083 70.821 241.718 70.5898 241.412 70.2773C241.106 69.9648 240.868 69.5579 240.699 69.0566C240.536 68.5553 240.455 67.9531 240.455 67.25V60.4336H242.262V67.2695C242.262 67.7448 242.314 68.1387 242.418 68.4512C242.529 68.7572 242.675 69.0013 242.857 69.1836C243.046 69.3594 243.255 69.4831 243.482 69.5547C243.717 69.6263 243.958 69.6621 244.205 69.6621C244.973 69.6621 245.582 69.5156 246.031 69.2227C246.48 68.9232 246.803 68.5228 246.998 68.0215C247.2 67.5137 247.301 66.9505 247.301 66.332ZM241.51 57.6113C241.51 57.3184 241.601 57.071 241.783 56.8691C241.965 56.6673 242.229 56.5664 242.574 56.5664C242.926 56.5664 243.193 56.6673 243.375 56.8691C243.557 57.071 243.648 57.3184 243.648 57.6113C243.648 57.8913 243.557 58.1322 243.375 58.334C243.193 58.5293 242.926 58.627 242.574 58.627C242.229 58.627 241.965 58.5293 241.783 58.334C241.601 58.1322 241.51 57.8913 241.51 57.6113ZM245.719 57.6309C245.719 57.3379 245.807 57.0905 245.982 56.8887C246.165 56.6868 246.432 56.5859 246.783 56.5859C247.128 56.5859 247.392 56.6868 247.574 56.8887C247.763 57.0905 247.857 57.3379 247.857 57.6309C247.857 57.9108 247.763 58.1517 247.574 58.3535C247.392 58.5488 247.128 58.6465 246.783 58.6465C246.432 58.6465 246.165 58.5488 245.982 58.3535C245.807 58.1517 245.719 57.9108 245.719 57.6309ZM253.336 62.0938V71H251.529V60.4336H253.287L253.336 62.0938ZM256.637 60.375L256.627 62.0547C256.477 62.0221 256.334 62.0026 256.197 61.9961C256.067 61.9831 255.917 61.9766 255.748 61.9766C255.331 61.9766 254.964 62.0417 254.645 62.1719C254.326 62.3021 254.055 62.4844 253.834 62.7188C253.613 62.9531 253.437 63.2331 253.307 63.5586C253.183 63.8776 253.102 64.2292 253.062 64.6133L252.555 64.9062C252.555 64.2682 252.617 63.6693 252.74 63.1094C252.87 62.5495 253.069 62.0547 253.336 61.625C253.603 61.1888 253.941 60.8503 254.352 60.6094C254.768 60.362 255.263 60.2383 255.836 60.2383C255.966 60.2383 256.116 60.2546 256.285 60.2871C256.454 60.3132 256.572 60.3424 256.637 60.375ZM262.496 71.1953C261.76 71.1953 261.093 71.0716 260.494 70.8242C259.902 70.5703 259.391 70.2155 258.961 69.7598C258.538 69.304 258.212 68.7637 257.984 68.1387C257.757 67.5137 257.643 66.8301 257.643 66.0879V65.6777C257.643 64.8184 257.77 64.0534 258.023 63.3828C258.277 62.7057 258.622 62.1328 259.059 61.6641C259.495 61.1953 259.99 60.8405 260.543 60.5996C261.096 60.3587 261.669 60.2383 262.262 60.2383C263.017 60.2383 263.668 60.3685 264.215 60.6289C264.768 60.8893 265.221 61.2539 265.572 61.7227C265.924 62.1849 266.184 62.7318 266.354 63.3633C266.523 63.9883 266.607 64.6719 266.607 65.4141V66.2246H258.717V64.75H264.801V64.6133C264.775 64.1445 264.677 63.6888 264.508 63.2461C264.345 62.8034 264.085 62.4388 263.727 62.1523C263.368 61.8659 262.88 61.7227 262.262 61.7227C261.852 61.7227 261.474 61.8105 261.129 61.9863C260.784 62.1556 260.488 62.4095 260.24 62.748C259.993 63.0866 259.801 63.5 259.664 63.9883C259.527 64.4766 259.459 65.0397 259.459 65.6777V66.0879C259.459 66.5892 259.527 67.0612 259.664 67.5039C259.807 67.9401 260.012 68.3242 260.279 68.6562C260.553 68.9883 260.882 69.2487 261.266 69.4375C261.656 69.6263 262.099 69.7207 262.594 69.7207C263.232 69.7207 263.772 69.5905 264.215 69.3301C264.658 69.0697 265.045 68.7214 265.377 68.2852L266.471 69.1543C266.243 69.4993 265.953 69.8281 265.602 70.1406C265.25 70.4531 264.817 70.707 264.303 70.9023C263.795 71.0977 263.193 71.1953 262.496 71.1953ZM270.523 62.6895V71H268.717V60.4336H270.426L270.523 62.6895ZM270.094 65.3164L269.342 65.2871C269.348 64.5645 269.456 63.8971 269.664 63.2852C269.872 62.6667 270.165 62.1296 270.543 61.6738C270.921 61.2181 271.37 60.8665 271.891 60.6191C272.418 60.3652 273.001 60.2383 273.639 60.2383C274.16 60.2383 274.628 60.3099 275.045 60.4531C275.462 60.5898 275.816 60.8112 276.109 61.1172C276.409 61.4232 276.637 61.8203 276.793 62.3086C276.949 62.7904 277.027 63.3796 277.027 64.0762V71H275.211V64.0566C275.211 63.5033 275.13 63.0605 274.967 62.7285C274.804 62.39 274.566 62.1458 274.254 61.9961C273.941 61.8398 273.557 61.7617 273.102 61.7617C272.652 61.7617 272.242 61.8561 271.871 62.0449C271.507 62.2337 271.191 62.4941 270.924 62.8262C270.663 63.1582 270.458 63.5391 270.309 63.9688C270.165 64.3919 270.094 64.8411 270.094 65.3164ZM51.8418 91.5586V83.4336H53.6582V94H51.9297L51.8418 91.5586ZM52.1836 89.332L52.9355 89.3125C52.9355 90.0156 52.8607 90.6667 52.7109 91.2656C52.5677 91.8581 52.3333 92.3724 52.0078 92.8086C51.6823 93.2448 51.2559 93.5866 50.7285 93.834C50.2012 94.0749 49.5599 94.1953 48.8047 94.1953C48.2904 94.1953 47.8184 94.1204 47.3887 93.9707C46.9655 93.821 46.6009 93.5898 46.2949 93.2773C45.9889 92.9648 45.7513 92.5579 45.582 92.0566C45.4193 91.5553 45.3379 90.9531 45.3379 90.25V83.4336H47.1445V90.2695C47.1445 90.7448 47.1966 91.1387 47.3008 91.4512C47.4115 91.7572 47.5579 92.0013 47.7402 92.1836C47.929 92.3594 48.1374 92.4831 48.3652 92.5547C48.5996 92.6263 48.8405 92.6621 49.0879 92.6621C49.8561 92.6621 50.4648 92.5156 50.9141 92.2227C51.3633 91.9232 51.6855 91.5228 51.8809 91.0215C52.0827 90.5137 52.1836 89.9505 52.1836 89.332ZM58.2188 85.6895V94H56.4121V83.4336H58.1211L58.2188 85.6895ZM57.7891 88.3164L57.0371 88.2871C57.0436 87.5645 57.151 86.8971 57.3594 86.2852C57.5677 85.6667 57.8607 85.1296 58.2383 84.6738C58.6159 84.2181 59.0651 83.8665 59.5859 83.6191C60.1133 83.3652 60.696 83.2383 61.334 83.2383C61.8548 83.2383 62.3236 83.3099 62.7402 83.4531C63.1569 83.5898 63.5117 83.8112 63.8047 84.1172C64.1042 84.4232 64.332 84.8203 64.4883 85.3086C64.6445 85.7904 64.7227 86.3796 64.7227 87.0762V94H62.9062V87.0566C62.9062 86.5033 62.8249 86.0605 62.6621 85.7285C62.4993 85.39 62.2617 85.1458 61.9492 84.9961C61.6367 84.8398 61.2526 84.7617 60.7969 84.7617C60.3477 84.7617 59.9375 84.8561 59.5664 85.0449C59.2018 85.2337 58.8861 85.4941 58.6191 85.8262C58.3587 86.1582 58.1536 86.5391 58.0039 86.9688C57.8607 87.3919 57.7891 87.8411 57.7891 88.3164ZM74.127 91.9492V79H75.9434V94H74.2832L74.127 91.9492ZM67.0176 88.834V88.6289C67.0176 87.8216 67.1152 87.0892 67.3105 86.4316C67.5124 85.7676 67.7956 85.1979 68.1602 84.7227C68.5312 84.2474 68.9707 83.8828 69.4785 83.6289C69.9928 83.3685 70.5658 83.2383 71.1973 83.2383C71.8613 83.2383 72.4408 83.3555 72.9355 83.5898C73.4368 83.8177 73.86 84.153 74.2051 84.5957C74.5566 85.0319 74.8333 85.5592 75.0352 86.1777C75.237 86.7962 75.377 87.4961 75.4551 88.2773V89.1758C75.3835 89.9505 75.2435 90.6471 75.0352 91.2656C74.8333 91.8841 74.5566 92.4115 74.2051 92.8477C73.86 93.2839 73.4368 93.6191 72.9355 93.8535C72.4342 94.0814 71.8483 94.1953 71.1777 94.1953C70.5592 94.1953 69.9928 94.0618 69.4785 93.7949C68.9707 93.528 68.5312 93.1536 68.1602 92.6719C67.7956 92.1901 67.5124 91.6237 67.3105 90.9727C67.1152 90.3151 67.0176 89.6022 67.0176 88.834ZM68.834 88.6289V88.834C68.834 89.3613 68.8861 89.8561 68.9902 90.3184C69.1009 90.7806 69.2702 91.1875 69.498 91.5391C69.7259 91.8906 70.0156 92.1673 70.3672 92.3691C70.7188 92.5645 71.1387 92.6621 71.627 92.6621C72.2259 92.6621 72.7174 92.5352 73.1016 92.2812C73.4922 92.0273 73.8047 91.6921 74.0391 91.2754C74.2734 90.8587 74.4557 90.4062 74.5859 89.918V87.5645C74.5078 87.2064 74.3939 86.8613 74.2441 86.5293C74.1009 86.1908 73.9121 85.8913 73.6777 85.6309C73.4499 85.3639 73.1667 85.1523 72.8281 84.9961C72.4961 84.8398 72.1022 84.7617 71.6465 84.7617C71.1517 84.7617 70.7253 84.8659 70.3672 85.0742C70.0156 85.276 69.7259 85.556 69.498 85.9141C69.2702 86.2656 69.1009 86.6758 68.9902 87.1445C68.8861 87.6068 68.834 88.1016 68.834 88.6289ZM83.3652 83.5215V82.3398C83.3652 81.9427 83.4303 81.5293 83.5605 81.0996C83.6973 80.6634 83.8926 80.2467 84.1465 79.8496C84.4004 79.446 84.7064 79.0977 85.0645 78.8047L86.0898 79.5176C85.7904 79.9473 85.5592 80.39 85.3965 80.8457C85.2337 81.2949 85.1523 81.7832 85.1523 82.3105V83.5215H83.3652ZM86.4414 83.5215V82.3398C86.4414 81.9427 86.5065 81.5293 86.6367 81.0996C86.7734 80.6634 86.9688 80.2467 87.2227 79.8496C87.4766 79.446 87.7826 79.0977 88.1406 78.8047L89.166 79.5176C88.8665 79.9473 88.6354 80.39 88.4727 80.8457C88.3099 81.2949 88.2285 81.7832 88.2285 82.3105V83.5215H86.4414ZM96.5293 92.1934V86.7539C96.5293 86.3372 96.4447 85.9759 96.2754 85.6699C96.1126 85.3574 95.8652 85.1165 95.5332 84.9473C95.2012 84.778 94.791 84.6934 94.3027 84.6934C93.847 84.6934 93.4466 84.7715 93.1016 84.9277C92.763 85.084 92.4961 85.2891 92.3008 85.543C92.112 85.7969 92.0176 86.0703 92.0176 86.3633H90.2109C90.2109 85.9857 90.3086 85.6113 90.5039 85.2402C90.6992 84.8691 90.9792 84.5339 91.3438 84.2344C91.7148 83.9284 92.1576 83.6875 92.6719 83.5117C93.1927 83.3294 93.7721 83.2383 94.4102 83.2383C95.1784 83.2383 95.8555 83.3685 96.4414 83.6289C97.0339 83.8893 97.4961 84.2832 97.8281 84.8105C98.1667 85.3314 98.3359 85.9857 98.3359 86.7734V91.6953C98.3359 92.0469 98.3652 92.4212 98.4238 92.8184C98.4889 93.2155 98.5833 93.5573 98.707 93.8438V94H96.8223C96.7311 93.7917 96.6595 93.515 96.6074 93.1699C96.5553 92.8184 96.5293 92.4928 96.5293 92.1934ZM96.8418 87.5938L96.8613 88.8633H95.0352C94.5208 88.8633 94.0618 88.9056 93.6582 88.9902C93.2546 89.0684 92.916 89.1888 92.6426 89.3516C92.3691 89.5143 92.1608 89.7194 92.0176 89.9668C91.8743 90.2077 91.8027 90.4909 91.8027 90.8164C91.8027 91.1484 91.8776 91.4512 92.0273 91.7246C92.1771 91.998 92.4017 92.2161 92.7012 92.3789C93.0072 92.5352 93.3815 92.6133 93.8242 92.6133C94.3776 92.6133 94.8659 92.4961 95.2891 92.2617C95.7122 92.0273 96.0475 91.7409 96.2949 91.4023C96.5488 91.0638 96.6855 90.735 96.7051 90.416L97.4766 91.2852C97.431 91.5586 97.3073 91.8613 97.1055 92.1934C96.9036 92.5254 96.6335 92.8444 96.2949 93.1504C95.9629 93.4499 95.5658 93.7005 95.1035 93.9023C94.6478 94.0977 94.1335 94.1953 93.5605 94.1953C92.8444 94.1953 92.2161 94.0553 91.6758 93.7754C91.1419 93.4954 90.7253 93.1211 90.4258 92.6523C90.1328 92.1771 89.9863 91.6465 89.9863 91.0605C89.9863 90.4941 90.097 89.9961 90.3184 89.5664C90.5397 89.1302 90.8587 88.7689 91.2754 88.4824C91.6921 88.1895 92.1934 87.9681 92.7793 87.8184C93.3652 87.6686 94.0195 87.5938 94.7422 87.5938H96.8418ZM102.984 85.6895V94H101.178V83.4336H102.887L102.984 85.6895ZM102.555 88.3164L101.803 88.2871C101.809 87.5645 101.917 86.8971 102.125 86.2852C102.333 85.6667 102.626 85.1296 103.004 84.6738C103.382 84.2181 103.831 83.8665 104.352 83.6191C104.879 83.3652 105.462 83.2383 106.1 83.2383C106.62 83.2383 107.089 83.3099 107.506 83.4531C107.923 83.5898 108.277 83.8112 108.57 84.1172C108.87 84.4232 109.098 84.8203 109.254 85.3086C109.41 85.7904 109.488 86.3796 109.488 87.0762V94H107.672V87.0566C107.672 86.5033 107.59 86.0605 107.428 85.7285C107.265 85.39 107.027 85.1458 106.715 84.9961C106.402 84.8398 106.018 84.7617 105.562 84.7617C105.113 84.7617 104.703 84.8561 104.332 85.0449C103.967 85.2337 103.652 85.4941 103.385 85.8262C103.124 86.1582 102.919 86.5391 102.77 86.9688C102.626 87.3919 102.555 87.8411 102.555 88.3164ZM118.385 91.1973C118.385 90.9368 118.326 90.696 118.209 90.4746C118.098 90.2467 117.867 90.0417 117.516 89.8594C117.171 89.6706 116.65 89.5078 115.953 89.3711C115.367 89.2474 114.837 89.1009 114.361 88.9316C113.893 88.7624 113.492 88.5573 113.16 88.3164C112.835 88.0755 112.584 87.7923 112.408 87.4668C112.232 87.1413 112.145 86.7604 112.145 86.3242C112.145 85.9076 112.236 85.5137 112.418 85.1426C112.607 84.7715 112.87 84.4427 113.209 84.1562C113.554 83.8698 113.967 83.6452 114.449 83.4824C114.931 83.3197 115.468 83.2383 116.061 83.2383C116.907 83.2383 117.63 83.388 118.229 83.6875C118.827 83.987 119.286 84.3874 119.605 84.8887C119.924 85.3835 120.084 85.9336 120.084 86.5391H118.277C118.277 86.2461 118.189 85.9629 118.014 85.6895C117.844 85.4095 117.594 85.1784 117.262 84.9961C116.936 84.8138 116.536 84.7227 116.061 84.7227C115.559 84.7227 115.152 84.8008 114.84 84.957C114.534 85.1068 114.309 85.2988 114.166 85.5332C114.029 85.7676 113.961 86.015 113.961 86.2754C113.961 86.4707 113.993 86.6465 114.059 86.8027C114.13 86.9525 114.254 87.0924 114.43 87.2227C114.605 87.3464 114.853 87.4635 115.172 87.5742C115.491 87.6849 115.898 87.7956 116.393 87.9062C117.258 88.1016 117.971 88.3359 118.531 88.6094C119.091 88.8828 119.508 89.2181 119.781 89.6152C120.055 90.0124 120.191 90.4941 120.191 91.0605C120.191 91.5228 120.094 91.946 119.898 92.3301C119.71 92.7142 119.433 93.0462 119.068 93.3262C118.71 93.5996 118.281 93.8145 117.779 93.9707C117.285 94.1204 116.728 94.1953 116.109 94.1953C115.178 94.1953 114.391 94.0293 113.746 93.6973C113.102 93.3652 112.613 92.9355 112.281 92.4082C111.949 91.8809 111.783 91.3242 111.783 90.7383H113.6C113.626 91.2331 113.769 91.627 114.029 91.9199C114.29 92.2064 114.609 92.4115 114.986 92.5352C115.364 92.6523 115.738 92.7109 116.109 92.7109C116.604 92.7109 117.018 92.6458 117.35 92.5156C117.688 92.3854 117.945 92.2064 118.121 91.9785C118.297 91.7507 118.385 91.4902 118.385 91.1973ZM126.988 83.4336V84.8203H121.275V83.4336H126.988ZM123.209 80.8652H125.016V91.3828C125.016 91.7409 125.071 92.0111 125.182 92.1934C125.292 92.3757 125.436 92.4961 125.611 92.5547C125.787 92.6133 125.976 92.6426 126.178 92.6426C126.327 92.6426 126.484 92.6296 126.646 92.6035C126.816 92.571 126.943 92.5449 127.027 92.5254L127.037 94C126.894 94.0456 126.705 94.0879 126.471 94.127C126.243 94.1725 125.966 94.1953 125.641 94.1953C125.198 94.1953 124.791 94.1074 124.42 93.9316C124.049 93.7559 123.753 93.4629 123.531 93.0527C123.316 92.6361 123.209 92.0762 123.209 91.373V80.8652ZM133.492 94.1953C132.757 94.1953 132.089 94.0716 131.49 93.8242C130.898 93.5703 130.387 93.2155 129.957 92.7598C129.534 92.304 129.208 91.7637 128.98 91.1387C128.753 90.5137 128.639 89.8301 128.639 89.0879V88.6777C128.639 87.8184 128.766 87.0534 129.02 86.3828C129.273 85.7057 129.618 85.1328 130.055 84.6641C130.491 84.1953 130.986 83.8405 131.539 83.5996C132.092 83.3587 132.665 83.2383 133.258 83.2383C134.013 83.2383 134.664 83.3685 135.211 83.6289C135.764 83.8893 136.217 84.2539 136.568 84.7227C136.92 85.1849 137.18 85.7318 137.35 86.3633C137.519 86.9883 137.604 87.6719 137.604 88.4141V89.2246H129.713V87.75H135.797V87.6133C135.771 87.1445 135.673 86.6888 135.504 86.2461C135.341 85.8034 135.081 85.4388 134.723 85.1523C134.365 84.8659 133.876 84.7227 133.258 84.7227C132.848 84.7227 132.47 84.8105 132.125 84.9863C131.78 85.1556 131.484 85.4095 131.236 85.748C130.989 86.0866 130.797 86.5 130.66 86.9883C130.523 87.4766 130.455 88.0397 130.455 88.6777V89.0879C130.455 89.5892 130.523 90.0612 130.66 90.5039C130.803 90.9401 131.008 91.3242 131.275 91.6562C131.549 91.9883 131.878 92.2487 132.262 92.4375C132.652 92.6263 133.095 92.7207 133.59 92.7207C134.228 92.7207 134.768 92.5905 135.211 92.3301C135.654 92.0697 136.041 91.7214 136.373 91.2852L137.467 92.1543C137.239 92.4993 136.949 92.8281 136.598 93.1406C136.246 93.4531 135.813 93.707 135.299 93.9023C134.791 94.0977 134.189 94.1953 133.492 94.1953ZM143.941 92.7109C144.371 92.7109 144.768 92.623 145.133 92.4473C145.497 92.2715 145.797 92.0306 146.031 91.7246C146.266 91.4121 146.399 91.0573 146.432 90.6602H148.15C148.118 91.2852 147.906 91.8678 147.516 92.4082C147.132 92.9421 146.627 93.375 146.002 93.707C145.377 94.0326 144.69 94.1953 143.941 94.1953C143.147 94.1953 142.454 94.0553 141.861 93.7754C141.275 93.4954 140.787 93.1113 140.396 92.623C140.012 92.1348 139.723 91.5749 139.527 90.9434C139.339 90.3053 139.244 89.6315 139.244 88.9219V88.5117C139.244 87.8021 139.339 87.1315 139.527 86.5C139.723 85.862 140.012 85.2988 140.396 84.8105C140.787 84.3223 141.275 83.9382 141.861 83.6582C142.454 83.3783 143.147 83.2383 143.941 83.2383C144.768 83.2383 145.491 83.4076 146.109 83.7461C146.728 84.0781 147.213 84.5339 147.564 85.1133C147.923 85.6862 148.118 86.3372 148.15 87.0664H146.432C146.399 86.6302 146.275 86.2363 146.061 85.8848C145.852 85.5332 145.566 85.2533 145.201 85.0449C144.843 84.8301 144.423 84.7227 143.941 84.7227C143.388 84.7227 142.923 84.8333 142.545 85.0547C142.174 85.2695 141.878 85.5625 141.656 85.9336C141.441 86.2982 141.285 86.7051 141.188 87.1543C141.096 87.597 141.051 88.0495 141.051 88.5117V88.9219C141.051 89.3841 141.096 89.8398 141.188 90.2891C141.279 90.7383 141.432 91.1452 141.646 91.5098C141.868 91.8743 142.164 92.1673 142.535 92.3887C142.913 92.6035 143.382 92.7109 143.941 92.7109ZM151.998 79V94H150.182V79H151.998ZM158.453 83.4336L153.844 88.3652L151.266 91.041L151.119 89.1172L152.965 86.9102L156.246 83.4336H158.453ZM156.803 94L153.033 88.9609L153.971 87.3496L158.932 94H156.803ZM164.508 94.1953C163.772 94.1953 163.105 94.0716 162.506 93.8242C161.913 93.5703 161.402 93.2155 160.973 92.7598C160.549 92.304 160.224 91.7637 159.996 91.1387C159.768 90.5137 159.654 89.8301 159.654 89.0879V88.6777C159.654 87.8184 159.781 87.0534 160.035 86.3828C160.289 85.7057 160.634 85.1328 161.07 84.6641C161.507 84.1953 162.001 83.8405 162.555 83.5996C163.108 83.3587 163.681 83.2383 164.273 83.2383C165.029 83.2383 165.68 83.3685 166.227 83.6289C166.78 83.8893 167.232 84.2539 167.584 84.7227C167.936 85.1849 168.196 85.7318 168.365 86.3633C168.535 86.9883 168.619 87.6719 168.619 88.4141V89.2246H160.729V87.75H166.812V87.6133C166.786 87.1445 166.689 86.6888 166.52 86.2461C166.357 85.8034 166.096 85.4388 165.738 85.1523C165.38 84.8659 164.892 84.7227 164.273 84.7227C163.863 84.7227 163.486 84.8105 163.141 84.9863C162.796 85.1556 162.499 85.4095 162.252 85.748C162.005 86.0866 161.812 86.5 161.676 86.9883C161.539 87.4766 161.471 88.0397 161.471 88.6777V89.0879C161.471 89.5892 161.539 90.0612 161.676 90.5039C161.819 90.9401 162.024 91.3242 162.291 91.6562C162.564 91.9883 162.893 92.2487 163.277 92.4375C163.668 92.6263 164.111 92.7207 164.605 92.7207C165.243 92.7207 165.784 92.5905 166.227 92.3301C166.669 92.0697 167.057 91.7214 167.389 91.2852L168.482 92.1543C168.255 92.4993 167.965 92.8281 167.613 93.1406C167.262 93.4531 166.829 93.707 166.314 93.9023C165.807 94.0977 165.204 94.1953 164.508 94.1953ZM172.535 85.6895V94H170.729V83.4336H172.438L172.535 85.6895ZM172.105 88.3164L171.354 88.2871C171.36 87.5645 171.467 86.8971 171.676 86.2852C171.884 85.6667 172.177 85.1296 172.555 84.6738C172.932 84.2181 173.382 83.8665 173.902 83.6191C174.43 83.3652 175.012 83.2383 175.65 83.2383C176.171 83.2383 176.64 83.3099 177.057 83.4531C177.473 83.5898 177.828 83.8112 178.121 84.1172C178.421 84.4232 178.648 84.8203 178.805 85.3086C178.961 85.7904 179.039 86.3796 179.039 87.0762V94H177.223V87.0566C177.223 86.5033 177.141 86.0605 176.979 85.7285C176.816 85.39 176.578 85.1458 176.266 84.9961C175.953 84.8398 175.569 84.7617 175.113 84.7617C174.664 84.7617 174.254 84.8561 173.883 85.0449C173.518 85.2337 173.202 85.4941 172.936 85.8262C172.675 86.1582 172.47 86.5391 172.32 86.9688C172.177 87.3919 172.105 87.8411 172.105 88.3164ZM188.443 91.9492V79H190.26V94H188.6L188.443 91.9492ZM181.334 88.834V88.6289C181.334 87.8216 181.432 87.0892 181.627 86.4316C181.829 85.7676 182.112 85.1979 182.477 84.7227C182.848 84.2474 183.287 83.8828 183.795 83.6289C184.309 83.3685 184.882 83.2383 185.514 83.2383C186.178 83.2383 186.757 83.3555 187.252 83.5898C187.753 83.8177 188.176 84.153 188.521 84.5957C188.873 85.0319 189.15 85.5592 189.352 86.1777C189.553 86.7962 189.693 87.4961 189.771 88.2773V89.1758C189.7 89.9505 189.56 90.6471 189.352 91.2656C189.15 91.8841 188.873 92.4115 188.521 92.8477C188.176 93.2839 187.753 93.6191 187.252 93.8535C186.751 94.0814 186.165 94.1953 185.494 94.1953C184.876 94.1953 184.309 94.0618 183.795 93.7949C183.287 93.528 182.848 93.1536 182.477 92.6719C182.112 92.1901 181.829 91.6237 181.627 90.9727C181.432 90.3151 181.334 89.6022 181.334 88.834ZM183.15 88.6289V88.834C183.15 89.3613 183.202 89.8561 183.307 90.3184C183.417 90.7806 183.587 91.1875 183.814 91.5391C184.042 91.8906 184.332 92.1673 184.684 92.3691C185.035 92.5645 185.455 92.6621 185.943 92.6621C186.542 92.6621 187.034 92.5352 187.418 92.2812C187.809 92.0273 188.121 91.6921 188.355 91.2754C188.59 90.8587 188.772 90.4062 188.902 89.918V87.5645C188.824 87.2064 188.71 86.8613 188.561 86.5293C188.417 86.1908 188.229 85.8913 187.994 85.6309C187.766 85.3639 187.483 85.1523 187.145 84.9961C186.812 84.8398 186.419 84.7617 185.963 84.7617C185.468 84.7617 185.042 84.8659 184.684 85.0742C184.332 85.276 184.042 85.556 183.814 85.9141C183.587 86.2656 183.417 86.6758 183.307 87.1445C183.202 87.6068 183.15 88.1016 183.15 88.6289ZM195.016 79V80.25C195.016 80.6406 194.947 81.054 194.811 81.4902C194.68 81.9199 194.488 82.3366 194.234 82.7402C193.98 83.1374 193.674 83.4857 193.316 83.7852L192.281 83.0723C192.587 82.6426 192.818 82.2031 192.975 81.7539C193.137 81.2982 193.219 80.8066 193.219 80.2793V79H195.016ZM198.014 79V80.25C198.014 80.6406 197.945 81.054 197.809 81.4902C197.678 81.9199 197.486 82.3366 197.232 82.7402C196.979 83.1374 196.673 83.4857 196.314 83.7852L195.279 83.0723C195.585 82.6426 195.816 82.2031 195.973 81.7539C196.135 81.2982 196.217 80.8066 196.217 80.2793V79H198.014ZM207.594 94H205.787V82.5156C205.787 81.7148 205.943 81.0378 206.256 80.4844C206.568 79.931 207.014 79.5111 207.594 79.2246C208.173 78.9382 208.86 78.7949 209.654 78.7949C210.123 78.7949 210.582 78.8535 211.031 78.9707C211.48 79.0814 211.943 79.2214 212.418 79.3906L212.115 80.9141C211.816 80.7969 211.467 80.6862 211.07 80.582C210.68 80.4714 210.25 80.416 209.781 80.416C209.007 80.416 208.447 80.5918 208.102 80.9434C207.763 81.2884 207.594 81.8125 207.594 82.5156V94ZM209.752 83.4336V84.8203H204.117V83.4336H209.752ZM213.307 83.4336V94H211.5V83.4336H213.307ZM218.082 85.6895V94H216.275V83.4336H217.984L218.082 85.6895ZM217.652 88.3164L216.9 88.2871C216.907 87.5645 217.014 86.8971 217.223 86.2852C217.431 85.6667 217.724 85.1296 218.102 84.6738C218.479 84.2181 218.928 83.8665 219.449 83.6191C219.977 83.3652 220.559 83.2383 221.197 83.2383C221.718 83.2383 222.187 83.3099 222.604 83.4531C223.02 83.5898 223.375 83.8112 223.668 84.1172C223.967 84.4232 224.195 84.8203 224.352 85.3086C224.508 85.7904 224.586 86.3796 224.586 87.0762V94H222.77V87.0566C222.77 86.5033 222.688 86.0605 222.525 85.7285C222.363 85.39 222.125 85.1458 221.812 84.9961C221.5 84.8398 221.116 84.7617 220.66 84.7617C220.211 84.7617 219.801 84.8561 219.43 85.0449C219.065 85.2337 218.749 85.4941 218.482 85.8262C218.222 86.1582 218.017 86.5391 217.867 86.9688C217.724 87.3919 217.652 87.8411 217.652 88.3164ZM233.99 91.9492V79H235.807V94H234.146L233.99 91.9492ZM226.881 88.834V88.6289C226.881 87.8216 226.979 87.0892 227.174 86.4316C227.376 85.7676 227.659 85.1979 228.023 84.7227C228.395 84.2474 228.834 83.8828 229.342 83.6289C229.856 83.3685 230.429 83.2383 231.061 83.2383C231.725 83.2383 232.304 83.3555 232.799 83.5898C233.3 83.8177 233.723 84.153 234.068 84.5957C234.42 85.0319 234.697 85.5592 234.898 86.1777C235.1 86.7962 235.24 87.4961 235.318 88.2773V89.1758C235.247 89.9505 235.107 90.6471 234.898 91.2656C234.697 91.8841 234.42 92.4115 234.068 92.8477C233.723 93.2839 233.3 93.6191 232.799 93.8535C232.298 94.0814 231.712 94.1953 231.041 94.1953C230.423 94.1953 229.856 94.0618 229.342 93.7949C228.834 93.528 228.395 93.1536 228.023 92.6719C227.659 92.1901 227.376 91.6237 227.174 90.9727C226.979 90.3151 226.881 89.6022 226.881 88.834ZM228.697 88.6289V88.834C228.697 89.3613 228.749 89.8561 228.854 90.3184C228.964 90.7806 229.133 91.1875 229.361 91.5391C229.589 91.8906 229.879 92.1673 230.23 92.3691C230.582 92.5645 231.002 92.6621 231.49 92.6621C232.089 92.6621 232.581 92.5352 232.965 92.2812C233.355 92.0273 233.668 91.6921 233.902 91.2754C234.137 90.8587 234.319 90.4062 234.449 89.918V87.5645C234.371 87.2064 234.257 86.8613 234.107 86.5293C233.964 86.1908 233.775 85.8913 233.541 85.6309C233.313 85.3639 233.03 85.1523 232.691 84.9961C232.359 84.8398 231.965 84.7617 231.51 84.7617C231.015 84.7617 230.589 84.8659 230.23 85.0742C229.879 85.276 229.589 85.556 229.361 85.9141C229.133 86.2656 228.964 86.6758 228.854 87.1445C228.749 87.6068 228.697 88.1016 228.697 88.6289ZM243.004 94.1953C242.268 94.1953 241.601 94.0716 241.002 93.8242C240.41 93.5703 239.898 93.2155 239.469 92.7598C239.046 92.304 238.72 91.7637 238.492 91.1387C238.264 90.5137 238.15 89.8301 238.15 89.0879V88.6777C238.15 87.8184 238.277 87.0534 238.531 86.3828C238.785 85.7057 239.13 85.1328 239.566 84.6641C240.003 84.1953 240.497 83.8405 241.051 83.5996C241.604 83.3587 242.177 83.2383 242.77 83.2383C243.525 83.2383 244.176 83.3685 244.723 83.6289C245.276 83.8893 245.729 84.2539 246.08 84.7227C246.432 85.1849 246.692 85.7318 246.861 86.3633C247.031 86.9883 247.115 87.6719 247.115 88.4141V89.2246H239.225V87.75H245.309V87.6133C245.283 87.1445 245.185 86.6888 245.016 86.2461C244.853 85.8034 244.592 85.4388 244.234 85.1523C243.876 84.8659 243.388 84.7227 242.77 84.7227C242.359 84.7227 241.982 84.8105 241.637 84.9863C241.292 85.1556 240.995 85.4095 240.748 85.748C240.501 86.0866 240.309 86.5 240.172 86.9883C240.035 87.4766 239.967 88.0397 239.967 88.6777V89.0879C239.967 89.5892 240.035 90.0612 240.172 90.5039C240.315 90.9401 240.52 91.3242 240.787 91.6562C241.061 91.9883 241.389 92.2487 241.773 92.4375C242.164 92.6263 242.607 92.7207 243.102 92.7207C243.74 92.7207 244.28 92.5905 244.723 92.3301C245.165 92.0697 245.553 91.7214 245.885 91.2852L246.979 92.1543C246.751 92.4993 246.461 92.8281 246.109 93.1406C245.758 93.4531 245.325 93.707 244.811 93.9023C244.303 94.0977 243.701 94.1953 243.004 94.1953ZM251.031 85.6895V94H249.225V83.4336H250.934L251.031 85.6895ZM250.602 88.3164L249.85 88.2871C249.856 87.5645 249.964 86.8971 250.172 86.2852C250.38 85.6667 250.673 85.1296 251.051 84.6738C251.428 84.2181 251.878 83.8665 252.398 83.6191C252.926 83.3652 253.508 83.2383 254.146 83.2383C254.667 83.2383 255.136 83.3099 255.553 83.4531C255.969 83.5898 256.324 83.8112 256.617 84.1172C256.917 84.4232 257.145 84.8203 257.301 85.3086C257.457 85.7904 257.535 86.3796 257.535 87.0762V94H255.719V87.0566C255.719 86.5033 255.637 86.0605 255.475 85.7285C255.312 85.39 255.074 85.1458 254.762 84.9961C254.449 84.8398 254.065 84.7617 253.609 84.7617C253.16 84.7617 252.75 84.8561 252.379 85.0449C252.014 85.2337 251.699 85.4941 251.432 85.8262C251.171 86.1582 250.966 86.5391 250.816 86.9688C250.673 87.3919 250.602 87.8411 250.602 88.3164ZM260.309 93.043C260.309 92.737 260.403 92.4798 260.592 92.2715C260.787 92.0566 261.067 91.9492 261.432 91.9492C261.796 91.9492 262.073 92.0566 262.262 92.2715C262.457 92.4798 262.555 92.737 262.555 93.043C262.555 93.3424 262.457 93.5964 262.262 93.8047C262.073 94.013 261.796 94.1172 261.432 94.1172C261.067 94.1172 260.787 94.013 260.592 93.8047C260.403 93.5964 260.309 93.3424 260.309 93.043ZM265.836 79V80.25C265.836 80.6406 265.768 81.054 265.631 81.4902C265.501 81.9199 265.309 82.3366 265.055 82.7402C264.801 83.1374 264.495 83.4857 264.137 83.7852L263.102 83.0723C263.408 82.6426 263.639 82.2031 263.795 81.7539C263.958 81.2982 264.039 80.8066 264.039 80.2793V79H265.836ZM268.834 79V80.25C268.834 80.6406 268.766 81.054 268.629 81.4902C268.499 81.9199 268.307 82.3366 268.053 82.7402C267.799 83.1374 267.493 83.4857 267.135 83.7852L266.1 83.0723C266.406 82.6426 266.637 82.2031 266.793 81.7539C266.956 81.2982 267.037 80.8066 267.037 80.2793V79H268.834Z" fill="#F9F9F9"/>
<path d="M359.925 66.4826L358.903 66.342C355.828 65.3464 353.629 61.7077 353.012 57.0093C351.15 61.3666 348.05 64.2765 344.821 64.4051L343.744 64.257C340.669 63.2613 338.47 59.6226 337.853 54.9243C335.99 59.2816 332.891 62.1915 329.661 62.3201L328.585 62.172C325.51 61.1763 323.311 57.5376 322.694 52.8393C320.832 57.1966 317.732 60.1065 314.503 60.2351L313.426 60.0871C310.351 59.0913 308.151 55.4525 307.535 50.7543C305.673 55.1116 302.573 58.0216 299.343 58.1501L297.176 57.852C296.978 58.7509 296.805 59.6612 296.677 60.5897C294.201 78.5913 306.294 95.1246 323.688 97.517C341.083 99.9095 357.19 87.255 359.666 69.2534C359.794 68.3248 359.874 67.4017 359.925 66.4826Z" fill="#F9F9F9" fill-opacity="0.5"/>
<path d="M358.731 75.1599L357.71 75.0194C354.635 74.0237 352.436 70.385 351.819 65.6867C349.956 70.044 346.857 72.9539 343.627 73.0825L342.551 72.9344C339.476 71.9387 337.276 68.2999 336.66 63.6017C334.797 67.959 331.697 70.8689 328.468 70.9974L327.391 70.8494C324.316 69.8537 322.117 66.215 321.5 61.5166C319.638 65.874 316.538 68.7839 313.309 68.9125L312.233 68.7644C309.157 67.7687 306.958 64.1299 306.342 59.4317C304.479 63.789 301.379 66.6989 298.15 66.8275L295.982 66.5294C295.784 67.4283 295.611 68.3385 295.483 69.2677C293.007 87.2699 305.1 103.803 322.495 106.195C339.889 108.587 355.997 95.9335 358.473 77.9313C358.601 77.0022 358.68 76.0791 358.731 75.1599Z" fill="#F9F9F9"/>
<path d="M318.59 84.9936C318.231 87.6022 315.825 89.4275 313.216 89.0685C310.607 88.7097 308.783 86.3038 309.142 83.6941C309.501 81.0854 311.907 79.2613 314.515 79.6201C317.125 79.979 318.949 82.385 318.59 84.9936Z" fill="#A29BFE"/>
<path d="M340.694 88.0338C340.335 90.6424 337.929 92.4676 335.32 92.1088C332.711 91.7499 330.887 89.344 331.246 86.7343C331.604 84.1256 334.011 82.3015 336.62 82.6604C339.23 83.0194 341.053 85.4252 340.694 88.0338Z" fill="#A29BFE"/>
<path d="M326.429 95.2157C326.271 96.3644 325.086 97.1484 323.781 96.9689C322.476 96.7895 321.547 95.7137 321.705 94.5659C321.863 93.4182 323.048 92.6322 324.352 92.8116C325.658 92.9911 326.587 94.0679 326.429 95.2157Z" fill="#A29BFE"/>
<path d="M330.466 52.3766C330.351 53.2062 329.609 53.7898 328.808 53.6796C328.006 53.5693 327.448 52.8069 327.563 51.9773C327.677 51.1478 328.419 50.5642 329.221 50.6745C330.022 50.7853 330.58 51.5471 330.466 52.3766Z" fill="#F9F9F9" fill-opacity="0.615686"/>
<path d="M322.292 47.6503C322.095 49.0788 320.818 50.0824 319.438 49.8926C318.058 49.7028 317.099 48.3915 317.295 46.9631C317.492 45.5347 318.769 44.531 320.15 44.7209C321.529 44.9112 322.488 46.2225 322.292 47.6503Z" fill="#F9F9F9"/>
<path d="M324.994 37.8453C324.87 38.7489 324.061 39.3844 323.188 39.2643C322.315 39.1442 321.707 38.3139 321.832 37.4103C321.956 36.5066 322.765 35.8711 323.638 35.9912C324.511 36.1113 325.118 36.9416 324.994 37.8453Z" fill="#F9F9F9"/>
<path d="M337.17 45.5913C337.032 46.5916 336.138 47.2939 335.172 47.1611C334.206 47.0282 333.535 46.1105 333.672 45.1102C333.81 44.1105 334.704 43.4076 335.67 43.5405C336.636 43.6733 337.308 44.5916 337.17 45.5913Z" fill="#F9F9F9"/>
<path d="M344.474 39.0382C344.323 40.1358 343.341 40.9064 342.281 40.7606C341.221 40.6149 340.484 39.6078 340.635 38.5102C340.786 37.4133 341.767 36.642 342.827 36.7878C343.888 36.9343 344.624 37.9418 344.474 39.0382Z" fill="#F9F9F9"/>
<path d="M343.592 52.0136C343.502 52.6647 342.919 53.1228 342.29 53.0363C341.661 52.9498 341.223 52.3512 341.313 51.7001C341.402 51.0491 341.986 50.591 342.615 50.6775C343.244 50.7641 343.682 51.362 343.592 52.0136Z" fill="#F9F9F9"/>
<path d="M364 119H321C321 119 332.04 124.008 334.912 130.455C337.538 136.351 334.912 147 334.912 147L364 119Z" fill="#A29BFE" stroke="#A29BFE"/>
</svg>
