<svg width="44" height="49" viewBox="0 0 44 49" fill="none" xmlns="http://www.w3.org/2000/svg">
<g clip-path="url(#clip0_212_567)">
<path d="M19.515 4.73762C21.0806 4.28368 24.1935 3.63154 27.9679 4.49467C29.6912 4.89107 32.2581 5.4473 34.5943 7.6211C38.0106 10.8051 38.5446 15.1846 38.7085 16.5273C39.2546 21.0028 37.8043 24.3849 36.4269 27.6009C35.0919 30.7081 32.7617 36.1426 27.0577 39.6335C23.3136 41.9288 19.7031 42.4083 17.6885 42.5234" stroke="#F6F4F3" stroke-width="0.5" stroke-miterlimit="10"/>
<path d="M19.7455 4.01514C21.657 5.81172 24.6911 9.1875 26.5965 14.3663C27.4096 16.572 28.8599 20.6447 28.1984 25.9194C27.5552 31.015 25.2857 34.4803 24.0843 36.2705C22.0211 39.3394 19.7334 41.3406 18.1436 42.5297" stroke="#F6F4F3" stroke-width="0.5" stroke-miterlimit="10"/>
<path d="M15.1763 10.9969C20.2614 12.2117 24.1571 13.9315 26.8271 15.3317C28.7446 16.3355 30.3648 17.2689 31.9 18.2535C32.0153 18.3239 32.1428 18.407 32.3005 18.5157C34.7824 20.1524 36.6939 21.6165 40.535 24.7238C43.4234 27.0574 43.8542 27.4474 43.8482 28.1315C43.83 29.9537 40.7898 31.2324 40.0799 31.5201" stroke="#F6F4F3" stroke-width="0.5" stroke-miterlimit="10"/>
<path d="M20.0248 6.45748C20.9397 6.45748 21.6814 5.67602 21.6814 4.71205C21.6814 3.74807 20.9397 2.96661 20.0248 2.96661C19.1098 2.96661 18.3682 3.74807 18.3682 4.71205C18.3682 5.67602 19.1098 6.45748 20.0248 6.45748Z" fill="#F6F4F3"/>
<path d="M15.1766 12.883C16.0915 12.883 16.8332 12.1015 16.8332 11.1375C16.8332 10.1735 16.0915 9.39209 15.1766 9.39209C14.2617 9.39209 13.52 10.1735 13.52 11.1375C13.52 12.1015 14.2617 12.883 15.1766 12.883Z" fill="#F6F4F3"/>
<path d="M27.6098 18.6627C28.957 18.6627 30.0492 17.512 30.0492 16.0925C30.0492 14.6731 28.957 13.5223 27.6098 13.5223C26.2626 13.5223 25.1704 14.6731 25.1704 16.0925C25.1704 17.512 26.2626 18.6627 27.6098 18.6627Z" fill="#F6F4F3"/>
<path d="M40.0798 31.5137C41.1113 31.7502 41.7364 32.7029 41.6211 33.5021C41.4876 34.4163 40.4196 34.8959 40.3832 34.9086C40.371 34.915 40.3589 34.915 40.3589 34.915C40.28 34.9406 40.2497 34.9406 40.2436 34.947C40.1829 34.9854 41.1174 36.1554 41.0992 36.9354C41.081 37.8305 39.7885 38.5082 38.8722 38.9238C36.0809 40.1769 33.6293 41.2766 30.6499 40.5477C28.5867 40.0426 26.7602 38.3484 23.1133 34.9534C21.0987 33.0801 20.146 31.9101 17.9736 30.6186C16.3473 29.6532 14.8667 29.1161 13.8594 28.8156" stroke="#F6F4F3" stroke-width="0.5" stroke-miterlimit="10"/>
<path d="M16.4326 20.683C22.5857 20.9708 26.5057 23.3811 28.2533 24.6534C29.3699 25.4654 31.4573 28.0228 35.62 33.1376C37.0643 34.9086 38.7269 37.0121 39.5583 40.1769C40.3835 43.3097 39.6189 44.5373 39.3883 44.8698C38.7391 45.7904 37.7499 46.0654 36.8155 46.3147C33.9149 47.0819 32.5556 45.7585 29.7886 46.1357C28.8541 46.2636 27.4705 46.6216 25.8504 47.7596" stroke="#F6F4F3" stroke-width="0.5" stroke-miterlimit="10"/>
<path d="M18.3317 43.6358C19.2667 43.6358 20.0247 42.8372 20.0247 41.852C20.0247 40.8669 19.2667 40.0682 18.3317 40.0682C17.3967 40.0682 16.6387 40.8669 16.6387 41.852C16.6387 42.8372 17.3967 43.6358 18.3317 43.6358Z" fill="#F6F4F3"/>
<path d="M25.8138 49C26.5946 49 27.2277 48.3331 27.2277 47.5103C27.2277 46.6876 26.5946 46.0206 25.8138 46.0206C25.0329 46.0206 24.3999 46.6876 24.3999 47.5103C24.3999 48.3331 25.0329 49 25.8138 49Z" fill="#F6F4F3"/>
<path d="M16.2322 22.4285C17.0365 22.4285 17.6886 21.7415 17.6886 20.8941C17.6886 20.0466 17.0365 19.3596 16.2322 19.3596C15.4279 19.3596 14.7759 20.0466 14.7759 20.8941C14.7759 21.7415 15.4279 22.4285 16.2322 22.4285Z" fill="#F6F4F3"/>
<path d="M7.90074 40.4519C8.81565 40.4519 9.55734 39.6704 9.55734 38.7064C9.55734 37.7425 8.81565 36.961 7.90074 36.961C6.98583 36.961 6.24414 37.7425 6.24414 38.7064C6.24414 39.6704 6.98583 40.4519 7.90074 40.4519Z" fill="#F6F4F3"/>
<path d="M6.10443 29.9217C6.94227 29.9217 7.62147 29.2061 7.62147 28.3234C7.62147 27.4406 6.94227 26.725 6.10443 26.725C5.2666 26.725 4.5874 27.4406 4.5874 28.3234C4.5874 29.2061 5.2666 29.9217 6.10443 29.9217Z" fill="#F6F4F3"/>
<path d="M11.2137 18.9376C12.1286 18.9376 12.8703 18.1562 12.8703 17.1922C12.8703 16.2282 12.1286 15.4468 11.2137 15.4468C10.2988 15.4468 9.55713 16.2282 9.55713 17.1922C9.55713 18.1562 10.2988 18.9376 11.2137 18.9376Z" fill="#F6F4F3"/>
<path d="M7.90074 10.9968C8.81565 10.9968 9.55734 10.2154 9.55734 9.25141C9.55734 8.28744 8.81565 7.50598 7.90074 7.50598C6.98583 7.50598 6.24414 8.28744 6.24414 9.25141C6.24414 10.2154 6.98583 10.9968 7.90074 10.9968Z" fill="#F6F4F3"/>
<path d="M1.6566 16.5337C2.57151 16.5337 3.3132 15.7522 3.3132 14.7882C3.3132 13.8242 2.57151 13.0428 1.6566 13.0428C0.741685 13.0428 0 13.8242 0 14.7882C0 15.7522 0.741685 16.5337 1.6566 16.5337Z" fill="#F6F4F3"/>
<path d="M2.5668 35.9572C3.17674 35.9572 3.6712 35.4362 3.6712 34.7936C3.6712 34.1509 3.17674 33.6299 2.5668 33.6299C1.95686 33.6299 1.4624 34.1509 1.4624 34.7936C1.4624 35.4362 1.95686 35.9572 2.5668 35.9572Z" fill="#F6F4F3"/>
<path d="M15.516 37.1208C16.126 37.1208 16.6204 36.5999 16.6204 35.9572C16.6204 35.3146 16.126 34.7936 15.516 34.7936C14.9061 34.7936 14.4116 35.3146 14.4116 35.9572C14.4116 36.5999 14.9061 37.1208 15.516 37.1208Z" fill="#F6F4F3"/>
<path d="M4.58731 21.8467C5.19725 21.8467 5.69171 21.3257 5.69171 20.6831C5.69171 20.0404 5.19725 19.5195 4.58731 19.5195C3.97737 19.5195 3.48291 20.0404 3.48291 20.6831C3.48291 21.3257 3.97737 21.8467 4.58731 21.8467Z" fill="#F6F4F3"/>
<path d="M1.46231 6.98172C2.07225 6.98172 2.56671 6.46075 2.56671 5.8181C2.56671 5.17545 2.07225 4.65448 1.46231 4.65448C0.852367 4.65448 0.35791 5.17545 0.35791 5.8181C0.35791 6.46075 0.852367 6.98172 1.46231 6.98172Z" fill="#F6F4F3"/>
<path d="M10.1093 2.32724C10.7192 2.32724 11.2137 1.80627 11.2137 1.16362C11.2137 0.520971 10.7192 0 10.1093 0C9.49934 0 9.00488 0.520971 9.00488 1.16362C9.00488 1.80627 9.49934 2.32724 10.1093 2.32724Z" fill="#F6F4F3"/>
<path d="M14.0355 30.5546C14.9504 30.5546 15.6921 29.7732 15.6921 28.8092C15.6921 27.8452 14.9504 27.0638 14.0355 27.0638C13.1206 27.0638 12.3789 27.8452 12.3789 28.8092C12.3789 29.7732 13.1206 30.5546 14.0355 30.5546Z" fill="#F6F4F3"/>
</g>
<defs>
<clipPath id="clip0_212_567">
<rect width="44" height="49" fill="white"/>
</clipPath>
</defs>
</svg>
