<svg width="402" height="121" viewBox="0 0 402 121" fill="none" xmlns="http://www.w3.org/2000/svg">
<path d="M320.372 39.3391L319.307 37.6864C317.441 34.7952 318.858 30.6229 322.45 28.0682C320.793 26.5901 318.125 26.0417 315.237 26.8383C310.723 28.0834 307.392 32.1322 307.797 35.88L308.874 45.8775L303.564 48.8973L302.499 47.2446C300.634 44.3531 302.049 40.1814 305.641 37.6268C303.986 36.1483 301.318 35.5999 298.429 36.3969C293.915 37.6417 290.585 41.6904 290.989 45.4382L292.066 55.4361L286.756 58.4559L285.69 56.8035C283.826 53.9116 285.242 49.7397 288.833 47.1853C287.177 45.7072 284.509 45.1585 281.62 45.9554C277.107 47.2002 273.776 51.2493 274.18 54.9971L275.258 64.9943L269.948 68.0144L268.882 66.3621C267.017 63.4702 268.433 59.2986 272.025 56.7439C270.368 55.2658 267.701 54.717 264.812 55.514C260.299 56.7588 256.968 60.8075 257.372 64.5553L258.45 74.5528L256.791 75.4963C257.256 76.4951 257.755 77.487 258.311 78.4618C269.097 97.3616 293.066 104.025 311.847 93.3447C330.628 82.6643 337.11 58.6844 326.323 39.7847C325.767 38.8098 325.167 37.8753 324.543 36.967L320.372 39.3391Z" fill="#DB8CB6" fill-opacity="0.5"/>
<path d="M324.164 45.9834L323.098 44.3301C321.233 41.4395 322.65 37.2672 326.241 34.7119C324.585 33.2338 321.917 32.6848 319.028 33.482C314.515 34.7271 311.184 38.7759 311.588 42.5237L312.666 52.5218L307.356 55.5416L306.29 53.8883C304.426 50.9973 305.841 46.8257 309.433 44.2704C307.777 42.792 305.109 42.243 302.22 43.0406C297.707 44.2853 294.376 48.3341 294.78 52.0819L295.858 62.0804L290.548 65.1001L289.481 63.4472C287.618 60.5559 289.034 56.3839 292.624 53.829C290.968 52.3509 288.301 51.8015 285.412 52.5991C280.899 53.8439 277.567 57.893 277.971 61.6408L279.05 71.6386L273.739 74.6587L272.673 73.0058C270.809 70.1145 272.225 65.9428 275.816 63.3875C274.16 61.9094 271.492 61.3601 268.603 62.1577C264.09 63.4024 260.759 67.4512 261.164 71.199L262.242 81.1971L260.583 82.1406C261.048 83.1394 261.547 84.1312 262.103 85.1061C272.889 104.006 296.858 110.669 315.639 99.989C334.42 89.3086 340.902 65.3294 330.115 46.429C329.559 45.4541 328.959 44.5196 328.335 43.6113L324.164 45.9834Z" fill="#DB8CB6"/>
<path d="M300.088 81.2422C301.477 83.6753 300.637 86.7673 298.21 88.1471C295.785 89.5264 292.693 88.6719 291.304 86.2378C289.915 83.8047 290.756 80.7137 293.181 79.3345C295.606 77.9542 298.699 78.8081 300.088 81.2422Z" fill="#E3F1FF"/>
<path d="M319.704 70.0871C321.092 72.5202 320.252 75.6124 317.827 76.9918C315.401 78.3712 312.309 77.5168 310.919 75.0827C309.531 72.6496 310.372 69.5585 312.797 68.1791C315.223 66.7997 318.315 67.653 319.704 70.0871Z" fill="#E3F1FF"/>
<path d="M298.448 78.7421C296.419 75.2632 291.971 74.072 288.514 76.0815C285.057 78.091 283.899 82.5405 285.929 86.0194L298.448 78.7421Z" fill="#DB8CB6"/>
<path d="M318.612 67.2752C316.583 63.7963 312.135 62.6051 308.678 64.6146C305.221 66.6241 304.063 71.0736 306.093 74.5525L318.612 67.2752Z" fill="#DB8CB6"/>
<path d="M274.192 41.3603C274.791 42.4105 274.431 43.7418 273.388 44.3349C272.345 44.928 271.014 44.5585 270.415 43.5083C269.816 42.4588 270.176 41.1269 271.219 40.5338C272.262 39.9406 273.593 40.3107 274.192 41.3603Z" fill="#DB8CB6" stroke="#DB8CB6" stroke-width="1.8293" stroke-miterlimit="10"/>
<path d="M275.594 29.8218C276.513 31.4329 275.961 33.477 274.36 34.3871C272.759 35.2975 270.716 34.7295 269.797 33.1184C268.877 31.5073 269.43 29.4632 271.031 28.5528C272.631 27.6433 274.674 28.2107 275.594 29.8218Z" fill="#DB8CB6" stroke="#DB8CB6" stroke-width="1.8293" stroke-miterlimit="10"/>
<path d="M285.581 35.9414C286.19 37.009 285.824 38.3633 284.764 38.9663C283.703 39.5696 282.349 39.1937 281.74 38.126C281.13 37.0584 281.497 35.7038 282.558 35.1005C283.618 34.4965 284.972 34.8732 285.581 35.9414Z" fill="#DB8CB6" stroke="#DB8CB6" stroke-width="1.8293" stroke-miterlimit="10"/>
<path d="M289.133 24.0548C289.593 24.8597 289.317 25.8824 288.516 26.3376C287.716 26.7928 286.694 26.5088 286.234 25.7033C285.775 24.8977 286.051 23.8757 286.851 23.4204C287.652 22.9646 288.673 23.2492 289.133 24.0548Z" fill="#DB8CB6" stroke="#DB8CB6" stroke-width="1.8293" stroke-miterlimit="10"/>
<path d="M280.935 19.1606C281.83 20.7288 281.292 22.7183 279.734 23.6045C278.177 24.49 276.187 23.9375 275.292 22.3693C274.397 20.8012 274.936 18.8113 276.493 17.9259C278.05 17.04 280.04 17.5925 280.935 19.1606Z" fill="#DB8CB6" stroke="#DB8CB6" stroke-width="1.8293" stroke-miterlimit="10"/>
<path d="M302.385 89.5594L316.778 88.329" stroke="#E3F1FF" stroke-width="2"/>
<path d="M394.051 74.2118C394.196 73.457 394.324 72.7018 394.424 71.9495L392.801 71.595C392.015 70.4592 391.139 69.2806 391.07 68.0735C390.97 66.3573 391.553 65.299 392.988 66.0693C393.503 66.3449 392.769 67.5395 394.141 67.0219C394.678 66.8195 394.982 65.9192 395.092 65.4117C395.943 61.5134 391.623 60.8887 389.113 62.622C387.184 63.954 384.899 67.3039 385.042 69.9011L380.421 68.8919C379.636 67.7563 378.76 66.5775 378.69 65.3705C378.591 63.6544 379.173 62.596 380.609 63.3662C381.124 63.6418 380.389 64.8364 381.762 64.3188C382.299 64.1166 382.603 63.2161 382.714 62.7089C383.565 58.8105 379.244 58.1858 376.735 59.9191C374.806 61.2512 372.52 64.601 372.663 67.1982L368.043 66.1892C367.257 65.0534 366.382 63.8748 366.312 62.6677C366.212 60.9515 366.795 59.8931 368.231 60.6635C368.746 60.939 368.011 62.1336 369.384 61.616C369.92 61.4137 370.225 60.5133 370.336 60.006C371.187 56.1077 366.866 55.4829 364.356 57.2162C362.427 58.5482 360.142 61.8981 360.285 64.4953L355.664 63.4861C354.878 62.3503 354.003 61.1717 353.933 59.9647C353.833 58.2485 354.415 57.19 355.852 57.9604C356.366 58.236 355.632 59.4306 357.005 58.913C357.541 58.7107 357.846 57.8103 357.956 57.303C358.807 53.4046 354.486 52.7798 351.977 54.5133C350.048 55.8453 347.763 59.1952 347.905 61.7922L343.285 60.7831C342.499 59.6473 341.624 58.4687 341.554 57.2616C341.454 55.5454 342.036 54.487 343.473 55.2574C343.988 55.5331 343.253 56.7276 344.625 56.2099C345.162 56.0076 345.466 55.1073 345.577 54.6C346.428 50.7017 342.107 50.0768 339.598 51.8102C337.669 53.1422 335.384 56.4922 335.526 59.0892L330.906 58.08C330.119 56.9442 329.244 55.7656 329.175 54.5587C329.075 52.8425 329.657 51.784 331.094 52.5545C331.608 52.83 330.873 54.0245 332.247 53.507C332.783 53.3047 333.088 52.4043 333.198 51.897C334.049 47.9986 329.728 47.3739 327.219 49.1072C325.289 50.4392 323.005 53.7891 323.147 56.3862L323.058 56.3668C322.755 57.3511 322.48 58.3519 322.256 59.3774C317.901 79.2442 330.407 98.8533 350.19 103.174C369.917 107.482 389.426 94.9604 393.854 75.1905C394.013 74.8666 394.075 74.5421 394.051 74.2118Z" fill="#E88A68" fill-opacity="0.5"/>
<path d="M392.369 81.8866C392.514 81.1318 392.641 80.3773 392.741 79.6249L391.118 79.2704C390.332 78.134 389.457 76.956 389.387 75.749C389.287 74.0328 389.87 72.9738 391.306 73.7441C391.821 74.0203 391.086 75.2143 392.459 74.6966C392.996 74.4937 393.3 73.5933 393.41 73.0859C394.261 69.1876 389.941 68.5628 387.431 70.2961C385.502 71.6288 383.217 74.9781 383.36 77.5759L378.739 76.5667C377.954 75.4304 377.078 74.2523 377.008 73.0453C376.909 71.3292 377.491 70.2701 378.927 71.0404C379.441 71.3166 378.707 72.5106 380.08 71.9929C380.617 71.7901 380.921 70.8896 381.032 70.3824C381.883 66.484 377.562 65.8593 375.053 67.5926C373.124 68.9254 370.838 72.2745 370.981 74.8723L366.361 73.8633C365.575 72.7268 364.7 71.5489 364.63 70.3419C364.53 68.6256 365.113 67.5665 366.549 68.337C367.063 68.6132 366.329 69.8071 367.702 69.2895C368.239 69.0865 368.543 68.1862 368.654 67.6789C369.505 63.7806 365.184 63.1557 362.674 64.889C360.745 66.2217 358.46 69.5709 358.603 72.1688L353.982 71.1596C353.196 70.0231 352.321 68.8452 352.251 67.6381C352.151 65.9219 352.734 64.8628 354.17 65.6333C354.684 65.9095 353.95 67.1034 355.323 66.5858C355.859 66.3828 356.164 65.4825 356.275 64.9752C357.125 61.0767 352.805 60.452 350.296 62.1854C348.366 63.5181 346.081 66.8674 346.224 69.4651L341.603 68.4559C340.817 67.3194 339.942 66.1415 339.872 64.9344C339.772 63.2182 340.354 62.1591 341.791 62.9296C342.306 63.2059 341.571 64.3997 342.944 63.8821C343.48 63.6791 343.785 62.7788 343.895 62.2715C344.746 58.3732 340.425 57.7483 337.916 59.4817C335.987 60.8144 333.702 64.1637 333.844 66.7614L329.224 65.7522C328.438 64.6157 327.563 63.4378 327.493 62.2309C327.393 60.5147 327.976 59.4556 329.412 60.226C329.927 60.5022 329.192 61.696 330.565 61.1786C331.102 60.9756 331.406 60.0752 331.517 59.5679C332.367 55.6695 328.047 55.0447 325.537 56.778C323.608 58.1107 321.323 61.46 321.465 64.0577L321.377 64.0383C321.074 65.022 320.799 66.0228 320.574 67.0482C316.219 86.9157 328.726 106.524 348.509 110.845C368.235 115.153 387.744 102.632 392.172 82.8613C392.33 82.5413 392.393 82.2169 392.369 81.8866Z" fill="#E88A68"/>
<path d="M345.301 85.0988C344.752 87.6046 342.259 89.1881 339.731 88.6361C337.205 88.0844 335.602 85.6073 336.151 83.1005C336.7 80.5968 339.193 79.0134 341.72 79.5651C344.247 80.1171 345.85 82.5952 345.301 85.0988Z" fill="#F9F9F9"/>
<path d="M370.444 90.5903C369.894 93.0961 367.401 94.6795 364.874 94.1277C362.348 93.5759 360.744 91.0988 361.294 88.5919C361.843 86.0883 364.336 84.5049 366.863 85.0567C369.389 85.6085 370.992 88.0866 370.444 90.5903Z" fill="#F9F9F9"/>
<path d="M359.013 84.9181L366.971 81.0084" stroke="#F9F9F9" stroke-width="1.8293" stroke-miterlimit="10"/>
<path d="M342.456 74.7244L347.842 81.7512" stroke="#F9F9F9" stroke-width="1.8293" stroke-miterlimit="10"/>
<path d="M357.819 102.421C358.796 98.3338 356.208 94.219 352.037 93.2298C347.867 92.2406 343.694 94.7515 342.717 98.8382L357.819 102.421Z" fill="#F9F9F9"/>
<path d="M366.143 49.1191C365.836 50.5188 364.458 51.4056 363.065 51.1013C361.672 50.7971 360.792 49.4164 361.098 48.0173C361.405 46.6182 362.783 45.7314 364.176 46.0356C365.569 46.3399 366.45 47.72 366.143 49.1191Z" fill="#E88A68" stroke="#E88A68" stroke-width="1.8293" stroke-miterlimit="10"/>
<path d="M370.866 44.8393C371.634 45.007 372.394 44.5177 372.563 43.7465C372.732 42.9752 372.247 42.214 371.479 42.0463C370.711 41.8786 369.951 42.3678 369.782 43.1391C369.613 43.9104 370.098 44.6715 370.866 44.8393Z" fill="#E88A68" stroke="#E88A68" stroke-width="1.8293" stroke-miterlimit="10"/>
<path d="M366.65 34.7481C366.405 35.8652 365.305 36.574 364.193 36.3311C363.081 36.0882 362.377 34.9855 362.622 33.8685C362.867 32.7514 363.967 32.0433 365.079 32.2863C366.191 32.5291 366.894 33.6311 366.65 34.7481Z" fill="#E88A68" stroke="#E88A68" stroke-width="1.8293" stroke-miterlimit="10"/>
<path d="M353.404 45.0964C353.068 46.6317 351.556 47.605 350.027 47.2711C348.499 46.9374 347.532 45.4227 347.869 43.8875C348.205 42.3523 349.717 41.379 351.246 41.7127C352.774 42.0466 353.741 43.5619 353.404 45.0964Z" fill="#E88A68" stroke="#E88A68" stroke-width="1.8293" stroke-miterlimit="10"/>
<path d="M353.925 34.9743C353.801 35.5364 353.248 35.8942 352.687 35.7718C352.127 35.6494 351.773 35.0942 351.897 34.5314C352.02 33.9693 352.574 33.6122 353.134 33.7346C353.694 33.857 354.048 34.4115 353.925 34.9743Z" fill="#E88A68" stroke="#E88A68" stroke-width="1.8293" stroke-miterlimit="10"/>
<path d="M210.487 52.7545H205.258C205.101 52.6864 204.949 52.62 204.81 52.5587C202.032 51.3243 198.916 50.3632 196.502 48.4742C193.851 46.3988 190.383 42.5509 191.266 38.7567C191.633 37.1776 192.591 35.9432 194.148 35.7006C194.832 35.5934 195.602 35.7176 196.187 36.042C196.691 36.3212 197.157 37.0397 197.752 37.0346C197.824 35.4716 196.028 34.7489 194.905 34.2662C193.226 33.5452 191.334 33.7512 189.753 34.7855C187.857 36.0258 186.097 38.3498 185.246 40.57C184.477 42.5731 184.724 44.514 184.725 46.5835C184.725 48.3942 184.353 50.6373 182.901 51.8138C180.624 50.8842 178.272 49.9699 176.362 48.4734C173.711 46.3979 170.243 42.5501 171.124 38.7559C171.491 37.1768 172.448 35.9424 174.005 35.6998C174.69 35.5925 175.459 35.7168 176.045 36.0411C176.549 36.3204 177.016 37.0388 177.61 37.0337C177.683 35.4708 175.887 34.748 174.763 34.2653C173.084 33.5443 171.193 33.7503 169.612 34.7846C167.715 36.025 165.956 38.349 165.104 40.5691C164.336 42.5722 164.583 44.5132 164.583 46.5826C164.583 48.3933 164.212 50.6365 162.759 51.813C160.482 50.8834 158.13 49.9691 156.218 48.4725C153.568 46.3971 150.099 42.5492 150.982 38.755C151.349 37.1759 152.305 35.9415 153.863 35.6989C154.548 35.5917 155.318 35.7159 155.903 36.0403C156.408 36.3195 156.873 37.038 157.468 37.0329C157.54 35.4699 155.744 34.7472 154.62 34.2645C152.941 33.5435 151.051 33.7495 149.47 34.7838C147.573 36.0241 145.814 38.3481 144.963 40.5683C144.194 42.5714 144.441 44.5123 144.441 46.5818C144.441 48.3925 144.07 50.6356 142.617 51.8121C140.34 50.8825 137.988 49.9682 136.076 48.4717C133.426 46.3962 129.958 42.5484 130.84 38.7542C131.207 37.1751 132.165 35.9407 133.721 35.6981C134.405 35.5908 135.176 35.7151 135.761 36.0394C136.264 36.3186 136.731 37.0371 137.326 37.032C137.399 35.4691 135.602 34.7463 134.479 34.2636C132.8 33.5426 130.909 33.7486 129.328 34.7829C127.432 36.0233 125.672 38.3473 124.82 40.5674C124.051 42.5705 124.299 44.5115 124.299 46.5809C124.299 48.4036 123.925 50.6671 122.448 51.8368C121.941 52.2386 121.289 52.5374 120.585 52.7511H116.194C116.104 52.717 116.003 52.6941 115.917 52.6557C115.939 52.706 115.975 52.8762 115.97 52.7545L116.095 52.7928C115.986 54.0842 115.918 55.3867 115.918 56.7062C115.918 82.5504 137.129 103.502 163.294 103.502C189.459 103.502 210.669 82.5504 210.669 56.7062C210.667 55.3756 210.597 54.0595 210.487 52.7545Z" fill="#F2C94C" fill-opacity="0.5"/>
<path d="M210.487 63.1361H205.258C205.101 63.068 204.949 63.0016 204.81 62.9403C202.032 61.7051 198.916 60.7448 196.502 58.8558C193.851 56.7804 190.383 52.9325 191.266 49.1383C191.633 47.5601 192.591 46.3248 194.148 46.0822C194.832 45.9758 195.602 46.0992 196.187 46.4236C196.691 46.7028 197.157 47.4221 197.752 47.417C197.824 45.8532 196.028 45.1313 194.905 44.6486C193.226 43.9276 191.334 44.1336 189.753 45.1679C187.857 46.4083 186.097 48.7331 185.246 50.9524C184.477 52.9555 184.724 54.8973 184.725 56.9659C184.725 58.7766 184.353 61.0198 182.901 62.1963C180.624 61.2666 178.272 60.3524 176.362 58.8558C173.711 56.7804 170.243 52.9325 171.124 49.1383C171.491 47.5601 172.448 46.3248 174.005 46.0822C174.69 45.9758 175.459 46.0992 176.045 46.4236C176.549 46.7028 177.016 47.4221 177.61 47.417C177.683 45.8532 175.887 45.1313 174.763 44.6486C173.084 43.9276 171.193 44.1336 169.612 45.1679C167.715 46.4083 165.956 48.7331 165.104 50.9524C164.336 52.9555 164.583 54.8973 164.583 56.9659C164.583 58.7766 164.212 61.0198 162.759 62.1963C160.482 61.2666 158.13 60.3524 156.218 58.8558C153.568 56.7804 150.099 52.9325 150.982 49.1383C151.349 47.5601 152.305 46.3248 153.863 46.0822C154.548 45.9758 155.318 46.0992 155.903 46.4236C156.408 46.7028 156.873 47.4221 157.468 47.417C157.54 45.8532 155.744 45.1313 154.62 44.6486C152.941 43.9276 151.051 44.1336 149.47 45.1679C147.573 46.4083 145.814 48.7331 144.963 50.9524C144.194 52.9555 144.441 54.8973 144.441 56.9659C144.441 58.7766 144.07 61.0198 142.617 62.1963C140.34 61.2666 137.988 60.3524 136.076 58.8558C133.426 56.7804 129.958 52.9325 130.84 49.1383C131.207 47.5601 132.165 46.3248 133.721 46.0822C134.405 45.9758 135.176 46.0992 135.761 46.4236C136.264 46.7028 136.731 47.4221 137.326 47.417C137.399 45.8532 135.602 45.1313 134.479 44.6486C132.8 43.9276 130.909 44.1336 129.328 45.1679C127.432 46.4083 125.672 48.7331 124.82 50.9524C124.051 52.9555 124.299 54.8973 124.299 56.9659C124.299 58.7886 123.925 61.053 122.448 62.2218C121.941 62.6236 121.289 62.9233 120.585 63.1361H116.194C116.104 63.102 116.003 63.0799 115.917 63.0407C115.939 63.091 115.975 63.2621 115.97 63.1395L116.095 63.1778C115.986 64.4701 115.918 65.7717 115.918 67.0912C115.918 92.9363 137.129 113.887 163.294 113.887C189.459 113.887 210.669 92.9363 210.669 67.0912C210.667 65.7572 210.597 64.4411 210.487 63.1361Z" fill="#F2C94C"/>
<path d="M152.777 84.8311C152.777 88.1443 150.07 90.832 146.73 90.832C143.391 90.832 140.684 88.1457 140.684 84.8311C140.684 81.5179 143.391 78.8317 146.73 78.8317C150.07 78.8317 152.777 81.5179 152.777 84.8311Z" fill="#F9F9F9"/>
<path d="M187.211 84.8311C187.211 88.1443 184.503 90.832 181.164 90.832C177.824 90.832 175.118 88.1457 175.118 84.8311C175.118 81.5179 177.825 78.8317 181.164 78.8317C184.503 78.8317 187.211 81.5179 187.211 84.8311Z" fill="#F9F9F9"/>
<path d="M169.045 24.6255C169.045 26.3391 167.639 27.7284 165.904 27.7284C164.169 27.7284 162.763 26.34 162.763 24.6255C162.763 22.9118 164.169 21.5234 165.904 21.5234C167.639 21.5234 169.045 22.9118 169.045 24.6255Z" fill="#F2C94C" stroke="#F2C94C" stroke-width="1.8293" stroke-miterlimit="10"/>
<path d="M151.966 26.1765C151.966 27.0329 151.263 27.7276 150.396 27.7276C149.529 27.7276 148.826 27.0329 148.826 26.1765C148.826 25.3201 149.529 24.6255 150.396 24.6255C151.263 24.6255 151.966 25.3201 151.966 26.1765Z" fill="#F2C94C" stroke="#F2C94C" stroke-width="1.8293" stroke-miterlimit="10"/>
<path d="M183.069 20.9827C183.069 21.9821 182.249 22.7925 181.238 22.7925C180.227 22.7925 179.406 21.9821 179.406 20.9827C179.406 19.9833 180.226 19.1737 181.238 19.1737C182.25 19.1737 183.069 19.9833 183.069 20.9827Z" fill="#F2C94C" stroke="#F2C94C" stroke-width="1.8293" stroke-miterlimit="10"/>
<path d="M172.114 100.079C172.083 95.3534 168.251 91.5479 163.555 91.579C158.859 91.61 155.077 95.466 155.108 100.192L172.114 100.079Z" fill="#F9F9F9"/>
<path d="M172.162 10.065C172.162 11.4926 170.991 12.6504 169.545 12.6504C168.099 12.6504 166.928 11.4934 166.928 10.065C166.928 8.63822 168.099 7.48047 169.545 7.48047C170.99 7.48047 172.162 8.63822 172.162 10.065Z" fill="#F2C94C" stroke="#F2C94C" stroke-width="1.8293" stroke-miterlimit="10"/>
<path d="M155.615 14.8101C155.615 16.0028 154.636 16.9707 153.428 16.9707C152.221 16.9707 151.242 16.0036 151.242 14.8101C151.242 13.6175 152.221 12.6504 153.428 12.6504C154.636 12.6504 155.615 13.6175 155.615 14.8101Z" fill="#F2C94C" stroke="#F2C94C" stroke-width="1.8293" stroke-miterlimit="10"/>
<path d="M78.5634 60.6829C78.3239 59.5128 78.0256 58.343 77.6651 57.1773C77.363 56.2007 77.0152 55.2511 76.6407 54.3193L67.597 57.1065C65.9909 55.9661 64.6628 54.4873 63.2021 53.0992C61.6393 51.6141 59.6579 50.1925 57.6884 49.7495C56.235 49.4228 52.6569 49.6067 52.6983 51.8531C56.8202 52.6014 58.1593 58.5915 55.6412 60.7906L53.1047 61.5723C51.4986 60.4319 50.1711 58.9529 48.7098 57.5649C47.147 56.0799 45.1663 54.6581 43.1961 54.2153C41.7427 53.8886 38.1646 54.0725 38.206 56.3189C42.3279 57.0671 43.667 63.0573 41.1489 65.2564L38.6124 66.0381C37.0064 64.8977 35.6782 63.4189 34.2169 62.0309C32.6547 60.5457 30.6734 59.124 28.7038 58.6811C27.2504 58.3543 23.6717 58.5385 23.7137 60.7846C27.8356 61.5329 29.1747 67.5231 26.6572 69.722L24.1201 70.5039C22.5147 69.3633 21.1859 67.8846 19.7246 66.4967C18.1624 65.0115 16.1811 63.5898 14.2115 63.1469C12.7581 62.8201 9.18005 63.0041 9.2214 65.2504C13.3433 65.9987 14.6824 71.9889 12.1643 74.1879L9.764 74.9277C9.76796 74.947 9.77394 74.9663 9.77829 74.9868L9.62386 74.9914C9.6775 74.994 9.72699 74.9896 9.77924 74.9899C9.99288 75.9488 10.2367 76.9079 10.5324 77.864C16.3886 96.7981 36.164 107.517 54.7026 101.804C72.0755 96.4493 82.1948 78.5648 78.5792 60.7532L78.7012 60.7498C78.6559 60.7269 78.609 60.7071 78.5634 60.6829Z" fill="#A4D65E" fill-opacity="0.5"/>
<path d="M81.0337 68.6691C80.7941 67.499 80.4957 66.3286 80.1351 65.1629C79.8333 64.1869 79.4852 63.2367 79.1109 62.3055L70.0672 65.0927C68.461 63.9517 67.133 62.4735 65.6723 61.0854C64.1095 59.6003 62.1282 58.1786 60.1584 57.7351C58.705 57.4083 55.1273 57.5935 55.1685 59.8393C59.2902 60.5869 60.6295 66.5778 58.1114 68.7768L55.5749 69.5585C53.9687 68.4175 52.6413 66.9391 51.18 65.5512C49.6172 64.0661 47.6365 62.6443 45.6661 62.2009C44.2128 61.8741 40.635 62.0593 40.6762 64.305C44.7979 65.0527 46.1372 71.0435 43.6191 73.2426L41.0827 74.0243C39.4764 72.8832 38.1484 71.4051 36.6871 70.0171C35.1249 68.5319 33.1436 67.1102 31.1738 66.6667C29.7205 66.3399 26.1421 66.5253 26.1839 68.7708C30.3056 69.5185 31.6449 75.5093 29.1274 77.7081L26.5904 78.4901C24.9847 77.3488 23.6561 75.8708 22.1949 74.4829C20.6326 72.9977 18.6513 71.576 16.6816 71.1324C15.2282 70.8057 11.6505 70.9909 11.6916 73.2366C15.8133 73.9843 17.1526 79.9751 14.6345 82.1741L12.2342 82.9139C12.2382 82.9331 12.2444 82.9531 12.2485 82.973L12.0941 82.9776C12.1475 82.9795 12.1972 82.9758 12.2493 82.9755C12.4629 83.9344 12.7067 84.8935 13.0024 85.8495C18.8588 104.784 38.6341 115.503 57.1726 109.789C74.5456 104.435 84.6648 86.5504 81.0494 68.7394L81.1712 68.7354C81.1264 68.7137 81.0793 68.6933 81.0337 68.6691Z" fill="#A4D65E"/>
<path d="M64.717 81.5246C65.4579 83.9199 64.1401 86.4523 61.7733 87.1818C59.4074 87.9109 56.8882 86.5622 56.147 84.1658C55.4068 81.7726 56.7242 79.2392 59.091 78.5097C61.4579 77.7802 63.9765 79.1303 64.717 81.5246Z" fill="#F9F9F9"/>
<path d="M59.9293 102.122C59.9293 102.122 56.8099 86.9409 39.3259 97.8962" stroke="#F9F9F9" stroke-width="1.8293" stroke-miterlimit="10"/>
<path d="M34.5749 87.3374C34.5749 87.3374 36.0252 84.9216 44.1052 89.6586C44.1052 89.6586 45.05 84.4609 36.6746 82.1012" stroke="#F9F9F9" stroke-width="1.8293" stroke-miterlimit="10"/>
<path d="M33.9555 47.9017C34.3156 49.0661 33.683 50.2946 32.5436 50.6458C31.4036 50.9971 30.1879 50.3383 29.8278 49.1739C29.4678 48.0101 30.0996 46.7811 31.2396 46.4298C32.379 46.0786 33.5953 46.7373 33.9555 47.9017Z" fill="#A4D65E" stroke="#A4D65E" stroke-width="1.8293" stroke-miterlimit="10"/>
<path d="M41.9853 44.2726C42.1655 44.8551 41.8495 45.4683 41.2792 45.644C40.7095 45.8196 40.1014 45.4906 39.9215 44.9087C39.7415 44.3268 40.0577 43.7122 40.6274 43.5366C41.1977 43.3609 41.8053 43.6907 41.9853 44.2726Z" fill="#A4D65E" stroke="#A4D65E" stroke-width="1.8293" stroke-miterlimit="10"/>
<path d="M38.0226 35.1138C38.338 36.1335 37.7843 37.2086 36.7872 37.5159C35.7895 37.8234 34.725 37.247 34.4096 36.2273C34.0944 35.2083 34.6481 34.1332 35.6458 33.8257C36.6429 33.5184 37.7074 34.0948 38.0226 35.1138Z" fill="#A4D65E" stroke="#A4D65E" stroke-width="1.8293" stroke-miterlimit="10"/>
<path d="M23.4807 51.4682C23.8937 52.8035 23.169 54.2121 21.8623 54.6148C20.5556 55.0175 19.1615 54.262 18.7485 52.9267C18.3357 51.592 19.0604 50.1834 20.3671 49.7807C21.6738 49.378 23.0679 50.1336 23.4807 51.4682Z" fill="#A4D65E" stroke="#A4D65E" stroke-width="1.8293" stroke-miterlimit="10"/>
<path d="M23.7419 39.5158C24.0571 40.5349 23.5034 41.61 22.5057 41.9175C21.508 42.225 20.4435 41.6486 20.1283 40.6295C19.813 39.6098 20.3666 38.5347 21.3643 38.2272C22.3621 37.9197 23.4265 38.4961 23.7419 39.5158Z" fill="#A4D65E" stroke="#A4D65E" stroke-width="1.8293" stroke-miterlimit="10"/>
<path d="M286.894 69.9421L286.533 69.8456C284.192 66.8411 263.622 40.4991 266.083 45.7631C267.532 48.8614 265.435 54.2998 263.282 58.5278C256.582 50.0576 246.096 37.0449 247.894 40.8893C249.343 43.9875 247.245 49.4257 245.093 53.6546C238.393 45.1847 227.906 32.1709 229.704 36.0154C231.152 39.1135 229.056 44.5521 226.903 48.7801C220.203 40.3099 209.716 27.297 211.514 31.1414C214.125 36.7213 205.005 48.0002 205.005 48.0002C204.618 49.0642 204.262 50.1481 203.963 51.2626C198.177 72.8555 211.888 95.2921 234.587 101.374C257.286 107.457 280.379 94.8821 286.165 73.2885C286.464 72.1741 286.698 71.0576 286.894 69.9421Z" fill="#B8BDF2" fill-opacity="0.5"/>
<path d="M284.81 77.7175L284.45 77.621C282.108 74.6165 261.538 48.2745 264 53.5385C265.449 56.6361 263.352 62.0751 261.199 66.3031C254.499 57.8323 244.013 44.8196 245.81 48.6647C247.259 51.7622 245.162 57.2011 243.009 61.43C236.31 52.9594 225.822 39.9456 227.621 43.7908C229.069 46.8882 226.973 52.3274 224.82 56.5554C218.12 48.0846 207.633 35.0717 209.431 38.9168C212.042 44.4967 202.922 55.7756 202.922 55.7756C202.534 56.8389 202.178 57.9234 201.88 59.0373C196.094 80.6309 209.804 103.067 232.504 109.149C255.203 115.231 278.295 102.657 284.081 81.0631C284.381 79.9495 284.615 78.8323 284.81 77.7175Z" fill="#B8BDF2"/>
<path d="M231.653 77.676C230.9 80.487 227.94 82.1381 225.042 81.3617C222.146 80.5856 220.408 77.6772 221.162 74.8649C221.915 72.0539 224.874 70.4028 227.771 71.1789C230.667 71.955 232.406 74.8637 231.653 77.676Z" fill="#F9F9F9"/>
<path d="M259.471 85.1301C258.718 87.9412 255.758 89.5922 252.861 88.816C249.964 88.0398 248.226 85.1313 248.98 82.3191C249.733 79.508 252.693 77.857 255.59 78.6332C258.486 79.4094 260.224 82.3179 259.471 85.1301Z" fill="#F9F9F9"/>
<path d="M233.359 93.6302C233.359 93.6302 240.775 100.601 246.376 92.4672" stroke="#F9F9F9" stroke-width="2.5" stroke-miterlimit="10"/>
<path d="M242.986 35.3855C242.762 36.2247 241.865 36.7124 240.983 36.4762C240.102 36.2402 239.57 35.3695 239.795 34.5302C240.019 33.6923 240.916 33.2039 241.797 33.4399C242.678 33.6761 243.211 34.5476 242.986 35.3855Z" fill="#B8BDF2" stroke="#B8BDF2" stroke-width="1.8293" stroke-miterlimit="10"/>
<path d="M254.145 33.5215C253.808 34.779 252.463 35.5111 251.141 35.1569C249.82 34.8027 249.021 33.4957 249.358 32.2389C249.695 30.9814 251.04 30.2492 252.362 30.6034C253.683 30.9576 254.482 32.2647 254.145 33.5215Z" fill="#B8BDF2" stroke="#B8BDF2" stroke-width="1.8293" stroke-miterlimit="10"/>
<path d="M262.991 41.1362C262.65 42.4072 261.291 43.1468 259.955 42.7888C258.619 42.4308 257.811 41.1106 258.152 39.8396C258.493 38.5679 259.852 37.8283 261.188 38.1863C262.524 38.5443 263.332 39.8645 262.991 41.1362Z" fill="#B8BDF2" stroke="#B8BDF2" stroke-width="1.8293" stroke-miterlimit="10"/>
<path d="M131.191 59.3796L130.884 59.4528C127.928 58.1557 101.983 46.7986 105.938 49.7321C108.266 51.4587 108.893 56.3579 108.99 60.3772C100.584 56.76 87.525 51.2806 90.4136 53.4229C92.7415 55.1495 93.3675 60.0488 93.4656 64.0686C85.0599 60.4512 71.9997 54.9715 74.8889 57.1137C77.2162 58.8404 77.8436 63.7394 77.9409 67.7588C69.5345 64.1415 56.4751 58.6623 59.3637 60.8046C63.5575 63.9136 61.2997 75.9954 61.2997 75.9954C61.4391 76.9448 61.6101 77.8964 61.8362 78.8476C66.2176 97.277 85.4749 108.485 104.849 103.879C124.223 99.2729 136.376 80.5983 131.995 62.1683C131.769 61.2169 131.495 60.2901 131.191 59.3796Z" fill="#D35D6E" fill-opacity="0.5"/>
<path d="M132.769 66.0158L132.461 66.089C129.505 64.7919 103.561 53.4348 107.516 56.3683C109.844 58.0943 110.471 62.994 110.568 67.0134C102.161 63.3955 89.1026 57.9162 91.9913 60.0591C94.3191 61.7851 94.9453 66.685 95.0433 70.7048C86.6375 67.0868 73.5773 61.6071 76.4667 63.7499C78.7938 65.476 79.4213 70.3756 79.5186 74.3949C71.1121 70.7771 58.0527 65.2979 60.9415 67.4408C65.1352 70.5498 62.8775 82.6316 62.8775 82.6316C63.0167 83.5804 63.1878 84.5326 63.4138 85.4832C67.7953 103.913 87.0525 115.12 106.426 110.514C125.8 105.908 137.954 87.2345 133.573 68.8039C133.347 67.8531 133.072 66.9256 132.769 66.0158Z" fill="#D35D6E"/>
<path d="M100.815 98.5995C100.815 98.5995 109.152 100.811 110.052 92.4905" stroke="#F9F9F9" stroke-width="2.5" stroke-miterlimit="10"/>
<path d="M82.9116 83.7324C83.432 83.5078 83.9964 83.4069 84.5633 83.4371C85.1301 83.4672 85.6849 83.6277 86.1868 83.9067L86.2144 83.9222L86.2308 83.8983C86.5396 83.4485 86.939 83.073 87.4024 82.7968C87.8659 82.5206 88.3827 82.35 88.9183 82.2963L89.0747 82.2832C89.7567 82.2442 90.4389 82.3957 91.0489 82.7217C91.659 83.0477 92.1743 83.536 92.5402 84.1349C92.9061 84.7339 93.109 85.4211 93.1274 86.124C93.1459 86.8268 92.9791 87.519 92.6449 88.1273L92.5623 88.2706L92.539 88.3036L89.078 94.0611C88.9981 94.1939 88.8737 94.2917 88.7278 94.3365C88.582 94.3813 88.4245 94.3699 88.2847 94.3046L88.2146 94.2664L82.5 90.6615C81.8967 90.2884 81.4032 89.7524 81.0744 89.1127C80.7455 88.4731 80.594 87.7548 80.6366 87.0374C80.6792 86.32 80.9143 85.6315 81.3158 85.0482C81.7174 84.4648 82.2697 84.0094 82.9116 83.7324Z" fill="#F9F9F9"/>
<path d="M108.136 76.8092C108.656 76.5846 109.221 76.4837 109.787 76.5138C110.354 76.544 110.909 76.7045 111.411 76.9835L111.439 76.999L111.455 76.975C111.764 76.5253 112.163 76.1498 112.626 75.8736C113.09 75.5974 113.607 75.4267 114.142 75.3731L114.299 75.36C114.981 75.321 115.663 75.4725 116.273 75.7985C116.883 76.1244 117.398 76.6128 117.764 77.2117C118.13 77.8106 118.333 78.4979 118.351 79.2007C118.37 79.9036 118.203 80.5958 117.869 81.2041L117.786 81.3474L117.763 81.3804L114.302 87.1379C114.222 87.2707 114.098 87.3685 113.952 87.4133C113.806 87.458 113.649 87.4467 113.509 87.3813L113.439 87.3431L107.724 83.7383C107.121 83.3652 106.627 82.8292 106.298 82.1895C105.97 81.5499 105.818 80.8316 105.861 80.1142C105.903 79.3968 106.138 78.7083 106.54 78.125C106.941 77.5416 107.494 77.0862 108.136 76.8092Z" fill="#F9F9F9"/>
<path d="M75.0503 44.8068C75.3484 44.6816 75.6707 44.6229 75.9934 44.635C76.3161 44.6471 76.6309 44.7297 76.9148 44.8767L76.9304 44.8848L76.9399 44.8718C77.1191 44.6265 77.3495 44.4207 77.6155 44.2681C77.8816 44.1154 78.1772 44.0194 78.4828 43.9864L78.5719 43.9782C78.9608 43.9521 79.3482 44.0289 79.6933 44.2004C80.0385 44.372 80.3284 44.632 80.5324 44.9528C80.7364 45.2737 80.8469 45.6434 80.8521 46.023C80.8574 46.4025 80.7573 46.7777 80.5624 47.1088L80.5143 47.1869L80.5008 47.2049L78.4865 50.3409C78.44 50.4132 78.3684 50.467 78.2849 50.4923C78.2015 50.5175 78.1119 50.5126 78.0327 50.4783L77.9931 50.4582L74.7644 48.5531C74.4235 48.3561 74.1464 48.0701 73.9638 47.727C73.7812 47.3839 73.7002 46.997 73.7298 46.6091C73.7594 46.2212 73.8984 45.8476 74.1315 45.5295C74.3646 45.2113 74.6826 44.9612 75.0503 44.8068Z" fill="#D35D6E"/>
<path d="M83.4687 35.4018C83.841 35.2435 84.2439 35.1707 84.648 35.1888C85.0521 35.207 85.4469 35.3155 85.8034 35.5065L85.8231 35.5171L85.8349 35.5004C86.0573 35.187 86.344 34.9246 86.6758 34.7308C87.0077 34.5369 87.377 34.4161 87.7593 34.3762L87.8709 34.3664C88.3574 34.3359 88.8431 34.4376 89.2765 34.6607C89.71 34.8837 90.075 35.2198 90.3329 35.6333C90.5909 36.0469 90.7322 36.5225 90.7419 37.0098C90.7516 37.4971 90.6293 37.978 90.3879 38.4015L90.3283 38.5013L90.3115 38.5243L87.815 42.5341C87.7573 42.6266 87.6681 42.695 87.5639 42.7268C87.4597 42.7586 87.3474 42.7515 87.248 42.7069L87.1983 42.6807L83.1409 40.2091C82.7125 39.9533 82.3633 39.584 82.132 39.1421C81.9006 38.7001 81.7961 38.2027 81.83 37.705C81.864 37.2073 82.035 36.7287 82.3243 36.3222C82.6135 35.9157 83.0096 35.5971 83.4687 35.4018Z" fill="#D35D6E"/>
<path d="M90.1471 44.0061C90.5193 43.8478 90.9223 43.775 91.3264 43.7931C91.7304 43.8113 92.1253 43.9198 92.4818 44.1108L92.5014 44.1214L92.5132 44.1047C92.7356 43.7913 93.0223 43.529 93.3542 43.3351C93.686 43.1412 94.0554 43.0204 94.4376 42.9805L94.5492 42.9707C95.0357 42.9402 95.5214 43.0419 95.9549 43.265C96.3883 43.488 96.7533 43.8241 97.0113 44.2376C97.2693 44.6512 97.4106 45.1268 97.4202 45.6141C97.4299 46.1014 97.3076 46.5823 97.0663 47.0058L97.0066 47.1056L96.9899 47.1286L94.4933 51.1384C94.4357 51.2309 94.3465 51.2994 94.2422 51.3311C94.138 51.3629 94.0258 51.3558 93.9264 51.3112L93.8766 51.285L89.8193 48.8134C89.3909 48.5576 89.0417 48.1883 88.8103 47.7464C88.5789 47.3044 88.4744 46.807 88.5084 46.3093C88.5423 45.8116 88.7134 45.333 89.0026 44.9265C89.2918 44.52 89.688 44.2014 90.1471 44.0061Z" fill="#D35D6E"/>
<path d="M75.3653 36.3841C75.5893 36.2921 75.8309 36.2475 76.0722 36.2535C76.3135 36.2596 76.5483 36.3162 76.7595 36.4192L76.7711 36.4249L76.7783 36.4155C76.9144 36.2384 77.0883 36.0892 77.2886 35.9777C77.4889 35.8662 77.7108 35.7951 77.9397 35.769L78.0064 35.7624C78.2975 35.7406 78.5868 35.7924 78.8435 35.9126C79.1003 36.0327 79.3151 36.2165 79.4652 36.4447C79.6152 36.6728 79.6949 36.9368 79.6958 37.2086C79.6967 37.4803 79.6188 37.7499 79.4703 37.9886L79.4337 38.0449L79.4234 38.0578L77.8913 40.32C77.856 40.3722 77.802 40.4113 77.7394 40.4301C77.6768 40.4488 77.6098 40.446 77.5508 40.4221L77.5213 40.408L75.1213 39.0696C74.8678 38.9312 74.6628 38.7286 74.529 38.4843C74.3951 38.2401 74.3377 37.9636 74.3629 37.6856C74.3882 37.4075 74.4952 37.1388 74.6721 36.9091C74.849 36.6794 75.0889 36.4977 75.3653 36.3841Z" fill="#D35D6E"/>
<path d="M97.2151 37.6799C97.4762 37.5713 97.7581 37.5196 98.0401 37.5287C98.3221 37.5378 98.597 37.6074 98.8444 37.7324L98.8581 37.7393L98.8664 37.7281C99.0241 37.5169 99.2262 37.3394 99.4594 37.2073C99.6925 37.0752 99.9513 36.9917 100.219 36.9622L100.297 36.9548C100.636 36.9308 100.975 36.9951 101.276 37.1409C101.577 37.2868 101.829 37.5087 102.006 37.7832C102.183 38.0577 102.278 38.3746 102.281 38.7002C102.284 39.0259 102.195 39.3482 102.024 39.6331L101.981 39.7003L101.969 39.7158L100.196 42.4149C100.155 42.4772 100.093 42.5236 100.019 42.5456C99.9465 42.5676 99.8682 42.5637 99.7991 42.5346L99.7645 42.5175L96.9502 40.8958C96.653 40.7281 96.4119 40.4838 96.2537 40.1901C96.0955 39.8964 96.0262 39.5647 96.0537 39.2318C96.0811 38.8988 96.2041 38.5776 96.4091 38.3037C96.6141 38.0298 96.8931 37.8139 97.2151 37.6799Z" fill="#D35D6E"/>
</svg>
