<svg width="20" height="30" viewBox="0 0 20 30" fill="none" xmlns="http://www.w3.org/2000/svg">
<path d="M12.8571 0C14.7515 0 16.5684 0.790139 17.9079 2.1966C19.2475 3.60305 20 5.51062 20 7.49965V28.4987C20 28.7702 19.9299 29.0367 19.797 29.2696C19.6641 29.5026 19.4734 29.6933 19.2454 29.8214C19.0173 29.9495 18.7604 30.0102 18.5021 29.997C18.2438 29.9839 17.9937 29.8973 17.7786 29.7466L10 24.3019L2.22286 29.7466C2.01899 29.8899 1.78343 29.9756 1.53886 29.9955C1.29429 30.0154 1.04895 29.9689 0.826473 29.8604C0.603997 29.7519 0.41188 29.5851 0.268628 29.376C0.125375 29.1669 0.0358147 28.9226 0.00857149 28.6666L0 28.4987V7.49965C0 5.51062 0.752549 3.60305 2.09209 2.1966C3.43164 0.790139 5.24845 0 7.14286 0H12.8571Z" fill="#313366"/>
</svg>
