<svg width="50" height="60" viewBox="0 0 80 91" fill="none" xmlns="http://www.w3.org/2000/svg">
<path d="M79.8479 42.1659H79.4972C76.6397 40.0076 51.5525 21.0932 55.0685 25.2741C57.138 27.7349 56.5573 33.1832 55.631 37.5462C47.4864 31.4852 34.7984 22.2208 37.3663 25.2741C39.4357 27.7349 38.8543 33.1832 37.9287 37.5468C29.7849 31.4859 17.0954 22.2208 19.664 25.2741C21.7327 27.7349 21.1528 33.1832 20.2265 37.5462C12.0819 31.4852 -0.606855 22.2208 1.96102 25.2741C5.6895 29.7056 0.1528 42.1659 0.1528 42.1659C0.0596611 43.2263 0 44.2972 0 45.3819C0 66.3964 17.9082 83.4336 39.9996 83.4336C62.0911 83.4336 80 66.3971 80 45.3819C80.0007 44.2972 79.9418 43.2263 79.8479 42.1659Z" fill="currentColor" fill-opacity="0.5"/>
<path d="M79.8479 49.733H79.4972C76.6397 47.5747 51.5525 28.6603 55.0685 32.8412C57.138 35.3013 56.5573 40.7503 55.631 45.1133C47.4864 39.0517 34.7984 29.7872 37.3663 32.8412C39.4357 35.3013 38.8543 40.7503 37.9287 45.114C29.7849 39.0523 17.0954 29.7872 19.664 32.8412C21.7327 35.3013 21.1528 40.7503 20.2265 45.1133C12.0819 39.0517 -0.606855 29.7872 1.96102 32.8412C5.6895 37.2727 0.1528 49.733 0.1528 49.733C0.0596611 50.7928 0 51.8643 0 52.9483C0 73.9635 17.9082 91 39.9996 91C62.0911 91 80 73.9642 80 52.9483C80.0007 51.8643 79.9418 50.7928 79.8479 49.733Z" fill="currentColor"/>
<path d="M31.5694 62.6289C31.5694 65.3647 29.2839 67.584 26.4638 67.584C23.6449 67.584 21.3594 65.3658 21.3594 62.6289C21.3594 59.8932 23.6449 57.674 26.4638 57.674C29.2827 57.674 31.5694 59.892 31.5694 62.6289Z" fill="#F9F9F9"/>
<path d="M58.6424 62.6289C58.6424 65.3647 56.3566 67.584 53.5374 67.584C50.7181 67.584 48.4324 65.3658 48.4324 62.6289C48.4324 59.8932 50.7181 57.674 53.5374 57.674C56.3566 57.674 58.6424 59.892 58.6424 62.6289Z" fill="#F9F9F9"/>
<path d="M37.0002 76.7007C37.0002 76.7007 45.4308 81.2263 48.5371 72.4776" stroke="#F9F9F9" stroke-width="2.5" stroke-miterlimit="10"/>
<path d="M31.5712 21.4705C31.5712 22.2873 30.8755 22.9483 30.0177 22.9483C29.1605 22.9483 28.4648 22.2873 28.4648 21.4705C28.4648 20.6551 29.1605 19.9933 30.0177 19.9933C30.8755 19.9933 31.5712 20.6551 31.5712 21.4705Z" fill="currentColor" stroke="currentColor" stroke-width="1.8293" stroke-miterlimit="10"/>
<path d="M41.2497 17.0632C41.2497 18.287 40.207 19.279 38.9205 19.279C37.634 19.279 36.5913 18.2863 36.5913 17.0632C36.5913 15.8394 37.634 14.8475 38.9205 14.8475C40.207 14.8475 41.2497 15.8401 41.2497 17.0632Z" fill="currentColor" stroke="currentColor" stroke-width="1.8293" stroke-miterlimit="10"/>
<path d="M28.465 10.0748C28.465 10.8909 27.7701 11.5526 26.9122 11.5526C26.0543 11.5526 25.3594 10.8909 25.3594 10.0748C25.3594 9.25865 26.0543 8.5976 26.9122 8.5976C27.7694 8.5976 28.465 9.25865 28.465 10.0748Z" fill="currentColor" stroke="currentColor" stroke-width="1.8293" stroke-miterlimit="10"/>
<path d="M40.0004 4.24364C40.0004 6.03436 38.4738 7.4873 36.5914 7.4873C34.709 7.4873 33.1816 6.03436 33.1816 4.24364C33.1816 2.45222 34.709 1 36.5914 1C38.4738 0.999308 40.0004 2.45222 40.0004 4.24364Z" fill="currentColor" stroke="currentColor" stroke-width="1.8293" stroke-miterlimit="10"/>
<path d="M51.5372 15.1161C51.5372 16.353 50.4829 17.3553 49.1826 17.3553C47.8823 17.3553 46.8279 16.353 46.8279 15.1161C46.8279 13.8784 47.8823 12.8761 49.1826 12.8761C50.4829 12.8761 51.5372 13.8784 51.5372 15.1161Z" fill="currentColor" stroke="currentColor" stroke-width="1.8293" stroke-miterlimit="10"/>
</svg>
