<svg width="50" height="60" viewBox="0 0 80 91" fill="none" xmlns="http://www.w3.org/2000/svg" aria-label="love emoji">
<path d="M79.8479 39.1659H79.4972C76.6397 37.0076 51.5525 18.0932 55.0685 22.2741C57.138 24.7349 56.5573 30.1832 55.631 34.5462C47.4864 28.4852 34.7984 19.2208 37.3663 22.2741C39.4357 24.7349 38.8543 30.1832 37.9287 34.5468C29.7849 28.4859 17.0954 19.2208 19.664 22.2741C21.7327 24.7349 21.1528 30.1832 20.2265 34.5462C12.0819 28.4852 -0.606855 19.2208 1.96102 22.2741C5.6895 26.7056 0.1528 39.1659 0.1528 39.1659C0.0596611 40.2263 0 41.2972 0 42.3819C0 63.3964 17.9082 80.4336 39.9996 80.4336C62.0911 80.4336 80 63.3971 80 42.3819C80.0007 41.2972 79.9418 40.2263 79.8479 39.1659Z" fill="currentColor" fill-opacity="0.5"/>
<path d="M79.8479 46.733H79.4972C76.6397 44.5747 51.5525 25.6603 55.0685 29.8412C57.138 32.3013 56.5573 37.7503 55.631 42.1133C47.4864 36.0517 34.7984 26.7872 37.3663 29.8412C39.4357 32.3013 38.8543 37.7503 37.9287 42.114C29.7849 36.0523 17.0954 26.7872 19.664 29.8412C21.7327 32.3013 21.1528 37.7503 20.2265 42.1133C12.0819 36.0517 -0.606855 26.7872 1.96102 29.8412C5.6895 34.2727 0.1528 46.733 0.1528 46.733C0.0596611 47.7928 0 48.8643 0 49.9483C0 70.9635 17.9082 88 39.9996 88C62.0911 88 80 70.9642 80 49.9483C80.0007 48.8643 79.9418 47.7928 79.8479 46.733Z" fill="currentColor"/>
<path d="M37.0002 73.7007C37.0002 73.7007 45.4308 78.2263 48.5371 69.4776" stroke="var(--color-emoji-icon)" stroke-width="2.5" stroke-miterlimit="10"/>
<path d="M21.4927 53.0615C22.112 52.9527 22.747 52.9886 23.3511 53.1666C23.9551 53.3446 24.5127 53.6602 24.9827 54.09L25.0086 54.1139L25.0324 54.0922C25.4811 53.6861 26.0085 53.3833 26.5796 53.2041C27.1506 53.0248 27.7521 52.9733 28.344 53.0529L28.5162 53.0788C29.2622 53.2117 29.9596 53.5503 30.5344 54.0586C31.1092 54.567 31.54 55.2262 31.7812 55.9665C32.0224 56.7068 32.0651 57.5006 31.9047 58.2639C31.7442 59.0272 31.3867 59.7315 30.8699 60.3022L30.744 60.4358L30.7104 60.4654L25.4977 65.7912C25.3774 65.914 25.2181 65.9877 25.0491 65.9986C24.8802 66.0095 24.7132 65.9568 24.579 65.8504L24.5133 65.7912L19.2705 60.4343C18.7151 59.8769 18.3201 59.1717 18.1293 58.397C17.9385 57.6222 17.9592 56.8081 18.1893 56.0448C18.4194 55.2815 18.8498 54.5987 19.4328 54.0722C20.0159 53.5456 20.7288 53.1958 21.4927 53.0615Z" fill="var(--color-emoji-icon)"/>
<path d="M50.4927 52.0615C51.112 51.9527 51.747 51.9886 52.3511 52.1666C52.9551 52.3446 53.5127 52.6602 53.9827 53.09L54.0086 53.1139L54.0324 53.0922C54.4811 52.6861 55.0085 52.3833 55.5796 52.2041C56.1506 52.0248 56.7521 51.9733 57.344 52.0529L57.5162 52.0788C58.2622 52.2117 58.9596 52.5503 59.5344 53.0586C60.1092 53.567 60.54 54.2262 60.7812 54.9665C61.0224 55.7068 61.0651 56.5006 60.9047 57.2639C60.7442 58.0272 60.3867 58.7315 59.8699 59.3022L59.744 59.4358L59.7104 59.4654L54.4977 64.7912C54.3774 64.914 54.2181 64.9877 54.0491 64.9986C53.8802 65.0095 53.7132 64.9568 53.579 64.8504L53.5133 64.7912L48.2705 59.4343C47.7151 58.8769 47.3201 58.1717 47.1293 57.397C46.9385 56.6222 46.9592 55.8081 47.1893 55.0448C47.4194 54.2815 47.8498 53.5987 48.4328 53.0722C49.0159 52.5456 49.7288 52.1958 50.4927 52.0615Z" fill="var(--color-emoji-icon)"/>
<path d="M22.9958 9.03313C23.3497 8.97452 23.7126 8.99385 24.0577 9.0897C24.4029 9.18555 24.7215 9.35547 24.9901 9.58694L25.0049 9.59977L25.0185 9.58811C25.2749 9.36942 25.5763 9.20638 25.9026 9.10988C26.2289 9.01337 26.5727 8.98562 26.9109 9.02847L27.0092 9.04246C27.4356 9.11401 27.8341 9.2963 28.1625 9.57002C28.491 9.84375 28.7371 10.1987 28.875 10.5973C29.0128 10.996 29.0372 11.4234 28.9455 11.8344C28.8539 12.2454 28.6495 12.6246 28.3542 12.932L28.2823 13.0039L28.2631 13.0198L25.2844 15.8876C25.2157 15.9537 25.1246 15.9934 25.0281 15.9992C24.9316 16.0051 24.8361 15.9768 24.7594 15.9195L24.7219 15.8876L21.726 13.0031C21.4086 12.7029 21.1829 12.3232 21.0739 11.9061C20.9648 11.4889 20.9767 11.0505 21.1082 10.6395C21.2396 10.2285 21.4856 9.86085 21.8187 9.57733C22.1519 9.29381 22.5593 9.10545 22.9958 9.03313Z" fill="currentColor"/>
<path d="M34.4948 1.04259C34.9371 0.967241 35.3907 0.992098 35.8222 1.11533C36.2536 1.23857 36.6519 1.45704 36.9877 1.75464L37.0062 1.77113L37.0232 1.75614C37.3436 1.47497 37.7204 1.26535 38.1283 1.14127C38.5361 1.0172 38.9658 0.98151 39.3886 1.0366L39.5115 1.05459C40.0445 1.14658 40.5426 1.38096 40.9531 1.73289C41.3637 2.08482 41.6714 2.54121 41.8437 3.05373C42.016 3.56624 42.0465 4.11581 41.9319 4.64423C41.8173 5.17265 41.5619 5.66025 41.1928 6.05539L41.1028 6.14783L41.0788 6.16832L37.3555 9.85546C37.2696 9.94049 37.1558 9.99149 37.0351 9.99903C36.9144 10.0066 36.7951 9.97011 36.6993 9.89644L36.6523 9.85546L32.9075 6.14683C32.5108 5.76091 32.2287 5.27273 32.0923 4.73637C31.956 4.2 31.9709 3.63639 32.1352 3.10793C32.2995 2.57948 32.607 2.10681 33.0234 1.74228C33.4399 1.37775 33.9492 1.13558 34.4948 1.04259Z" fill="currentColor"/>
<path d="M39.4948 12.0426C39.9371 11.9672 40.3907 11.9921 40.8222 12.1153C41.2536 12.2386 41.6519 12.457 41.9877 12.7546L42.0062 12.7711L42.0232 12.7561C42.3436 12.475 42.7204 12.2653 43.1283 12.1413C43.5361 12.0172 43.9658 11.9815 44.3886 12.0366L44.5115 12.0546C45.0445 12.1466 45.5426 12.381 45.9531 12.7329C46.3637 13.0848 46.6714 13.5412 46.8437 14.0537C47.016 14.5662 47.0465 15.1158 46.9319 15.6442C46.8173 16.1726 46.5619 16.6602 46.1928 17.0554L46.1028 17.1478L46.0788 17.1683L42.3555 20.8555C42.2696 20.9405 42.1558 20.9915 42.0351 20.999C41.9144 21.0066 41.7951 20.9701 41.6993 20.8964L41.6523 20.8555L37.9075 17.1468C37.5108 16.7609 37.2287 16.2727 37.0923 15.7364C36.956 15.2 36.9709 14.6364 37.1352 14.1079C37.2995 13.5795 37.607 13.1068 38.0234 12.7423C38.4399 12.3778 38.9492 12.1356 39.4948 12.0426Z" fill="currentColor"/>
<path d="M25.4969 0.0236634C25.7623 -0.0181993 26.0344 -0.00438984 26.2933 0.0640738C26.5522 0.132537 26.7911 0.25391 26.9926 0.419244L27.0037 0.428405L27.0139 0.420077C27.2062 0.26387 27.4322 0.147416 27.677 0.0784846C27.9217 0.00955281 28.1795 -0.0102722 28.4332 0.0203322L28.5069 0.0303258C28.8267 0.0814346 29.1255 0.211642 29.3719 0.40716C29.6182 0.602678 29.8029 0.856227 29.9062 1.14096C30.0096 1.42569 30.0279 1.73101 29.9591 2.02457C29.8904 2.31814 29.7372 2.58903 29.5157 2.80855L29.4617 2.85991L29.4473 2.87129L27.2133 4.9197C27.1618 4.96694 27.0935 4.99527 27.0211 4.99946C26.9487 5.00365 26.8771 4.9834 26.8196 4.94247L26.7914 4.9197L24.5445 2.85935C24.3065 2.64495 24.1372 2.37374 24.0554 2.07576C23.9736 1.77778 23.9825 1.46466 24.0811 1.17107C24.1797 0.877488 24.3642 0.614896 24.6141 0.412379C24.8639 0.209862 25.1695 0.0753238 25.4969 0.0236634Z" fill="currentColor"/>
<path d="M48.7464 7.0284C49.056 6.97816 49.3735 6.99473 49.6755 7.07689C49.9775 7.15904 50.2563 7.30469 50.4914 7.50309L50.5043 7.51409L50.5162 7.50409C50.7405 7.31664 51.0043 7.1769 51.2898 7.09418C51.5753 7.01146 51.8761 6.98767 52.172 7.0244L52.2581 7.03639C52.6311 7.09772 52.9798 7.25397 53.2672 7.48859C53.5546 7.72321 53.77 8.02747 53.8906 8.36915C54.0112 8.71083 54.0326 9.07721 53.9523 9.42949C53.8721 9.78176 53.6934 10.1068 53.435 10.3703L53.372 10.4319L53.3552 10.4455L50.7489 12.9036C50.6887 12.9603 50.609 12.9943 50.5246 12.9994C50.4401 13.0044 50.3566 12.9801 50.2895 12.931L50.2566 12.9036L47.6353 10.4312C47.3576 10.1739 47.1601 9.84849 47.0646 9.49091C46.9692 9.13334 46.9796 8.75759 47.0946 8.40529C47.2097 8.05299 47.4249 7.73788 47.7164 7.49486C48.0079 7.25183 48.3644 7.09039 48.7464 7.0284Z" fill="currentColor"/>
</svg>
