<svg width="50" height="60" viewBox="0 0 80 91" fill="none" xmlns="http://www.w3.org/2000/svg">
<path d="M79.8465 39.2933H75.4311C75.2987 39.2357 75.1706 39.1795 75.0535 39.1277C72.7076 38.0836 70.0771 37.2707 68.039 35.673C65.8008 33.9176 62.8727 30.663 63.6178 27.4539C63.9278 26.1182 64.7362 25.0742 66.0511 24.869C66.6288 24.7782 67.2786 24.8834 67.7727 25.1577C68.1984 25.3939 68.592 26.0016 69.0941 25.9972C69.1552 24.6753 67.6388 24.064 66.69 23.6557C65.2725 23.0459 63.6753 23.2201 62.3408 24.0949C60.7393 25.144 59.2534 27.1097 58.5353 28.9875C57.8862 30.6818 58.0943 32.3234 58.095 34.0738C58.095 35.6053 57.7814 37.5026 56.5553 38.4977C54.6329 37.7114 52.6472 36.9381 51.034 35.6723C48.7958 33.9168 45.8677 30.6623 46.6121 27.4531C46.9221 26.1175 47.7298 25.0734 49.0446 24.8682C49.6224 24.7775 50.2721 24.8826 50.7669 25.157C51.1919 25.3931 51.5863 26.0008 52.0884 25.9965C52.1495 24.6745 50.6331 24.0632 49.6842 23.655C48.2668 23.0451 46.6703 23.2194 45.3351 24.0942C43.7336 25.1433 42.2484 27.109 41.5295 28.9868C40.8805 30.681 41.0893 32.3227 41.0893 34.0731C41.0893 35.6046 40.7757 37.5019 39.5489 38.4969C37.6264 37.7107 35.6407 36.9374 34.0268 35.6716C31.7893 33.9161 28.8605 30.6616 29.6056 27.4524C29.9156 26.1168 30.7233 25.0727 32.0381 24.8675C32.6166 24.7768 33.2664 24.8819 33.7605 25.1563C34.1869 25.3924 34.5798 26.0001 35.0819 25.9958C35.143 24.6738 33.6266 24.0625 32.6777 23.6543C31.2603 23.0444 29.6638 23.2187 28.3293 24.0935C26.7278 25.1426 25.2427 27.1083 24.5238 28.9861C23.8747 30.6803 24.0835 32.322 24.0835 34.0724C24.0835 35.6039 23.7699 37.5011 22.5431 38.4962C20.6207 37.71 18.635 36.9366 17.021 35.6708C14.7828 33.9154 11.8548 30.6609 12.5999 27.4517C12.9099 26.1161 13.7183 25.072 15.0324 24.8668C15.6101 24.7761 16.2606 24.8812 16.7547 25.1555C17.1797 25.3917 17.574 25.9994 18.0761 25.9951C18.1372 24.6731 16.6208 24.0618 15.672 23.6536C14.2545 23.0437 12.6581 23.2179 11.3236 24.0928C9.72205 25.1419 8.2362 27.1075 7.51729 28.9854C6.86823 30.6796 7.07707 32.3213 7.07707 34.0717C7.07707 35.6132 6.76126 37.5278 5.51408 38.5171C5.08623 38.857 4.53613 39.1097 3.94165 39.2904H0.234306C0.157903 39.2616 0.0727643 39.2422 0 39.2098C0.0189187 39.2523 0.0494883 39.3963 0.0451224 39.2933L0.150623 39.3257C0.0589396 40.418 0.000732795 41.5196 0.000732795 42.6357C0.000732795 64.495 17.9095 82.2164 40.0007 82.2164C62.092 82.2164 80 64.495 80 42.6357C79.9985 41.5103 79.9396 40.3971 79.8465 39.2933Z" fill="currentColor" fill-opacity="0.5"/>
<path d="M79.8465 48.074H75.4311C75.2987 48.0164 75.1706 47.9603 75.0535 47.9084C72.7076 46.8637 70.0771 46.0515 68.039 44.4537C65.8008 42.6983 62.8727 39.4438 63.6178 36.2346C63.9278 34.8997 64.7362 33.8549 66.0511 33.6497C66.6288 33.5597 67.2786 33.6641 67.7727 33.9384C68.1984 34.1746 68.592 34.783 69.0941 34.7787C69.1552 33.456 67.6388 32.8454 66.69 32.4372C65.2725 31.8273 63.6753 32.0016 62.3408 32.8764C60.7393 33.9255 59.2534 35.8919 58.5353 37.769C57.8862 39.4632 58.0943 41.1056 58.095 42.8553C58.095 44.3868 57.7814 46.284 56.5553 47.2791C54.6329 46.4929 52.6472 45.7195 51.034 44.4537C48.7958 42.6983 45.8677 39.4438 46.6121 36.2346C46.9221 34.8997 47.7298 33.8549 49.0446 33.6497C49.6224 33.5597 50.2721 33.6641 50.7669 33.9384C51.1919 34.1746 51.5863 34.783 52.0884 34.7787C52.1495 33.456 50.6331 32.8454 49.6842 32.4372C48.2668 31.8273 46.6703 32.0016 45.3351 32.8764C43.7336 33.9255 42.2484 35.8919 41.5295 37.769C40.8805 39.4632 41.0893 41.1056 41.0893 42.8553C41.0893 44.3868 40.7757 46.284 39.5489 47.2791C37.6264 46.4929 35.6407 45.7195 34.0268 44.4537C31.7893 42.6983 28.8605 39.4438 29.6056 36.2346C29.9156 34.8997 30.7233 33.8549 32.0381 33.6497C32.6166 33.5597 33.2664 33.6641 33.7605 33.9384C34.1869 34.1746 34.5798 34.783 35.0819 34.7787C35.143 33.456 33.6266 32.8454 32.6777 32.4372C31.2603 31.8273 29.6638 32.0016 28.3293 32.8764C26.7278 33.9255 25.2427 35.8919 24.5238 37.769C23.8747 39.4632 24.0835 41.1056 24.0835 42.8553C24.0835 44.3868 23.7699 46.284 22.5431 47.2791C20.6207 46.4929 18.635 45.7195 17.021 44.4537C14.7828 42.6983 11.8548 39.4438 12.5999 36.2346C12.9099 34.8997 13.7183 33.8549 15.0324 33.6497C15.6101 33.5597 16.2606 33.6641 16.7547 33.9384C17.1797 34.1746 17.574 34.783 18.0761 34.7787C18.1372 33.456 16.6208 32.8454 15.672 32.4372C14.2545 31.8273 12.6581 32.0016 11.3236 32.8764C9.72205 33.9255 8.2362 35.8919 7.51729 37.769C6.86823 39.4632 7.07707 41.1056 7.07707 42.8553C7.07707 44.3969 6.76126 46.3121 5.51408 47.3007C5.08623 47.6406 4.53613 47.894 3.94165 48.074H0.234306C0.157903 48.0452 0.0727643 48.0265 0 47.9934C0.0189187 48.0359 0.0494883 48.1806 0.0451224 48.0769L0.150623 48.1093C0.0589396 49.2023 0.000732795 50.3032 0.000732795 51.4193C0.000732795 73.2794 17.9095 91 40.0007 91C62.092 91 80 73.2794 80 51.4193C79.9985 50.291 79.9396 49.1778 79.8465 48.074Z" fill="currentColor"/>
<path d="M32.1209 65.4239C32.1209 68.2262 29.8354 70.4995 27.0153 70.4995C24.1964 70.4995 21.9109 68.2274 21.9109 65.4239C21.9109 62.6215 24.1964 60.3495 27.0153 60.3495C29.8354 60.3495 32.1209 62.6215 32.1209 65.4239Z" fill="#F9F9F9"/>
<path d="M59.1939 65.4239C59.1939 68.2262 56.9081 70.4995 54.0889 70.4995C51.2685 70.4995 48.9839 68.2274 48.9839 65.4239C48.9839 62.6215 51.2697 60.3495 54.0889 60.3495C56.9081 60.3495 59.1939 62.6215 59.1939 65.4239Z" fill="#F9F9F9"/>
<path d="M47.8386 80.7355C47.8386 80.7355 49.0936 70.7354 39.6393 71.5485C39.6393 71.5485 32.8872 70.6086 32.6415 81.2009" stroke="#F9F9F9" stroke-width="1.8293" stroke-miterlimit="10"/>
<path d="M44.8563 15.5014C44.8563 16.9508 43.6695 18.1259 42.204 18.1259C40.7393 18.1259 39.5525 16.9515 39.5525 15.5014C39.5525 14.052 40.7393 12.8776 42.204 12.8776C43.6695 12.8776 44.8563 14.052 44.8563 15.5014Z" fill="currentColor" stroke="currentColor" stroke-width="1.8293" stroke-miterlimit="10"/>
<path d="M30.4367 16.8133C30.4367 17.5376 29.8429 18.1252 29.1109 18.1252C28.3789 18.1252 27.7852 17.5376 27.7852 16.8133C27.7852 16.0889 28.3789 15.5014 29.1109 15.5014C29.8429 15.5014 30.4367 16.0889 30.4367 16.8133Z" fill="currentColor" stroke="currentColor" stroke-width="1.8293" stroke-miterlimit="10"/>
<path d="M56.6972 12.4204C56.6972 13.2657 56.0045 13.9512 55.151 13.9512C54.2975 13.9512 53.604 13.2657 53.604 12.4204C53.604 11.5751 54.2967 10.8903 55.151 10.8903C56.0052 10.8903 56.6972 11.5751 56.6972 12.4204Z" fill="currentColor" stroke="currentColor" stroke-width="1.8293" stroke-miterlimit="10"/>
<path d="M47.4881 3.18601C47.4881 4.3935 46.4992 5.37274 45.2782 5.37274C44.058 5.37274 43.0691 4.39422 43.0691 3.18601C43.0691 1.97924 44.058 1 45.2782 1C46.4985 1 47.4881 1.97924 47.4881 3.18601Z" fill="currentColor" stroke="currentColor" stroke-width="1.8293" stroke-miterlimit="10"/>
<path d="M33.5182 7.19945C33.5182 8.20821 32.6916 9.02689 31.6715 9.02689C30.652 9.02689 29.8254 8.20893 29.8254 7.19945C29.8254 6.19069 30.652 5.37274 31.6715 5.37274C32.6916 5.37274 33.5182 6.19069 33.5182 7.19945Z" fill="currentColor" stroke="currentColor" stroke-width="1.8293" stroke-miterlimit="10"/>
</svg>
