<svg width="50" height="60" viewBox="0 0 80 91" fill="none" xmlns="http://www.w3.org/2000/svg">
<path d="M72.6715 40L72.5663 38.0516C72.3807 34.6422 75.6513 31.7378 80 31.2961C79.3 29.2083 77.2721 27.4264 74.3932 26.6965C69.8942 25.5563 65.036 27.415 63.5422 30.8465L59.5569 40H53.4999L53.3947 38.0516C53.2099 34.6422 56.479 31.7378 60.8277 31.2961C60.1284 29.2083 58.1005 27.4264 55.2209 26.6965C50.7225 25.5563 45.8644 27.415 44.3706 30.8465L40.3846 40H34.3276L34.2217 38.0516C34.0376 34.6422 37.3074 31.7378 41.6554 31.2961C40.9554 29.2083 38.9282 27.4264 36.0486 26.6965C31.5502 25.5563 26.6914 27.415 25.1976 30.8465L21.213 40H15.1552L15.0494 38.0516C14.8652 34.6422 18.1344 31.7378 22.4831 31.2961C21.7831 29.2083 19.7559 27.4264 16.8762 26.6965C12.3779 25.5563 7.51976 27.415 6.02597 30.8465L2.04064 40H0.148195C0.0578761 41.0898 0 42.1902 0 43.3042C0 64.9004 17.3659 82.4079 38.7885 82.4079C60.211 82.4079 77.5776 64.9004 77.5776 43.3042C77.5776 42.1902 77.5205 41.0898 77.4294 40H72.6715Z" fill="currentColor" fill-opacity="0.5"/>
<path d="M72.6715 47.5921L72.5663 45.6431C72.3807 42.2343 75.6513 39.3299 80 38.8875C79.3 36.7997 77.2721 35.0171 74.3932 34.288C69.8942 33.1477 65.036 35.0064 63.5422 38.4379L59.5569 47.5921H53.4999L53.3947 45.6431C53.2099 42.2343 56.479 39.3299 60.8277 38.8875C60.1284 36.7997 58.1005 35.0171 55.2209 34.288C50.7225 33.1477 45.8644 35.0064 44.3706 38.4379L40.3846 47.5921H34.3276L34.2217 45.6431C34.0376 42.2343 37.3074 39.3299 41.6554 38.8875C40.9554 36.7997 38.9282 35.0171 36.0486 34.288C31.5502 33.1477 26.6914 35.0064 25.1976 38.4379L21.213 47.5921H15.1552L15.0494 45.6431C14.8652 42.2343 18.1344 39.3299 22.4831 38.8875C21.7831 36.7997 19.7559 35.0171 16.8762 34.288C12.3779 33.1477 7.51976 35.0064 6.02597 38.4379L2.04064 47.5921H0.148195C0.0578761 48.6819 0 49.7823 0 50.8963C0 72.4925 17.3659 90 38.7885 90C60.211 90 77.5776 72.4933 77.5776 50.8963C77.5776 49.7823 77.5205 48.6819 77.4294 47.5921H72.6715Z" fill="currentColor"/>
<path d="M33.6101 67.198C33.6101 70.5305 30.9194 73.2338 27.5994 73.2338C24.2808 73.2338 21.5901 70.5319 21.5901 67.198C21.5901 63.8656 24.2808 61.1638 27.5994 61.1638C30.918 61.1623 33.6101 63.8642 33.6101 67.198Z" fill="var(--color-emoji-icon)"/>
<path d="M55.9846 67.198C55.9846 70.5305 53.2936 73.2338 49.9746 73.2338C46.6556 73.2338 43.9646 70.5319 43.9646 67.198C43.9646 63.8656 46.6556 61.1638 49.9746 61.1638C53.2936 61.1638 55.9846 63.8642 55.9846 67.198Z" fill="var(--color-emoji-icon)"/>
<path d="M44 77.4995C44 79.9843 41.9851 82 39.5 82C37.0149 82 35 79.9853 35 77.4995C35 75.0146 37.0149 73 39.5 73C41.9851 73 44 75.0136 44 77.4995Z" fill="var(--color-emoji-icon)"/>
<path d="M15 60.2632C17.3002 65.2115 23.144 67.3732 28.0525 65.0915C32.961 62.8097 35.0763 56.9484 32.7761 52L15 60.2632Z" fill="currentColor"/>
<path d="M44.313 51.4616C42.6575 58.2427 46.7684 65.0709 53.4949 66.713C60.2214 68.3551 67.0174 64.1896 68.6728 57.4085L44.313 51.4616Z" fill="currentColor"/>
<path d="M31.9101 19.0881C31.9101 20.2881 30.9455 21.2598 29.7558 21.2598C28.5661 21.2598 27.6016 20.2881 27.6016 19.0881C27.6016 17.8888 28.5661 16.9164 29.7558 16.9164C30.9455 16.9164 31.9101 17.8888 31.9101 19.0881Z" fill="currentColor" stroke="currentColor" stroke-width="1.8293" stroke-miterlimit="10"/>
<path d="M28.3085 10.1717C28.3085 11.3717 27.3439 12.3434 26.1543 12.3434C24.9646 12.3434 24 11.3717 24 10.1717C24 8.9724 24.9646 8 26.1543 8C27.3439 8 28.3085 8.9724 28.3085 10.1717Z" fill="currentColor" stroke="currentColor" stroke-width="1.8293" stroke-miterlimit="10"/>
<path d="M37.4359 4.24441C37.4359 6.03628 35.9951 7.48883 34.2176 7.48883C32.4416 7.48883 31 6.03628 31 4.24441C31 2.45255 32.4416 1 34.2176 1C35.9944 1 37.4359 2.45255 37.4359 4.24441Z" fill="currentColor" stroke="currentColor" stroke-width="1.8293" stroke-miterlimit="10"/>
<path d="M37.1514 15.332L43.0338 16.514L35.5753 23.1752L41.4577 24.3572" stroke="currentColor" stroke-width="2" stroke-linecap="round" stroke-linejoin="round"/>
<path d="M48.8601 9.63202L56.8225 10.4073L47.891 19.585L55.8534 20.3602" stroke="currentColor" stroke-width="2" stroke-linecap="round" stroke-linejoin="round"/>
<path d="M62.7495 4.70251L72.6777 5.8987L61.3141 16.6164L71.2423 17.8125" stroke="currentColor" stroke-width="2" stroke-linecap="round" stroke-linejoin="round"/>
</svg>
